<svg width="64" height="64" fill="none" xmlns="http://www.w3.org/2000/svg"><path d="M60.96 7.36c-2.32 2.336-4.688 4.584-6.888 6.976a139.662 139.662 0 00-17.448 23.48c-2.992 5.048-5.792 10.224-8.672 15.344-.288.504-.504 1.048-.8 1.552-1.112 1.888-3.12 2.456-5.056 1.392a6.32 6.32 0 01-1.272-.944c-1.168-1.072-2.296-2.176-3.448-3.264-2.496-2.36-5.024-4.696-7.496-7.096a160.721 160.721 0 01-5.896-6.016c-.48-.52-.768-1.32-.904-2.04-.168-.912.296-1.464 1.208-1.304 1.256.224 2.536.576 3.68 1.128 4.096 1.984 8.144 4.072 12.2 6.136 1.136.576 1.12.584 1.848-.376 1.424-1.864 2.816-3.768 4.32-5.576 2.168-2.6 4.344-5.192 6.648-7.672a109.272 109.272 0 0111.624-10.816C49.72 14.16 55.088 10.4 60.96 7.36z" fill="url(#paint0_linear_29_4)"/><defs><linearGradient id="paint0_linear_29_4" x1="3.046" y1="31.998" x2="60.96" y2="31.998" gradientUnits="userSpaceOnUse"><stop stop-color="#0A8879"/><stop offset="1" stop-color="#09AA4C"/></linearGradient></defs></svg>