<svg width="277" height="180" fill="none" xmlns="http://www.w3.org/2000/svg"><path d="M27 70.525v80.8c0 12.213 49.833 22.117 111.268 22.117 61.436 0 111.268-9.904 111.268-22.117v-80.8H27z" fill="url(#paint0_linear_39_1178)"/><path d="M138.268 91.6c61.452 0 111.268-9.669 111.268-21.596S199.72 48.408 138.268 48.408C76.817 48.408 27 58.077 27 70.004S76.817 91.6 138.268 91.6z" fill="#F6F7F7"/><path d="M247.975 69.334c0 10.649-49.089 19.213-109.632 19.213-60.543 0-109.707-8.564-109.707-19.213 0-10.65 49.09-22.192 109.632-22.192 60.543 0 109.707 11.617 109.707 22.192z" fill="#BD5143"/><path d="M137.896 88.1c51.594 0 93.418-8.669 93.418-19.362 0-10.694-41.824-19.362-93.418-19.362-51.593 0-93.417 8.668-93.417 19.362 0 10.693 41.824 19.362 93.417 19.362z" fill="#BF6C66"/><path d="M44.479 21.3v46.47c0 8.117 41.8 14.67 93.417 14.67 51.618 0 93.418-6.553 93.418-14.67V21.3H44.479z" fill="url(#paint1_linear_39_1178)"/><path d="M137.896 35.971c51.594 0 93.418-6.568 93.418-14.67 0-8.103-41.824-14.671-93.418-14.671-51.593 0-93.417 6.568-93.417 14.67 0 8.103 41.824 14.671 93.417 14.671z" fill="#F6F7F7"/><g filter="url(#filter0_d_39_1178)"><path d="M90 57a8 8 0 018-8h80a8 8 0 018 8v80a8 8 0 01-8 8H98a8 8 0 01-8-8V57z" fill="url(#paint2_linear_39_1178)" shape-rendering="crispEdges"/><path d="M98 49.5h80a7.5 7.5 0 017.5 7.5v80a7.5 7.5 0 01-7.5 7.5H98a7.5 7.5 0 01-7.5-7.5V57a7.5 7.5 0 017.5-7.5z" stroke="#fff" stroke-opacity=".3" shape-rendering="crispEdges"/><g filter="url(#filter1_d_39_1178)" fill="#fff"><path d="M138.563 113.287h-8.925l-4.13-5.849-4.131 5.849H112.5l8.593-12.126-8.261-11.65h8.878l3.798 5.373 3.797-5.374h8.925l-8.26 11.651 8.593 12.126z"/><path d="M152.866 90.604c3.228.412 5.808 1.68 7.738 3.804 1.931 2.093 2.896 4.708 2.896 7.847 0 3.455-1.155 6.276-3.466 8.464-2.31 2.187-5.348 3.281-9.114 3.281-3.767 0-6.805-1.094-9.115-3.281-2.31-2.188-3.466-5.009-3.466-8.464 0-2.6.697-4.898 2.089-6.896L150.255 80h9.637l-7.026 10.604zm-1.946 15.597c1.171 0 2.136-.348 2.896-1.046.791-.697 1.186-1.664 1.186-2.9 0-1.269-.379-2.251-1.139-2.949-.76-.697-1.741-1.046-2.943-1.046-1.203 0-2.184.349-2.944 1.046-.759.698-1.139 1.68-1.139 2.949 0 1.268.38 2.25 1.139 2.948.76.666 1.741.998 2.944.998z"/></g></g><defs><linearGradient id="paint0_linear_39_1178" x1="26.983" y1="121.968" x2="249.576" y2="121.968" gradientUnits="userSpaceOnUse"><stop stop-color="#BFBEBF"/><stop offset=".129" stop-color="#D0D1D2"/><stop offset=".489" stop-color="#F3F3F3"/><stop offset=".86" stop-color="#E0E1E0"/><stop offset="1" stop-color="#CBCBCB"/></linearGradient><linearGradient id="paint1_linear_39_1178" x1="44.485" y1="51.87" x2="231.345" y2="51.87" gradientUnits="userSpaceOnUse"><stop stop-color="#BFBEBF"/><stop offset=".129" stop-color="#D0D1D2"/><stop offset=".489" stop-color="#F3F3F3"/><stop offset=".899" stop-color="#E0E1E0"/><stop offset="1" stop-color="#CBCBCB"/></linearGradient><linearGradient id="paint2_linear_39_1178" x1="90" y1="97" x2="186" y2="97" gradientUnits="userSpaceOnUse"><stop stop-color="#0A8879"/><stop offset="1" stop-color="#09AA4C"/></linearGradient><filter id="filter0_d_39_1178" x="66" y="33" width="144" height="144" filterUnits="userSpaceOnUse" color-interpolation-filters="sRGB"><feFlood flood-opacity="0" result="BackgroundImageFix"/><feColorMatrix in="SourceAlpha" values="0 0 0 0 0 0 0 0 0 0 0 0 0 0 0 0 0 0 127 0" result="hardAlpha"/><feOffset dy="8"/><feGaussianBlur stdDeviation="12"/><feComposite in2="hardAlpha" operator="out"/><feColorMatrix values="0 0 0 0 0.0392157 0 0 0 0 0.533333 0 0 0 0 0.47451 0 0 0 0.45 0"/><feBlend in2="BackgroundImageFix" result="effect1_dropShadow_39_1178"/><feBlend in="SourceGraphic" in2="effect1_dropShadow_39_1178" result="shape"/></filter><filter id="filter1_d_39_1178" x="108.5" y="80" width="59" height="42" filterUnits="userSpaceOnUse" color-interpolation-filters="sRGB"><feFlood flood-opacity="0" result="BackgroundImageFix"/><feColorMatrix in="SourceAlpha" values="0 0 0 0 0 0 0 0 0 0 0 0 0 0 0 0 0 0 127 0" result="hardAlpha"/><feOffset dy="4"/><feGaussianBlur stdDeviation="2"/><feComposite in2="hardAlpha" operator="out"/><feColorMatrix values="0 0 0 0 0 0 0 0 0 0 0 0 0 0 0 0 0 0 0.15 0"/><feBlend in2="BackgroundImageFix" result="effect1_dropShadow_39_1178"/><feBlend in="SourceGraphic" in2="effect1_dropShadow_39_1178" result="shape"/></filter></defs></svg>