<svg width="223" height="168" fill="none" xmlns="http://www.w3.org/2000/svg"><path d="M-.007 64.525v80.8c0 12.213 49.833 22.117 111.268 22.117 61.436 0 111.269-9.904 111.269-22.117v-80.8H-.007z" fill="url(#paint0_linear_39_1171)"/><path d="M111.261 85.6c61.452 0 111.269-9.669 111.269-21.596s-49.817-21.596-111.269-21.596C49.81 42.408-.007 52.077-.007 64.004S49.81 85.6 111.261 85.6z" fill="#F6F7F7"/><path d="M220.968 63.334c0 10.649-49.089 19.213-109.632 19.213-60.543 0-109.707-8.564-109.707-19.213 0-10.65 49.09-22.192 109.632-22.192 60.543 0 109.707 11.617 109.707 22.192z" fill="#BD5143"/><path d="M110.889 82.1c51.594 0 93.418-8.669 93.418-19.362 0-10.694-41.824-19.362-93.418-19.362-51.593 0-93.417 8.668-93.417 19.362 0 10.693 41.824 19.362 93.417 19.362z" fill="#BF6C66"/><path d="M17.472 15.3v46.47c0 8.117 41.8 14.67 93.417 14.67 51.618 0 93.418-6.553 93.418-14.67V15.3H17.472z" fill="url(#paint1_linear_39_1171)"/><path d="M110.889 29.971c51.594 0 93.418-6.568 93.418-14.67 0-8.103-41.824-14.671-93.418-14.671-51.593 0-93.417 6.568-93.417 14.67 0 8.103 41.824 14.671 93.417 14.671z" fill="#F6F7F7"/><defs><linearGradient id="paint0_linear_39_1171" x1="-.024" y1="115.968" x2="222.569" y2="115.968" gradientUnits="userSpaceOnUse"><stop stop-color="#BFBEBF"/><stop offset=".129" stop-color="#D0D1D2"/><stop offset=".489" stop-color="#F3F3F3"/><stop offset=".86" stop-color="#E0E1E0"/><stop offset="1" stop-color="#CBCBCB"/></linearGradient><linearGradient id="paint1_linear_39_1171" x1="17.478" y1="45.87" x2="204.338" y2="45.87" gradientUnits="userSpaceOnUse"><stop stop-color="#BFBEBF"/><stop offset=".129" stop-color="#D0D1D2"/><stop offset=".489" stop-color="#F3F3F3"/><stop offset=".899" stop-color="#E0E1E0"/><stop offset="1" stop-color="#CBCBCB"/></linearGradient></defs></svg>