<svg width="277" height="180" fill="none" xmlns="http://www.w3.org/2000/svg"><path d="M26.993 70.525v80.8c0 12.213 49.833 22.117 111.268 22.117 61.436 0 111.269-9.904 111.269-22.117v-80.8H26.993z" fill="url(#paint0_linear_124_3)"/><path d="M138.261 91.6c61.452 0 111.269-9.669 111.269-21.596s-49.817-21.596-111.269-21.596c-61.451 0-111.268 9.669-111.268 21.596S76.81 91.6 138.261 91.6z" fill="#F6F7F7"/><path d="M247.968 69.334c0 10.649-49.089 19.213-109.632 19.213-60.543 0-109.707-8.564-109.707-19.213 0-10.65 49.09-22.192 109.632-22.192 60.543 0 109.707 11.617 109.707 22.192z" fill="#BD5143"/><path d="M137.889 88.1c51.594 0 93.418-8.669 93.418-19.362 0-10.694-41.824-19.362-93.418-19.362-51.593 0-93.417 8.668-93.417 19.362 0 10.693 41.824 19.362 93.417 19.362z" fill="#BF6C66"/><path d="M44.472 21.3v46.47c0 8.117 41.8 14.67 93.417 14.67 51.618 0 93.418-6.553 93.418-14.67V21.3H44.472z" fill="url(#paint1_linear_124_3)"/><path d="M137.889 35.971c51.594 0 93.418-6.568 93.418-14.67 0-8.103-41.824-14.671-93.418-14.671-51.593 0-93.417 6.568-93.417 14.67 0 8.103 41.824 14.671 93.417 14.671z" fill="#F6F7F7"/><g filter="url(#filter0_d_124_3)"><path d="M90 57a8 8 0 018-8h80a8 8 0 018 8v80a8 8 0 01-8 8H98a8 8 0 01-8-8V57z" fill="url(#paint2_linear_124_3)" shape-rendering="crispEdges"/><path d="M98 49.5h80a7.5 7.5 0 017.5 7.5v80a7.5 7.5 0 01-7.5 7.5H98a7.5 7.5 0 01-7.5-7.5V57a7.5 7.5 0 017.5-7.5z" stroke="#fff" stroke-opacity=".3" shape-rendering="crispEdges"/><g filter="url(#filter1_d_124_3)" fill="#fff"><path d="M138.87 113.287h-8.859l-4.099-5.849-4.1 5.849H113l8.529-12.126-8.199-11.65h8.812l3.77 5.373 3.769-5.374h8.859l-8.199 11.651 8.529 12.126zm17.109-19.735c2.105.666 3.801 1.807 5.089 3.424 1.288 1.617 1.932 3.567 1.932 5.849 0 3.582-1.162 6.341-3.487 8.274-2.325 1.934-5.199 2.901-8.624 2.901-2.733 0-5.167-.634-7.304-1.902-2.104-1.268-3.628-3.139-4.57-5.611l7.351-4.232c.691 2.314 2.199 3.471 4.523 3.471 1.194 0 2.105-.285 2.734-.856.659-.571.989-1.332.989-2.283 0-.951-.33-1.696-.989-2.235-.629-.57-1.54-.856-2.734-.856h-1.79l-3.252-4.85 5.278-6.514h-11.074V80h21.441v6.705l-5.513 6.847z"/></g></g><defs><linearGradient id="paint0_linear_124_3" x1="26.976" y1="121.968" x2="249.569" y2="121.968" gradientUnits="userSpaceOnUse"><stop stop-color="#BFBEBF"/><stop offset=".129" stop-color="#D0D1D2"/><stop offset=".489" stop-color="#F3F3F3"/><stop offset=".86" stop-color="#E0E1E0"/><stop offset="1" stop-color="#CBCBCB"/></linearGradient><linearGradient id="paint1_linear_124_3" x1="44.478" y1="51.87" x2="231.338" y2="51.87" gradientUnits="userSpaceOnUse"><stop stop-color="#BFBEBF"/><stop offset=".129" stop-color="#D0D1D2"/><stop offset=".489" stop-color="#F3F3F3"/><stop offset=".899" stop-color="#E0E1E0"/><stop offset="1" stop-color="#CBCBCB"/></linearGradient><linearGradient id="paint2_linear_124_3" x1="90" y1="97" x2="186" y2="97" gradientUnits="userSpaceOnUse"><stop stop-color="#0A8879"/><stop offset="1" stop-color="#09AA4C"/></linearGradient><filter id="filter0_d_124_3" x="66" y="33" width="144" height="144" filterUnits="userSpaceOnUse" color-interpolation-filters="sRGB"><feFlood flood-opacity="0" result="BackgroundImageFix"/><feColorMatrix in="SourceAlpha" values="0 0 0 0 0 0 0 0 0 0 0 0 0 0 0 0 0 0 127 0" result="hardAlpha"/><feOffset dy="8"/><feGaussianBlur stdDeviation="12"/><feComposite in2="hardAlpha" operator="out"/><feColorMatrix values="0 0 0 0 0.0392157 0 0 0 0 0.533333 0 0 0 0 0.47451 0 0 0 0.45 0"/><feBlend in2="BackgroundImageFix" result="effect1_dropShadow_124_3"/><feBlend in="SourceGraphic" in2="effect1_dropShadow_124_3" result="shape"/></filter><filter id="filter1_d_124_3" x="109" y="80" width="58" height="42" filterUnits="userSpaceOnUse" color-interpolation-filters="sRGB"><feFlood flood-opacity="0" result="BackgroundImageFix"/><feColorMatrix in="SourceAlpha" values="0 0 0 0 0 0 0 0 0 0 0 0 0 0 0 0 0 0 127 0" result="hardAlpha"/><feOffset dy="4"/><feGaussianBlur stdDeviation="2"/><feComposite in2="hardAlpha" operator="out"/><feColorMatrix values="0 0 0 0 0 0 0 0 0 0 0 0 0 0 0 0 0 0 0.15 0"/><feBlend in2="BackgroundImageFix" result="effect1_dropShadow_124_3"/><feBlend in="SourceGraphic" in2="effect1_dropShadow_124_3" result="shape"/></filter></defs></svg>