<svg width="32" height="32" fill="none" xmlns="http://www.w3.org/2000/svg"><path d="M7.765 4.843L16 13.077l8.192-8.192a1.964 1.964 0 011.408-.618A2.133 2.133 0 0127.733 6.4a1.922 1.922 0 01-.576 1.408L18.86 16l8.298 8.299c.352.344.558.81.576 1.301a2.133 2.133 0 01-2.133 2.133 1.963 1.963 0 01-1.472-.576L16 18.923l-8.213 8.213a1.962 1.962 0 01-1.387.597A2.133 2.133 0 014.267 25.6a1.92 1.92 0 01.576-1.408L13.14 16 4.843 7.701A1.92 1.92 0 014.267 6.4 2.133 2.133 0 016.4 4.267a1.967 1.967 0 011.365.576z" fill="#fff"/></svg>