<svg width="40" height="40" fill="none" xmlns="http://www.w3.org/2000/svg"><path fill-rule="evenodd" clip-rule="evenodd" d="M34.898 6.268a.833.833 0 01-.333 1.13l-4.583 2.5a.833.833 0 01-1.232-.731V8.07L25.4 9.898a.834.834 0 01-.8-1.463l4.584-2.5a.833.833 0 011.233.732v1.096l3.35-1.828a.833.833 0 011.131.333zm-9.818 21.71a.833.833 0 011.11-.398l4.455 2.105a.832.832 0 01.133 1.43l-1.102.796 3.18 1.502a.834.834 0 01-.712 1.507l-4.456-2.105a.834.834 0 01-.132-1.43l1.101-.796-3.18-1.502a.833.833 0 01-.397-1.11zm6.184-10.299a.834.834 0 01.301.817l-.344 1.732 2.597-1.195a.834.834 0 01.697 1.514l-4.082 1.878a.833.833 0 01-1.166-.92l.345-1.732-2.599 1.193a.833.833 0 01-.695-1.514l4.081-1.875a.832.832 0 01.864.103M18.5 5v4.616c0 1.312-.788 2.177-1.508 2.608-.59.354-1.228.492-1.605.561-.4.075-.843.125-1.207.168l-.054.006c-.409.048-.77.09-1.121.15-.753.13-1.107.288-1.25.397a.25.25 0 00-.033.03l-.005.009a.417.417 0 00-.031.112c.033.013.07.027.113.041.713.245 1.728.35 3.192.502l.268.028c1.381.145 3.248.346 4.768 1.022.808.36 1.665.913 2.316 1.793.673.91.99 1.99.99 3.15 0 1.241-.396 2.397-1.253 3.306-.798.847-1.805 1.275-2.67 1.512-1.58.432-3.532.429-5.05.426h-.197c-1.786-.003-3.064.016-3.913.252-.108.03-.191.058-.25.084.01.279.067.374.068.376a.08.08 0 00.021.025c.034.03.07.056.11.078.331.189.987.345 2.096.402.503.025 1.014.03 1.557.034h.046c.527.004 1.128.008 1.668.05.483.036 1.233.12 1.923.441.376.175.855.476 1.242.993A3.04 3.04 0 0119.333 30v5h-5v-3.308l-.47-.005h-.08c-.517-.004-1.128-.008-1.745-.04-1.224-.063-2.901-.244-4.32-1.054a5.277 5.277 0 01-1.984-1.95C5.224 27.757 5 26.756 5 25.704c0-1.242.394-2.398 1.247-3.31.796-.851 1.801-1.284 2.67-1.525 1.588-.439 3.55-.436 5.075-.433h.178c1.788.002 3.068-.015 3.92-.248.103-.03.184-.055.24-.079a.496.496 0 00-.014-.1c-.023-.024-.108-.096-.322-.192-.668-.297-1.717-.456-3.253-.616a28.4 28.4 0 00-.41-.042c-1.26-.128-2.864-.29-4.151-.73-.756-.26-1.644-.687-2.353-1.459-.769-.837-1.16-1.897-1.16-3.06 0-1.883.75-3.38 2.046-4.373 1.139-.873 2.493-1.194 3.449-1.357a25 25 0 011.338-.183V5h5zm-.192 14.992c0-.001.003.003.006.012l-.006-.012z" fill="#fff"/></svg>