<svg width="172" height="32" fill="none" xmlns="http://www.w3.org/2000/svg"><g fill="#fff" clip-path="url(#clip0_125_389)"><path d="M70.887 21.124v-.63c.18-.45.45-.809.63-1.258v-.27c-.09-.36-.09-.629.18-.899.18-.18.27-.36.45-.449.18-.09.27-.18.27-.45 0-.09 0-.18.09-.359.09-.36.27-.72.45-1.079.269-.539.629-.988 1.079-1.438.18-.18.27-.36.36-.54.18-.539.36-1.078.63-1.527.449-.63.989-1.169 1.618-1.708.09-.09.36-.18.45-.18.63-.18 1.26-.27 1.89-.45.27-.09.54-.269.719-.449.45-.54.99-1.078 1.53-1.528.45-.36.989-.63 1.529-.989.18-.09.36-.27.54-.45-.27-.269-.36-.538-.36-.898 0-.45 0-.809.36-1.169.18-.18.27-.27.36-.539 0-.18.09-.27.18-.45h-.27c.09-.179.359-.269.27-.539.179-.18.179-.449.449-.539 0 0-.09 0-.09-.09.27-.09.36-.45.63-.629.09-.09.18-.27.09-.45h.18c0-.09-.09-.27-.09-.359.09 0 .18 0 .27.09-.09-.18-.09-.36-.18-.54.18.09.27.27.45.27-.09-.18-.09-.27-.18-.45.18.09.27.09.45.18V0c.18 0 .359.09.539.09 0-.09 0-.09.09-.18.09.27.36.36.54.45 0 0 0-.09.09-.18.36.18.63.45.9.809l.09.09c.089.09.179.09.269.18.18.09.27.359.45.359 0 0 .09 0 .09.09-.09.27.18.27.27.36l.09.09c-.09.18.09.18.09.269.18.18.27.36.45.54-.09 0-.09-.09-.18-.09l.36.359c-.09 0-.09 0-.18-.09.09.27.18.45.27.63 0 .18.09.269.269.359.18.18.36.45.36.719.09.45 0 .899-.27 1.258.18.09.27.27.45.36.36.27.72.45 1.17.719.899.54 1.709 1.169 2.338 1.978.18.18.36.36.63.449.63.18 1.35.36 1.979.54.54.09.9.269 1.35.539h.09c.809.629 1.439 1.348 1.798 2.247.09.27.09.45.27.629.18.18.36.27.54.45.9.809 1.349 1.707 1.349 2.966 0 .09.09.09.09.18.18.18.45.36.63.629.27.27.27.54.18.899v.27c.18.539.45.988.63 1.527v.27l-.27.809c-.18.36-.36.72-.36 1.169-.09.629-.45 1.168-.81 1.618-.719.809-1.529 1.348-2.428 1.977-.18.09-.18.18-.18.36 0 .36-.09.629-.09.988-.09.54-.18 1.079-.54 1.529-.09.09-.09.18-.09.18-.09.539-.27.988-.54 1.527-.18.27-.36.45-.72.45-.45 0-.899-.09-1.349-.36-.36.27-.72.36-1.08.18-.27-.09-.54-.18-.809-.09-.18 0-.36-.09-.45-.27-.09-.449-.27-.898-.36-1.258 0-.09 0-.18.09-.27.09-.09.18-.18.27-.36l.09-.09v.27c.36 0 .63 0 .9-.27.09-.089.18-.179.36-.269.18-.09.27-.27.27-.45 0-.179.09-.269.18-.359.45-.18.72-.539.989-.899.18-.27.36-.449.54-.629-.09.45-.18.9-.45 1.259.63-.27.99-.81 1.35-1.349 0 .63 0 1.169-.36 1.708.36-.18.54-.45.72-.719.179-.27.269-.63.449-.989h.27c.18 0 .18-.09.27-.18l.27-.27c.089-.089.179-.089.179-.179.09 0 .09-.09.18-.18-.27 0-.45 0-.72.09.18-.18.361-.36.54-.45.45-.359.99-.718 1.44-1.078.27-.18.45-.36.719-.63-.629.36-1.259.72-2.069.81.18-.09.27-.18.45-.36.27-.18.36-.27.36-.45-.63.27-1.26.54-1.89.72.18-.18.45-.36.63-.45.181-.18.36-.359.63-.539.18-.18.36-.36.54-.629.18-.18.27-.45.45-.63.09-.179.27-.449.36-.628h-.09c-.36.36-.81.629-1.26.809.54-.54 1.08-1.169 1.35-1.978-.36.36-.63.63-.9.989-.54.719-1.08 1.528-1.62 2.337.27-.63.54-1.169.81-1.798.27-.63.54-1.168.9-1.708-.45.27-.81.63-1.17.989-.27.45-.54.899-.809 1.259v-.09c.27-1.08.81-1.888 1.709-2.517.36-.27.72-.54.99-.81.27-.269.27-.359.09-.718v-.09c.36.27.809.36 1.349.45-.18-.27-.36-.45-.54-.63-.18-.18-.36-.18-.539-.27-.18 0-.36 0-.54-.09-.09 0-.18-.09-.27-.18l-.27-.269-.54-.54c-.18-.269-.36-.539-.36-.808.18.09.27.27.45.36.18.179.45.359.72.359.27 0 .45-.09.45-.45 0-.27-.09-.539-.27-.809a7.19 7.19 0 00-1.17-1.168h-.09v.09c0 .36-.09.719-.45.989-.09 0-.09.18-.09.18-.09.269-.09.628-.18.898 0 .09-.09.27-.18.27 0-.09 0-.18-.09-.27-.09-.54-.359-.719-.899-.719-.27 0-.63 0-.9.09-.629.09-1.349.18-1.888.54-.18.09-.27.179-.27.449v.719c.09.988 1.17 1.528 2.069.988-.63-.629-1.17-1.617-1.26-1.977.18.27.36.45.45.72.18.179.27.449.45.628.27.27.54.27.81.18.09-.27 0-.54-.18-.809.54.09.99.18 1.529-.09 0 .27-.09.54-.09.81.09 0 .09-.09.18-.09.18-.09.27 0 .27.09v.269c-.09.09-.18.27-.27.36-.36.449-.72.988-.9 1.527-.27.63-.27 1.259-.09 1.978.09.18.09.45 0 .72a6.2 6.2 0 01-.27.718c-.27.54-.54.989-.9 1.528-.09.09-.09.18-.179.27.18 0 .27.09.36.09.09 0 .18.09.27.18v.09h-.18c-.27 0-.54 0-.72.09-.45.27-.9.27-1.35-.09-.36-.27-.629-.27-1.079 0-.18.09-.36.27-.54.36-.27.179-.36.269-.27.628.54 0 .99-.27 1.35-.629.18.09.45.18.54.36-.27.18-.54.45-.81.629-.45.27-.81.63-1.26.899-.18.09-.27.27-.36.45-.09.179 0 .269.18.269.27 0 .54 0 .72-.27l1.08-1.348c.27-.36.63-.45 1.08-.45l-.09.09c-.36.18-.63.45-.72.81-.09.18-.18.359-.36.539-.36.36-.63.809-.81 1.168-.09.18-.18.27-.36.45-.09.09-.18.18-.18.36v1.078c0 .09.09.27.18.36l.72.718.18.18H88.34c-.09 0-.18-.09-.27-.09-.27-.18-.45-.45-.63-.809-.09.09-.27.18-.36.36-.18-.09-.27-.27-.36-.36-.18.18-.27.36-.45.54-.269.27-.539.45-.899.36h-5.667c.09-.09.09-.18.18-.18.27-.27.45-.54.72-.72.09-.09.18-.18.18-.36v-.988c0-.09 0-.18-.09-.27-.27-.18-.36-.45-.54-.719a2.71 2.71 0 00-.45-.629c-.27-.36-.54-.719-.72-1.079-.09-.27-.27-.449-.54-.629l-.09-.09c.45.09.81.18 1.08.54.36.45.63.809.99 1.258.27.36.54.36.9.36.09 0 .09-.09.18-.09.09-.18-.09-.45-.27-.54-.54-.36-1.08-.719-1.62-1.168-.09-.18-.36-.18-.45-.36-.09 0-.09-.09-.18-.09.27-.18.45-.27.63-.36.09.09.18.09.18.18.27.27.63.45.99.45.18 0 .18 0 .27-.18.09-.27 0-.36-.18-.45-.27-.089-.54-.179-.72-.359-.45-.27-.63-.36-1.08 0-.36.27-.63.27-.99.09-.09-.09-.27-.09-.45-.09h-.539c.18-.27.54-.09.81-.27-.09-.18-.18-.359-.27-.449-.27-.54-.54-.989-.81-1.528-.27-.45-.27-.899-.09-1.348.18-.9.09-1.708-.36-2.427-.18-.36-.45-.72-.72-.989a.686.686 0 01-.18-.45c0-.09 0-.18.09-.269h.18c.09 0 .09 0 .18.09v-.81c.45.27.81.27 1.26.18 0 .18-.09.45-.09.63 0 .27.09.27.36.27.27-.09.45-.27.54-.45l.54-.809c.09-.09.09-.18.18-.27h.09c-.27.72-.72 1.349-1.26 1.978.27.09.54.09.81.18.72 0 1.259-.45 1.349-1.169v-.809c0-.18-.09-.27-.27-.27-.36-.18-.81-.359-1.17-.449-.54-.18-.989-.18-1.529-.09-.27 0-.45.18-.54.45 0 .09-.09.27-.09.36 0 .09-.09.09-.09.179h-.09c-.09-.09-.09-.27-.18-.36v-.719c0-.18 0-.27-.09-.36-.269-.179-.359-.449-.359-.718v-.36c-.18.18-.36.36-.45.54-.18.27-.36.449-.54.719-.18.27-.27.539-.18.898.09.18.18.27.36.27.36 0 .54-.27.72-.45.09-.09.09-.18.18-.269-.09.63-.36 1.079-.99 1.438-.09.09-.18.09-.27.27-.09.18-.18.18-.36.27-.09 0-.27 0-.36.09-.359.09-.539.359-.809.718 0 0 0 .09.09.09.36-.18.81-.27 1.26-.449v.09c-.18.36-.18.45 0 .719.09.09.18.27.36.36.18.18.36.27.54.449.449.45.989.809 1.259 1.438.27.45.45.989.63 1.528v.09c-.54-.989-1.08-1.977-2.07-2.607.45.99.99 2.068 1.44 3.057h-.09c-.72-.99-1.44-1.978-2.16-2.877.27.72.72 1.169 1.17 1.708-.27-.18-.54-.45-.9-.63v.09c.27.54.45.99.9 1.439l1.17 1.168s.09.09.09.18c-.54-.27-.99-.54-1.53-.719V24c.27.18.54.45.81.72-.72-.09-1.17-.45-1.8-.72l.36.36c.54.449 1.08.809 1.62 1.258.18.09.27.27.45.45-.27 0-.54-.09-.81 0 .27.27.45.629.81.718.09.36.18.63.36.99.18.359.45.628.72.718-.36-.539-.36-1.078-.36-1.707.18.27.36.539.45.809.269.36.449.539.629.539-.18-.36-.27-.81-.36-1.259l.54.81c.18.359.45.629.81.808.18.09.27.18.27.45 0 .09.09.27.09.36.18.18.269.359.449.449.27.18.54.27.9.18l-.27-.54c.27.27.45.45.63.72v.18c-.09.449-.27.898-.36 1.348-.09.18-.18.27-.36.27-.27 0-.63.089-.9.179-.36.09-.72 0-.99-.18-.18.09-.36.18-.63.27-.719.18-1.079.09-1.349-.72-.09-.269-.18-.449-.27-.718-.09-.27-.18-.45-.27-.72-.18-.36-.36-.719-.36-1.078 0-.45-.09-.9-.09-1.259 0-.18-.089-.36-.269-.449l-.27-.27c-.54-.539-1.08-1.168-1.619-1.708-.36-.449-.63-.898-.72-1.528v-.629c0-.09 0-.18-.09-.27-1.349-.988-1.529-1.348-1.619-1.707zM85.91 4.854c-.27-.36-.63-.63-1.08-.81-.18-.089-.36 0-.54.18.09.09.18.09.18.18-.18.18-.27.36-.449.45-.09.18-.18.36-.18.54 0 .09 0 .179.18.179 0-.09 0-.09.09-.18.09-.36.36-.45.63-.18.18.09.36.27.54.36.18.09.36.18.63.18a2746 2746 0 00-.54-.54c.36.18.719.09.899.45.09-.18.09-.27.09-.27 0-.09 0-.18.09-.18s.18.09.18.18v.27c.09-.18.09-.27.09-.27.27-.09.45-.18.72-.27-.18.18-.45.18-.54.54h.27c.18-.09.36-.09.45-.18.18-.09.45-.27.629-.36.27-.09.45-.09.54.27 0 .09.09.18.09.27.18-.27.18-.36.18-.54-.09-.449-.36-.629-.72-.898h.18c.09 0 .09-.09.18-.09 0-.09-.09-.09-.09-.18-.09 0-.09-.09-.18 0-.09 0-.27.09-.36.09-.36.18-.72.45-1.08.72-.09.089-.18.089-.18.089-.45.27-.719.18-.899 0zm-7.826 5.483v.09l-.18.18c-.27.36-.63.629-.9.989-.36.449-.45 1.348-.18 1.887.45-1.079.99-1.708 1.62-1.888l-.54.81c-.18.27-.27.539-.36.898.63-.629 1.53-.899 2.339-1.258-.54.45-1.08.809-1.44 1.348.27-.09.45-.18.63-.27.63-.18 1.17-.539 1.62-.898.36-.36.81-.63 1.259-.81 0 0 .09 0 .09-.09-.81-.359-1.62-.808-2.429-.898.09 0 .27-.09.36-.09v-.09c-.18-.09-.27-.18-.45-.18-.45.09-.99.09-1.44.27-.27.09-.629.09-.899.18-.63.09-.9.54-1.26.899.27-.09.45-.36.63-.36-.54.54-1.169.989-1.529 1.708l.72-.72h.09v.72c0 .27.09.45.09.72.09.179.09.449.18.628-.36-1.078.72-3.236 1.979-3.775zm12.774 6.472c.81-.27 2.249-1.438 2.609-2.067-.09-.09-.09-.18-.18-.27a6.3 6.3 0 00-.9-.72c-.45-.359-1.08-.539-1.62-.718-.09 0-.18-.09-.269-.09v-.09c.99.18 2.069.27 2.879 1.079 0-.09 0-.09-.09-.18-.45-.9-1.26-1.528-2.25-1.888-.899-.36-1.888-.27-2.878-.27-.09 0-.27.09-.36.18-.36.27-.63.63-.9.989 0 .09-.09.09-.09.18.36 0 .72-.18 1.17-.09-.18.09-.27.09-.36.18-.18.09-.45.18-.63.27-.36.18-.36.359-.18.719.45 0 .81-.09 1.26-.09-.09.09-.27.18-.36.18-.27.09-.45.18-.72.359-.18.09-.18.27-.18.36 0 .18.18.09.27.18.27.09.63.09.9.09s.45.089.72.179v.09c-.54 0-1.08 0-1.71-.09.18.27.36.36.54.45.81.359 1.71.539 2.61.449.09 0 .179-.09.359-.09V16c-.27-.18-.45-.27-.72-.45.81.09 1.62.27 2.52.09-.54.45-.9.9-1.44 1.169zm-5.937-3.955c.45 0 .81.09 1.259.18 0-.09 0-.18-.09-.18-.27-.27-.54-.63-.81-.899a.817.817 0 00-.63-.27c-.54 0-1.169 0-1.709.09-.81.09-1.529.36-2.159.9-.45.359-.81.808-.99 1.348.45-.36.9-.63 1.35-.81.54-.18.99-.27 1.53-.27-1.17.36-2.25.81-3.059 1.889.72.719 1.35 1.438 2.339 1.887a5.18 5.18 0 01-.99-.989c.81.18 1.62.09 2.43-.09-.27.18-.54.27-.72.54.18 0 .27.09.45.09.54.09 1.079 0 1.619-.18.36-.09.63-.27.9-.36.18-.09.27-.18.36-.27-.18 0-.36-.09-.54 0h-.54c-.18 0-.36.09-.54-.09.63-.09 1.17-.179 1.799-.269.09-.27 0-.45-.27-.54a4.432 4.432 0 00-.99-.359s-.09 0-.09-.09c.18 0 .36-.09.54 0 .18 0 .45 0 .63.09.18 0 .18-.09.18-.18 0-.18 0-.36-.27-.449-.27-.09-.54-.27-.81-.36 0-.27-.09-.36-.18-.36zM96.795 23.91c-.18-.27-.36-.45-.54-.63a2.286 2.286 0 01-.36-1.977c.09-.36.18-.719.36-1.078-.54-.09-1.08-.36-1.529-.72l-.27.54c-.36.719-.99 1.348-1.71 1.618-.179.09-.179.18-.179.27v1.797c0 .09 0 .18.09.18.18.36.36.72.63 1.169 0 .09.09.09.09.18.09-.09.18-.09.18-.18.45-.36.9-.36 1.439 0 .09.09.18.09.27.09.45 0 .81 0 1.08-.45.09-.27.27-.63.449-.809zm-19.88-.09l.539 1.079c.18.36.63.45.9.18.54-.36.9-.36 1.439.09.09.09.18.09.27.18 0 0 .09 0 .09-.09.18-.45.54-.9.9-1.349.09-.09.09-.18.09-.27v-1.707c0-.18-.09-.27-.27-.36-.9-.36-1.53-.989-1.98-1.888 0-.09-.09-.09-.09-.09-.45.27-.9.45-1.349.63.09.27.18.539.27.899.09.36.18.719.09 1.078-.09.63-.36 1.169-.9 1.618zm14.123-12.404c.63.27 1.17.719 1.709 1.168.54.45 1.26.63 1.889.9-.36-.54-.9-.81-1.35-1.17.72.27 1.53.54 2.07 1.08-.18-.63-.54-1.08-.9-1.619l.54.27c.63.36 1.08.899 1.44 1.528v-.45c0-.539-.18-1.078-.54-1.527-.27-.27-.54-.63-.81-.9 0 0-.09-.09-.09-.18.81.27 1.17.99 1.62 1.619.449.629.719 1.348.629 2.157.09-.63.27-1.348.18-1.977 0-.54-.27-.9-.63-1.259-.09 0-.09-.09-.18-.09.27 0 .54.18.72.36.27.27.36.54.45.899.18.539.27 1.078.27 1.708.27-.72.27-1.259-.09-1.888h.09c.36.27.63.54.989.899 0-.09-.09-.18-.18-.27-.45-.719-1.08-1.168-1.71-1.618-.09-.09-.269-.09-.359-.09-.72-.18-1.35-.27-2.069-.45-.36-.089-.72-.089-.99-.089-.18 0-.27.09-.36.18.18.09.36.09.54.18-1.17-.18-2.069.18-2.878.629zM84.83 8.809c1.17-.27 2.248-.27 3.418-.09-.09.36-.27.63-.36.989.54-.09.81-.45.81-.899v-.27c0-.45-.18-.809-.45-1.078-.09.09-.18.09-.36.18 0-.09.09-.18.09-.18.36-.54.36-.54 0-.9v-.09c-.09-.089-.18-.179-.27-.179-.27-.09-.63-.09-.9 0-.18.09-.36.09-.45 0-.359-.18-.719-.09-.989.09-.36.18-.45.72-.18.989.09.09.09.18.18.27-.09 0-.09 0-.18-.09-.18-.09-.18-.09-.36 0-.27.27-.45.539-.45.898v.45c0 .45.36.719.81.809 0-.09-.09-.18-.09-.36 0-.09-.09-.27-.09-.36.18-.09.27-.179.36-.179v-.09c-.18.09-.36.09-.54.09zm5.577-.18c.18.27.27.54.45.9.09.179.27.269.45.269.36 0 .72.09 1.169.09.36.09.45.18.27.539v.09c.36-.09.54-.36.9-.45-.09-.09-.09-.27-.18-.36a3.893 3.893 0 00-.54-.628c-.45-.54-1.08-.9-1.62-1.349-.54-.27-.989-.629-1.529-.988.18.36.27.719.54.988h-.18c.09.36.09.72-.09.99.18.179.27 0 .36-.09zM83.21 6.921c-.09-.09-.09-.09 0 0h-.18c-.63.45-1.259.81-1.889 1.259-.54.36-.99.809-1.35 1.258-.089.09-.179.27-.269.45.36.18.54.45.99.45v-.09c-.18-.36-.09-.36.27-.45.36-.09.72-.09 1.079-.18.18 0 .27-.09.36-.27l.54-.809c.09.09.09.27.36.09-.18-.36-.18-.629-.09-.989h-.27l.27-.27h-.09c0-.09.18-.269.27-.449zm6.118 11.326c-.45-.45-1.08-.719-1.71-.809h-.63c-.18 0-.36.18-.36.36-.09.54.09.899.54 1.168l.54.27c.45.18.9.18 1.44.18.18 0 .27 0 .45-.09s.36-.18.36-.36c0-.27-.09-.45-.36-.539-.09 0-.09 0-.18-.09-.36-.09-.81-.27-1.17-.36-.09 0-.09 0-.18-.09v-.09c.18.09.45.09.63.18.27.09.45.18.63.27zm-4.498-.36c.09 0 .09 0 0 0 0 .09-.09.09-.18.18-.36.09-.72.27-1.08.36-.18.09-.27.18-.36.27-.18.27-.18.539.18.629.09.09.27.09.45.09.54.09 1.08-.09 1.62-.27.629-.27.809-.54.809-1.258 0-.36-.09-.45-.45-.54-.09 0-.27-.09-.45 0-.36.09-.81.27-1.17.36-.269.09-.449.27-.629.45.54-.09.9-.18 1.26-.27zm-.9-6.74c-.45-.72-.72-1.44-.9-2.248-.36.36-.54.809-.72 1.258-.09.18-.09.45-.09.63 0 .27.18.36.36.36-.09-.18-.09-.27-.18-.45h.09c.09.09.18.27.36.36.09.09.18.09.18.09.27.089.54 0 .9 0zm6.477.089c.27-.09.36-.27.36-.45.09-.719-.27-1.258-.72-1.797-.09.809-.45 1.528-.9 2.247.27 0 .54.09.81 0s.45-.27.63-.45c0 .09-.09.27-.18.45zm-1.53 14.562c.45-.36.99-.63 1.44-.989.18-.09.27-.27.45-.36.45-.36.45-.898.45-1.438-.18.09-.27.27-.45.36-.27.18-.54.36-.63.629-.36.63-.72 1.169-1.26 1.798zm-2.698-5.214c0-.54-.18-.719-.63-.719-.63 0-1.26.27-1.889.45.09.36.18.449.54.449h.36c.36 0 .63-.09.99-.09.18 0 .36 0 .629-.09zm3.238-.18l-.09-.09-1.079-.27c-.27-.089-.54-.089-.81-.089s-.45.09-.54.36c-.09.27 0 .36.27.36.45.089.9.089 1.35.179h.45c.27 0 .36-.18.45-.45zm-7.466 2.607c-.09.63.09 1.259.63 1.618.54.36 1.08.72 1.529 1.079h.09c-.18-.18-.36-.36-.45-.54A8.145 8.145 0 0183.03 24c-.18-.27-.36-.45-.54-.63-.27-.09-.45-.269-.54-.359zm5.128.27c.81 0 1.799-.54 1.889-.989h-1.62c-.18 0-.36.09-.45.18-.18.09-.18.27-.09.45.09.09.18.18.27.359zm-2.97-1.079c0 .09.09.18.09.27.36.36.81.63 1.26.719.36.09.36.09.63-.18.18-.36.18-.45-.18-.629-.09 0-.18-.09-.27-.09-.45 0-.99-.09-1.53-.09zm6.118-.18c.36-.09.81-.27 1.17-.449.27-.18.36-.36.36-.63 0-.449 0-.539-.45-.359-.27.09-.54.27-.63.63-.09.18-.18.449-.27.629-.09 0-.18.09-.18.18zm-7.376.09c-.18-.27-.36-.539-.36-.898-.09-.45-.45-.63-.81-.72-.09 0-.18 0-.18.09-.09.27 0 .81.27.989.27.18.63.36 1.08.54zm20.06-1.528c0-.09 0-.18-.09-.27-.18-.27-.27-.629-.45-.898-.09-.27-.179-.27-.449-.18-.09.63.27 1.168.539 1.618.18-.18.09-.36.09-.54.18.09.27.18.36.27zm-31.305.27c.36-.54.63-.989.63-1.708-.18 0-.27-.09-.36.09l-.54 1.079c-.09.09-.09.27-.09.36.09-.18.18-.36.36-.45-.09.18-.27.45 0 .629zm24.648 8.899c.09-.18 0-.27-.18-.36-.18-.09-.36-.09-.45-.09-.18-.09-.36 0-.45.09-.27.27-.27.45 0 .63.18.09.36.09.45-.09.09-.09.18-.27.27-.45.18.09.27.18.36.27zm-19.07-.18c.09.09.09.18.18.27.179.45.359.45.719.09l.09-.09c-.09-.09-.09-.18-.18-.27-.09-.09-.27-.18-.36-.18-.27 0-.45.09-.72.18-.09.09-.09.18 0 .27.09-.18.18-.18.27-.27zm15.022-10.607c-.36.45-.9.63-1.44.9.45.449 1.17 0 1.44-.9zM84.381 6.382c.27.18.36.09.54-.09-.09 0-.09-.09-.18-.09.09 0 .18-.09.36-.09-.36-.09-.63-.18-.9-.27-.09 0-.18 0-.18.18-.09.27.09.45.36.54-.09-.09-.09-.18 0-.18zm-3.509 12.674c.09.27.18.54.45.72.18.18.45.359.72.269.09 0 .18-.09.18-.09v-.09c-.27-.09-.45-.27-.72-.36-.18-.09-.36-.269-.63-.449zM88.16 6.292c.09.09.09.09.18.09s.09-.09.18-.09c0 .09.09.18.09.27.36-.09.54-.45.36-.72-.36.09-.63.18-.99.27v.09c.09 0 .18.09.36.09-.09-.09-.09 0-.18 0zm8.546 22.652c-.18-.36-.81-.45-1.08-.18.36.09.72-.09 1.08.18zm-7.197-24.27c.36.09.45.27.45.54s0 .539-.27.629v.27c.45-.36.45-1.349-.09-1.619 0 0-.09.09-.09.18zm-13.043 24.18c.27 0 .63-.09.9-.09-.27-.36-.72-.27-.9.09zM83.3 5.753c-.18.18-.27.09-.27-.09-.18-.27-.18-.54-.09-.81-.18.54-.09 1.17.36 1.35v-.45z"/><path d="M95.626 26.247c-.45.27-.72.72-.9 1.169-.18-.18-.09-.36 0-.45.18-.36.54-.539.9-.719zm-17.992.09c.54.09.9.72.72 1.169-.27-.45-.36-.9-.72-1.169zm20.15-3.236c0-.27.09-.63.09-.899.18.09.18.45-.09.9zm-4.677-8.359c-.63-.27-1.35-.45-1.98-.72l-.09-.09c.72.09 1.44.27 2.07.81zm-10.705-.809c-.81.18-1.62.449-2.34.629.18-.27 1.53-.63 2.34-.63zm-4.138-2.697c.27-.18.63-.27.99-.36v.09c-.36 0-.63.18-.99.27zM84.56 8.36c.45-.09.9-.18 1.26-.18.63-.09 1.26 0 1.89.09.27 0 .449.09.719.09 0 .09 0 .09-.18.09s-.36 0-.54-.09c-.9-.09-1.799-.09-2.609.09h-.36c-.09 0-.18-.09-.18-.09zm1.8-1.349c-.18-.09-.45-.27-.63-.36-.09-.09-.09-.18-.09-.269.09-.09.18-.09.27 0 .18.09.36.27.45.36.09.09.09.18 0 .27.09 0 .09 0 0 0zm.99-.449s-.09.09-.09.18c-.18.09-.27.18-.45.27h-.18v-.18s0-.09.09-.09c.18-.09.27-.18.45-.36.09 0 .18 0 .18.18zm.36 0c.09.09.09.18 0 .36-.18.18-.45.269-.81.18l.81-.54zm-2.34 0c.27.18.54.36.72.45-.18.09-.54.09-.72-.09-.09 0-.09-.18 0-.36zm4.138 12.225c0 .27 0 .36-.27.36-.18 0-.36.089-.63.089.36-.18.72-.18.9-.45zm-5.038.359c-.629.09-.899-.09-.899-.36.27.18.54.27.9.36zm1.35-14.292c-.27-.09-.54-.27-.81-.36.27-.09.63.09.81.36.09 0 .09 0 0 0zM11.874 8.18v14.382c0 .629-.18 1.168-.63 1.618-.449.45-.989.629-1.618.629-.63 0-1.17-.27-1.62-.72-.45-.448-.72-1.078-.9-1.887L0 23.91c.18 1.079.45 2.067.99 2.966.54.9 1.169 1.708 1.979 2.427a7.827 7.827 0 002.788 1.618c1.08.45 2.25.63 3.509.63 1.529 0 2.878-.27 4.138-.72a9.192 9.192 0 003.148-1.887 7.182 7.182 0 001.98-2.877 9.147 9.147 0 00.719-3.595V8.09h-7.377v.09zm24.289 0v13.483c0 .989-.27 1.708-.9 2.337-.63.63-1.349.899-2.338.899-.99 0-1.71-.27-2.34-.899-.629-.63-.899-1.348-.899-2.337V8.18H22.31v13.483c0 1.438.27 2.786.72 3.955.539 1.169 1.169 2.247 2.158 3.146.9.899 2.07 1.618 3.329 2.067 1.26.45 2.788.72 4.318.72 1.529 0 3.058-.27 4.318-.72a8.377 8.377 0 003.328-2.067c.9-.899 1.62-1.888 2.16-3.146.539-1.169.719-2.517.719-3.955V8.18h-7.197zm82.042 9.977v5.483h3.508V24c-.269.18-.539.36-.899.45-.27.09-.63.27-.99.359-.36.09-.809.18-1.259.18-.63 0-1.26-.18-1.889-.45-.63-.27-1.17-.719-1.619-1.168-.45-.54-.9-1.079-1.17-1.708-.27-.63-.45-1.348-.45-2.067 0-.72.18-1.439.45-2.068.27-.63.72-1.258 1.17-1.708.449-.54.989-.899 1.619-1.168.629-.27 1.259-.45 1.889-.45.54 0 1.079.09 1.439.18.45.09.81.27 1.08.45.36.18.629.449.899.719.18.18.36.449.54.719.09.09.09.18.18.18l7.377-.99c-.18-.629-.45-1.168-.72-1.797-.18-.45-.45-.81-.72-1.258-.63-.99-1.439-1.798-2.339-2.517-.899-.72-2.069-1.349-3.238-1.798-.18-.09-.27-.09-.45-.18s-.36-.09-.45-.18c-.719-.18-1.619-.27-2.429-.36h-.989c-1.709 0-3.419.36-4.858.99-1.529.719-2.879 1.528-4.048 2.696-.99.989-1.889 2.158-2.519 3.416 0 .09-.09.18-.09.27-.63 1.438-.899 3.056-.899 4.854 0 1.707.269 3.325.899 4.764.63 1.438 1.439 2.786 2.609 3.955 1.169 1.168 2.519 1.977 4.048 2.606 1.259.45 2.519.72 3.958.81h2.429c1.17-.09 2.249-.45 3.329-.9 1.439-.629 2.698-1.528 3.778-2.606a13.11 13.11 0 002.609-3.686c.629-1.348.899-2.786.899-4.224v-1.888h-12.684v-.27zm21.77 5.753V8.18h-7.377v22.382h18.262V23.82h-10.885v.09zM172 14.562V8.18h-19.251v22.382H172V24.18h-11.874v-1.888h9.265V16.54h-9.265v-1.887H172v-.09zM60.542 8.18v10.786l-.81-1.887-4.947-8.9h-8.007v22.383h7.377v-9.888h.27l6.117 9.888h7.376V8.18h-7.376z"/></g><defs><clipPath id="clip0_125_389"><path fill="#fff" d="M0 0h172v32H0z"/></clipPath></defs></svg>