<svg width="40" height="40" viewBox="0 0 40 40" fill="none" xmlns="http://www.w3.org/2000/svg">
<g id="solar:bag-3-bold">
<path id="Vector" fill-rule="evenodd" clip-rule="evenodd" d="M9.29003 7.81829C7.9017 8.97163 7.53503 10.9216 6.80336 14.8233L5.55336 21.49C4.52503 26.9766 4.0117 29.72 5.51003 31.5266C7.01003 33.3333 9.80003 33.3333 15.3834 33.3333H24.6167C30.2 33.3333 32.99 33.3333 34.49 31.5266C35.99 29.72 35.4734 26.9766 34.4467 21.49L33.1967 14.8233C32.4634 10.9233 32.0984 8.97163 30.71 7.81829C29.3217 6.66663 27.3367 6.66663 23.3667 6.66663H16.6334C12.6634 6.66663 10.6784 6.66663 9.29003 7.81829ZM16.4634 12.9183C16.7218 13.65 17.2008 14.2836 17.8344 14.7317C18.4679 15.1799 19.2248 15.4205 20.0009 15.4205C20.7769 15.4205 21.5338 15.1799 22.1674 14.7317C22.8009 14.2836 23.2799 13.65 23.5384 12.9183C23.6549 12.6141 23.8856 12.3675 24.1813 12.2308C24.477 12.0942 24.8144 12.0784 25.1216 12.1868C25.4287 12.2952 25.6815 12.5193 25.8259 12.8112C25.9704 13.1032 25.9952 13.44 25.895 13.75C25.4641 14.9689 24.6659 16.0242 23.6103 16.7706C22.5547 17.517 21.2937 17.9178 20.0009 17.9178C18.708 17.9178 17.447 17.517 16.3914 16.7706C15.3358 16.0242 14.5376 14.9689 14.1067 13.75C14.0488 13.5945 14.0225 13.4291 14.0292 13.2633C14.0359 13.0976 14.0756 12.9349 14.1458 12.7846C14.2161 12.6343 14.3155 12.4995 14.4384 12.3881C14.5613 12.2767 14.7051 12.1908 14.8615 12.1355C15.0179 12.0802 15.1837 12.0566 15.3493 12.066C15.5149 12.0754 15.677 12.1177 15.8261 12.1904C15.9752 12.2632 16.1083 12.3648 16.2177 12.4895C16.3271 12.6142 16.4106 12.761 16.4634 12.9183Z" fill="white"/>
</g>
</svg>
