<svg width="64" height="64" viewBox="0 0 64 64" fill="none" xmlns="http://www.w3.org/2000/svg">
<g id="check_mark_icon 1">
<path id="Vector" d="M60.96 7.35999C58.64 9.69599 56.272 11.944 54.072 14.336C47.432 21.544 41.616 29.392 36.624 37.816C33.632 42.864 30.832 48.04 27.952 53.16C27.664 53.664 27.448 54.208 27.152 54.712C26.04 56.6 24.032 57.168 22.096 56.104C21.64 55.856 21.208 55.52 20.824 55.16C19.656 54.088 18.528 52.984 17.376 51.896C14.88 49.536 12.352 47.2 9.88002 44.8C7.86402 42.84 5.88802 40.84 3.98402 38.784C3.50402 38.264 3.21602 37.464 3.08002 36.744C2.91202 35.832 3.37602 35.28 4.28802 35.44C5.54402 35.664 6.82402 36.016 7.96802 36.568C12.064 38.552 16.112 40.64 20.168 42.704C21.304 43.28 21.288 43.288 22.016 42.328C23.44 40.464 24.832 38.56 26.336 36.752C28.504 34.152 30.68 31.56 32.984 29.08C36.592 25.192 40.48 21.584 44.608 18.264C49.72 14.16 55.088 10.4 60.96 7.35999Z" fill="url(#paint0_linear_29_4)"/>
</g>
<defs>
<linearGradient id="paint0_linear_29_4" x1="3.04608" y1="31.9978" x2="60.96" y2="31.9978" gradientUnits="userSpaceOnUse">
<stop stop-color="#0A8879"/>
<stop offset="1" stop-color="#09AA4C"/>
</linearGradient>
</defs>
</svg>
