<svg width="24" height="24" viewBox="0 0 24 24" fill="none" xmlns="http://www.w3.org/2000/svg">
<g id="mi:chevron-up">
<path id="Vector" d="M12.7066 16.707C12.5191 16.8945 12.2648 16.9998 11.9996 16.9998C11.7344 16.9998 11.4801 16.8945 11.2926 16.707L5.29259 10.707C5.11043 10.5184 5.00964 10.2658 5.01192 10.0036C5.0142 9.7414 5.11937 9.49059 5.30477 9.30518C5.49018 9.11977 5.741 9.0146 6.00319 9.01233C6.26539 9.01005 6.51799 9.11084 6.70659 9.293L11.9996 14.586L17.2926 9.293C17.4812 9.11084 17.7338 9.01005 17.996 9.01233C18.2582 9.0146 18.509 9.11977 18.6944 9.30518C18.8798 9.49059 18.985 9.7414 18.9873 10.0036C18.9895 10.2658 18.8888 10.5184 18.7066 10.707L12.7066 16.707Z" fill="#0A2E27"/>
</g>
</svg>
