<svg width="32" height="32" viewBox="0 0 32 32" fill="none" xmlns="http://www.w3.org/2000/svg">
<g id="maki:cross">
<path id="Vector" d="M7.76534 4.84267L16 13.0773L24.192 4.88533C24.373 4.69273 24.5909 4.53865 24.8329 4.43235C25.0748 4.32604 25.3358 4.26968 25.6 4.26667C26.1658 4.26667 26.7084 4.49143 27.1085 4.89151C27.5086 5.29158 27.7333 5.8342 27.7333 6.4C27.7383 6.66155 27.6898 6.92136 27.5907 7.16348C27.4917 7.4056 27.3442 7.62493 27.1573 7.808L18.8587 16L27.1573 24.2987C27.5089 24.6426 27.7151 25.1085 27.7333 25.6C27.7333 26.1658 27.5086 26.7084 27.1085 27.1085C26.7084 27.5086 26.1658 27.7333 25.6 27.7333C25.3281 27.7446 25.0569 27.6992 24.8035 27.6001C24.5501 27.5009 24.32 27.3501 24.128 27.1573L16 18.9227L7.78667 27.136C7.60642 27.3222 7.39108 27.4708 7.15308 27.5733C6.91508 27.6759 6.65913 27.7302 6.40001 27.7333C5.83421 27.7333 5.29159 27.5086 4.89151 27.1085C4.49144 26.7084 4.26667 26.1658 4.26667 25.6C4.2617 25.3384 4.31023 25.0786 4.40928 24.8365C4.50833 24.5944 4.65581 24.3751 4.84267 24.192L13.1413 16L4.84267 7.70133C4.49107 7.35735 4.28489 6.89155 4.26667 6.4C4.26667 5.8342 4.49144 5.29158 4.89151 4.89151C5.29159 4.49143 5.83421 4.26667 6.40001 4.26667C6.91201 4.27307 7.40267 4.48 7.76534 4.84267Z" fill="white"/>
</g>
</svg>
