<svg width="40" height="40" viewBox="0 0 40 40" fill="none" xmlns="http://www.w3.org/2000/svg">
<g id="healthicons:intestinal-pain">
<path id="Vector" fill-rule="evenodd" clip-rule="evenodd" d="M34.8983 6.2675C34.9507 6.36363 34.9837 6.46914 34.9953 6.57801C35.0069 6.68688 34.9969 6.79697 34.966 6.90199C34.935 7.00701 34.8837 7.1049 34.8149 7.19006C34.7461 7.27523 34.6612 7.346 34.565 7.39833L29.9817 9.89833C29.8548 9.96739 29.7121 10.0023 29.5676 9.99955C29.4232 9.99683 29.2819 9.95661 29.1577 9.88282C29.0335 9.80903 28.9306 9.70422 28.8591 9.57867C28.7877 9.45312 28.7501 9.31114 28.75 9.16667V8.07083L25.3992 9.89833C25.2051 10.0042 24.977 10.0286 24.7649 9.96629C24.5528 9.90393 24.3742 9.75988 24.2683 9.56583C24.1625 9.37178 24.138 9.14363 24.2004 8.93155C24.2627 8.71948 24.4068 8.54087 24.6008 8.435L29.1842 5.935C29.3111 5.86574 29.4539 5.8307 29.5984 5.83332C29.743 5.83593 29.8844 5.87612 30.0087 5.94993C30.1331 6.02374 30.236 6.12864 30.3076 6.2543C30.3791 6.37996 30.4167 6.52207 30.4167 6.66667V7.7625L33.7675 5.935C33.8636 5.8826 33.9691 5.84965 34.078 5.83804C34.1869 5.82643 34.297 5.83639 34.402 5.86734C34.507 5.8983 34.6049 5.94965 34.6901 6.01845C34.7752 6.08725 34.846 6.17133 34.8983 6.2675ZM25.08 27.9775C25.1744 27.7777 25.3443 27.6236 25.5523 27.5491C25.7603 27.4746 25.9894 27.4857 26.1892 27.58L30.645 29.685C30.7761 29.7468 30.8888 29.8418 30.9719 29.9605C31.0551 30.0791 31.1059 30.2175 31.1192 30.3618C31.1326 30.5061 31.1081 30.6514 31.0482 30.7833C30.9883 30.9153 30.895 31.0293 30.7775 31.1142L29.6758 31.9108L32.8558 33.4133C33.0509 33.5106 33.2 33.6804 33.2714 33.8863C33.3427 34.0922 33.3305 34.3179 33.2374 34.515C33.1444 34.712 32.9778 34.8648 32.7734 34.9405C32.5691 35.0162 32.3432 35.0089 32.1442 34.92L27.6883 32.815C27.5573 32.7532 27.4446 32.6582 27.3614 32.5395C27.2782 32.4209 27.2275 32.2825 27.2141 32.1382C27.2007 31.9939 27.2252 31.8486 27.2851 31.7167C27.3451 31.5847 27.4384 31.4707 27.5558 31.3858L28.6575 30.5892L25.4775 29.0867C25.2777 28.9923 25.1236 28.8224 25.0491 28.6144C24.9746 28.4064 24.9857 28.1773 25.08 27.9775ZM31.2642 17.6792C31.3847 17.7744 31.4766 17.901 31.5297 18.0451C31.5828 18.1892 31.595 18.3452 31.565 18.4958L31.2208 20.2275L33.8183 19.0333C33.9178 18.9876 34.0252 18.9619 34.1346 18.9577C34.2439 18.9534 34.353 18.9708 34.4557 19.0088C34.5583 19.0467 34.6525 19.1045 34.7328 19.1789C34.8131 19.2532 34.878 19.3427 34.9237 19.4421C34.9695 19.5415 34.9952 19.649 34.9994 19.7583C35.0036 19.8677 34.9863 19.9768 34.9483 20.0794C34.9104 20.1821 34.8526 20.2763 34.7782 20.3566C34.7039 20.4369 34.6144 20.5018 34.515 20.5475L30.4333 22.425C30.2937 22.4893 30.1391 22.5137 29.9864 22.4956C29.8338 22.4775 29.6891 22.4175 29.5685 22.3223C29.4478 22.227 29.3558 22.1003 29.3027 21.9561C29.2496 21.8118 29.2374 21.6557 29.2675 21.505L29.6117 19.7725L27.0133 20.9658C26.8136 21.051 26.5886 21.0549 26.3861 20.9766C26.1836 20.8984 26.0196 20.7442 25.9291 20.5469C25.8385 20.3496 25.8285 20.1248 25.9012 19.9202C25.9739 19.7157 26.1236 19.5476 26.3183 19.4517L30.3992 17.5767C30.5387 17.5126 30.6933 17.4883 30.8458 17.5066C30.9983 17.5248 31.1428 17.5848 31.2633 17.68M18.5 5V9.61583C18.5 10.9275 17.7125 11.7925 16.9917 12.2242C16.4025 12.5775 15.7642 12.7158 15.3875 12.785C14.9867 12.86 14.5442 12.91 14.18 12.9525L14.1258 12.9592C13.7175 13.0067 13.3558 13.0492 13.005 13.1092C12.2525 13.2383 11.8983 13.3967 11.755 13.5058C11.743 13.5151 11.7318 13.5254 11.7217 13.5367L11.7167 13.545C11.7012 13.5806 11.6909 13.6182 11.6858 13.6567C11.7192 13.67 11.7569 13.6839 11.7992 13.6983C12.5117 13.9425 13.5267 14.0483 14.9908 14.2L15.2592 14.2283C16.64 14.3725 18.5075 14.5742 20.0267 15.25C20.835 15.6092 21.6917 16.1625 22.3425 17.0425C23.0158 17.9533 23.3333 19.0325 23.3333 20.1925C23.3333 21.4342 22.9367 22.59 22.08 23.4992C21.2817 24.3458 20.275 24.7742 19.41 25.0108C17.8308 25.4433 15.8783 25.44 14.36 25.4367H14.1633C12.3767 25.4342 11.0992 25.4533 10.25 25.6892C10.1417 25.7197 10.0586 25.7475 10.0008 25.7725C10.0092 26.0517 10.0667 26.1467 10.0675 26.1492C10.0717 26.1558 10.0758 26.1625 10.0892 26.1742C10.1225 26.2041 10.1591 26.2301 10.1983 26.2517C10.53 26.4408 11.1858 26.5967 12.295 26.6542C12.7983 26.6792 13.3092 26.6833 13.8517 26.6875H13.8975C14.425 26.6917 15.0258 26.6958 15.5658 26.7375C16.0492 26.7742 16.7992 26.8575 17.4892 27.1792C17.865 27.3542 18.3442 27.655 18.7308 28.1717C19.1433 28.7242 19.3333 29.3667 19.3333 30V35H14.3333V31.6917L13.8625 31.6875H13.7825C13.2658 31.6833 12.655 31.6792 12.0383 31.6475C10.8142 31.5842 9.13667 31.4033 7.71833 30.5933C6.96083 30.16 6.24583 29.5317 5.73417 28.6433C5.22417 27.7567 5 26.7558 5 25.7042C5 24.4625 5.39417 23.3058 6.24667 22.3942C7.04333 21.5425 8.04833 21.11 8.91667 20.8692C10.505 20.43 12.4675 20.4333 13.9917 20.4358H14.17C15.9583 20.4383 17.2383 20.4208 18.09 20.1875C18.1933 20.1586 18.2736 20.1325 18.3308 20.1092C18.3292 20.0754 18.3242 20.0419 18.3158 20.0092C18.2925 19.985 18.2075 19.9125 17.9942 19.8175C17.3258 19.52 16.2767 19.3608 14.7408 19.2008C14.6086 19.1864 14.4719 19.1725 14.3308 19.1592C13.0708 19.0308 11.4675 18.8692 10.18 18.4283C9.42417 18.1692 8.53583 17.7417 7.82667 16.97C7.05833 16.1333 6.66667 15.0725 6.66667 13.9092C6.66667 12.0267 7.4175 10.5308 8.71333 9.5375C9.85167 8.66417 11.2058 8.34333 12.1617 8.18C12.606 8.10685 13.0523 8.04571 13.5 7.99667V5H18.5ZM18.3083 19.9917C18.3089 19.9906 18.3108 19.9947 18.3142 20.0042L18.3083 19.9917Z" fill="white"/>
</g>
</svg>
