<svg width="48" height="48" viewBox="0 0 48 48" fill="none" xmlns="http://www.w3.org/2000/svg">
<g id="Group 2">
<g id="Instagram">
<path id="Subtract" d="M29.6387 15.8118C31.1971 15.8118 32.4707 17.0853 32.4707 18.6438V29.9211C32.4707 31.4865 31.2041 32.7532 29.6387 32.7532H18.3613C16.8029 32.7532 15.5293 31.4796 15.5293 29.9211V18.6438C15.5293 17.0853 16.8029 15.8118 18.3613 15.8118H29.6387ZM24.0029 19.9377C22.8412 19.9379 21.7496 20.3903 20.9287 21.2112C20.1079 22.032 19.6554 23.1237 19.6553 24.2854C19.6553 25.4473 20.1077 26.5396 20.9287 27.3606C21.7496 28.1814 22.8412 28.6339 24.0029 28.634C25.1648 28.634 26.2502 28.1816 27.0781 27.3606C27.8991 26.5396 28.3516 25.4473 28.3516 24.2854C28.3514 23.1237 27.899 22.032 27.0781 21.2112C26.2572 20.3902 25.1648 19.9377 24.0029 19.9377ZM24.0029 20.8625C25.8882 20.8625 27.4195 22.4002 27.4268 24.2854C27.4268 26.1778 25.8884 27.7092 24.0029 27.7092C22.1108 27.709 20.5801 26.1707 20.5801 24.2854C20.5803 22.3934 22.1179 20.8628 24.0029 20.8625ZM29.1992 18.1252C28.7382 18.1253 28.3643 18.4992 28.3643 18.9602C28.3645 19.4211 28.7383 19.7951 29.1992 19.7952C29.6602 19.7952 30.034 19.4211 30.0342 18.9602C30.0342 18.4991 29.6603 18.1252 29.1992 18.1252Z" fill="white"/>
</g>
</g>
</svg>
