<svg width="172" height="32" viewBox="0 0 172 32" fill="none" xmlns="http://www.w3.org/2000/svg">
<g id="jungle_logo_horizontal 1" clip-path="url(#clip0_125_389)">
<g id="Group">
<g id="Group_2">
<path id="Vector" d="M70.8871 21.1236C70.8871 20.9438 70.8871 20.6742 70.8871 20.4944C71.067 20.0449 71.3369 19.6854 71.5168 19.236C71.5168 19.1461 71.5168 19.0562 71.5168 18.9663C71.4268 18.6067 71.4268 18.3371 71.6967 18.0674C71.8766 17.8876 71.9666 17.7079 72.1465 17.618C72.3264 17.5281 72.4164 17.4382 72.4164 17.1685C72.4164 17.0787 72.4164 16.9888 72.5063 16.809C72.5963 16.4494 72.7762 16.0899 72.9561 15.7303C73.226 15.191 73.5858 14.7416 74.0356 14.2921C74.2155 14.1124 74.3055 13.9326 74.3954 13.7528C74.5754 13.2135 74.7553 12.6742 75.0252 12.2247C75.4749 11.5955 76.0147 11.0562 76.6444 10.5169C76.7344 10.427 77.0042 10.3371 77.0942 10.3371C77.7239 10.1573 78.3536 10.0674 78.9833 9.88764C79.2532 9.79775 79.5231 9.61798 79.703 9.4382C80.1528 8.89888 80.6925 8.35955 81.2323 7.91011C81.6821 7.55056 82.2218 7.2809 82.7616 6.92135C82.9415 6.83146 83.1214 6.65169 83.3013 6.47191C83.0314 6.20225 82.9415 5.93258 82.9415 5.57303C82.9415 5.1236 82.9415 4.76405 83.3013 4.40449C83.4812 4.22472 83.5712 4.13483 83.6611 3.86517C83.6611 3.68539 83.7511 3.59551 83.8411 3.41573C83.7511 3.41573 83.6611 3.41573 83.5712 3.41573C83.6611 3.23596 83.931 3.14607 83.8411 2.8764C84.021 2.69663 84.021 2.42697 84.2908 2.33708C84.2908 2.33708 84.2009 2.33708 84.2009 2.24719C84.4708 2.1573 84.5607 1.79775 84.8306 1.61798C84.9206 1.52809 85.0105 1.34831 84.9206 1.16854C85.0105 1.16854 85.0105 1.16854 85.1005 1.16854C85.1005 1.07865 85.0105 0.898877 85.0105 0.808989C85.1005 0.808989 85.1904 0.808989 85.2804 0.898877C85.1904 0.719101 85.1904 0.539326 85.1005 0.359551C85.2804 0.449438 85.3703 0.629214 85.5503 0.629214C85.4603 0.449438 85.4603 0.359551 85.3703 0.179775C85.5503 0.269663 85.6402 0.269663 85.8201 0.359551C85.8201 0.269663 85.8201 0.0898877 85.8201 2.98023e-08C86.0001 2.98023e-08 86.18 0.0898877 86.3599 0.0898877C86.3599 2.98023e-08 86.3599 2.98023e-08 86.4498 -0.0898876C86.5398 0.179775 86.8097 0.269663 86.9896 0.359551C86.9896 0.359551 86.9896 0.269663 87.0796 0.179775C87.4394 0.359551 87.7093 0.629214 87.9791 0.988764L88.0691 1.07865C88.159 1.16854 88.249 1.16854 88.339 1.25843C88.5189 1.34831 88.6088 1.61798 88.7888 1.61798C88.7888 1.61798 88.8787 1.61798 88.8787 1.70787C88.7888 1.97753 89.0586 1.97753 89.1486 2.06742L89.2385 2.1573C89.1486 2.33708 89.3285 2.33708 89.3285 2.42697C89.5084 2.60674 89.5984 2.78652 89.7783 2.96629C89.6883 2.96629 89.6883 2.8764 89.5984 2.8764C89.6883 2.96629 89.8683 3.14607 89.9582 3.23596C89.8683 3.23596 89.8683 3.23596 89.7783 3.14607C89.8683 3.41573 89.9582 3.59551 90.0482 3.77528C90.0482 3.95506 90.1381 4.04494 90.318 4.13483C90.498 4.31461 90.6779 4.58427 90.6779 4.85393C90.7678 5.30337 90.6779 5.75281 90.408 6.11236C90.5879 6.20225 90.6779 6.38202 90.8578 6.47191C91.2176 6.74157 91.5775 6.92135 92.0273 7.19101C92.9268 7.73034 93.7365 8.35955 94.3662 9.16854C94.5461 9.34832 94.726 9.52809 94.9959 9.61798C95.6256 9.79775 96.3452 9.97753 96.975 10.1573C97.5147 10.2472 97.8745 10.427 98.3243 10.6966C98.3243 10.6966 98.3243 10.6966 98.4143 10.6966C99.2239 11.3258 99.8536 12.0449 100.213 12.9438C100.303 13.2135 100.303 13.3933 100.483 13.573C100.663 13.7528 100.843 13.8427 101.023 14.0225C101.923 14.8315 102.372 15.7303 102.372 16.9888C102.372 17.0787 102.462 17.0787 102.462 17.1685C102.642 17.3483 102.912 17.5281 103.092 17.7978C103.362 18.0674 103.362 18.3371 103.272 18.6966C103.272 18.7865 103.272 18.8764 103.272 18.9663C103.452 19.5056 103.722 19.9551 103.902 20.4944C103.902 20.5843 103.902 20.6742 103.902 20.764C103.812 21.0337 103.722 21.3034 103.632 21.573C103.452 21.9326 103.272 22.2921 103.272 22.7416C103.182 23.3708 102.822 23.9101 102.462 24.3596C101.743 25.1685 100.933 25.7079 100.034 26.3371C99.8536 26.427 99.8536 26.5169 99.8536 26.6966C99.8536 27.0562 99.7637 27.3258 99.7637 27.6854C99.6737 28.2247 99.5837 28.764 99.2239 29.2135C99.1339 29.3034 99.1339 29.3933 99.1339 29.3933C99.044 29.9326 98.8641 30.382 98.5942 30.9214C98.4143 31.191 98.2344 31.3708 97.8745 31.3708C97.4247 31.3708 96.975 31.2809 96.5252 31.0112C96.1653 31.2809 95.8055 31.3708 95.4457 31.191C95.1758 31.1011 94.9059 31.0112 94.636 31.1011C94.4561 31.1011 94.2762 31.0112 94.1862 30.8315C94.0963 30.382 93.9164 29.9326 93.8264 29.573C93.8264 29.4831 93.8264 29.3933 93.9164 29.3034C94.0063 29.2135 94.0963 29.1236 94.1862 28.9438C94.1862 28.9438 94.1862 28.9438 94.2762 28.8539C94.2762 28.9438 94.2762 29.0337 94.2762 29.1236C94.636 29.1236 94.9059 29.1236 95.1758 28.8539C95.2657 28.764 95.3557 28.6742 95.5356 28.5843C95.7155 28.4944 95.8055 28.3146 95.8055 28.1348C95.8055 27.9551 95.8954 27.8652 95.9854 27.7753C96.4352 27.5955 96.7051 27.236 96.975 26.8764C97.1549 26.6067 97.3348 26.427 97.5147 26.2472C97.4247 26.6966 97.3348 27.1461 97.0649 27.5056C97.6946 27.236 98.0544 26.6966 98.4143 26.1573C98.4143 26.7865 98.4143 27.3258 98.0544 27.8652C98.4143 27.6854 98.5942 27.4157 98.7741 27.1461C98.954 26.8764 99.044 26.5169 99.2239 26.1573C99.3139 26.1573 99.4038 26.1573 99.4938 26.1573C99.6737 26.1573 99.6737 26.0674 99.7637 25.9775C99.8536 25.8876 99.9436 25.7978 100.034 25.7079C100.123 25.618 100.213 25.618 100.213 25.5281C100.303 25.5281 100.303 25.4382 100.393 25.3483C100.123 25.3483 99.9436 25.3483 99.6737 25.4382C99.8536 25.2584 100.034 25.0787 100.213 24.9888C100.663 24.6292 101.203 24.2697 101.653 23.9101C101.923 23.7303 102.103 23.5506 102.372 23.2809C101.743 23.6405 101.113 24 100.303 24.0899C100.483 24 100.573 23.9101 100.753 23.7303C101.023 23.5506 101.113 23.4607 101.113 23.2809C100.483 23.5506 99.8536 23.8202 99.2239 24C99.4038 23.8202 99.6737 23.6405 99.8536 23.5506C100.034 23.3708 100.213 23.191 100.483 23.0112C100.663 22.8315 100.843 22.6517 101.023 22.382C101.203 22.2022 101.293 21.9326 101.473 21.7528C101.563 21.573 101.743 21.3034 101.833 21.1236C101.833 21.1236 101.833 21.1236 101.743 21.1236C101.383 21.4831 100.933 21.7528 100.483 21.9326C101.023 21.3933 101.563 20.764 101.833 19.9551C101.473 20.3146 101.203 20.5843 100.933 20.9438C100.393 21.6629 99.8536 22.4719 99.3139 23.2809C99.5837 22.6517 99.8536 22.1124 100.123 21.4831C100.393 20.8539 100.663 20.3146 101.023 19.7753C100.573 20.0449 100.213 20.4045 99.8536 20.764C99.5837 21.2135 99.3139 21.6629 99.044 22.0225V21.9326C99.3139 20.8539 99.8536 20.0449 100.753 19.4157C101.113 19.1461 101.473 18.8764 101.743 18.6067C102.013 18.3371 102.013 18.2472 101.833 17.8876C101.833 17.8876 101.833 17.8876 101.833 17.7978C102.193 18.0674 102.642 18.1573 103.182 18.2472C103.002 17.9775 102.822 17.7978 102.642 17.618C102.462 17.4382 102.282 17.4382 102.103 17.3483C101.923 17.3483 101.743 17.3483 101.563 17.2584C101.473 17.2584 101.383 17.1685 101.293 17.0787C101.203 16.9888 101.113 16.8989 101.023 16.809C100.843 16.6292 100.663 16.4494 100.483 16.2697C100.303 16 100.123 15.7303 100.123 15.4607C100.303 15.5506 100.393 15.7303 100.573 15.8202C100.753 16 101.023 16.1798 101.293 16.1798C101.563 16.1798 101.743 16.0899 101.743 15.7303C101.743 15.4607 101.653 15.191 101.473 14.9214C101.113 14.4719 100.753 14.1124 100.303 13.7528C100.303 13.7528 100.303 13.7528 100.213 13.7528V13.8427C100.213 14.2022 100.123 14.5618 99.7637 14.8315C99.6737 14.8315 99.6737 15.0112 99.6737 15.0112C99.5837 15.2809 99.5837 15.6405 99.4938 15.9101C99.4938 16 99.4038 16.1798 99.3139 16.1798C99.3139 16.0899 99.3139 16 99.2239 15.9101C99.1339 15.3708 98.8641 15.191 98.3243 15.191C98.0544 15.191 97.6946 15.191 97.4247 15.2809C96.795 15.3708 96.0754 15.4607 95.5356 15.8202C95.3557 15.9101 95.2657 16 95.2657 16.2697C95.2657 16.5393 95.2657 16.809 95.2657 16.9888C95.3557 17.9775 96.4352 18.5169 97.3348 17.9775C96.7051 17.3483 96.1653 16.3596 96.0754 16C96.2553 16.2697 96.4352 16.4494 96.5252 16.7191C96.7051 16.8989 96.795 17.1685 96.975 17.3483C97.2448 17.618 97.5147 17.618 97.7846 17.5281C97.8745 17.2584 97.7846 16.9888 97.6047 16.7191C98.1444 16.809 98.5942 16.8989 99.1339 16.6292C99.1339 16.8989 99.044 17.1685 99.044 17.4382C99.1339 17.4382 99.1339 17.3483 99.2239 17.3483C99.4038 17.2584 99.4938 17.3483 99.4938 17.4382C99.4938 17.5281 99.4938 17.618 99.4938 17.7079C99.4038 17.7978 99.3139 17.9775 99.2239 18.0674C98.8641 18.5169 98.5042 19.0562 98.3243 19.5955C98.0544 20.2247 98.0544 20.8539 98.2344 21.573C98.3243 21.7528 98.3243 22.0225 98.2344 22.2921C98.1444 22.5618 98.0544 22.8315 97.9645 23.0112C97.6946 23.5506 97.4247 24 97.0649 24.5393C96.9749 24.6292 96.9749 24.7191 96.885 24.809C97.0649 24.809 97.1549 24.8989 97.2448 24.8989C97.3348 24.8989 97.4247 24.9888 97.5147 25.0787C97.5147 25.0787 97.5147 25.0787 97.5147 25.1685C97.4247 25.1685 97.4247 25.1685 97.3348 25.1685C97.0649 25.1685 96.795 25.1685 96.6151 25.2584C96.1653 25.5281 95.7155 25.5281 95.2657 25.1685C94.9059 24.8989 94.636 24.8989 94.1862 25.1685C94.0063 25.2584 93.8264 25.4382 93.6465 25.5281C93.3766 25.7079 93.2867 25.7978 93.3766 26.1573C93.9164 26.1573 94.3662 25.8876 94.726 25.5281C94.9059 25.618 95.1758 25.7079 95.2657 25.8876C94.9959 26.0674 94.726 26.3371 94.4561 26.5169C94.0063 26.7865 93.6465 27.1461 93.1967 27.4157C93.0168 27.5056 92.9268 27.6854 92.8369 27.8652C92.7469 28.0449 92.8369 28.1348 93.0168 28.1348C93.2867 28.1348 93.5565 28.1348 93.7365 27.8652C94.0963 27.4157 94.4561 26.9663 94.816 26.5169C95.0858 26.1573 95.4457 26.0674 95.8954 26.0674C95.8954 26.0674 95.8954 26.0674 95.8055 26.1573C95.4457 26.3371 95.1758 26.6067 95.0858 26.9663C94.9959 27.1461 94.9059 27.3258 94.726 27.5056C94.3662 27.8652 94.0963 28.3146 93.9164 28.6742C93.8264 28.8539 93.7365 28.9438 93.5565 29.1236C93.4666 29.2135 93.3766 29.3034 93.3766 29.4831C93.3766 29.8427 93.3766 30.2022 93.3766 30.5618C93.3766 30.6517 93.4666 30.8315 93.5565 30.9214C93.8264 31.191 94.0063 31.3708 94.2762 31.6405C94.3662 31.7303 94.3662 31.7303 94.4561 31.8202C94.3662 31.8202 94.3662 31.8202 94.2762 31.8202C92.2971 31.8202 90.318 31.8202 88.339 31.8202C88.249 31.8202 88.159 31.7303 88.0691 31.7303C87.7992 31.5506 87.6193 31.2809 87.4394 30.9214C87.3494 31.0112 87.1695 31.1011 87.0796 31.2809C86.8996 31.191 86.8097 31.0112 86.7197 30.9214C86.5398 31.1011 86.4498 31.2809 86.2699 31.4607C86.0001 31.7303 85.7302 31.9101 85.3703 31.8202C85.2804 31.8202 85.1904 31.8202 85.1904 31.8202C83.4812 31.8202 81.772 31.8202 80.0628 31.8202C79.9729 31.8202 79.7929 31.8202 79.703 31.8202C79.7929 31.7303 79.7929 31.6405 79.8829 31.6405C80.1528 31.3708 80.3327 31.1011 80.6026 30.9214C80.6925 30.8315 80.7825 30.7416 80.7825 30.5618C80.7825 30.2022 80.7825 29.8427 80.7825 29.573C80.7825 29.4831 80.7825 29.3933 80.6925 29.3034C80.4226 29.1236 80.3327 28.8539 80.1528 28.5843C80.0628 28.4045 79.8829 28.1348 79.703 27.9551C79.4331 27.5955 79.1632 27.236 78.9833 26.8764C78.8934 26.6067 78.7134 26.427 78.4436 26.2472L78.3536 26.1573C78.8034 26.2472 79.1632 26.3371 79.4331 26.6966C79.7929 27.1461 80.0628 27.5056 80.4226 27.9551C80.6925 28.3146 80.9624 28.3146 81.3222 28.3146C81.4122 28.3146 81.4122 28.2247 81.5021 28.2247C81.5921 28.0449 81.4122 27.7753 81.2323 27.6854C80.6925 27.3258 80.1528 26.9663 79.613 26.5169C79.5231 26.3371 79.2532 26.3371 79.1632 26.1573C79.0733 26.1573 79.0733 26.0674 78.9833 26.0674C79.2532 25.8876 79.4331 25.7978 79.613 25.7079C79.703 25.7978 79.7929 25.7978 79.7929 25.8876C80.0628 26.1573 80.4226 26.3371 80.7825 26.3371C80.9624 26.3371 80.9624 26.3371 81.0524 26.1573C81.1423 25.8876 81.0524 25.7978 80.8724 25.7079C80.6026 25.618 80.3327 25.5281 80.1528 25.3483C79.703 25.0787 79.5231 24.9888 79.0733 25.3483C78.7134 25.618 78.4436 25.618 78.0837 25.4382C77.9938 25.3483 77.8139 25.3483 77.6339 25.3483C77.454 25.3483 77.2741 25.3483 77.0942 25.3483C77.2741 25.0787 77.6339 25.2584 77.9038 25.0787C77.8139 24.8989 77.7239 24.7191 77.6339 24.6292C77.3641 24.0899 77.0942 23.6405 76.8243 23.1011C76.5544 22.6517 76.5544 22.2022 76.7344 21.7528C76.9143 20.8539 76.8243 20.0449 76.3745 19.3258C76.1946 18.9663 75.9247 18.6067 75.6549 18.3371C75.5649 18.2472 75.4749 18.0674 75.4749 17.8876C75.4749 17.7978 75.4749 17.7079 75.5649 17.618H75.7448C75.8348 17.618 75.8348 17.618 75.9247 17.7079C75.9247 17.4382 75.9247 17.1685 75.9247 16.8989C76.3745 17.1685 76.7344 17.1685 77.1842 17.0787C77.1842 17.2584 77.0942 17.5281 77.0942 17.7079C77.0942 17.9775 77.1842 17.9775 77.454 17.9775C77.7239 17.8876 77.9038 17.7079 77.9938 17.5281C78.1737 17.2584 78.3536 16.9888 78.5335 16.7191C78.6235 16.6292 78.6235 16.5393 78.7134 16.4494C78.7134 16.4494 78.7134 16.4494 78.8034 16.4494C78.5335 17.1685 78.0837 17.7978 77.544 18.427C77.8139 18.5169 78.0837 18.5169 78.3536 18.6067C79.0733 18.6067 79.613 18.1573 79.703 17.4382C79.703 17.1685 79.703 16.8989 79.703 16.6292C79.703 16.4494 79.613 16.3596 79.4331 16.3596C79.0733 16.1798 78.6235 16 78.2637 15.9101C77.7239 15.7303 77.2741 15.7303 76.7344 15.8202C76.4645 15.8202 76.2846 16 76.1946 16.2697C76.1946 16.3596 76.1047 16.5393 76.1047 16.6292C76.1047 16.7191 76.0147 16.7191 76.0147 16.809C76.0147 16.809 76.0147 16.809 75.9247 16.809C75.8348 16.7191 75.8348 16.5393 75.7448 16.4494C75.7448 16.1798 75.7448 16 75.7448 15.7303C75.7448 15.5506 75.7448 15.4607 75.6549 15.3708C75.385 15.191 75.295 14.9213 75.295 14.6517C75.295 14.5618 75.295 14.4719 75.295 14.2921C75.1151 14.4719 74.9352 14.6517 74.8452 14.8315C74.6653 15.1011 74.4854 15.2809 74.3055 15.5506C74.1256 15.8202 74.0356 16.0899 74.1256 16.4494C74.2155 16.6292 74.3055 16.7191 74.4854 16.7191C74.8452 16.7191 75.0252 16.4494 75.2051 16.2697C75.295 16.1798 75.295 16.0899 75.385 16C75.295 16.6292 75.0252 17.0787 74.3954 17.4382C74.3055 17.5281 74.2155 17.5281 74.1256 17.7079C74.0356 17.8876 73.9457 17.8876 73.7657 17.9775C73.6758 17.9775 73.4959 17.9775 73.4059 18.0674C73.0461 18.1573 72.8662 18.427 72.5963 18.7865C72.5963 18.7865 72.5963 18.8764 72.6862 18.8764C73.0461 18.6966 73.4959 18.6067 73.9457 18.427V18.5169C73.7657 18.8764 73.7657 18.9663 73.9457 19.236C74.0356 19.3258 74.1256 19.5056 74.3055 19.5955C74.4854 19.7753 74.6653 19.8652 74.8452 20.0449C75.295 20.4944 75.8348 20.8539 76.1047 21.4831C76.3745 21.9326 76.5544 22.4719 76.7344 23.0112C76.7344 23.0112 76.7344 23.0112 76.7344 23.1011C76.1946 22.1124 75.6549 21.1236 74.6653 20.4944C75.1151 21.4831 75.6549 22.5618 76.1047 23.5506C76.1047 23.5506 76.1047 23.5506 76.0147 23.5506C75.295 22.5618 74.5754 21.573 73.8557 20.6742C74.1256 21.3933 74.5754 21.8427 75.0252 22.382C74.7553 22.2022 74.4854 21.9326 74.1256 21.7528C74.1256 21.8427 74.1256 21.8427 74.1256 21.8427C74.3955 22.382 74.5754 22.8315 75.0252 23.2809C75.385 23.6405 75.8348 24.0899 76.1946 24.4494C76.1946 24.4494 76.2846 24.5393 76.2846 24.6292C75.7448 24.3596 75.295 24.0899 74.7553 23.9101C74.7553 23.9101 74.7553 23.9101 74.7553 24C75.0252 24.1798 75.295 24.4494 75.5649 24.7191C74.8452 24.6292 74.3955 24.2697 73.7657 24C73.8557 24.0899 74.0356 24.2697 74.1256 24.3596C74.6653 24.809 75.2051 25.1685 75.7448 25.618C75.9247 25.7079 76.0147 25.8876 76.1946 26.0674C75.9247 26.0674 75.6549 25.9775 75.385 26.0674C75.6549 26.3371 75.8348 26.6966 76.1946 26.7865C76.2846 27.1461 76.3745 27.4157 76.5544 27.7753C76.7344 28.1348 77.0042 28.4045 77.2741 28.4944C76.9143 27.9551 76.9143 27.4157 76.9143 26.7865C77.0942 27.0562 77.2741 27.3258 77.3641 27.5955C77.6339 27.9551 77.8139 28.1348 77.9938 28.1348C77.8139 27.7753 77.7239 27.3258 77.6339 26.8764C77.8139 27.1461 77.9938 27.4157 78.1737 27.6854C78.3536 28.0449 78.6235 28.3146 78.9833 28.4944C79.1632 28.5843 79.2532 28.6742 79.2532 28.9438C79.2532 29.0337 79.3431 29.2135 79.3431 29.3034C79.5231 29.4831 79.613 29.6629 79.7929 29.7528C80.0628 29.9326 80.3327 30.0225 80.6925 29.9326C80.6026 29.7528 80.5126 29.573 80.4226 29.3933C80.6925 29.6629 80.8724 29.8427 81.0524 30.1124C81.0524 30.1124 81.0524 30.2022 81.0524 30.2921C80.9624 30.7416 80.7825 31.191 80.6925 31.6405C80.6026 31.8202 80.5126 31.9101 80.3327 31.9101C80.0628 31.9101 79.703 32 79.4331 32.0899C79.0733 32.1798 78.7134 32.0899 78.4436 31.9101C78.2636 32 78.0837 32.0899 77.8139 32.1798C77.0942 32.3596 76.7344 32.2697 76.4645 31.4607C76.3745 31.191 76.2846 31.0112 76.1946 30.7416C76.1047 30.4719 76.0147 30.2921 75.9247 30.0225C75.7448 29.6629 75.5649 29.3034 75.5649 28.9438C75.5649 28.4944 75.4749 28.0449 75.4749 27.6854C75.4749 27.5056 75.385 27.3258 75.2051 27.236C75.1151 27.1461 75.0252 27.0562 74.9352 26.9663C74.3955 26.427 73.8557 25.7978 73.316 25.2584C72.9561 24.809 72.6862 24.3596 72.5963 23.7303C72.5963 23.5506 72.5963 23.2809 72.5963 23.1011C72.5963 23.0112 72.5963 22.9214 72.5063 22.8315C71.157 21.8427 70.977 21.4831 70.8871 21.1236ZM85.9101 4.85393C85.6402 4.49438 85.2804 4.22472 84.8306 4.04494C84.6507 3.95506 84.4708 4.04494 84.2908 4.22472C84.3808 4.31461 84.4708 4.31461 84.4708 4.40449C84.2908 4.58427 84.2009 4.76405 84.021 4.85393C83.931 5.03371 83.8411 5.21348 83.8411 5.39326C83.8411 5.48315 83.8411 5.57303 84.021 5.57303C84.021 5.48315 84.021 5.48315 84.1109 5.39326C84.2009 5.03371 84.4708 4.94382 84.7406 5.21348C84.9206 5.30337 85.1005 5.48315 85.2804 5.57303C85.4603 5.66292 85.6402 5.75281 85.9101 5.75281C85.7302 5.57303 85.5503 5.39326 85.3703 5.21348C85.7302 5.39326 86.09 5.30337 86.2699 5.66292C86.3599 5.48315 86.3599 5.39326 86.3599 5.39326C86.3599 5.30337 86.3599 5.21348 86.4498 5.21348C86.5398 5.21348 86.6298 5.30337 86.6298 5.39326C86.6298 5.48315 86.6298 5.48315 86.6298 5.66292C86.7197 5.48315 86.7197 5.39326 86.7197 5.39326C86.9896 5.30337 87.1695 5.21348 87.4394 5.1236C87.2595 5.30337 86.9896 5.30337 86.8996 5.66292C86.9896 5.66292 87.0796 5.66292 87.1695 5.66292C87.3494 5.57303 87.5293 5.57303 87.6193 5.48315C87.7992 5.39326 88.0691 5.21348 88.249 5.1236C88.5189 5.03371 88.6988 5.03371 88.7888 5.39326C88.7888 5.48315 88.8787 5.57303 88.8787 5.66292C89.0586 5.39326 89.0586 5.30337 89.0586 5.1236C88.9687 4.67416 88.6988 4.49438 88.339 4.22472C88.4289 4.22472 88.4289 4.22472 88.5189 4.22472C88.6088 4.22472 88.6088 4.13483 88.6988 4.13483C88.6988 4.04494 88.6088 4.04494 88.6088 3.95506C88.5189 3.95506 88.5189 3.86517 88.4289 3.95506C88.339 3.95506 88.159 4.04494 88.0691 4.04494C87.7093 4.22472 87.3494 4.49438 86.9896 4.76405C86.8996 4.85393 86.8097 4.85393 86.8097 4.85393C86.3599 5.1236 86.09 5.03371 85.9101 4.85393ZM78.0837 10.3371V10.427C77.9938 10.5169 77.9938 10.5169 77.9038 10.6067C77.6339 10.9663 77.2741 11.236 77.0042 11.5955C76.6444 12.0449 76.5544 12.9438 76.8243 13.4831C77.2741 12.4045 77.8139 11.7753 78.4436 11.5955C78.2636 11.8652 78.0837 12.1348 77.9038 12.4045C77.7239 12.6742 77.6339 12.9438 77.544 13.3034C78.1737 12.6742 79.0733 12.4045 79.8829 12.0449C79.3432 12.4944 78.8034 12.8539 78.4436 13.3933C78.7134 13.3034 78.8934 13.2135 79.0733 13.1236C79.703 12.9438 80.2427 12.5843 80.6925 12.2247C81.0524 11.8652 81.5021 11.5955 81.9519 11.4157C81.9519 11.4157 82.0419 11.4157 82.0419 11.3258C81.2323 10.9663 80.4226 10.5169 79.613 10.427C79.703 10.427 79.8829 10.3371 79.9729 10.3371C79.9729 10.3371 79.9729 10.3371 79.9729 10.2472C79.7929 10.1573 79.703 10.0674 79.5231 10.0674C79.0733 10.1573 78.5335 10.1573 78.0837 10.3371C77.8139 10.427 77.454 10.427 77.1842 10.5169C76.5544 10.6067 76.2846 11.0562 75.9247 11.4157C76.1946 11.3258 76.3745 11.0562 76.5544 11.0562C76.0147 11.5955 75.385 12.0449 75.0252 12.764C75.295 12.4944 75.4749 12.3146 75.7448 12.0449C75.7448 12.0449 75.7448 12.0449 75.8348 12.0449C75.8348 12.3146 75.8348 12.4944 75.8348 12.764C75.8348 13.0337 75.9247 13.2135 75.9247 13.4831C76.0147 13.6629 76.0147 13.9326 76.1047 14.1124C75.7448 13.0337 76.8243 10.8764 78.0837 10.3371ZM90.8578 16.809C91.6674 16.5393 93.1067 15.3708 93.4666 14.7416C93.3766 14.6517 93.3766 14.5618 93.2867 14.4719C93.0168 14.2022 92.657 13.9326 92.3871 13.7528C91.9373 13.3933 91.3076 13.2135 90.7678 13.0337C90.6779 13.0337 90.5879 12.9438 90.498 12.9438C90.498 12.9438 90.498 12.9438 90.498 12.8539C91.4875 13.0337 92.567 13.1236 93.3766 13.9326C93.3766 13.8427 93.3766 13.8427 93.2867 13.7528C92.8369 12.8539 92.0272 12.2247 91.0377 11.8652C90.1381 11.5056 89.1486 11.5955 88.159 11.5955C88.0691 11.5955 87.8892 11.6854 87.7992 11.7753C87.4394 12.0449 87.1695 12.4045 86.8996 12.764C86.8996 12.8539 86.8097 12.8539 86.8097 12.9438C87.1695 12.9438 87.5293 12.764 87.9791 12.8539C87.7992 12.9438 87.7093 12.9438 87.6193 13.0337C87.4394 13.1236 87.1695 13.2135 86.9896 13.3034C86.6298 13.4831 86.6298 13.6629 86.8097 14.0225C87.2595 14.0225 87.6193 13.9326 88.0691 13.9326C87.9791 14.0225 87.7992 14.1124 87.7093 14.1124C87.4394 14.2022 87.2595 14.2921 86.9896 14.4719C86.8097 14.5618 86.8097 14.7416 86.8097 14.8315C86.8097 15.0112 86.9896 14.9214 87.0796 15.0112C87.3494 15.1011 87.7093 15.1011 87.9791 15.1011C88.249 15.1011 88.4289 15.191 88.6988 15.2809V15.3708C88.159 15.3708 87.6193 15.3708 86.9896 15.2809C87.1695 15.5506 87.3494 15.6405 87.5293 15.7303C88.339 16.0899 89.2385 16.2697 90.1381 16.1798C90.2281 16.1798 90.318 16.0899 90.498 16.0899V16C90.2281 15.8202 90.0482 15.7303 89.7783 15.5506C90.5879 15.6405 91.3975 15.8202 92.2971 15.6405C91.7574 16.0899 91.3975 16.5393 90.8578 16.809ZM84.9206 12.8539C85.3703 12.8539 85.7302 12.9438 86.18 13.0337C86.18 12.9438 86.18 12.8539 86.09 12.8539C85.8201 12.5843 85.5503 12.2247 85.2804 11.9551C85.1005 11.7753 84.9206 11.6854 84.6507 11.6854C84.1109 11.6854 83.4812 11.6854 82.9415 11.7753C82.1318 11.8652 81.4122 12.1348 80.7825 12.6742C80.3327 13.0337 79.9729 13.4831 79.7929 14.0225C80.2427 13.6629 80.6925 13.3933 81.1423 13.2135C81.6821 13.0337 82.1319 12.9438 82.6716 12.9438C81.5021 13.3034 80.4226 13.7528 79.613 14.8315C80.3327 15.5506 80.9624 16.2697 81.9519 16.7191C81.5921 16.4494 81.2323 16.0899 80.9624 15.7303C81.772 15.9101 82.5816 15.8202 83.3913 15.6405C83.1214 15.8202 82.8515 15.9101 82.6716 16.1798C82.8515 16.1798 82.9415 16.2697 83.1214 16.2697C83.6611 16.3596 84.2009 16.2697 84.7406 16.0899C85.1005 16 85.3703 15.8202 85.6402 15.7303C85.8201 15.6405 85.9101 15.5506 86.0001 15.4607C85.8201 15.4607 85.6402 15.3708 85.4603 15.4607C85.2804 15.4607 85.1005 15.4607 84.9206 15.4607C84.7406 15.4607 84.5607 15.5506 84.3808 15.3708C85.0105 15.2809 85.5503 15.191 86.18 15.1011C86.2699 14.8315 86.18 14.6517 85.9101 14.5618C85.5503 14.382 85.2804 14.2921 84.9206 14.2022C84.9206 14.2022 84.8306 14.2022 84.8306 14.1124C85.0105 14.1124 85.1904 14.0225 85.3703 14.1124C85.5503 14.1124 85.8201 14.1124 86.0001 14.2022C86.18 14.2022 86.18 14.1124 86.18 14.0225C86.18 13.8427 86.18 13.6629 85.9101 13.573C85.6402 13.4831 85.3703 13.3034 85.1005 13.2135C85.1005 12.9438 85.0105 12.8539 84.9206 12.8539ZM96.795 23.9101C96.6151 23.6405 96.4352 23.4607 96.2553 23.2809C95.8055 22.6517 95.7155 21.9326 95.8954 21.3034C95.9854 20.9438 96.0754 20.5843 96.2553 20.2247C95.7155 20.1348 95.1758 19.8652 94.726 19.5056C94.636 19.6854 94.5461 19.8652 94.4561 20.0449C94.0963 20.764 93.4666 21.3933 92.7469 21.6629C92.567 21.7528 92.567 21.8427 92.567 21.9326C92.567 22.5618 92.567 23.191 92.567 23.7303C92.567 23.8202 92.567 23.9101 92.657 23.9101C92.8369 24.2697 93.0168 24.6292 93.2867 25.0787C93.2867 25.1685 93.3766 25.1685 93.3766 25.2584C93.4666 25.1685 93.5565 25.1685 93.5565 25.0787C94.0063 24.7191 94.4561 24.7191 94.9959 25.0787C95.0858 25.1685 95.1758 25.1685 95.2657 25.1685C95.7155 25.1685 96.0754 25.1685 96.3452 24.7191C96.4352 24.4494 96.6151 24.0899 96.795 23.9101ZM76.9143 23.8202C77.0942 24.1798 77.2741 24.5393 77.454 24.8989C77.6339 25.2584 78.0837 25.3483 78.3536 25.0787C78.8934 24.7191 79.2532 24.7191 79.7929 25.1685C79.8829 25.2584 79.9729 25.2584 80.0628 25.3483C80.0628 25.3483 80.1528 25.3483 80.1528 25.2584C80.3327 24.809 80.6925 24.3596 81.0524 23.9101C81.1423 23.8202 81.1423 23.7303 81.1423 23.6405C81.1423 23.1011 81.1423 22.4719 81.1423 21.9326C81.1423 21.7528 81.0524 21.6629 80.8724 21.573C79.9729 21.2135 79.3431 20.5843 78.8934 19.6854C78.8934 19.5955 78.8034 19.5955 78.8034 19.5955C78.3536 19.8652 77.9038 20.0449 77.454 20.2247C77.544 20.4944 77.6339 20.764 77.7239 21.1236C77.8139 21.4831 77.9038 21.8427 77.8139 22.2022C77.7239 22.8315 77.454 23.3708 76.9143 23.8202ZM91.0377 11.4157C91.6674 11.6854 92.2072 12.1348 92.7469 12.5843C93.2867 13.0337 94.0063 13.2135 94.636 13.4831C94.2762 12.9438 93.7365 12.6742 93.2867 12.3146C94.0063 12.5843 94.816 12.8539 95.3557 13.3933C95.1758 12.764 94.816 12.3146 94.4561 11.7753C94.636 11.8652 94.816 11.9551 94.9959 12.0449C95.6256 12.4045 96.0754 12.9438 96.4352 13.573C96.4352 13.3933 96.4352 13.3034 96.4352 13.1236C96.4352 12.5843 96.2553 12.0449 95.8954 11.5955C95.6256 11.3258 95.3557 10.9663 95.0858 10.6966C95.0858 10.6966 94.9959 10.6067 94.9959 10.5169C95.8055 10.7865 96.1653 11.5056 96.6151 12.1348C97.0649 12.764 97.3348 13.4831 97.2448 14.2921C97.3348 13.6629 97.5147 12.9438 97.4247 12.3146C97.4247 11.7753 97.1549 11.4157 96.795 11.0562C96.7051 11.0562 96.7051 10.9663 96.6151 10.9663C96.885 10.9663 97.1549 11.1461 97.3348 11.3258C97.6047 11.5955 97.6946 11.8652 97.7846 12.2247C97.9645 12.764 98.0544 13.3034 98.0544 13.9326C98.3243 13.2135 98.3243 12.6742 97.9645 12.0449C97.9645 12.0449 97.9645 12.0449 98.0544 12.0449C98.4143 12.3146 98.6842 12.5843 99.044 12.9438C99.044 12.8539 98.954 12.764 98.8641 12.6742C98.4143 11.9551 97.7846 11.5056 97.1549 11.0562C97.0649 10.9663 96.885 10.9663 96.795 10.9663C96.0754 10.7865 95.4457 10.6966 94.726 10.5169C94.3662 10.427 94.0063 10.427 93.7365 10.427C93.5565 10.427 93.4666 10.5169 93.3766 10.6067C93.5565 10.6966 93.7365 10.6966 93.9164 10.7865C92.7469 10.6067 91.8473 10.9663 91.0377 11.4157ZM84.8306 8.80899C86.0001 8.53933 87.0795 8.53933 88.249 8.7191C88.159 9.07865 87.9791 9.34832 87.8892 9.70787C88.4289 9.61798 88.6988 9.25843 88.6988 8.80899C88.6988 8.7191 88.6988 8.62921 88.6988 8.53933C88.6988 8.08989 88.5189 7.73034 88.249 7.46068C88.159 7.55056 88.0691 7.55056 87.8892 7.64045C87.8892 7.55056 87.9791 7.46068 87.9791 7.46068C88.339 6.92135 88.339 6.92135 87.9791 6.5618V6.47191C87.8892 6.38202 87.7992 6.29214 87.7093 6.29214C87.4394 6.20225 87.0795 6.20225 86.8097 6.29214C86.6298 6.38202 86.4498 6.38202 86.3599 6.29214C86.0001 6.11236 85.6402 6.20225 85.3703 6.38202C85.0105 6.5618 84.9206 7.10112 85.1904 7.37079C85.2804 7.46068 85.2804 7.55056 85.3703 7.64045C85.2804 7.64045 85.2804 7.64045 85.1904 7.55056C85.0105 7.46067 85.0105 7.46067 84.8306 7.55056C84.5607 7.82023 84.3808 8.08989 84.3808 8.44944C84.3808 8.62921 84.3808 8.7191 84.3808 8.89888C84.3808 9.34832 84.7406 9.61798 85.1904 9.70787C85.1904 9.61798 85.1005 9.52809 85.1005 9.34832C85.1005 9.25843 85.0105 9.07865 85.0105 8.98877C85.1904 8.89888 85.2804 8.80899 85.3703 8.80899C85.3703 8.80899 85.3703 8.80899 85.3703 8.7191C85.1904 8.80899 85.0105 8.80899 84.8306 8.80899ZM90.408 8.62922C90.5879 8.89888 90.6779 9.16854 90.8578 9.52809C90.9478 9.70787 91.1277 9.79775 91.3076 9.79775C91.6674 9.79775 92.0273 9.88764 92.477 9.88764C92.8369 9.97753 92.9268 10.0674 92.7469 10.427C92.7469 10.427 92.7469 10.427 92.7469 10.5169C93.1067 10.427 93.2867 10.1573 93.6465 10.0674C93.5565 9.97753 93.5565 9.79775 93.4666 9.70787C93.2867 9.4382 93.1067 9.25843 92.9268 9.07865C92.477 8.53933 91.8473 8.17978 91.3076 7.73034C90.7678 7.46068 90.318 7.10112 89.7783 6.74157C89.9582 7.10112 90.0482 7.46068 90.318 7.73034C90.2281 7.73034 90.2281 7.73034 90.1381 7.73034C90.2281 8.08989 90.2281 8.44944 90.0482 8.7191C90.2281 8.89888 90.318 8.7191 90.408 8.62922ZM83.2113 6.92135C83.1214 6.83146 83.1214 6.83146 83.2113 6.92135C83.1214 6.92135 83.0314 6.92135 83.0314 6.92135C82.4017 7.37079 81.772 7.73034 81.1423 8.17978C80.6026 8.53933 80.1528 8.98877 79.7929 9.4382C79.703 9.52809 79.613 9.70787 79.5231 9.88764C79.8829 10.0674 80.0628 10.3371 80.5126 10.3371C80.5126 10.2472 80.5126 10.2472 80.5126 10.2472C80.3327 9.88764 80.4226 9.88764 80.7825 9.79775C81.1423 9.70787 81.5021 9.70787 81.862 9.61798C82.0419 9.61798 82.1319 9.52809 82.2218 9.34832C82.4017 9.07865 82.5816 8.80899 82.7616 8.53933C82.8515 8.62921 82.8515 8.80899 83.1214 8.62922C82.9415 8.26966 82.9415 8 83.0314 7.64045C82.9415 7.64045 82.8515 7.64045 82.7616 7.64045C82.8515 7.55056 82.9415 7.46068 83.0314 7.37079C82.9415 7.37079 82.9415 7.37079 82.9415 7.37079C82.9415 7.2809 83.1214 7.10112 83.2113 6.92135ZM89.3285 18.2472C88.8787 17.7978 88.249 17.5281 87.6193 17.4382C87.4394 17.4382 87.1695 17.4382 86.9896 17.4382C86.8097 17.4382 86.6298 17.618 86.6298 17.7978C86.5398 18.3371 86.7197 18.6966 87.1695 18.9663C87.3494 19.0562 87.5293 19.1461 87.7093 19.236C88.159 19.4157 88.6088 19.4157 89.1486 19.4157C89.3285 19.4157 89.4185 19.4157 89.5984 19.3258C89.7783 19.236 89.9582 19.1461 89.9582 18.9663C89.9582 18.6966 89.8683 18.5169 89.5984 18.427C89.5084 18.427 89.5084 18.427 89.4185 18.3371C89.0586 18.2472 88.6088 18.0674 88.249 17.9775C88.159 17.9775 88.159 17.9775 88.0691 17.8876C88.0691 17.8876 88.0691 17.8876 88.0691 17.7978C88.249 17.8876 88.5189 17.8876 88.6988 17.9775C88.9687 18.0674 89.1486 18.1573 89.3285 18.2472ZM84.8306 17.8876C84.9206 17.8876 84.9206 17.8876 84.8306 17.8876C84.8306 17.9775 84.7406 17.9775 84.6507 18.0674C84.2908 18.1573 83.931 18.3371 83.5712 18.427C83.3913 18.5169 83.3013 18.6067 83.2113 18.6966C83.0314 18.9663 83.0314 19.236 83.3913 19.3258C83.4812 19.4157 83.6611 19.4157 83.8411 19.4157C84.3808 19.5056 84.9206 19.3258 85.4603 19.1461C86.09 18.8764 86.2699 18.6067 86.2699 17.8876C86.2699 17.5281 86.18 17.4382 85.8201 17.3483C85.7302 17.3483 85.5503 17.2584 85.3703 17.3483C85.0105 17.4382 84.5607 17.618 84.2009 17.7079C83.931 17.7978 83.7511 17.9775 83.5712 18.1573C84.1109 18.0674 84.4708 17.9775 84.8306 17.8876ZM83.931 11.1461C83.4812 10.427 83.2114 9.70787 83.0314 8.89888C82.6716 9.25843 82.4917 9.70787 82.3118 10.1573C82.2218 10.3371 82.2218 10.6067 82.2218 10.7865C82.2218 11.0562 82.4017 11.1461 82.5816 11.1461C82.4917 10.9663 82.4917 10.8764 82.4017 10.6966C82.4017 10.6966 82.4017 10.6966 82.4917 10.6966C82.5816 10.7865 82.6716 10.9663 82.8515 11.0562C82.9415 11.1461 83.0314 11.1461 83.0314 11.1461C83.3013 11.236 83.5712 11.1461 83.931 11.1461ZM90.408 11.236C90.6779 11.1461 90.7678 10.9663 90.7678 10.7865C90.8578 10.0674 90.498 9.52809 90.0482 8.98877C89.9582 9.79775 89.5984 10.5169 89.1486 11.236C89.4185 11.236 89.6883 11.3258 89.9582 11.236C90.2281 11.1461 90.408 10.9663 90.5879 10.7865C90.5879 10.8764 90.498 11.0562 90.408 11.236ZM88.8787 25.7978C89.3285 25.4382 89.8683 25.1685 90.318 24.809C90.498 24.7191 90.5879 24.5393 90.7678 24.4494C91.2176 24.0899 91.2176 23.5506 91.2176 23.0112C91.0377 23.1011 90.9478 23.2809 90.7678 23.3708C90.498 23.5506 90.2281 23.7303 90.1381 24C89.7783 24.6292 89.4185 25.1685 88.8787 25.7978ZM86.18 20.5843C86.18 20.0449 86.0001 19.8652 85.5503 19.8652C84.9206 19.8652 84.2908 20.1348 83.6611 20.3146C83.7511 20.6742 83.8411 20.764 84.2009 20.764C84.2908 20.764 84.4708 20.764 84.5607 20.764C84.9206 20.764 85.1904 20.6742 85.5503 20.6742C85.7302 20.6742 85.9101 20.6742 86.18 20.5843ZM89.4185 20.4045L89.3285 20.3146C88.9687 20.2247 88.6088 20.1348 88.249 20.0449C87.9791 19.9551 87.7093 19.9551 87.4394 19.9551C87.1695 19.9551 86.9896 20.0449 86.8996 20.3146C86.8097 20.5843 86.8996 20.6742 87.1695 20.6742C87.6193 20.764 88.0691 20.764 88.5189 20.8539C88.6988 20.8539 88.7888 20.8539 88.9687 20.8539C89.2385 20.8539 89.3285 20.6742 89.4185 20.4045ZM81.9519 23.0112C81.862 23.6405 82.0419 24.2697 82.5816 24.6292C83.1214 24.9888 83.6611 25.3483 84.1109 25.7079H84.2009C84.021 25.5281 83.8411 25.3483 83.7511 25.1685C83.4812 24.809 83.2114 24.3596 83.0314 24C82.8515 23.7303 82.6716 23.5506 82.4917 23.3708C82.2218 23.2809 82.0419 23.1011 81.9519 23.0112ZM87.0796 23.2809C87.8892 23.2809 88.8787 22.7416 88.9687 22.2921C88.4289 22.2921 87.8892 22.2921 87.3494 22.2921C87.1695 22.2921 86.9896 22.382 86.8996 22.4719C86.7197 22.5618 86.7197 22.7416 86.8097 22.9214C86.8996 23.0112 86.9896 23.1011 87.0796 23.2809ZM84.1109 22.2022C84.1109 22.2921 84.2009 22.382 84.2009 22.4719C84.5607 22.8315 85.0105 23.1011 85.4603 23.191C85.8201 23.2809 85.8201 23.2809 86.09 23.0112C86.2699 22.6517 86.2699 22.5618 85.9101 22.382C85.8201 22.382 85.7302 22.2921 85.6402 22.2921C85.1904 22.2921 84.6507 22.2022 84.1109 22.2022ZM90.2281 22.0225C90.5879 21.9326 91.0377 21.7528 91.3975 21.573C91.6674 21.3933 91.7574 21.2135 91.7574 20.9438C91.7574 20.4944 91.7574 20.4045 91.3076 20.5843C91.0377 20.6742 90.7678 20.8539 90.6779 21.2135C90.5879 21.3933 90.498 21.6629 90.408 21.8427C90.318 21.8427 90.2281 21.9326 90.2281 22.0225ZM82.8515 22.1124C82.6716 21.8427 82.4917 21.573 82.4917 21.2135C82.4017 20.764 82.0419 20.5843 81.6821 20.4944C81.5921 20.4944 81.5021 20.4944 81.5021 20.5843C81.4122 20.8539 81.5021 21.3933 81.772 21.573C82.0419 21.7528 82.4017 21.9326 82.8515 22.1124ZM102.912 20.5843C102.912 20.4944 102.912 20.4045 102.822 20.3146C102.642 20.0449 102.552 19.6854 102.372 19.4157C102.282 19.1461 102.193 19.1461 101.923 19.236C101.833 19.8652 102.193 20.4045 102.462 20.8539C102.642 20.6742 102.552 20.4944 102.552 20.3146C102.732 20.4045 102.822 20.4944 102.912 20.5843ZM71.6067 20.8539C71.9666 20.3146 72.2365 19.8652 72.2365 19.1461C72.0565 19.1461 71.9666 19.0562 71.8766 19.236C71.6967 19.5955 71.5168 19.9551 71.3369 20.3146C71.2469 20.4045 71.2469 20.5843 71.2469 20.6742C71.3369 20.4944 71.4268 20.3146 71.6067 20.2247C71.5168 20.4045 71.3369 20.6742 71.6067 20.8539ZM96.2553 29.7528C96.3452 29.573 96.2553 29.4831 96.0754 29.3933C95.8955 29.3034 95.7155 29.3034 95.6256 29.3034C95.4457 29.2135 95.2657 29.3034 95.1758 29.3933C94.9059 29.6629 94.9059 29.8427 95.1758 30.0225C95.3557 30.1124 95.5356 30.1124 95.6256 29.9326C95.7155 29.8427 95.8055 29.6629 95.8954 29.4831C96.0754 29.573 96.1653 29.6629 96.2553 29.7528ZM77.1842 29.573C77.2741 29.6629 77.2741 29.7528 77.3641 29.8427C77.544 30.2921 77.7239 30.2921 78.0837 29.9326L78.1737 29.8427C78.0837 29.7528 78.0837 29.6629 77.9938 29.573C77.9038 29.4831 77.7239 29.3933 77.6339 29.3933C77.3641 29.3933 77.1842 29.4831 76.9143 29.573C76.8243 29.6629 76.8243 29.7528 76.9143 29.8427C77.0042 29.6629 77.0942 29.6629 77.1842 29.573ZM92.2072 18.9663C91.8473 19.4157 91.3076 19.5955 90.7678 19.8652C91.2176 20.3146 91.9373 19.8652 92.2072 18.9663ZM84.3808 6.38202C84.6507 6.5618 84.7406 6.47191 84.9206 6.29214C84.8306 6.29214 84.8306 6.20225 84.7406 6.20225C84.8306 6.20225 84.9206 6.11236 85.1005 6.11236C84.7406 6.02247 84.4708 5.93258 84.2009 5.8427C84.1109 5.8427 84.021 5.8427 84.021 6.02247C83.931 6.29214 84.1109 6.47191 84.3808 6.5618C84.2908 6.47191 84.2908 6.38202 84.3808 6.38202ZM80.8724 19.0562C80.9624 19.3258 81.0524 19.5955 81.3222 19.7753C81.5021 19.9551 81.772 20.1348 82.0419 20.0449C82.1318 20.0449 82.2218 19.9551 82.2218 19.9551V19.8652C81.9519 19.7753 81.772 19.5955 81.5021 19.5056C81.3222 19.4157 81.1423 19.236 80.8724 19.0562ZM88.159 6.29214C88.249 6.38202 88.249 6.38202 88.339 6.38202C88.4289 6.38202 88.4289 6.29214 88.5189 6.29214C88.5189 6.38202 88.6088 6.47191 88.6088 6.5618C88.9687 6.47191 89.1486 6.11236 88.9687 5.8427C88.6088 5.93258 88.339 6.02247 87.9791 6.11236C87.9791 6.11236 87.9791 6.11236 87.9791 6.20225C88.0691 6.20225 88.159 6.29214 88.339 6.29214C88.249 6.20225 88.249 6.29214 88.159 6.29214ZM96.7051 28.9438C96.5252 28.5843 95.8955 28.4944 95.6256 28.764C95.9854 28.8539 96.3452 28.6742 96.7051 28.9438ZM89.5084 4.67416C89.8683 4.76405 89.9582 4.94382 89.9582 5.21348C89.9582 5.48315 89.9582 5.75281 89.6883 5.8427C89.6883 5.93258 89.6883 6.02247 89.6883 6.11236C90.1381 5.75281 90.1381 4.76405 89.5984 4.49438C89.5984 4.49438 89.5084 4.58427 89.5084 4.67416ZM76.4645 28.8539C76.7344 28.8539 77.0942 28.764 77.3641 28.764C77.0942 28.4045 76.6444 28.4944 76.4645 28.8539ZM83.3013 5.75281C83.1214 5.93258 83.0314 5.8427 83.0314 5.66292C82.8515 5.39326 82.8515 5.1236 82.9415 4.85393C82.7616 5.39326 82.8515 6.02247 83.3013 6.20225C83.3013 6.02247 83.3013 5.93258 83.3013 5.75281Z" fill="white"/>
<path id="Vector_2" d="M95.6255 26.2472C95.1757 26.5169 94.9059 26.9663 94.7259 27.4157C94.546 27.236 94.636 27.0562 94.7259 26.9663C94.9059 26.6067 95.2657 26.427 95.6255 26.2472Z" fill="white"/>
<path id="Vector_3" d="M77.6339 26.3371C78.1737 26.427 78.5335 27.0562 78.3536 27.5056C78.0837 27.0562 77.9937 26.6067 77.6339 26.3371Z" fill="white"/>
<path id="Vector_4" d="M97.7845 23.1011C97.7845 22.8315 97.8745 22.4719 97.8745 22.2022C98.0544 22.2921 98.0544 22.6517 97.7845 23.1011Z" fill="white"/>
<path id="Vector_5" d="M93.1068 14.7416C92.4771 14.4719 91.7574 14.2921 91.1277 14.0225C91.1277 14.0225 91.1277 14.0225 91.0377 13.9326C91.7574 14.0225 92.4771 14.2022 93.1068 14.7416Z" fill="white"/>
<path id="Vector_6" d="M82.4018 13.9326C81.5922 14.1124 80.7825 14.382 80.0629 14.5618C80.2428 14.2921 81.5922 13.9326 82.4018 13.9326Z" fill="white"/>
<path id="Vector_7" d="M78.2637 11.236C78.5335 11.0562 78.8934 10.9663 79.2532 10.8764C79.2532 10.8764 79.2532 10.8764 79.2532 10.9663C78.8934 10.9663 78.6235 11.1461 78.2637 11.236Z" fill="white"/>
<path id="Vector_8" d="M84.5607 8.35955C85.0105 8.26966 85.4603 8.17978 85.8201 8.17978C86.4498 8.08989 87.0795 8.17978 87.7092 8.26966C87.9791 8.26966 88.159 8.35955 88.4289 8.35955C88.4289 8.44944 88.4289 8.44944 88.249 8.44944C88.069 8.44944 87.8891 8.44944 87.7092 8.35955C86.8096 8.26966 85.91 8.26966 85.1004 8.44944C85.0105 8.44944 84.8305 8.44944 84.7406 8.44944C84.6506 8.44944 84.5607 8.35955 84.5607 8.35955Z" fill="white"/>
<path id="Vector_9" d="M86.3599 7.01124C86.18 6.92135 85.9101 6.74157 85.7302 6.65168C85.6403 6.5618 85.6403 6.47191 85.6403 6.38202C85.7302 6.29213 85.8202 6.29213 85.9101 6.38202C86.0901 6.47191 86.27 6.65168 86.3599 6.74157C86.4499 6.83146 86.4499 6.92135 86.3599 7.01124C86.4499 7.01124 86.4499 7.01124 86.3599 7.01124Z" fill="white"/>
<path id="Vector_10" d="M87.3494 6.5618C87.3494 6.5618 87.2595 6.65169 87.2595 6.74157C87.0795 6.83146 86.9896 6.92135 86.8097 7.01124C86.8097 7.01124 86.7197 7.01124 86.6298 7.01124C86.6298 7.01124 86.6298 6.92135 86.6298 6.83146C86.6298 6.83146 86.6298 6.74157 86.7197 6.74157C86.8996 6.65169 86.9896 6.5618 87.1695 6.38202C87.2595 6.38202 87.3494 6.38202 87.3494 6.5618Z" fill="white"/>
<path id="Vector_11" d="M87.7093 6.5618C87.7992 6.65169 87.7992 6.74157 87.7093 6.92135C87.5294 7.10112 87.2595 7.19101 86.8997 7.10112C87.1695 6.92135 87.4394 6.74157 87.7093 6.5618Z" fill="white"/>
<path id="Vector_12" d="M85.3703 6.5618C85.6402 6.74157 85.9101 6.92135 86.09 7.01124C85.9101 7.10112 85.5502 7.10112 85.3703 6.92135C85.2804 6.92135 85.2804 6.74157 85.3703 6.5618Z" fill="white"/>
<path id="Vector_13" d="M89.5085 18.7865C89.5085 19.0562 89.5085 19.1461 89.2386 19.1461C89.0587 19.1461 88.8788 19.236 88.6089 19.236C88.9687 19.0562 89.3286 19.0562 89.5085 18.7865Z" fill="white"/>
<path id="Vector_14" d="M84.4707 19.1461C83.841 19.236 83.5712 19.0562 83.5712 18.7865C83.841 18.9663 84.1109 19.0562 84.4707 19.1461Z" fill="white"/>
<path id="Vector_15" d="M85.8201 4.85393C85.5502 4.76405 85.2804 4.58427 85.0105 4.49438C85.2804 4.4045 85.6402 4.58427 85.8201 4.85393C85.9101 4.85393 85.9101 4.85393 85.8201 4.85393Z" fill="white"/>
</g>
<path id="Vector_16" d="M11.8745 8.17978V22.5618C11.8745 23.191 11.6946 23.7303 11.2448 24.1798C10.795 24.6292 10.2552 24.809 9.62552 24.809C8.99582 24.809 8.45607 24.5393 8.00628 24.0899C7.55648 23.6405 7.28661 23.0112 7.10669 22.2022L0 23.9101C0.179916 24.9888 0.449791 25.9775 0.98954 26.8764C1.52929 27.7753 2.159 28.5843 2.96862 29.3034C3.77824 30.0225 4.67782 30.5618 5.75732 30.9214C6.83682 31.3708 8.00628 31.5506 9.26569 31.5506C10.795 31.5506 12.1444 31.2809 13.4038 30.8315C14.6632 30.382 15.6527 29.7528 16.5523 28.9438C17.4519 28.1348 18.0816 27.236 18.5314 26.0674C18.9812 24.9888 19.251 23.8202 19.251 22.4719V8.08989H11.8745V8.17978Z" fill="white"/>
<path id="Vector_17" d="M36.1631 8.17978V21.6629C36.1631 22.6517 35.8933 23.3708 35.2635 24C34.6338 24.6292 33.9142 24.8989 32.9246 24.8989C31.9351 24.8989 31.2154 24.6292 30.5857 24C29.956 23.3708 29.6861 22.6517 29.6861 21.6629V8.17978H22.3096V21.6629C22.3096 23.1011 22.5794 24.4494 23.0292 25.618C23.569 26.7865 24.1987 27.8652 25.1882 28.764C26.0878 29.6629 27.2573 30.382 28.5167 30.8315C29.7761 31.2809 31.3054 31.5506 32.8347 31.5506C34.364 31.5506 35.8933 31.2809 37.1527 30.8315C38.502 30.382 39.5815 29.6629 40.4811 28.764C41.3807 27.8652 42.1004 26.8764 42.6401 25.618C43.1799 24.4494 43.3598 23.1011 43.3598 21.6629V8.17978H36.1631Z" fill="white"/>
<path id="Vector_18" d="M118.205 18.1573V23.6404H121.713V24C121.444 24.1798 121.174 24.3596 120.814 24.4494C120.544 24.5393 120.184 24.7191 119.824 24.809C119.464 24.8989 119.015 24.9888 118.565 24.9888C117.935 24.9888 117.305 24.809 116.676 24.5393C116.046 24.2697 115.506 23.8202 115.057 23.3708C114.607 22.8315 114.157 22.2921 113.887 21.6629C113.617 21.0337 113.437 20.3146 113.437 19.5955C113.437 18.8764 113.617 18.1573 113.887 17.5281C114.157 16.8989 114.607 16.2697 115.057 15.8202C115.506 15.2809 116.046 14.9213 116.676 14.6517C117.305 14.382 117.935 14.2022 118.565 14.2022C119.105 14.2022 119.644 14.2921 120.004 14.382C120.454 14.4719 120.814 14.6517 121.084 14.8315C121.444 15.0112 121.713 15.2809 121.983 15.5506C122.163 15.7303 122.343 16 122.523 16.2697C122.613 16.3596 122.613 16.4494 122.703 16.4494L130.08 15.4607C129.9 14.8315 129.63 14.2921 129.36 13.6629C129.18 13.2135 128.91 12.8539 128.64 12.4045C128.01 11.4157 127.201 10.6067 126.301 9.88764C125.402 9.16854 124.232 8.53933 123.063 8.08989C122.883 8 122.793 8 122.613 7.91011C122.433 7.82023 122.253 7.82023 122.163 7.73034C121.444 7.55056 120.544 7.46067 119.734 7.37079C119.464 7.37079 119.285 7.37079 119.015 7.37079H118.745C117.036 7.37079 115.326 7.73034 113.887 8.35955C112.358 9.07865 111.008 9.88764 109.839 11.0562C108.849 12.0449 107.95 13.2135 107.32 14.4719C107.32 14.5618 107.23 14.6517 107.23 14.7416C106.6 16.1798 106.331 17.7978 106.331 19.5955C106.331 21.3034 106.6 22.9214 107.23 24.3596C107.86 25.7978 108.669 27.1461 109.839 28.3146C111.008 29.4831 112.358 30.2921 113.887 30.9214C115.146 31.3708 116.406 31.6404 117.845 31.7303C117.935 31.7303 118.025 31.7303 118.115 31.7303C118.385 31.7303 118.655 31.7303 118.925 31.7303H119.015C119.285 31.7303 119.464 31.7303 119.734 31.7303C119.914 31.7303 120.094 31.7303 120.274 31.7303C121.444 31.6404 122.523 31.2809 123.603 30.8315C125.042 30.2022 126.301 29.3034 127.381 28.2247C128.46 27.1461 129.36 25.8876 129.99 24.5393C130.619 23.191 130.889 21.7528 130.889 20.3146V18.427H118.205V18.1573Z" fill="white"/>
<path id="Vector_19" d="M139.975 23.9101V8.17978H132.598V30.5618H150.86V23.8202H139.975V23.9101Z" fill="white"/>
<path id="Vector_20" d="M172 14.5618V8.17978H152.749V30.5618H172V24.1798H160.126V22.2921H169.391V16.5393H160.126V14.6517H172V14.5618Z" fill="white"/>
<path id="Vector_21" d="M60.5418 8.17978V10.5169V16V18.9663L59.7322 17.0787L54.7845 8.17978H46.7782V30.5618H54.1548V20.6742H54.4246L60.5418 30.5618H67.9184V11.9551V8.17978H60.5418Z" fill="white"/>
</g>
</g>
<defs>
<clipPath id="clip0_125_389">
<rect width="172" height="32" fill="white"/>
</clipPath>
</defs>
</svg>
