<svg width="129" height="24" viewBox="0 0 129 24" fill="none" xmlns="http://www.w3.org/2000/svg">
<g id="jungle_logo_horizontal 1" clip-path="url(#clip0_55_3331)">
<g id="Group">
<g id="Group_2">
<path id="Vector" d="M53.1653 15.8427C53.1653 15.7079 53.1653 15.5056 53.1653 15.3708C53.3002 15.0337 53.5026 14.764 53.6376 14.427C53.6376 14.3596 53.6376 14.2921 53.6376 14.2247C53.5701 13.9551 53.5701 13.7528 53.7725 13.5506C53.9074 13.4157 53.9749 13.2809 54.1098 13.2135C54.2448 13.1461 54.3122 13.0787 54.3122 12.8764C54.3122 12.809 54.3122 12.7416 54.3797 12.6067C54.4472 12.3371 54.5821 12.0674 54.7171 11.7978C54.9195 11.3933 55.1893 11.0562 55.5267 10.7191C55.6616 10.5843 55.7291 10.4494 55.7966 10.3146C55.9315 9.91011 56.0664 9.50562 56.2688 9.16854C56.6062 8.69663 57.011 8.29214 57.4833 7.88764C57.5507 7.82023 57.7531 7.75281 57.8206 7.75281C58.2929 7.61798 58.7652 7.55056 59.2375 7.41573C59.4399 7.34832 59.6423 7.21348 59.7772 7.07865C60.1145 6.67416 60.5194 6.26966 60.9242 5.93259C61.2615 5.66292 61.6663 5.46067 62.0711 5.19101C62.2061 5.1236 62.341 4.98876 62.4759 4.85393C62.2735 4.65169 62.2061 4.44944 62.2061 4.17978C62.2061 3.8427 62.2061 3.57303 62.4759 3.30337C62.6109 3.16854 62.6784 3.10112 62.7458 2.89888C62.7458 2.76405 62.8133 2.69663 62.8808 2.5618C62.8133 2.5618 62.7458 2.5618 62.6784 2.5618C62.7458 2.42697 62.9482 2.35955 62.8808 2.1573C63.0157 2.02247 63.0157 1.82023 63.2181 1.75281C63.2181 1.75281 63.1506 1.75281 63.1506 1.68539C63.353 1.61798 63.4205 1.34832 63.6229 1.21348C63.6904 1.14607 63.7579 1.01124 63.6904 0.876405C63.7579 0.876405 63.7579 0.876405 63.8253 0.876405C63.8253 0.808989 63.7579 0.674158 63.7579 0.606742C63.8253 0.606742 63.8928 0.606742 63.9603 0.674158C63.8928 0.539326 63.8928 0.404495 63.8253 0.269663C63.9603 0.337079 64.0277 0.471911 64.1627 0.471911C64.0952 0.337079 64.0952 0.269663 64.0277 0.134832C64.1627 0.202248 64.2301 0.202248 64.3651 0.269663C64.3651 0.202248 64.3651 0.0674162 64.3651 4.99189e-07C64.5 4.99189e-07 64.6349 0.0674162 64.7699 0.0674162C64.7699 4.99189e-07 64.7699 4.99189e-07 64.8374 -0.0674152C64.9048 0.134832 65.1072 0.202248 65.2422 0.269663C65.2422 0.269663 65.2422 0.202248 65.3096 0.134832C65.5795 0.269663 65.7819 0.471911 65.9843 0.741574L66.0518 0.808989C66.1193 0.876405 66.1867 0.876405 66.2542 0.943821C66.3891 1.01124 66.4566 1.21348 66.5915 1.21348C66.5915 1.21348 66.659 1.21348 66.659 1.2809C66.5915 1.48315 66.7939 1.48315 66.8614 1.55056L66.9289 1.61798C66.8614 1.75281 66.9964 1.75281 66.9964 1.82023C67.1313 1.95506 67.1988 2.08989 67.3337 2.22472C67.2662 2.22472 67.2662 2.1573 67.1988 2.1573C67.2662 2.22472 67.4012 2.35955 67.4686 2.42697C67.4012 2.42697 67.4012 2.42697 67.3337 2.35955C67.4012 2.5618 67.4686 2.69663 67.5361 2.83146C67.5361 2.96629 67.6036 3.03371 67.7385 3.10112C67.8734 3.23596 68.0084 3.4382 68.0084 3.64045C68.0758 3.97753 68.0084 4.31461 67.806 4.58427C67.9409 4.65169 68.0084 4.78652 68.1433 4.85393C68.4132 5.05618 68.6831 5.19101 69.0204 5.39326C69.6951 5.79775 70.3023 6.26966 70.7746 6.87641C70.9095 7.01124 71.0445 7.14607 71.2469 7.21348C71.7192 7.34832 72.2589 7.48315 72.7312 7.61798C73.136 7.68539 73.4059 7.82023 73.7432 8.02247C73.7432 8.02247 73.7432 8.02247 73.8107 8.02247C74.4179 8.49438 74.8902 9.03371 75.1601 9.70787C75.2275 9.91011 75.2275 10.0449 75.3625 10.1798C75.4974 10.3146 75.6323 10.382 75.7673 10.5169C76.442 11.1236 76.7793 11.7978 76.7793 12.7416C76.7793 12.809 76.8468 12.809 76.8468 12.8764C76.9817 13.0112 77.1841 13.1461 77.319 13.3483C77.5215 13.5506 77.5215 13.7528 77.454 14.0225C77.454 14.0899 77.454 14.1573 77.454 14.2247C77.5889 14.6292 77.7913 14.9663 77.9263 15.3708C77.9263 15.4382 77.9263 15.5056 77.9263 15.573C77.8588 15.7753 77.7913 15.9775 77.7239 16.1798C77.5889 16.4494 77.454 16.7191 77.454 17.0562C77.3865 17.5281 77.1166 17.9326 76.8468 18.2697C76.307 18.8764 75.6998 19.2809 75.0251 19.7528C74.8902 19.8202 74.8902 19.8876 74.8902 20.0225C74.8902 20.2921 74.8227 20.4944 74.8227 20.764C74.7552 21.1685 74.6878 21.573 74.4179 21.9101C74.3504 21.9775 74.3504 22.0449 74.3504 22.0449C74.283 22.4494 74.148 22.7865 73.9456 23.191C73.8107 23.3933 73.6757 23.5281 73.4059 23.5281C73.0685 23.5281 72.7312 23.4607 72.3938 23.2584C72.124 23.4607 71.8541 23.5281 71.5842 23.3933C71.3818 23.3258 71.1794 23.2584 70.977 23.3258C70.8421 23.3258 70.7071 23.2584 70.6397 23.1236C70.5722 22.7865 70.4373 22.4494 70.3698 22.1798C70.3698 22.1124 70.3698 22.0449 70.4372 21.9775C70.5047 21.9101 70.5722 21.8427 70.6397 21.7079C70.6397 21.7079 70.6397 21.7079 70.7071 21.6404C70.7071 21.7079 70.7071 21.7753 70.7071 21.8427C70.977 21.8427 71.1794 21.8427 71.3818 21.6404C71.4493 21.573 71.5167 21.5056 71.6517 21.4382C71.7866 21.3708 71.8541 21.236 71.8541 21.1011C71.8541 20.9663 71.9216 20.8989 71.989 20.8315C72.3264 20.6966 72.5288 20.427 72.7312 20.1573C72.8661 19.9551 73.0011 19.8202 73.136 19.6854C73.0685 20.0225 73.0011 20.3596 72.7987 20.6292C73.2709 20.427 73.5408 20.0225 73.8107 19.618C73.8107 20.0899 73.8107 20.4944 73.5408 20.8989C73.8107 20.764 73.9456 20.5618 74.0806 20.3596C74.2155 20.1573 74.283 19.8876 74.4179 19.618C74.4854 19.618 74.5528 19.618 74.6203 19.618C74.7552 19.618 74.7552 19.5506 74.8227 19.4831C74.8902 19.4157 74.9576 19.3483 75.0251 19.2809C75.0926 19.2135 75.1601 19.2135 75.1601 19.1461C75.2275 19.1461 75.2275 19.0787 75.295 19.0112C75.0926 19.0112 74.9576 19.0112 74.7552 19.0787C74.8902 18.9438 75.0251 18.809 75.1601 18.7416C75.4974 18.4719 75.9022 18.2022 76.2395 17.9326C76.442 17.7978 76.5769 17.6629 76.7793 17.4607C76.307 17.7303 75.8347 18 75.2275 18.0674C75.3625 18 75.4299 17.9326 75.5649 17.7978C75.7673 17.6629 75.8347 17.5955 75.8347 17.4607C75.3625 17.6629 74.8902 17.8652 74.4179 18C74.5528 17.8652 74.7552 17.7303 74.8902 17.6629C75.0251 17.5281 75.16 17.3933 75.3625 17.2584C75.4974 17.1236 75.6323 16.9888 75.7673 16.7865C75.9022 16.6517 75.9697 16.4494 76.1046 16.3146C76.1721 16.1798 76.307 15.9775 76.3745 15.8427C76.3745 15.8427 76.3745 15.8427 76.307 15.8427C76.0371 16.1124 75.6998 16.3146 75.3625 16.4494C75.7673 16.0449 76.1721 15.573 76.3745 14.9663C76.1046 15.236 75.9022 15.4382 75.6998 15.7079C75.295 16.2472 74.8902 16.8539 74.4854 17.4607C74.6878 16.9888 74.8902 16.5843 75.0926 16.1124C75.295 15.6405 75.4974 15.236 75.7673 14.8315C75.4299 15.0337 75.1601 15.3034 74.8902 15.573C74.6878 15.9101 74.4854 16.2472 74.283 16.5169V16.4494C74.4854 15.6405 74.8902 15.0337 75.5649 14.5618C75.8347 14.3596 76.1046 14.1573 76.307 13.9551C76.5094 13.7528 76.5094 13.6854 76.3745 13.4157C76.3745 13.4157 76.3745 13.4157 76.3745 13.3483C76.6444 13.5506 76.9817 13.618 77.3865 13.6854C77.2516 13.4831 77.1166 13.3483 76.9817 13.2135C76.8468 13.0787 76.7118 13.0787 76.5769 13.0112C76.442 13.0112 76.307 13.0112 76.1721 12.9438C76.1046 12.9438 76.0371 12.8764 75.9697 12.809C75.9022 12.7416 75.8347 12.6742 75.7673 12.6067C75.6323 12.4719 75.4974 12.3371 75.3625 12.2022C75.2275 12 75.0926 11.7978 75.0926 11.5955C75.2275 11.6629 75.295 11.7978 75.4299 11.8652C75.5649 12 75.7673 12.1348 75.9697 12.1348C76.1721 12.1348 76.307 12.0674 76.307 11.7978C76.307 11.5955 76.2396 11.3933 76.1046 11.191C75.8347 10.8539 75.5649 10.5843 75.2275 10.3146C75.2275 10.3146 75.2275 10.3146 75.1601 10.3146V10.382C75.1601 10.6517 75.0926 10.9213 74.8227 11.1236C74.7552 11.1236 74.7552 11.2584 74.7552 11.2584C74.6878 11.4607 74.6878 11.7303 74.6203 11.9326C74.6203 12 74.5528 12.1348 74.4854 12.1348C74.4854 12.0674 74.4854 12 74.4179 11.9326C74.3504 11.5281 74.148 11.3933 73.7432 11.3933C73.5408 11.3933 73.2709 11.3933 73.0685 11.4607C72.5962 11.5281 72.0565 11.5955 71.6517 11.8652C71.5167 11.9326 71.4493 12 71.4493 12.2022C71.4493 12.4045 71.4493 12.6067 71.4493 12.7416C71.5167 13.4831 72.3264 13.8876 73.0011 13.4831C72.5288 13.0112 72.124 12.2697 72.0565 12C72.1914 12.2022 72.3264 12.3371 72.3938 12.5393C72.5288 12.6742 72.5962 12.8764 72.7312 13.0112C72.9336 13.2135 73.136 13.2135 73.3384 13.1461C73.4059 12.9438 73.3384 12.7416 73.2035 12.5393C73.6083 12.6067 73.9456 12.6742 74.3504 12.4719C74.3504 12.6742 74.283 12.8764 74.283 13.0787C74.3504 13.0787 74.3504 13.0112 74.4179 13.0112C74.5528 12.9438 74.6203 13.0112 74.6203 13.0787C74.6203 13.1461 74.6203 13.2135 74.6203 13.2809C74.5528 13.3483 74.4854 13.4831 74.4179 13.5506C74.148 13.8876 73.8781 14.2921 73.7432 14.6966C73.5408 15.1685 73.5408 15.6405 73.6757 16.1798C73.7432 16.3146 73.7432 16.5169 73.6757 16.7191C73.6083 16.9213 73.5408 17.1236 73.4733 17.2584C73.2709 17.6629 73.0685 18 72.7987 18.4045C72.7312 18.4719 72.7312 18.5393 72.6637 18.6067C72.7986 18.6067 72.8661 18.6742 72.9336 18.6742C73.0011 18.6742 73.0685 18.7416 73.136 18.809C73.136 18.809 73.136 18.809 73.136 18.8764C73.0685 18.8764 73.0685 18.8764 73.0011 18.8764C72.7986 18.8764 72.5962 18.8764 72.4613 18.9438C72.124 19.1461 71.7866 19.1461 71.4493 18.8764C71.1794 18.6742 70.977 18.6742 70.6397 18.8764C70.5047 18.9438 70.3698 19.0787 70.2348 19.1461C70.0324 19.2809 69.965 19.3483 70.0324 19.618C70.4373 19.618 70.7746 19.4157 71.0445 19.1461C71.1794 19.2135 71.3818 19.2809 71.4493 19.4157C71.2469 19.5506 71.0445 19.7528 70.8421 19.8876C70.5047 20.0899 70.2348 20.3596 69.8975 20.5618C69.7626 20.6292 69.6951 20.764 69.6276 20.8989C69.5602 21.0337 69.6276 21.1011 69.7626 21.1011C69.965 21.1011 70.1674 21.1011 70.3023 20.8989C70.5722 20.5618 70.8421 20.2247 71.1119 19.8876C71.3143 19.618 71.5842 19.5506 71.9216 19.5506C71.9216 19.5506 71.9216 19.5506 71.8541 19.618C71.5842 19.7528 71.3818 19.9551 71.3143 20.2247C71.2469 20.3596 71.1794 20.4944 71.0445 20.6292C70.7746 20.8989 70.5722 21.236 70.4372 21.5056C70.3698 21.6405 70.3023 21.7079 70.1674 21.8427C70.0999 21.9101 70.0324 21.9775 70.0324 22.1124C70.0324 22.382 70.0324 22.6517 70.0324 22.9213C70.0324 22.9888 70.0999 23.1236 70.1674 23.191C70.3698 23.3933 70.5047 23.5281 70.7071 23.7303C70.7746 23.7978 70.7746 23.7978 70.8421 23.8652C70.7746 23.8652 70.7746 23.8652 70.7071 23.8652C69.2228 23.8652 67.7385 23.8652 66.2542 23.8652C66.1867 23.8652 66.1193 23.7978 66.0518 23.7978C65.8494 23.6629 65.7144 23.4607 65.5795 23.191C65.512 23.2584 65.3771 23.3258 65.3096 23.4607C65.1747 23.3933 65.1072 23.2584 65.0398 23.191C64.9048 23.3258 64.8374 23.4607 64.7024 23.5955C64.5 23.7978 64.2976 23.9326 64.0277 23.8652C63.9603 23.8652 63.8928 23.8652 63.8928 23.8652C62.6109 23.8652 61.329 23.8652 60.0471 23.8652C59.9796 23.8652 59.8447 23.8652 59.7772 23.8652C59.8447 23.7978 59.8447 23.7303 59.9121 23.7303C60.1146 23.5281 60.2495 23.3258 60.4519 23.191C60.5194 23.1236 60.5868 23.0562 60.5868 22.9213C60.5868 22.6517 60.5868 22.382 60.5868 22.1798C60.5868 22.1124 60.5868 22.0449 60.5194 21.9775C60.317 21.8427 60.2495 21.6404 60.1145 21.4382C60.0471 21.3034 59.9121 21.1011 59.7772 20.9663C59.5748 20.6966 59.3724 20.427 59.2375 20.1573C59.17 19.9551 59.035 19.8202 58.8326 19.6854L58.7652 19.618C59.1025 19.6854 59.3724 19.7528 59.5748 20.0225C59.8447 20.3596 60.0471 20.6292 60.317 20.9663C60.5194 21.236 60.7218 21.236 60.9916 21.236C61.0591 21.236 61.0591 21.1685 61.1266 21.1685C61.194 21.0337 61.0591 20.8315 60.9242 20.764C60.5194 20.4944 60.1145 20.2247 59.7097 19.8876C59.6423 19.7528 59.4399 19.7528 59.3724 19.618C59.3049 19.618 59.3049 19.5506 59.2375 19.5506C59.4399 19.4157 59.5748 19.3483 59.7097 19.2809C59.7772 19.3483 59.8447 19.3483 59.8447 19.4157C60.0471 19.618 60.317 19.7528 60.5868 19.7528C60.7218 19.7528 60.7218 19.7528 60.7892 19.618C60.8567 19.4157 60.7892 19.3483 60.6543 19.2809C60.4519 19.2135 60.2495 19.1461 60.1145 19.0112C59.7772 18.809 59.6423 18.7416 59.3049 19.0112C59.0351 19.2135 58.8326 19.2135 58.5628 19.0787C58.4953 19.0112 58.3604 19.0112 58.2254 19.0112C58.0905 19.0112 57.9556 19.0112 57.8206 19.0112C57.9556 18.809 58.2254 18.9438 58.4278 18.809C58.3604 18.6742 58.2929 18.5393 58.2254 18.4719C58.023 18.0674 57.8206 17.7303 57.6182 17.3258C57.4158 16.9888 57.4158 16.6517 57.5507 16.3146C57.6857 15.6405 57.6182 15.0337 57.2809 14.4944C57.1459 14.2247 56.9435 13.9551 56.7411 13.7528C56.6736 13.6854 56.6062 13.5506 56.6062 13.4157C56.6062 13.3483 56.6062 13.2809 56.6736 13.2135H56.8086C56.8761 13.2135 56.8761 13.2135 56.9435 13.2809C56.9435 13.0787 56.9435 12.8764 56.9435 12.6742C57.2809 12.8764 57.5507 12.8764 57.8881 12.809C57.8881 12.9438 57.8206 13.1461 57.8206 13.2809C57.8206 13.4831 57.8881 13.4831 58.0905 13.4831C58.2929 13.4157 58.4278 13.2809 58.4953 13.1461C58.6302 12.9438 58.7652 12.7416 58.9001 12.5393C58.9676 12.4719 58.9676 12.4045 59.0351 12.3371C59.0351 12.3371 59.035 12.3371 59.1025 12.3371C58.9001 12.8764 58.5628 13.3483 58.158 13.8202C58.3604 13.8876 58.5628 13.8876 58.7652 13.9551C59.3049 13.9551 59.7097 13.618 59.7772 13.0787C59.7772 12.8764 59.7772 12.6742 59.7772 12.4719C59.7772 12.3371 59.7097 12.2697 59.5748 12.2697C59.3049 12.1348 58.9676 12 58.6977 11.9326C58.2929 11.7978 57.9556 11.7978 57.5507 11.8652C57.3483 11.8652 57.2134 12 57.1459 12.2022C57.1459 12.2697 57.0785 12.4045 57.0785 12.4719C57.0785 12.5393 57.011 12.5393 57.011 12.6067C57.011 12.6067 57.011 12.6067 56.9435 12.6067C56.8761 12.5393 56.8761 12.4045 56.8086 12.3371C56.8086 12.1348 56.8086 12 56.8086 11.7978C56.8086 11.6629 56.8086 11.5955 56.7411 11.5281C56.5387 11.3933 56.4712 11.191 56.4712 10.9888C56.4712 10.9213 56.4712 10.8539 56.4712 10.7191C56.3363 10.8539 56.2014 10.9888 56.1339 11.1236C55.999 11.3258 55.864 11.4607 55.7291 11.6629C55.5942 11.8652 55.5267 12.0674 55.5942 12.3371C55.6616 12.4719 55.7291 12.5393 55.864 12.5393C56.1339 12.5393 56.2688 12.3371 56.4038 12.2022C56.4712 12.1348 56.4712 12.0674 56.5387 12C56.4712 12.4719 56.2688 12.809 55.7966 13.0787C55.7291 13.1461 55.6616 13.1461 55.5942 13.2809C55.5267 13.4157 55.4592 13.4157 55.3243 13.4831C55.2568 13.4831 55.1219 13.4831 55.0544 13.5506C54.7845 13.618 54.6496 13.8202 54.4472 14.0899C54.4472 14.0899 54.4472 14.1573 54.5147 14.1573C54.7845 14.0225 55.1219 13.9551 55.4592 13.8202V13.8876C55.3243 14.1573 55.3243 14.2247 55.4592 14.427C55.5267 14.4944 55.5942 14.6292 55.7291 14.6966C55.864 14.8315 55.999 14.8989 56.1339 15.0337C56.4712 15.3708 56.8761 15.6405 57.0785 16.1124C57.2809 16.4494 57.4158 16.8539 57.5507 17.2584C57.5507 17.2584 57.5507 17.2584 57.5507 17.3258C57.1459 16.5843 56.7411 15.8427 55.999 15.3708C56.3363 16.1124 56.7411 16.9214 57.0785 17.6629C57.0785 17.6629 57.0785 17.6629 57.011 17.6629C56.4712 16.9214 55.9315 16.1798 55.3917 15.5056C55.5942 16.0449 55.9315 16.382 56.2688 16.7865C56.0664 16.6517 55.864 16.4494 55.5942 16.3146C55.5942 16.382 55.5942 16.382 55.5942 16.382C55.7966 16.7865 55.9315 17.1236 56.2688 17.4607C56.5387 17.7303 56.8761 18.0674 57.1459 18.3371C57.1459 18.3371 57.2134 18.4045 57.2134 18.4719C56.8086 18.2697 56.4712 18.0674 56.0664 17.9326C56.0664 17.9326 56.0664 17.9326 56.0664 18C56.2688 18.1348 56.4712 18.3371 56.6736 18.5393C56.1339 18.4719 55.7966 18.2022 55.3243 18C55.3917 18.0674 55.5267 18.2022 55.5942 18.2697C55.999 18.6067 56.4038 18.8764 56.8086 19.2135C56.9435 19.2809 57.011 19.4157 57.1459 19.5506C56.9435 19.5506 56.7411 19.4831 56.5387 19.5506C56.7411 19.7528 56.8761 20.0225 57.1459 20.0899C57.2134 20.3596 57.2809 20.5618 57.4158 20.8315C57.5507 21.1011 57.7531 21.3034 57.9556 21.3708C57.6857 20.9663 57.6857 20.5618 57.6857 20.0899C57.8206 20.2921 57.9556 20.4944 58.023 20.6966C58.2254 20.9663 58.3604 21.1011 58.4953 21.1011C58.3604 20.8315 58.2929 20.4944 58.2254 20.1573C58.3604 20.3596 58.4953 20.5618 58.6302 20.764C58.7652 21.0337 58.9676 21.236 59.2375 21.3708C59.3724 21.4382 59.4399 21.5056 59.4399 21.7079C59.4399 21.7753 59.5073 21.9101 59.5073 21.9775C59.6423 22.1124 59.7097 22.2472 59.8447 22.3146C60.0471 22.4494 60.2495 22.5169 60.5194 22.4494C60.4519 22.3146 60.3844 22.1798 60.317 22.0449C60.5194 22.2472 60.6543 22.382 60.7892 22.5843C60.7892 22.5843 60.7892 22.6517 60.7892 22.7191C60.7218 23.0562 60.5868 23.3933 60.5194 23.7303C60.4519 23.8652 60.3844 23.9326 60.2495 23.9326C60.0471 23.9326 59.7772 24 59.5748 24.0674C59.3049 24.1348 59.035 24.0674 58.8326 23.9326C58.6977 24 58.5628 24.0674 58.3604 24.1348C57.8206 24.2697 57.5507 24.2022 57.3483 23.5955C57.2809 23.3933 57.2134 23.2584 57.1459 23.0562C57.0785 22.8539 57.011 22.7191 56.9435 22.5169C56.8086 22.2472 56.6736 21.9775 56.6736 21.7079C56.6736 21.3708 56.6062 21.0337 56.6062 20.764C56.6062 20.6292 56.5387 20.4944 56.4038 20.427C56.3363 20.3596 56.2688 20.2921 56.2014 20.2247C55.7966 19.8202 55.3917 19.3483 54.9869 18.9438C54.7171 18.6067 54.5147 18.2697 54.4472 17.7978C54.4472 17.6629 54.4472 17.4607 54.4472 17.3258C54.4472 17.2584 54.4472 17.191 54.3797 17.1236C53.3677 16.382 53.2328 16.1124 53.1653 15.8427ZM64.4325 3.64045C64.2301 3.37079 63.9603 3.16854 63.6229 3.03371C63.488 2.96629 63.353 3.03371 63.2181 3.16854C63.2856 3.23596 63.353 3.23596 63.353 3.30337C63.2181 3.4382 63.1506 3.57303 63.0157 3.64045C62.9482 3.77528 62.8808 3.91011 62.8808 4.04494C62.8808 4.11236 62.8808 4.17978 63.0157 4.17978C63.0157 4.11236 63.0157 4.11236 63.0832 4.04494C63.1506 3.77528 63.353 3.70787 63.5554 3.91011C63.6904 3.97753 63.8253 4.11236 63.9603 4.17978C64.0952 4.24719 64.2301 4.31461 64.4325 4.31461C64.2976 4.17978 64.1627 4.04494 64.0277 3.91011C64.2976 4.04494 64.5675 3.97753 64.7024 4.24719C64.7699 4.11236 64.7699 4.04494 64.7699 4.04494C64.7699 3.97753 64.7699 3.91011 64.8374 3.91011C64.9048 3.91011 64.9723 3.97753 64.9723 4.04494C64.9723 4.11236 64.9723 4.11236 64.9723 4.24719C65.0398 4.11236 65.0398 4.04494 65.0398 4.04494C65.2422 3.97753 65.3771 3.91011 65.5795 3.8427C65.4446 3.97753 65.2422 3.97753 65.1747 4.24719C65.2422 4.24719 65.3096 4.24719 65.3771 4.24719C65.512 4.17978 65.647 4.17978 65.7144 4.11236C65.8494 4.04494 66.0518 3.91011 66.1867 3.8427C66.3891 3.77528 66.5241 3.77528 66.5915 4.04494C66.5915 4.11236 66.659 4.17978 66.659 4.24719C66.7939 4.04494 66.7939 3.97753 66.7939 3.8427C66.7265 3.50562 66.5241 3.37079 66.2542 3.16854C66.3217 3.16854 66.3217 3.16854 66.3891 3.16854C66.4566 3.16854 66.4566 3.10112 66.5241 3.10112C66.5241 3.03371 66.4566 3.03371 66.4566 2.96629C66.3891 2.96629 66.3891 2.89888 66.3217 2.96629C66.2542 2.96629 66.1193 3.03371 66.0518 3.03371C65.7819 3.16854 65.512 3.37079 65.2422 3.57303C65.1747 3.64045 65.1072 3.64045 65.1072 3.64045C64.7699 3.8427 64.5675 3.77528 64.4325 3.64045ZM58.5628 7.75281V7.82023C58.4953 7.88764 58.4953 7.88764 58.4278 7.95506C58.2254 8.22472 57.9556 8.42697 57.7531 8.69663C57.4833 9.03371 57.4158 9.70787 57.6182 10.1124C57.9556 9.30337 58.3604 8.83146 58.8326 8.69663C58.6977 8.89888 58.5628 9.10112 58.4278 9.30337C58.2929 9.50562 58.2254 9.70787 58.158 9.97753C58.6302 9.50562 59.3049 9.30337 59.9121 9.03371C59.5073 9.37079 59.1025 9.64045 58.8326 10.0449C59.035 9.97753 59.17 9.91011 59.3049 9.8427C59.7772 9.70787 60.182 9.4382 60.5194 9.16854C60.7892 8.89888 61.1266 8.69663 61.4639 8.5618C61.4639 8.5618 61.5314 8.5618 61.5314 8.49438C60.9242 8.22472 60.317 7.88764 59.7097 7.82023C59.7772 7.82023 59.9121 7.75281 59.9796 7.75281C59.9796 7.75281 59.9796 7.75281 59.9796 7.68539C59.8447 7.61798 59.7772 7.55056 59.6423 7.55056C59.3049 7.61798 58.9001 7.61798 58.5628 7.75281C58.3604 7.82023 58.0905 7.82023 57.8881 7.88764C57.4158 7.95506 57.2134 8.29214 56.9435 8.5618C57.1459 8.49438 57.2809 8.29214 57.4158 8.29214C57.011 8.69663 56.5387 9.03371 56.2688 9.57303C56.4712 9.37079 56.6062 9.23596 56.8086 9.03371C56.8086 9.03371 56.8086 9.03371 56.8761 9.03371C56.8761 9.23596 56.8761 9.37079 56.8761 9.57303C56.8761 9.77528 56.9435 9.91011 56.9435 10.1124C57.011 10.2472 57.011 10.4494 57.0785 10.5843C56.8086 9.77528 57.6182 8.1573 58.5628 7.75281ZM68.1433 12.6067C68.7505 12.4045 69.83 11.5281 70.0999 11.0562C70.0324 10.9888 70.0324 10.9213 69.965 10.8539C69.7626 10.6517 69.4927 10.4494 69.2903 10.3146C68.9529 10.0449 68.4807 9.91011 68.0758 9.77528C68.0084 9.77528 67.9409 9.70787 67.8734 9.70787C67.8734 9.70787 67.8734 9.70787 67.8734 9.64045C68.6156 9.77528 69.4252 9.8427 70.0324 10.4494C70.0324 10.382 70.0324 10.382 69.965 10.3146C69.6276 9.64045 69.0204 9.16854 68.2782 8.89888C67.6036 8.62921 66.8614 8.69663 66.1193 8.69663C66.0518 8.69663 65.9168 8.76405 65.8494 8.83146C65.5795 9.03371 65.3771 9.30337 65.1747 9.57303C65.1747 9.64045 65.1072 9.64045 65.1072 9.70787C65.3771 9.70787 65.647 9.57304 65.9843 9.64045C65.8494 9.70787 65.7819 9.70787 65.7144 9.77528C65.5795 9.8427 65.3771 9.91011 65.2422 9.97753C64.9723 10.1124 64.9723 10.2472 65.1072 10.5169C65.4446 10.5169 65.7144 10.4494 66.0518 10.4494C65.9843 10.5169 65.8494 10.5843 65.7819 10.5843C65.5795 10.6517 65.4446 10.7191 65.2422 10.8539C65.1072 10.9213 65.1072 11.0562 65.1072 11.1236C65.1072 11.2584 65.2422 11.191 65.3096 11.2584C65.512 11.3258 65.7819 11.3258 65.9843 11.3258C66.1867 11.3258 66.3217 11.3933 66.5241 11.4607V11.5281C66.1193 11.5281 65.7144 11.5281 65.2422 11.4607C65.3771 11.6629 65.512 11.7303 65.647 11.7978C66.2542 12.0674 66.9289 12.2022 67.6036 12.1348C67.671 12.1348 67.7385 12.0674 67.8734 12.0674V12C67.671 11.8652 67.5361 11.7978 67.3337 11.6629C67.9409 11.7303 68.5481 11.8652 69.2228 11.7303C68.818 12.0674 68.5481 12.4045 68.1433 12.6067ZM63.6904 9.64045C64.0277 9.64045 64.2976 9.70787 64.6349 9.77528C64.6349 9.70787 64.6349 9.64045 64.5675 9.64045C64.3651 9.4382 64.1627 9.16854 63.9603 8.96629C63.8253 8.83146 63.6904 8.76405 63.488 8.76405C63.0832 8.76405 62.6109 8.76405 62.2061 8.83146C61.5989 8.89888 61.0591 9.10112 60.5868 9.50562C60.2495 9.77528 59.9796 10.1124 59.8447 10.5169C60.182 10.2472 60.5194 10.0449 60.8567 9.91011C61.2615 9.77528 61.5989 9.70787 62.0037 9.70787C61.1266 9.97753 60.317 10.3146 59.7097 11.1236C60.2495 11.6629 60.7218 12.2022 61.4639 12.5393C61.194 12.3371 60.9242 12.0674 60.7218 11.7978C61.329 11.9326 61.9362 11.8652 62.5434 11.7303C62.341 11.8652 62.1386 11.9326 62.0037 12.1348C62.1386 12.1348 62.2061 12.2022 62.341 12.2022C62.7458 12.2697 63.1506 12.2022 63.5554 12.0674C63.8253 12 64.0277 11.8652 64.2301 11.7978C64.3651 11.7303 64.4325 11.6629 64.5 11.5955C64.3651 11.5955 64.2301 11.5281 64.0952 11.5955C63.9603 11.5955 63.8253 11.5955 63.6904 11.5955C63.5554 11.5955 63.4205 11.6629 63.2856 11.5281C63.7579 11.4607 64.1627 11.3933 64.6349 11.3258C64.7024 11.1236 64.6349 10.9888 64.4325 10.9213C64.1627 10.7865 63.9603 10.7191 63.6904 10.6517C63.6904 10.6517 63.6229 10.6517 63.6229 10.5843C63.7579 10.5843 63.8928 10.5169 64.0277 10.5843C64.1627 10.5843 64.3651 10.5843 64.5 10.6517C64.6349 10.6517 64.6349 10.5843 64.6349 10.5169C64.6349 10.382 64.6349 10.2472 64.4325 10.1798C64.2301 10.1124 64.0277 9.97753 63.8253 9.91011C63.8253 9.70787 63.7579 9.64045 63.6904 9.64045ZM72.5962 17.9326C72.4613 17.7303 72.3264 17.5955 72.1914 17.4607C71.8541 16.9888 71.7866 16.4494 71.9216 15.9775C71.989 15.7079 72.0565 15.4382 72.1914 15.1685C71.7866 15.1011 71.3818 14.8989 71.0445 14.6292C70.977 14.764 70.9095 14.8989 70.8421 15.0337C70.5722 15.573 70.0999 16.0449 69.5602 16.2472C69.4252 16.3146 69.4252 16.382 69.4252 16.4494C69.4252 16.9213 69.4252 17.3933 69.4252 17.7978C69.4252 17.8652 69.4252 17.9326 69.4927 17.9326C69.6276 18.2022 69.7626 18.4719 69.965 18.809C69.965 18.8764 70.0324 18.8764 70.0324 18.9438C70.0999 18.8764 70.1674 18.8764 70.1674 18.809C70.5047 18.5393 70.8421 18.5393 71.2469 18.809C71.3143 18.8764 71.3818 18.8764 71.4493 18.8764C71.7866 18.8764 72.0565 18.8764 72.2589 18.5393C72.3264 18.3371 72.4613 18.0674 72.5962 17.9326ZM57.6857 17.8652C57.8206 18.1348 57.9556 18.4045 58.0905 18.6742C58.2254 18.9438 58.5628 19.0112 58.7652 18.809C59.17 18.5393 59.4399 18.5393 59.8447 18.8764C59.9121 18.9438 59.9796 18.9438 60.0471 19.0112C60.0471 19.0112 60.1145 19.0112 60.1145 18.9438C60.2495 18.6067 60.5194 18.2697 60.7892 17.9326C60.8567 17.8652 60.8567 17.7978 60.8567 17.7303C60.8567 17.3258 60.8567 16.8539 60.8567 16.4494C60.8567 16.3146 60.7892 16.2472 60.6543 16.1798C59.9796 15.9101 59.5073 15.4382 59.17 14.764C59.17 14.6966 59.1025 14.6966 59.1025 14.6966C58.7652 14.8989 58.4278 15.0337 58.0905 15.1685C58.158 15.3708 58.2254 15.573 58.2929 15.8427C58.3604 16.1124 58.4278 16.382 58.3604 16.6517C58.2929 17.1236 58.0905 17.5281 57.6857 17.8652ZM68.2782 8.5618C68.7505 8.76405 69.1553 9.10112 69.5602 9.4382C69.965 9.77528 70.5047 9.91011 70.977 10.1124C70.7071 9.70787 70.3023 9.50562 69.965 9.23596C70.5047 9.4382 71.1119 9.64045 71.5167 10.0449C71.3818 9.57303 71.1119 9.23596 70.8421 8.83146C70.977 8.89888 71.1119 8.96629 71.2469 9.03371C71.7192 9.30337 72.0565 9.70787 72.3264 10.1798C72.3264 10.0449 72.3264 9.97753 72.3264 9.8427C72.3264 9.4382 72.1914 9.03371 71.9216 8.69663C71.7192 8.49438 71.5167 8.22472 71.3143 8.02247C71.3143 8.02247 71.2469 7.95506 71.2469 7.88764C71.8541 8.08989 72.124 8.62921 72.4613 9.10112C72.7987 9.57303 73.0011 10.1124 72.9336 10.7191C73.0011 10.2472 73.136 9.70787 73.0685 9.23596C73.0685 8.83146 72.8661 8.5618 72.5962 8.29214C72.5288 8.29214 72.5288 8.22472 72.4613 8.22472C72.6637 8.22472 72.8661 8.35955 73.0011 8.49438C73.2035 8.69663 73.2709 8.89888 73.3384 9.16854C73.4733 9.57304 73.5408 9.97753 73.5408 10.4494C73.7432 9.91011 73.7432 9.50562 73.4733 9.03371C73.4733 9.03371 73.4733 9.03371 73.5408 9.03371C73.8107 9.23596 74.0131 9.4382 74.283 9.70787C74.283 9.64045 74.2155 9.57304 74.148 9.50562C73.8107 8.96629 73.3384 8.62921 72.8661 8.29214C72.7986 8.22472 72.6637 8.22472 72.5962 8.22472C72.0565 8.08989 71.5842 8.02247 71.0445 7.88764C70.7746 7.82023 70.5047 7.82023 70.3023 7.82023C70.1674 7.82023 70.0999 7.88764 70.0324 7.95506C70.1674 8.02247 70.3023 8.02247 70.4372 8.08989C69.5602 7.95506 68.8855 8.22472 68.2782 8.5618ZM63.6229 6.60674C64.5 6.4045 65.3096 6.4045 66.1867 6.53933C66.1193 6.80899 65.9843 7.01124 65.9168 7.2809C66.3217 7.21348 66.5241 6.94382 66.5241 6.60674C66.5241 6.53933 66.5241 6.47191 66.5241 6.4045C66.5241 6.06742 66.3891 5.79775 66.1867 5.59551C66.1193 5.66292 66.0518 5.66292 65.9168 5.73034C65.9168 5.66292 65.9843 5.59551 65.9843 5.59551C66.2542 5.19101 66.2542 5.19101 65.9843 4.92135V4.85393C65.9169 4.78652 65.8494 4.7191 65.7819 4.7191C65.5795 4.65169 65.3096 4.65169 65.1072 4.7191C64.9723 4.78652 64.8374 4.78652 64.7699 4.7191C64.5 4.58427 64.2301 4.65169 64.0277 4.78652C63.7579 4.92135 63.6904 5.32584 63.8928 5.52809C63.9603 5.59551 63.9603 5.66292 64.0277 5.73034C63.9603 5.73034 63.9603 5.73034 63.8928 5.66292C63.7579 5.59551 63.7579 5.59551 63.6229 5.66292C63.4205 5.86517 63.2856 6.06742 63.2856 6.33708C63.2856 6.47191 63.2856 6.53933 63.2856 6.67416C63.2856 7.01124 63.5554 7.21348 63.8928 7.2809C63.8928 7.21348 63.8253 7.14607 63.8253 7.01124C63.8253 6.94382 63.7579 6.80899 63.7579 6.74157C63.8928 6.67416 63.9603 6.60674 64.0277 6.60674C64.0277 6.60674 64.0277 6.60674 64.0277 6.53933C63.8928 6.60674 63.7579 6.60674 63.6229 6.60674ZM67.806 6.47191C67.9409 6.67416 68.0084 6.87641 68.1433 7.14607C68.2108 7.2809 68.3457 7.34832 68.4807 7.34832C68.7505 7.34832 69.0204 7.41573 69.3578 7.41573C69.6276 7.48315 69.6951 7.55056 69.5602 7.82023C69.5602 7.82023 69.5602 7.82023 69.5602 7.88764C69.83 7.82023 69.965 7.61798 70.2348 7.55056C70.1674 7.48315 70.1674 7.34832 70.0999 7.2809C69.965 7.07865 69.83 6.94382 69.6951 6.80899C69.3578 6.4045 68.8855 6.13483 68.4807 5.79775C68.0758 5.59551 67.7385 5.32584 67.3337 5.05618C67.4686 5.32584 67.5361 5.59551 67.7385 5.79775C67.671 5.79775 67.671 5.79775 67.6036 5.79775C67.671 6.06742 67.671 6.33708 67.5361 6.53933C67.671 6.67416 67.7385 6.53933 67.806 6.47191ZM62.4085 5.19101C62.341 5.1236 62.341 5.1236 62.4085 5.19101C62.341 5.19101 62.2735 5.19101 62.2735 5.19101C61.8013 5.52809 61.329 5.79775 60.8567 6.13483C60.4519 6.4045 60.1145 6.74157 59.8447 7.07865C59.7772 7.14607 59.7097 7.2809 59.6423 7.41573C59.9121 7.55056 60.0471 7.75281 60.3844 7.75281C60.3844 7.68539 60.3844 7.68539 60.3844 7.68539C60.2495 7.41573 60.317 7.41573 60.5868 7.34832C60.8567 7.2809 61.1266 7.2809 61.3965 7.21348C61.5314 7.21348 61.5989 7.14607 61.6663 7.01124C61.8013 6.80899 61.9362 6.60674 62.0711 6.4045C62.1386 6.47191 62.1386 6.60674 62.341 6.47191C62.2061 6.20225 62.2061 6 62.2735 5.73034C62.2061 5.73034 62.1386 5.73034 62.0711 5.73034C62.1386 5.66292 62.2061 5.59551 62.2735 5.52809C62.2061 5.52809 62.2061 5.52809 62.2061 5.52809C62.2061 5.46067 62.341 5.32584 62.4085 5.19101ZM66.9964 13.6854C66.659 13.3483 66.1867 13.1461 65.7144 13.0787C65.5795 13.0787 65.3771 13.0787 65.2422 13.0787C65.1072 13.0787 64.9723 13.2135 64.9723 13.3483C64.9048 13.7528 65.0398 14.0225 65.3771 14.2247C65.512 14.2921 65.647 14.3596 65.7819 14.427C66.1193 14.5618 66.4566 14.5618 66.8614 14.5618C66.9963 14.5618 67.0638 14.5618 67.1988 14.4944C67.3337 14.427 67.4686 14.3596 67.4686 14.2247C67.4686 14.0225 67.4012 13.8876 67.1988 13.8202C67.1313 13.8202 67.1313 13.8202 67.0638 13.7528C66.7939 13.6854 66.4566 13.5506 66.1867 13.4831C66.1193 13.4831 66.1193 13.4831 66.0518 13.4157C66.0518 13.4157 66.0518 13.4157 66.0518 13.3483C66.1867 13.4157 66.3891 13.4157 66.5241 13.4831C66.7265 13.5506 66.8614 13.618 66.9964 13.6854ZM63.6229 13.4157C63.6904 13.4157 63.6904 13.4157 63.6229 13.4157C63.6229 13.4831 63.5554 13.4831 63.488 13.5506C63.2181 13.618 62.9482 13.7528 62.6784 13.8202C62.5434 13.8876 62.476 13.9551 62.4085 14.0225C62.2735 14.2247 62.2735 14.427 62.5434 14.4944C62.6109 14.5618 62.7458 14.5618 62.8808 14.5618C63.2856 14.6292 63.6904 14.4944 64.0952 14.3596C64.5675 14.1573 64.7024 13.9551 64.7024 13.4157C64.7024 13.1461 64.6349 13.0787 64.3651 13.0112C64.2976 13.0112 64.1627 12.9438 64.0277 13.0112C63.7579 13.0787 63.4205 13.2135 63.1506 13.2809C62.9482 13.3483 62.8133 13.4831 62.6784 13.618C63.0832 13.5506 63.353 13.4831 63.6229 13.4157ZM62.9482 8.35955C62.6109 7.82023 62.4085 7.2809 62.2735 6.67416C62.0037 6.94382 61.8687 7.2809 61.7338 7.61798C61.6663 7.75281 61.6663 7.95506 61.6663 8.08989C61.6663 8.29214 61.8013 8.35955 61.9362 8.35955C61.8687 8.22472 61.8687 8.1573 61.8013 8.02247C61.8013 8.02247 61.8013 8.02247 61.8687 8.02247C61.9362 8.08989 62.0037 8.22472 62.1386 8.29214C62.2061 8.35955 62.2735 8.35955 62.2735 8.35955C62.476 8.42697 62.6784 8.35955 62.9482 8.35955ZM67.806 8.42697C68.0084 8.35955 68.0758 8.22472 68.0758 8.08989C68.1433 7.55056 67.8734 7.14607 67.5361 6.74157C67.4686 7.34832 67.1988 7.88764 66.8614 8.42697C67.0638 8.42697 67.2662 8.49438 67.4686 8.42697C67.671 8.35955 67.806 8.22472 67.9409 8.08989C67.9409 8.1573 67.8734 8.29214 67.806 8.42697ZM66.659 19.3483C66.9964 19.0787 67.4012 18.8764 67.7385 18.6067C67.8734 18.5393 67.9409 18.4045 68.0758 18.3371C68.4132 18.0674 68.4132 17.6629 68.4132 17.2584C68.2783 17.3258 68.2108 17.4607 68.0758 17.5281C67.8734 17.6629 67.671 17.7978 67.6036 18C67.3337 18.4719 67.0638 18.8764 66.659 19.3483ZM64.6349 15.4382C64.6349 15.0337 64.5 14.8989 64.1627 14.8989C63.6904 14.8989 63.2181 15.1011 62.7458 15.236C62.8133 15.5056 62.8808 15.573 63.1506 15.573C63.2181 15.573 63.353 15.573 63.4205 15.573C63.6904 15.573 63.8928 15.5056 64.1627 15.5056C64.2976 15.5056 64.4325 15.5056 64.6349 15.4382ZM67.0638 15.3034L66.9964 15.236C66.7265 15.1685 66.4566 15.1011 66.1867 15.0337C65.9843 14.9663 65.7819 14.9663 65.5795 14.9663C65.3771 14.9663 65.2422 15.0337 65.1747 15.236C65.1072 15.4382 65.1747 15.5056 65.3771 15.5056C65.7144 15.573 66.0518 15.573 66.3891 15.6405C66.5241 15.6405 66.5915 15.6405 66.7265 15.6405C66.9289 15.6405 66.9963 15.5056 67.0638 15.3034ZM61.4639 17.2584C61.3965 17.7303 61.5314 18.2022 61.9362 18.4719C62.341 18.7416 62.7458 19.0112 63.0832 19.2809H63.1506C63.0157 19.1461 62.8808 19.0112 62.8133 18.8764C62.6109 18.6067 62.4085 18.2697 62.2735 18C62.1386 17.7978 62.0037 17.6629 61.8687 17.5281C61.6663 17.4607 61.5314 17.3258 61.4639 17.2584ZM65.3096 17.4607C65.9169 17.4607 66.659 17.0562 66.7265 16.7191C66.3217 16.7191 65.9168 16.7191 65.512 16.7191C65.3771 16.7191 65.2422 16.7865 65.1747 16.8539C65.0398 16.9213 65.0398 17.0562 65.1072 17.191C65.1747 17.2584 65.2422 17.3258 65.3096 17.4607ZM63.0832 16.6517C63.0832 16.7191 63.1506 16.7865 63.1506 16.8539C63.4205 17.1236 63.7579 17.3258 64.0952 17.3933C64.3651 17.4607 64.3651 17.4607 64.5675 17.2584C64.7024 16.9888 64.7024 16.9213 64.4325 16.7865C64.3651 16.7865 64.2976 16.7191 64.2301 16.7191C63.8928 16.7191 63.488 16.6517 63.0832 16.6517ZM67.671 16.5169C67.9409 16.4494 68.2783 16.3146 68.5481 16.1798C68.7505 16.0449 68.818 15.9101 68.818 15.7079C68.818 15.3708 68.818 15.3034 68.4807 15.4382C68.2783 15.5056 68.0758 15.6405 68.0084 15.9101C67.9409 16.0449 67.8734 16.2472 67.806 16.382C67.7385 16.382 67.671 16.4494 67.671 16.5169ZM62.1386 16.5843C62.0037 16.382 61.8687 16.1798 61.8687 15.9101C61.8013 15.573 61.5314 15.4382 61.2615 15.3708C61.194 15.3708 61.1266 15.3708 61.1266 15.4382C61.0591 15.6405 61.1266 16.0449 61.329 16.1798C61.5314 16.3146 61.8013 16.4494 62.1386 16.5843ZM77.1841 15.4382C77.1841 15.3708 77.1841 15.3034 77.1166 15.236C76.9817 15.0337 76.9142 14.764 76.7793 14.5618C76.7118 14.3596 76.6444 14.3596 76.442 14.427C76.3745 14.8989 76.6444 15.3034 76.8468 15.6405C76.9817 15.5056 76.9142 15.3708 76.9142 15.236C77.0492 15.3034 77.1166 15.3708 77.1841 15.4382ZM53.705 15.6405C53.9749 15.236 54.1773 14.8989 54.1773 14.3596C54.0424 14.3596 53.9749 14.2921 53.9074 14.427C53.7725 14.6966 53.6376 14.9663 53.5026 15.236C53.4352 15.3034 53.4352 15.4382 53.4352 15.5056C53.5026 15.3708 53.5701 15.236 53.705 15.1685C53.6376 15.3034 53.5026 15.5056 53.705 15.6405ZM72.1914 22.3146C72.2589 22.1798 72.1914 22.1124 72.0565 22.0449C71.9216 21.9775 71.7866 21.9775 71.7192 21.9775C71.5842 21.9101 71.4493 21.9775 71.3818 22.0449C71.1794 22.2472 71.1794 22.382 71.3818 22.5169C71.5167 22.5843 71.6517 22.5843 71.7192 22.4494C71.7866 22.382 71.8541 22.2472 71.9216 22.1124C72.0565 22.1798 72.124 22.2472 72.1914 22.3146ZM57.8881 22.1798C57.9556 22.2472 57.9556 22.3146 58.023 22.382C58.158 22.7191 58.2929 22.7191 58.5628 22.4494L58.6302 22.382C58.5628 22.3146 58.5628 22.2472 58.4953 22.1798C58.4278 22.1124 58.2929 22.0449 58.2254 22.0449C58.023 22.0449 57.8881 22.1124 57.6857 22.1798C57.6182 22.2472 57.6182 22.3146 57.6857 22.382C57.7531 22.2472 57.8206 22.2472 57.8881 22.1798ZM69.1553 14.2247C68.8855 14.5618 68.4807 14.6966 68.0758 14.8989C68.4132 15.236 68.9529 14.8989 69.1553 14.2247ZM63.2856 4.78652C63.488 4.92135 63.5554 4.85393 63.6904 4.7191C63.6229 4.7191 63.6229 4.65169 63.5554 4.65169C63.6229 4.65169 63.6904 4.58427 63.8253 4.58427C63.5554 4.51685 63.353 4.44944 63.1506 4.38202C63.0832 4.38202 63.0157 4.38202 63.0157 4.51685C62.9482 4.7191 63.0832 4.85393 63.2856 4.92135C63.2181 4.85393 63.2181 4.78652 63.2856 4.78652ZM60.6543 14.2921C60.7218 14.4944 60.7892 14.6966 60.9916 14.8315C61.1266 14.9663 61.329 15.1011 61.5314 15.0337C61.5989 15.0337 61.6663 14.9663 61.6663 14.9663V14.8989C61.4639 14.8315 61.329 14.6966 61.1266 14.6292C60.9916 14.5618 60.8567 14.427 60.6543 14.2921ZM66.1193 4.7191C66.1867 4.78652 66.1867 4.78652 66.2542 4.78652C66.3217 4.78652 66.3217 4.7191 66.3891 4.7191C66.3891 4.78652 66.4566 4.85393 66.4566 4.92135C66.7265 4.85393 66.8614 4.58427 66.7265 4.38202C66.4566 4.44944 66.2542 4.51685 65.9843 4.58427C65.9843 4.58427 65.9843 4.58427 65.9843 4.65169C66.0518 4.65169 66.1193 4.7191 66.2542 4.7191C66.1867 4.65169 66.1867 4.7191 66.1193 4.7191ZM72.5288 21.7079C72.3938 21.4382 71.9216 21.3708 71.7192 21.573C71.989 21.6404 72.2589 21.5056 72.5288 21.7079ZM67.1313 3.50562C67.4012 3.57303 67.4686 3.70787 67.4686 3.91011C67.4686 4.11236 67.4686 4.31461 67.2662 4.38202C67.2662 4.44944 67.2662 4.51685 67.2662 4.58427C67.6036 4.31461 67.6036 3.57303 67.1988 3.37079C67.1988 3.37079 67.1313 3.4382 67.1313 3.50562ZM57.3483 21.6404C57.5507 21.6404 57.8206 21.573 58.023 21.573C57.8206 21.3034 57.4833 21.3708 57.3483 21.6404ZM62.4759 4.31461C62.341 4.44944 62.2735 4.38202 62.2735 4.24719C62.1386 4.04494 62.1386 3.8427 62.2061 3.64045C62.0711 4.04494 62.1386 4.51685 62.4759 4.65169C62.4759 4.51685 62.4759 4.44944 62.4759 4.31461Z" fill="white"/>
<path id="Vector_2" d="M71.7191 19.6854C71.3818 19.8876 71.1794 20.2247 71.0445 20.5618C70.9095 20.427 70.977 20.2921 71.0445 20.2247C71.1794 19.9551 71.4493 19.8202 71.7191 19.6854Z" fill="white"/>
<path id="Vector_3" d="M58.2253 19.7528C58.6302 19.8202 58.9 20.2921 58.7651 20.6292C58.5627 20.2921 58.4952 19.9551 58.2253 19.7528Z" fill="white"/>
<path id="Vector_4" d="M73.3384 17.3258C73.3384 17.1236 73.4059 16.8539 73.4059 16.6517C73.5408 16.7191 73.5408 16.9888 73.3384 17.3258Z" fill="white"/>
<path id="Vector_5" d="M69.8301 11.0562C69.3578 10.8539 68.8181 10.7191 68.3458 10.5169C68.3458 10.5169 68.3458 10.5169 68.2783 10.4494C68.8181 10.5169 69.3578 10.6517 69.8301 11.0562Z" fill="white"/>
<path id="Vector_6" d="M61.8013 10.4494C61.1941 10.5843 60.5869 10.7865 60.0471 10.9214C60.1821 10.7191 61.1941 10.4494 61.8013 10.4494Z" fill="white"/>
<path id="Vector_7" d="M58.6978 8.42697C58.9002 8.29214 59.17 8.22472 59.4399 8.1573C59.4399 8.1573 59.4399 8.1573 59.4399 8.22472C59.17 8.22472 58.9676 8.35955 58.6978 8.42697Z" fill="white"/>
<path id="Vector_8" d="M63.4204 6.26966C63.7578 6.20225 64.0951 6.13483 64.365 6.13483C64.8373 6.06742 65.3095 6.13483 65.7818 6.20225C65.9842 6.20225 66.1192 6.26966 66.3216 6.26966C66.3216 6.33708 66.3216 6.33708 66.1866 6.33708C66.0517 6.33708 65.9167 6.33708 65.7818 6.26966C65.1071 6.20225 64.4324 6.20225 63.8252 6.33708C63.7578 6.33708 63.6228 6.33708 63.5553 6.33708C63.4879 6.33708 63.4204 6.26966 63.4204 6.26966Z" fill="white"/>
<path id="Vector_9" d="M64.77 5.25843C64.635 5.19101 64.4326 5.05618 64.2977 4.98876C64.2302 4.92135 64.2302 4.85393 64.2302 4.78652C64.2977 4.7191 64.3652 4.7191 64.4326 4.78652C64.5676 4.85393 64.7025 4.98876 64.77 5.05618C64.8374 5.12359 64.8374 5.19101 64.77 5.25843C64.8374 5.25843 64.8374 5.25843 64.77 5.25843Z" fill="white"/>
<path id="Vector_10" d="M65.5119 4.92135C65.5119 4.92135 65.4444 4.98877 65.4444 5.05618C65.3095 5.1236 65.242 5.19101 65.1071 5.25843C65.1071 5.25843 65.0396 5.25843 64.9722 5.25843C64.9722 5.25843 64.9722 5.19101 64.9722 5.1236C64.9722 5.1236 64.9722 5.05618 65.0396 5.05618C65.1746 4.98877 65.242 4.92135 65.377 4.78652C65.4444 4.78652 65.5119 4.78652 65.5119 4.92135Z" fill="white"/>
<path id="Vector_11" d="M65.782 4.92135C65.8495 4.98876 65.8495 5.05618 65.782 5.19101C65.6471 5.32584 65.4447 5.39326 65.1748 5.32584C65.3772 5.19101 65.5796 5.05618 65.782 4.92135Z" fill="white"/>
<path id="Vector_12" d="M64.0277 4.92135C64.2301 5.05618 64.4325 5.19101 64.5674 5.25843C64.4325 5.32584 64.1626 5.32584 64.0277 5.19101C63.9602 5.19101 63.9602 5.05618 64.0277 4.92135Z" fill="white"/>
<path id="Vector_13" d="M67.1312 14.0899C67.1312 14.2921 67.1312 14.3596 66.9288 14.3596C66.7939 14.3596 66.6589 14.427 66.4565 14.427C66.7264 14.2921 66.9963 14.2921 67.1312 14.0899Z" fill="white"/>
<path id="Vector_14" d="M63.3532 14.3596C62.8809 14.427 62.6785 14.2921 62.6785 14.0899C62.8809 14.2247 63.0833 14.2921 63.3532 14.3596Z" fill="white"/>
<path id="Vector_15" d="M64.365 3.64045C64.1626 3.57303 63.9602 3.4382 63.7578 3.37079C63.9602 3.30337 64.2301 3.4382 64.365 3.64045C64.4325 3.64045 64.4325 3.64045 64.365 3.64045Z" fill="white"/>
</g>
<path id="Vector_16" d="M8.90586 6.13483V16.9214C8.90586 17.3933 8.77092 17.7978 8.43358 18.1348C8.09623 18.4719 7.69142 18.6067 7.21914 18.6067C6.74686 18.6067 6.34205 18.4045 6.00471 18.0674C5.66736 17.7303 5.46496 17.2584 5.33002 16.6517L0 17.9326C0.134937 18.7416 0.337343 19.4831 0.742155 20.1573C1.14697 20.8315 1.61925 21.4382 2.22646 21.9775C2.83368 22.5169 3.50837 22.9214 4.31799 23.191C5.12761 23.5281 6.00471 23.6629 6.94927 23.6629C8.09623 23.6629 9.10826 23.4607 10.0528 23.1236C10.9974 22.7865 11.7395 22.3146 12.4142 21.7079C13.0889 21.1011 13.5612 20.427 13.8985 19.5506C14.2359 18.7416 14.4383 17.8652 14.4383 16.8539V6.06742H8.90586V6.13483Z" fill="white"/>
<path id="Vector_17" d="M27.1223 6.13483V16.2472C27.1223 16.9888 26.9199 17.5281 26.4477 18C25.9754 18.4719 25.4356 18.6742 24.6935 18.6742C23.9513 18.6742 23.4116 18.4719 22.9393 18C22.467 17.5281 22.2646 16.9888 22.2646 16.2472V6.13483H16.7322V16.2472C16.7322 17.3258 16.9346 18.3371 17.2719 19.2135C17.6767 20.0899 18.149 20.8989 18.8912 21.573C19.5659 22.2472 20.443 22.7865 21.3875 23.1236C22.3321 23.4607 23.479 23.6629 24.626 23.6629C25.773 23.6629 26.9199 23.4607 27.8645 23.1236C28.8765 22.7865 29.6862 22.2472 30.3608 21.573C31.0355 20.8989 31.5753 20.1573 31.9801 19.2135C32.3849 18.3371 32.5198 17.3258 32.5198 16.2472V6.13483H27.1223Z" fill="white"/>
<path id="Vector_18" d="M88.6537 13.618V17.7303H91.2849V18C91.0825 18.1348 90.8801 18.2697 90.6103 18.3371C90.4078 18.4045 90.138 18.5393 89.8681 18.6067C89.5982 18.6742 89.2609 18.7416 88.9235 18.7416C88.4513 18.7416 87.979 18.6067 87.5067 18.4045C87.0344 18.2022 86.6296 17.8652 86.2923 17.5281C85.9549 17.1236 85.6176 16.7191 85.4152 16.2472C85.2128 15.7753 85.0778 15.236 85.0778 14.6966C85.0778 14.1573 85.2128 13.618 85.4152 13.1461C85.6176 12.6742 85.9549 12.2022 86.2923 11.8652C86.6296 11.4607 87.0344 11.191 87.5067 10.9888C87.979 10.7865 88.4513 10.6517 88.9235 10.6517C89.3284 10.6517 89.7332 10.7191 90.003 10.7865C90.3404 10.8539 90.6103 10.9888 90.8127 11.1236C91.0825 11.2584 91.2849 11.4607 91.4873 11.6629C91.6223 11.7978 91.7572 12 91.8922 12.2022C91.9596 12.2697 91.9596 12.3371 92.0271 12.3371L97.5595 11.5955C97.4246 11.1236 97.2222 10.7191 97.0198 10.2472C96.8848 9.91011 96.6824 9.64045 96.48 9.30337C96.0077 8.5618 95.4005 7.95506 94.7258 7.41573C94.0511 6.87641 93.1741 6.4045 92.297 6.06742C92.162 6 92.0946 6 91.9596 5.93259C91.8247 5.86517 91.6898 5.86517 91.6223 5.79775C91.0825 5.66292 90.4079 5.59551 89.8006 5.52809C89.5982 5.52809 89.4633 5.52809 89.2609 5.52809H89.0585C87.7766 5.52809 86.4947 5.79775 85.4152 6.26966C84.2682 6.80899 83.2562 7.41573 82.3791 8.29214C81.6369 9.03371 80.9622 9.91011 80.49 10.8539C80.49 10.9214 80.4225 10.9888 80.4225 11.0562C79.9502 12.1348 79.7478 13.3483 79.7478 14.6966C79.7478 15.9775 79.9502 17.191 80.4225 18.2697C80.8948 19.3483 81.502 20.3596 82.3791 21.236C83.2562 22.1124 84.2682 22.7191 85.4152 23.191C86.3597 23.5281 87.3043 23.7303 88.3838 23.7978C88.4513 23.7978 88.5187 23.7978 88.5862 23.7978C88.7886 23.7978 88.991 23.7978 89.1934 23.7978H89.2609C89.4633 23.7978 89.5982 23.7978 89.8006 23.7978C89.9356 23.7978 90.0705 23.7978 90.2054 23.7978C91.0825 23.7303 91.8922 23.4607 92.7018 23.1236C93.7813 22.6517 94.7258 21.9775 95.5355 21.1685C96.3451 20.3596 97.0198 19.4157 97.4921 18.4045C97.9643 17.3933 98.1667 16.3146 98.1667 15.236V13.8202H88.6537V13.618Z" fill="white"/>
<path id="Vector_19" d="M104.981 17.9326V6.13483H99.4487V22.9214H113.145V17.8652H104.981V17.9326Z" fill="white"/>
<path id="Vector_20" d="M129 10.9214V6.13483H114.562V22.9214H129V18.1348H120.094V16.7191H127.043V12.4045H120.094V10.9888H129V10.9214Z" fill="white"/>
<path id="Vector_21" d="M45.4064 6.13483V7.88764V12V14.2247L44.7992 12.809L41.0884 6.13483H35.0837V22.9214H40.6162V15.5056H40.8186L45.4064 22.9214H50.9389V8.96629V6.13483H45.4064Z" fill="white"/>
</g>
</g>
<defs>
<clipPath id="clip0_55_3331">
<rect width="129" height="24" fill="white"/>
</clipPath>
</defs>
</svg>
