<svg width="40" height="40" viewBox="0 0 40 40" fill="none" xmlns="http://www.w3.org/2000/svg">
<g id="mynaui:leaves-solid">
<path id="Vector" d="M6.81335 5.41669C6.51054 5.4136 6.21689 5.52054 5.98698 5.71765C5.75708 5.91475 5.60654 6.18862 5.56335 6.48836C5.46689 7.17305 5.41788 7.86358 5.41669 8.55503C5.41669 16.135 11.29 22.3384 18.75 22.9667V33.3334C18.75 33.6649 18.8817 33.9828 19.1161 34.2172C19.3506 34.4517 19.6685 34.5834 20 34.5834C20.3315 34.5834 20.6495 34.4517 20.8839 34.2172C21.1183 33.9828 21.25 33.6649 21.25 33.3334V22.9667C28.71 22.3384 34.5834 16.1334 34.5834 8.55336C34.5834 7.85336 34.5339 7.16447 34.435 6.48669C34.3915 6.18726 34.2408 5.91379 34.0109 5.71702C33.781 5.52025 33.4876 5.41354 33.185 5.41669C30.3959 5.44022 27.6718 6.2622 25.3352 7.7854C22.9986 9.30859 21.1471 11.4692 20 14.0117C18.8528 11.469 17.0011 9.30817 14.6642 7.78495C12.3272 6.26174 9.6028 5.4399 6.81335 5.41669Z" fill="white"/>
</g>
</svg>
