<svg width="56" height="56" viewBox="0 0 56 56" fill="none" xmlns="http://www.w3.org/2000/svg">
<g id="icomoon-free:quotes-right" clip-path="url(#clip0_35_968)">
<path id="Vector" d="M43.75 35C41.3272 35 38.9588 34.2816 36.9443 32.9355C34.9298 31.5895 33.3597 29.6763 32.4325 27.4379C31.5053 25.1995 31.2627 22.7364 31.7354 20.3601C32.2081 17.9839 33.3748 15.8011 35.0879 14.0879C36.8011 12.3748 38.9839 11.2081 41.3601 10.7354C43.7364 10.2627 46.1995 10.5053 48.4379 11.4325C50.6763 12.3597 52.5895 13.9298 53.9355 15.9443C55.2816 17.9588 56 20.3272 56 22.75L56.056 24.5C56.056 27.7174 55.4223 30.9033 54.1911 33.8757C52.9598 36.8482 51.1552 39.5491 48.8801 41.8241C46.6051 44.0992 43.9042 45.9038 40.9318 47.1351C37.9593 48.3663 34.7734 49 31.556 49V42C33.8551 42.0062 36.1327 41.5565 38.257 40.677C40.3813 39.7975 42.3101 38.5056 43.932 36.876C44.5625 36.2469 45.144 35.5706 45.6715 34.853C45.0358 34.9522 44.3934 35.0025 43.75 35.0035V35ZM12.25 35C9.82718 35 7.45877 34.2816 5.44427 32.9355C3.42977 31.5895 1.85965 29.6763 0.932481 27.4379C0.00530782 25.1995 -0.237283 22.7364 0.235386 20.3601C0.708055 17.9839 1.87475 15.8011 3.58795 14.0879C5.30114 12.3748 7.48388 11.2081 9.86015 10.7354C12.2364 10.2627 14.6995 10.5053 16.9379 11.4325C19.1763 12.3597 21.0895 13.9298 22.4355 15.9443C23.7816 17.9588 24.5 20.3272 24.5 22.75L24.556 24.5C24.556 30.9978 21.9748 37.2295 17.3801 41.8241C12.7855 46.4188 6.55381 49 0.0560055 49V42C2.35515 42.0062 4.63271 41.5565 6.75699 40.677C8.88127 39.7975 10.8101 38.5056 12.432 36.876C13.0625 36.2469 13.644 35.5706 14.1715 34.853C13.5358 34.9522 12.8934 35.0025 12.25 35.0035V35Z" fill="#0A8879"/>
</g>
<defs>
<clipPath id="clip0_35_968">
<rect width="56" height="56" fill="white"/>
</clipPath>
</defs>
</svg>
