<svg width="40" height="40" fill="none" xmlns="http://www.w3.org/2000/svg"><path fill-rule="evenodd" clip-rule="evenodd" d="M9.29 7.818c-1.388 1.154-1.755 3.104-2.487 7.005l-1.25 6.667c-1.028 5.487-1.541 8.23-.043 10.037 1.5 1.806 4.29 1.806 9.873 1.806h9.234c5.583 0 8.373 0 9.873-1.806 1.5-1.807.983-4.55-.043-10.037l-1.25-6.667c-.734-3.9-1.099-5.851-2.487-7.005-1.388-1.151-3.373-1.151-7.343-1.151h-6.734c-3.97 0-5.955 0-7.343 1.151zm7.173 5.1a3.751 3.751 0 007.075 0 1.25 1.25 0 012.357.832 6.251 6.251 0 01-11.788 0 1.25 1.25 0 112.356-.832z" fill="#fff"/></svg>