<svg width="48" height="48" fill="none" xmlns="http://www.w3.org/2000/svg"><path d="M29.639 15.812a2.84 2.84 0 012.832 2.832V29.92a2.83 2.83 0 01-2.832 2.832H18.36a2.84 2.84 0 01-2.832-2.832V18.644a2.84 2.84 0 012.832-2.832h11.28zm-5.636 4.126a4.32 4.32 0 00-3.074 1.273 4.32 4.32 0 00-1.274 3.074 4.32 4.32 0 001.274 3.076 4.32 4.32 0 003.074 1.273 4.333 4.333 0 003.075-1.273 4.32 4.32 0 001.274-3.076 4.32 4.32 0 00-1.274-3.074 4.32 4.32 0 00-3.075-1.273zm0 .925a3.435 3.435 0 013.424 3.422 3.426 3.426 0 01-3.424 3.424 3.426 3.426 0 01-3.423-3.424 3.426 3.426 0 013.423-3.422zm5.196-2.738a.835.835 0 100 1.67.835.835 0 000-1.67z" fill="#fff"/></svg>