<svg width="129" height="24" fill="none" xmlns="http://www.w3.org/2000/svg"><g fill="#fff" clip-path="url(#clip0_55_3331)"><path d="M53.165 15.843v-.472c.135-.337.338-.607.473-.944v-.202c-.068-.27-.068-.472.135-.674.134-.135.202-.27.337-.338.135-.067.202-.134.202-.337 0-.067 0-.134.068-.27.067-.269.202-.539.337-.808.203-.405.472-.742.81-1.079.135-.135.202-.27.27-.404.135-.405.27-.81.472-1.146.337-.472.742-.877 1.214-1.281a.712.712 0 01.338-.135c.472-.135.944-.202 1.416-.337.203-.068.405-.203.54-.337a9.204 9.204 0 011.147-1.146c.337-.27.742-.472 1.147-.742.135-.067.27-.202.405-.337-.203-.202-.27-.405-.27-.674 0-.337 0-.607.27-.877.135-.134.202-.202.27-.404 0-.135.067-.202.135-.337h-.203c.068-.135.27-.202.203-.405.135-.135.135-.337.337-.404 0 0-.067 0-.067-.068.202-.067.27-.337.472-.472.067-.067.135-.202.067-.337h.135c0-.067-.067-.202-.067-.27.067 0 .135 0 .202.068-.067-.135-.067-.27-.135-.404.135.067.203.202.338.202-.068-.135-.068-.202-.135-.337.135.067.202.067.337.135V0c.135 0 .27.067.405.067 0-.067 0-.067.067-.134.068.202.27.27.405.337 0 0 0-.068.068-.135.27.135.472.337.674.607l.068.067c.067.067.135.067.202.135.135.067.203.27.337.27 0 0 .068 0 .068.067-.068.202.135.202.202.27l.068.067c-.068.135.067.135.067.202.135.135.203.27.338.405-.068 0-.068-.068-.135-.068l.27.27c-.068 0-.068 0-.135-.067.067.202.135.337.202.471 0 .135.068.203.203.27.134.135.27.337.27.54.067.337 0 .674-.203.943.135.068.202.203.337.27.27.202.54.337.877.54.675.404 1.282.876 1.755 1.482.134.135.27.27.472.337.472.135 1.012.27 1.484.405.405.067.675.202 1.012.404h.068c.607.472 1.08 1.012 1.35 1.686.067.202.067.337.201.472.135.135.27.202.405.337.675.607 1.012 1.28 1.012 2.225 0 .067.068.067.068.134.135.135.337.27.472.472.203.203.203.405.135.675v.202c.135.404.337.741.472 1.146v.202l-.202.607c-.135.27-.27.54-.27.876-.067.472-.337.877-.607 1.214-.54.606-1.147 1.01-1.822 1.483-.135.067-.135.135-.135.27 0 .27-.067.471-.067.741-.068.405-.135.809-.405 1.146-.068.067-.068.135-.068.135-.067.404-.202.741-.404 1.146-.135.202-.27.337-.54.337-.338 0-.675-.067-1.012-.27-.27.203-.54.27-.81.135-.202-.067-.405-.135-.607-.067a.371.371 0 01-.337-.202c-.068-.337-.203-.675-.27-.944 0-.068 0-.135.067-.203a.912.912 0 00.203-.27l.067-.067v.203c.27 0 .472 0 .675-.203a.943.943 0 01.27-.202.37.37 0 00.202-.337c0-.135.068-.202.135-.27.337-.134.54-.404.742-.674.135-.202.27-.337.405-.472-.067.338-.135.675-.337.944.472-.202.742-.607 1.012-1.011 0 .472 0 .876-.27 1.28.27-.134.405-.336.54-.538.135-.203.202-.472.337-.742h.202c.135 0 .135-.067.203-.135l.202-.202c.068-.067.135-.067.135-.135.068 0 .068-.067.135-.135-.202 0-.337 0-.54.068.135-.135.27-.27.405-.337.337-.27.742-.54 1.08-.81.202-.134.337-.27.54-.471-.473.27-.945.539-1.552.606.135-.067.202-.134.337-.27.202-.134.27-.201.27-.336-.472.202-.945.404-1.417.539.135-.135.337-.27.472-.337.135-.135.27-.27.472-.405.135-.134.27-.27.405-.471.135-.135.203-.338.338-.472.067-.135.202-.338.27-.472h-.068a2.83 2.83 0 01-.945.606c.405-.404.81-.876 1.013-1.483-.27.27-.473.472-.675.742a39.42 39.42 0 00-1.215 1.753c.203-.472.405-.877.608-1.349.202-.471.404-.876.674-1.28-.337.202-.607.471-.877.741-.202.337-.405.674-.607.944v-.068c.202-.809.607-1.415 1.282-1.887.27-.202.54-.405.742-.607.202-.202.202-.27.067-.54v-.067c.27.203.608.27 1.013.337a2.952 2.952 0 00-.405-.472c-.135-.134-.27-.134-.405-.202-.135 0-.27 0-.405-.067-.067 0-.135-.068-.202-.135a193.02 193.02 0 01-.608-.607c-.134-.202-.27-.404-.27-.607.136.068.203.203.338.27.135.135.337.27.54.27.202 0 .337-.068.337-.337 0-.203-.067-.405-.202-.607a5.39 5.39 0 00-.877-.876h-.068v.067c0 .27-.067.54-.337.742-.068 0-.068.134-.068.134-.067.203-.067.472-.135.675 0 .067-.067.202-.135.202 0-.068 0-.135-.067-.202-.068-.405-.27-.54-.675-.54-.202 0-.472 0-.674.068-.473.067-1.013.134-1.417.404-.135.068-.203.135-.203.337v.54c.068.741.877 1.146 1.552.741-.472-.472-.877-1.213-.945-1.483.135.202.27.337.338.54.135.134.202.336.337.471.203.203.405.203.607.135.068-.202 0-.404-.134-.607.404.068.742.135 1.146-.067 0 .202-.067.404-.067.607.067 0 .067-.068.135-.068.135-.067.202 0 .202.068v.202c-.067.067-.135.202-.202.27-.27.337-.54.741-.675 1.146-.202.472-.202.944-.067 1.483.067.135.067.337 0 .54a4.625 4.625 0 01-.203.538 9.973 9.973 0 01-.674 1.146c-.068.068-.068.135-.135.203.135 0 .202.067.27.067.067 0 .135.068.202.135v.067h-.135c-.202 0-.405 0-.54.068-.337.202-.674.202-1.012-.068-.27-.202-.472-.202-.81 0-.134.068-.27.203-.404.27-.203.135-.27.202-.203.472.405 0 .743-.202 1.013-.472.134.067.337.135.404.27-.202.135-.404.337-.607.472-.337.202-.607.472-.945.674-.134.067-.202.202-.27.337-.067.135 0 .202.136.202.202 0 .404 0 .54-.202l.809-1.011c.202-.27.472-.337.81-.337l-.068.067c-.27.135-.472.337-.54.607-.067.135-.135.27-.27.404a3.43 3.43 0 00-.607.877c-.067.134-.135.202-.27.337-.067.067-.135.134-.135.27v.808a.51.51 0 00.135.27l.54.54.135.134h-4.588c-.067 0-.135-.067-.202-.067-.203-.135-.338-.337-.473-.607-.067.067-.202.135-.27.27-.134-.068-.202-.203-.27-.27-.134.135-.202.27-.337.405-.202.202-.404.337-.674.27h-4.251c.068-.068.068-.136.135-.136.203-.202.337-.404.54-.539.067-.067.135-.135.135-.27v-.741c0-.068 0-.135-.068-.203-.202-.134-.27-.337-.404-.539a2.047 2.047 0 00-.338-.472c-.202-.27-.405-.539-.54-.809-.067-.202-.202-.337-.404-.472l-.068-.067c.337.067.607.135.81.405.27.337.472.606.742.943.202.27.405.27.675.27.067 0 .067-.067.135-.067.067-.135-.068-.338-.203-.405-.405-.27-.81-.54-1.214-.876-.068-.135-.27-.135-.338-.27-.067 0-.067-.067-.135-.067.203-.135.338-.203.473-.27.067.067.135.067.135.135.202.202.472.337.742.337.135 0 .135 0 .202-.135.068-.202 0-.27-.135-.337-.202-.067-.405-.135-.54-.27-.337-.202-.472-.27-.81 0-.269.203-.471.203-.741.068-.068-.068-.203-.068-.338-.068h-.404c.135-.202.404-.067.607-.202-.068-.135-.135-.27-.203-.337-.202-.405-.404-.742-.607-1.146-.202-.337-.202-.674-.067-1.011.135-.675.067-1.281-.27-1.82a2.996 2.996 0 00-.54-.742.514.514 0 01-.135-.337c0-.068 0-.135.068-.203h.135c.067 0 .067 0 .135.068v-.607c.337.202.607.202.944.135 0 .135-.067.337-.067.472 0 .202.067.202.27.202a.69.69 0 00.404-.337l.405-.607c.068-.067.068-.134.135-.202h.068c-.203.54-.54 1.011-.945 1.483.202.068.405.068.607.135.54 0 .945-.337 1.012-.876v-.607c0-.135-.067-.202-.202-.202a4.681 4.681 0 00-.877-.337c-.405-.135-.742-.135-1.147-.068-.203 0-.338.135-.405.337 0 .068-.068.203-.068.27s-.067.067-.067.135h-.068c-.067-.068-.067-.202-.134-.27v-.54c0-.134 0-.202-.068-.269-.202-.135-.27-.337-.27-.54v-.269c-.135.135-.27.27-.337.405-.135.202-.27.337-.405.539s-.202.404-.135.674c.068.135.135.202.27.202.27 0 .405-.202.54-.337.067-.067.067-.135.135-.202-.068.472-.27.809-.742 1.079-.068.067-.135.067-.203.202-.067.135-.135.135-.27.202-.067 0-.202 0-.27.068-.27.067-.404.27-.607.539 0 0 0 .067.068.067.27-.134.607-.202.944-.337v.068c-.135.27-.135.337 0 .539.068.067.135.202.27.27.135.135.27.202.405.337.337.337.742.606.944 1.078.203.337.338.742.473 1.146v.068c-.405-.742-.81-1.483-1.552-1.955.337.741.742 1.55 1.08 2.292h-.068a59.394 59.394 0 00-1.62-2.157c.203.539.54.876.878 1.28-.203-.134-.405-.337-.675-.471v.067c.203.404.337.742.675 1.079l.877.876s.067.067.067.135c-.404-.202-.742-.405-1.147-.54V18c.203.135.405.337.608.54-.54-.068-.877-.338-1.35-.54l.27.27c.405.337.81.606 1.215.944.135.067.202.202.337.337-.203 0-.405-.068-.607 0 .202.202.337.472.607.539.067.27.135.472.27.741.135.27.337.472.54.54-.27-.405-.27-.81-.27-1.281.135.202.27.404.337.607.202.27.337.404.472.404-.135-.27-.202-.607-.27-.944l.405.607c.135.27.338.472.607.607.135.067.203.135.203.337 0 .067.067.202.067.27.135.134.203.27.338.337.202.134.404.202.674.134l-.202-.404c.202.202.337.337.472.54v.134c-.067.337-.202.674-.27 1.011-.067.135-.135.203-.27.203-.202 0-.472.067-.674.134-.27.068-.54 0-.742-.134-.135.067-.27.134-.473.202-.54.135-.81.067-1.012-.54-.067-.202-.135-.337-.202-.539-.068-.202-.135-.337-.203-.54-.134-.269-.27-.538-.27-.808 0-.337-.067-.674-.067-.944a.37.37 0 00-.202-.337l-.203-.202c-.404-.405-.81-.877-1.214-1.281-.27-.337-.472-.674-.54-1.146v-.472c0-.068 0-.135-.067-.202-1.012-.742-1.147-1.012-1.215-1.281zM64.433 3.64a1.841 1.841 0 00-.81-.606c-.135-.068-.27 0-.405.135.068.067.135.067.135.134-.135.135-.202.27-.337.337-.068.135-.135.27-.135.405 0 .067 0 .135.135.135 0-.068 0-.068.067-.135.068-.27.27-.337.472-.135.135.068.27.202.405.27.135.067.27.135.473.135l-.405-.405c.27.135.54.068.674.337.068-.135.068-.202.068-.202 0-.067 0-.135.067-.135.068 0 .135.068.135.135v.202c.068-.135.068-.202.068-.202.202-.067.337-.135.54-.202-.135.135-.338.135-.405.404h.202c.135-.067.27-.067.337-.135.135-.067.338-.202.473-.27.202-.067.337-.067.404.203 0 .067.068.135.068.202.135-.202.135-.27.135-.404-.067-.337-.27-.472-.54-.674h.135c.068 0 .068-.068.135-.068 0-.067-.067-.067-.067-.135-.068 0-.068-.067-.135 0-.068 0-.203.068-.27.068-.27.135-.54.337-.81.539-.067.067-.135.067-.135.067-.337.203-.54.135-.674 0zm-5.87 4.113v.067l-.135.135c-.203.27-.472.472-.675.742-.27.337-.337 1.01-.135 1.415.338-.809.742-1.28 1.215-1.415l-.405.606c-.135.203-.203.405-.27.675.472-.472 1.147-.675 1.754-.944-.405.337-.81.606-1.08 1.01.203-.066.338-.134.473-.201.472-.135.877-.405 1.214-.674.27-.27.608-.472.945-.607 0 0 .067 0 .067-.068-.607-.27-1.214-.606-1.821-.674.067 0 .202-.067.27-.067v-.068c-.135-.067-.203-.134-.338-.134-.337.067-.742.067-1.08.202-.202.067-.471.067-.674.135-.472.067-.675.404-.944.674.202-.068.337-.27.472-.27-.405.405-.877.742-1.147 1.281l.54-.54h.067v.54c0 .202.068.337.068.54.067.134.067.336.134.471-.27-.809.54-2.427 1.485-2.831zm9.58 4.854c.608-.202 1.687-1.079 1.957-1.55-.068-.068-.068-.136-.135-.203a4.727 4.727 0 00-.675-.54c-.337-.27-.81-.404-1.214-.539-.068 0-.135-.067-.203-.067V9.64c.743.135 1.552.203 2.16.81 0-.068 0-.068-.068-.135-.337-.675-.945-1.146-1.687-1.416-.674-.27-1.417-.202-2.159-.202a.511.511 0 00-.27.134c-.27.203-.472.472-.674.742 0 .067-.068.067-.068.135.27 0 .54-.135.877-.068-.135.068-.202.068-.27.135-.135.068-.337.135-.472.203-.27.134-.27.27-.135.539.338 0 .607-.068.945-.068a.511.511 0 01-.27.135 2.02 2.02 0 00-.54.27c-.135.067-.135.202-.135.27 0 .134.135.067.203.134.202.068.472.068.674.068.203 0 .338.067.54.135v.067c-.405 0-.81 0-1.282-.067.135.202.27.27.405.337a3.89 3.89 0 001.957.337c.067 0 .135-.068.27-.068V12c-.203-.135-.338-.202-.54-.337.607.067 1.214.202 1.889.067-.405.337-.675.675-1.08.877zM63.69 9.64c.338 0 .608.068.945.135 0-.067 0-.135-.068-.135-.202-.202-.404-.471-.607-.674a.613.613 0 00-.472-.202c-.405 0-.877 0-1.282.067-.607.068-1.147.27-1.62.675-.337.27-.606.606-.741 1.01a4.03 4.03 0 011.012-.606 3.43 3.43 0 011.147-.202c-.877.27-1.687.607-2.294 1.416.54.539 1.012 1.078 1.754 1.415a3.864 3.864 0 01-.742-.741c.607.135 1.214.067 1.821-.068-.202.135-.404.203-.54.405.136 0 .203.067.338.067.405.068.81 0 1.214-.135.27-.067.473-.202.675-.27a.907.907 0 00.27-.202c-.135 0-.27-.067-.405 0h-.405c-.135 0-.27.068-.404-.067.472-.067.877-.135 1.349-.202.067-.202 0-.337-.203-.405a3.289 3.289 0 00-.742-.27s-.067 0-.067-.067c.135 0 .27-.067.405 0 .135 0 .337 0 .472.068.135 0 .135-.068.135-.135 0-.135 0-.27-.203-.337-.202-.068-.404-.202-.607-.27 0-.202-.067-.27-.135-.27zm8.906 8.293a2.924 2.924 0 00-.405-.472 1.715 1.715 0 01-.27-1.483c.068-.27.135-.54.27-.81-.404-.067-.81-.27-1.147-.539l-.202.405c-.27.539-.742 1.01-1.282 1.213-.135.068-.135.135-.135.202v1.349c0 .067 0 .135.068.135.135.27.27.539.472.876 0 .067.067.067.067.135.068-.068.135-.068.135-.135.338-.27.675-.27 1.08 0 .067.067.135.067.202.067.338 0 .608 0 .81-.337.067-.202.202-.472.337-.606zm-14.91-.068l.404.81c.135.269.473.336.675.134.405-.27.675-.27 1.08.067.067.068.135.068.202.135 0 0 .068 0 .068-.067.134-.337.404-.674.674-1.011.068-.068.068-.135.068-.203v-1.28c0-.135-.068-.203-.203-.27-.674-.27-1.147-.742-1.484-1.416 0-.067-.068-.067-.068-.067-.337.202-.674.337-1.011.472.067.202.134.404.202.674.067.27.135.539.067.809a1.85 1.85 0 01-.674 1.213zm10.592-9.303c.472.202.877.54 1.282.876.405.337.945.472 1.417.674-.27-.404-.675-.606-1.012-.876.54.202 1.147.404 1.552.809-.135-.472-.405-.809-.675-1.214l.405.203c.472.27.81.674 1.08 1.146v-.337a1.83 1.83 0 00-.405-1.146c-.203-.203-.405-.472-.608-.675 0 0-.067-.067-.067-.134.607.202.877.741 1.214 1.213.338.472.54 1.011.473 1.618.067-.472.202-1.011.135-1.483 0-.405-.203-.674-.473-.944-.067 0-.067-.067-.135-.067.203 0 .405.135.54.27.203.202.27.404.337.674.135.404.203.809.203 1.28.202-.539.202-.943-.068-1.415h.068c.27.202.472.404.742.674 0-.068-.067-.135-.135-.202-.337-.54-.81-.877-1.282-1.214-.067-.067-.202-.067-.27-.067-.54-.135-1.012-.203-1.552-.337-.27-.068-.54-.068-.742-.068-.135 0-.202.068-.27.135.135.067.27.067.405.135-.877-.135-1.552.135-2.159.472zm-4.655-1.955c.877-.203 1.687-.203 2.564-.068-.068.27-.203.472-.27.742.405-.068.607-.337.607-.674v-.203c0-.337-.135-.606-.337-.808-.068.067-.135.067-.27.134 0-.067.067-.134.067-.134.27-.405.27-.405 0-.675v-.067c-.067-.067-.135-.135-.202-.135a1.15 1.15 0 00-.675 0c-.135.068-.27.068-.337 0-.27-.135-.54-.067-.742.068-.27.134-.338.539-.135.741.067.068.067.135.135.202-.068 0-.068 0-.135-.067-.135-.067-.135-.067-.27 0-.203.202-.337.404-.337.674v.337c0 .337.27.54.607.607 0-.068-.068-.135-.068-.27 0-.067-.067-.202-.067-.27.135-.067.202-.134.27-.134v-.068c-.135.068-.27.068-.405.068zm4.183-.135c.135.202.202.404.337.674a.371.371 0 00.338.202c.27 0 .54.068.877.068.27.067.337.135.202.404v.068c.27-.068.405-.27.675-.337-.068-.068-.068-.203-.135-.27a2.952 2.952 0 00-.405-.472c-.337-.405-.81-.674-1.214-1.011-.405-.202-.742-.472-1.147-.742.135.27.202.54.404.742h-.134c.067.27.067.54-.068.741.135.135.203 0 .27-.067zM62.408 5.19c-.067-.067-.067-.067 0 0h-.135c-.472.337-.944.607-1.416.944-.405.27-.742.607-1.012.944-.068.067-.135.202-.203.337.27.135.405.337.742.337v-.068c-.135-.27-.067-.27.203-.337s.54-.067.81-.135c.134 0 .202-.067.27-.202l.404-.607c.068.068.068.203.27.068-.135-.27-.135-.472-.068-.742h-.202l.203-.202h-.068c0-.067.135-.202.202-.337zm4.588 8.494c-.337-.337-.81-.539-1.282-.606h-.472a.29.29 0 00-.27.27c-.067.404.068.674.405.876l.405.202c.337.135.675.135 1.08.135.134 0 .202 0 .337-.068.135-.067.27-.134.27-.27 0-.201-.068-.336-.27-.404-.068 0-.068 0-.135-.067-.27-.068-.607-.202-.877-.27-.068 0-.068 0-.135-.067v-.068c.135.068.337.068.472.135.203.068.337.135.472.202zm-3.373-.27c.067 0 .067 0 0 0 0 .068-.068.068-.135.136-.27.067-.54.202-.81.27-.135.067-.202.134-.27.202-.135.202-.135.404.135.471.068.068.203.068.338.068.405.067.81-.068 1.214-.202.472-.203.607-.405.607-.944 0-.27-.067-.337-.337-.405-.067 0-.202-.067-.337 0-.27.068-.608.203-.877.27-.203.067-.338.202-.473.337.405-.067.675-.135.945-.202zm-.675-5.055a5.2 5.2 0 01-.675-1.686c-.27.27-.404.607-.54.944-.067.135-.067.337-.067.472 0 .202.135.27.27.27-.067-.135-.067-.203-.135-.338h.068c.067.068.135.203.27.27a.206.206 0 00.134.068c.203.067.405 0 .675 0zm4.858.067c.202-.067.27-.202.27-.337.067-.54-.203-.944-.54-1.348-.067.606-.337 1.146-.675 1.685.203 0 .405.067.608 0 .202-.067.337-.202.472-.337 0 .067-.068.202-.135.337zm-1.147 10.921c.337-.27.742-.472 1.08-.741.134-.068.202-.203.337-.27.337-.27.337-.674.337-1.079-.135.068-.202.203-.337.27-.203.135-.405.27-.472.472-.27.472-.54.876-.945 1.348zm-2.024-3.91c0-.404-.135-.54-.472-.54-.473 0-.945.203-1.417.338.067.27.135.337.405.337h.27c.27 0 .472-.067.742-.067.135 0 .27 0 .472-.068zm2.429-.135l-.068-.067-.81-.202c-.202-.068-.404-.068-.607-.068-.202 0-.337.068-.404.27-.068.202 0 .27.202.27.337.067.675.067 1.012.134h.338c.202 0 .27-.134.337-.337zm-5.6 1.955c-.067.472.067.944.472 1.214.405.27.81.54 1.147.809h.068c-.135-.135-.27-.27-.338-.405a6.16 6.16 0 01-.54-.876 2.928 2.928 0 00-.404-.472 1.02 1.02 0 01-.405-.27zm3.846.203c.607 0 1.349-.405 1.416-.742h-1.214a.516.516 0 00-.337.135c-.135.067-.135.202-.068.337a.925.925 0 01.203.27zm-2.227-.81c0 .068.068.136.068.203.27.27.607.472.944.54.27.067.27.067.472-.136.135-.27.135-.337-.134-.471-.068 0-.135-.068-.203-.068-.337 0-.742-.067-1.147-.067zm4.588-.134c.27-.068.607-.202.877-.337.203-.135.27-.27.27-.472 0-.337 0-.405-.337-.27-.203.068-.405.202-.473.472-.067.135-.135.337-.202.472a.145.145 0 00-.135.135zm-5.532.067c-.135-.202-.27-.404-.27-.674-.068-.337-.338-.472-.608-.54-.067 0-.134 0-.134.068-.068.202 0 .607.202.742s.472.27.81.404zm15.045-1.146c0-.067 0-.135-.067-.202-.135-.202-.203-.472-.338-.674-.067-.202-.135-.202-.337-.135-.067.472.202.876.405 1.213.135-.134.067-.27.067-.404a.925.925 0 01.27.202zm-23.479.202c.27-.404.472-.741.472-1.28-.135 0-.202-.068-.27.067l-.404.809c-.068.067-.068.202-.068.27.068-.135.135-.27.27-.338-.067.135-.202.338 0 .473zm18.486 6.675c.068-.135 0-.203-.135-.27-.134-.068-.27-.068-.337-.068-.135-.067-.27 0-.337.068-.203.202-.203.337 0 .472.135.067.27.067.337-.068.068-.067.135-.202.203-.337a.93.93 0 01.27.203zm-14.303-.135c.068.067.068.135.135.202.135.337.27.337.54.067l.067-.067c-.067-.067-.067-.135-.135-.202a.512.512 0 00-.27-.135c-.202 0-.337.067-.54.135-.067.067-.067.135 0 .202.068-.135.136-.135.203-.202zm11.267-7.955c-.27.337-.674.472-1.08.674.338.337.878 0 1.08-.674zm-5.87-9.438c.203.134.27.067.405-.068-.067 0-.067-.067-.135-.067.068 0 .135-.068.27-.068a8.496 8.496 0 01-.674-.202c-.068 0-.135 0-.135.135-.068.202.067.337.27.404-.068-.067-.068-.134 0-.134zm-2.63 9.505c.067.202.134.405.337.54.135.134.337.27.54.202.067 0 .134-.068.134-.068V14.9c-.202-.067-.337-.202-.54-.27-.134-.067-.27-.202-.472-.337zm5.464-9.573c.068.068.068.068.135.068.068 0 .068-.068.135-.068 0 .068.068.135.068.202.27-.067.404-.337.27-.539-.27.067-.473.135-.743.202v.068c.068 0 .135.067.27.067-.067-.067-.067 0-.135 0zm6.41 16.989c-.135-.27-.607-.337-.81-.135.27.067.54-.067.81.135zM67.13 3.506c.27.067.338.202.338.404s0 .405-.203.472v.202c.338-.27.338-1.011-.067-1.213 0 0-.068.067-.068.135zM57.348 21.64c.203 0 .473-.067.675-.067-.202-.27-.54-.202-.675.067zm5.128-17.325c-.135.134-.203.067-.203-.068a.655.655 0 01-.067-.607c-.135.405-.067.877.27 1.012v-.337z"/><path d="M71.72 19.685c-.338.203-.54.54-.675.877-.136-.135-.068-.27 0-.337.134-.27.404-.405.674-.54zm-13.495.068c.405.067.675.54.54.876-.202-.337-.27-.674-.54-.876zm15.113-2.427c0-.202.068-.472.068-.674.135.067.135.337-.068.674zm-3.508-6.27c-.472-.202-1.012-.337-1.484-.54l-.068-.067c.54.068 1.08.203 1.552.607zm-8.029-.606c-.607.134-1.214.337-1.754.471.135-.202 1.147-.472 1.754-.472zm-3.103-2.023c.202-.135.472-.202.742-.27v.068c-.27 0-.472.135-.742.202zM63.42 6.27c.338-.068.675-.135.945-.135.472-.068.945 0 1.417.067.202 0 .337.068.54.068 0 .067 0 .067-.135.067s-.27 0-.405-.067c-.675-.068-1.35-.068-1.957.067h-.27c-.067 0-.135-.067-.135-.067zm1.35-1.012c-.135-.067-.337-.202-.472-.27-.068-.067-.068-.134-.068-.201.068-.068.135-.068.203 0 .135.067.27.202.337.27.067.067.067.134 0 .201.067 0 .067 0 0 0zm.742-.337s-.068.068-.068.135c-.135.068-.202.135-.337.202h-.135v-.134s0-.068.068-.068c.135-.067.202-.135.337-.27.067 0 .135 0 .135.135zm.27 0c.068.068.068.135 0 .27-.135.135-.337.202-.607.135l.607-.405zm-1.754 0c.202.135.404.27.54.337-.135.068-.405.068-.54-.067-.068 0-.068-.135 0-.27zm3.103 9.169c0 .202 0 .27-.202.27-.135 0-.27.067-.472.067.27-.135.54-.135.674-.337zm-3.778.27c-.472.067-.675-.068-.675-.27.203.135.405.202.675.27zm1.012-10.72c-.202-.067-.405-.202-.607-.27.202-.067.472.068.607.27.068 0 .068 0 0 0zM8.906 6.135V16.92c0 .472-.135.877-.472 1.214-.338.337-.743.472-1.215.472-.472 0-.877-.203-1.214-.54-.338-.337-.54-.809-.675-1.415L0 17.932c.135.81.337 1.551.742 2.225a7.64 7.64 0 001.484 1.82c.608.54 1.282.944 2.092 1.214.81.337 1.687.472 2.631.472a9.077 9.077 0 003.104-.54 6.894 6.894 0 002.361-1.415A5.386 5.386 0 0013.9 19.55c.337-.81.54-1.686.54-2.697V6.067H8.905v.068zm18.216 0v10.112c0 .742-.202 1.281-.674 1.753-.473.472-1.012.674-1.755.674-.742 0-1.281-.202-1.754-.674-.472-.472-.674-1.011-.674-1.753V6.135h-5.533v10.112c0 1.079.203 2.09.54 2.966.405.877.877 1.686 1.62 2.36.674.674 1.551 1.213 2.495 1.55.945.338 2.092.54 3.239.54a9.881 9.881 0 003.238-.54 6.281 6.281 0 002.497-1.55 7.345 7.345 0 001.62-2.36c.404-.876.539-1.887.539-2.966V6.135h-5.398zm61.532 7.483v4.112h2.63V18c-.202.135-.404.27-.674.337-.202.067-.472.202-.742.27a3.98 3.98 0 01-.944.135c-.473 0-.945-.135-1.417-.338-.473-.202-.877-.539-1.215-.876-.337-.404-.674-.809-.877-1.28a3.996 3.996 0 01-.337-1.551c0-.54.135-1.079.337-1.55.203-.473.54-.945.877-1.282.338-.404.742-.674 1.215-.876.472-.203.944-.337 1.416-.337.405 0 .81.067 1.08.135.337.067.607.202.81.337.27.134.472.337.674.539.135.135.27.337.405.54.068.067.068.134.135.134l5.532-.742c-.134-.471-.337-.876-.54-1.348-.134-.337-.337-.607-.539-.944-.472-.741-1.08-1.348-1.754-1.887-.675-.54-1.552-1.012-2.429-1.349-.135-.067-.202-.067-.337-.134-.135-.068-.27-.068-.338-.135-.54-.135-1.214-.202-1.821-.27h-.743c-1.281 0-2.563.27-3.643.742-1.147.539-2.159 1.146-3.036 2.022-.742.742-1.417 1.618-1.889 2.562 0 .067-.067.135-.067.202-.473 1.079-.675 2.292-.675 3.64 0 1.281.202 2.495.674 3.574.473 1.078 1.08 2.09 1.957 2.966.877.876 1.89 1.483 3.036 1.955.945.337 1.89.54 2.969.607h1.821c.877-.068 1.687-.337 2.497-.674a9.254 9.254 0 002.834-1.955 9.82 9.82 0 001.956-2.765c.472-1.01.675-2.09.675-3.168V13.82h-9.513v-.202zm16.327 4.315V6.135h-5.532V22.92h13.696v-5.056h-8.164v.068zM129 10.921V6.135h-14.438V22.92H129v-4.786h-8.906v-1.416h6.949v-4.315h-6.949V10.99H129v-.068zM45.406 6.135v8.09l-.607-1.416-3.71-6.674h-6.005V22.92h5.532v-7.415h.203l4.587 7.415h5.533V6.135h-5.533z"/></g><defs><clipPath id="clip0_55_3331"><path fill="#fff" d="M0 0h129v24H0z"/></clipPath></defs></svg>