<svg width="56" height="56" fill="none" xmlns="http://www.w3.org/2000/svg"><g clip-path="url(#clip0_35_968)"><path d="M43.75 35A12.25 12.25 0 1156 22.75l.056 1.75a24.5 24.5 0 01-24.5 24.5v-7a17.395 17.395 0 0012.376-5.124c.63-.63 1.212-1.305 1.74-2.023-.636.1-1.279.15-1.922.15V35zm-31.5 0A12.25 12.25 0 1124.5 22.75l.056 1.75A24.5 24.5 0 01.056 49v-7a17.395 17.395 0 0012.376-5.124c.63-.63 1.212-1.305 1.74-2.023-.636.1-1.279.15-1.922.15V35z" fill="#0A8879"/></g><defs><clipPath id="clip0_35_968"><path fill="#fff" d="M0 0h56v56H0z"/></clipPath></defs></svg>