<svg width="58" height="42" fill="none" xmlns="http://www.w3.org/2000/svg"><g filter="url(#filter0_d_39_1233)" fill="#fff"><path d="M29.87 33.287h-8.859l-4.1-5.85-4.1 5.85H4l8.53-12.126-8.2-11.65h8.812l3.77 5.373 3.77-5.374h8.858l-8.199 11.65 8.53 12.127zm17.109-19.735c2.105.666 3.801 1.807 5.089 3.424C53.356 18.593 54 20.543 54 22.826c0 3.581-1.162 6.34-3.487 8.273C48.188 33.033 45.313 34 41.89 34c-2.734 0-5.168-.634-7.304-1.902-2.105-1.268-3.629-3.139-4.571-5.611l7.35-4.232c.692 2.314 2.2 3.47 4.524 3.47 1.194 0 2.105-.284 2.734-.855.66-.57.99-1.332.99-2.283 0-.95-.33-1.696-.99-2.235-.629-.57-1.54-.855-2.733-.855h-1.791l-3.252-4.85 5.278-6.516H31.051V0h21.441v6.705l-5.513 6.847z"/></g><defs><filter id="filter0_d_39_1233" x="0" y="0" width="58" height="42" filterUnits="userSpaceOnUse" color-interpolation-filters="sRGB"><feFlood flood-opacity="0" result="BackgroundImageFix"/><feColorMatrix in="SourceAlpha" values="0 0 0 0 0 0 0 0 0 0 0 0 0 0 0 0 0 0 127 0" result="hardAlpha"/><feOffset dy="4"/><feGaussianBlur stdDeviation="2"/><feComposite in2="hardAlpha" operator="out"/><feColorMatrix values="0 0 0 0 0 0 0 0 0 0 0 0 0 0 0 0 0 0 0.15 0"/><feBlend in2="BackgroundImageFix" result="effect1_dropShadow_39_1233"/><feBlend in="SourceGraphic" in2="effect1_dropShadow_39_1233" result="shape"/></filter></defs></svg>