<svg width="60" height="42" fill="none" xmlns="http://www.w3.org/2000/svg"><g filter="url(#filter0_d_39_1240)" fill="#fff"><path d="M30.563 33.287h-8.925l-4.13-5.85-4.13 5.85H4.5l8.593-12.126-8.26-11.65h8.877l3.798 5.373 3.797-5.374h8.925l-8.26 11.65 8.593 12.127z"/><path d="M44.866 10.604c3.228.412 5.808 1.68 7.738 3.804 1.93 2.093 2.896 4.708 2.896 7.847 0 3.455-1.155 6.277-3.465 8.464C49.724 32.906 46.684 34 42.92 34c-3.767 0-6.805-1.094-9.115-3.281-2.31-2.188-3.466-5.009-3.466-8.465 0-2.599.697-4.897 2.09-6.895L42.254 0h9.637l-7.026 10.604zM42.92 26.201c1.17 0 2.136-.348 2.895-1.046.792-.697 1.187-1.664 1.187-2.9 0-1.268-.38-2.251-1.139-2.949-.76-.697-1.74-1.046-2.943-1.046s-2.184.349-2.944 1.046c-.76.698-1.139 1.68-1.139 2.948 0 1.269.38 2.251 1.14 2.949.759.666 1.74.998 2.943.998z"/></g><defs><filter id="filter0_d_39_1240" x=".5" y="0" width="59" height="42" filterUnits="userSpaceOnUse" color-interpolation-filters="sRGB"><feFlood flood-opacity="0" result="BackgroundImageFix"/><feColorMatrix in="SourceAlpha" values="0 0 0 0 0 0 0 0 0 0 0 0 0 0 0 0 0 0 127 0" result="hardAlpha"/><feOffset dy="4"/><feGaussianBlur stdDeviation="2"/><feComposite in2="hardAlpha" operator="out"/><feColorMatrix values="0 0 0 0 0 0 0 0 0 0 0 0 0 0 0 0 0 0 0.15 0"/><feBlend in2="BackgroundImageFix" result="effect1_dropShadow_39_1240"/><feBlend in="SourceGraphic" in2="effect1_dropShadow_39_1240" result="shape"/></filter></defs></svg>