<svg width="523" height="339" fill="none" xmlns="http://www.w3.org/2000/svg"><path d="M51.092 132.64v152.938c0 23.116 94.323 41.864 210.608 41.864 116.285 0 210.608-18.748 210.608-41.864V132.64H51.092z" fill="url(#paint0_linear_124_2)"/><path d="M261.7 172.531c116.316 0 210.608-18.302 210.608-40.878S378.016 90.776 261.7 90.776c-116.315 0-210.608 18.301-210.608 40.877 0 22.576 94.293 40.878 210.608 40.878z" fill="#F6F7F7"/><path d="M469.352 130.385c0 20.156-92.916 36.366-207.511 36.366S54.19 150.541 54.19 130.385c0-20.157 92.915-42.005 207.51-42.005 114.596 0 207.652 21.989 207.652 42.005z" fill="#BD5143"/><path d="M260.996 165.906c97.655 0 176.821-16.408 176.821-36.649 0-20.24-79.166-36.649-176.821-36.649s-176.82 16.409-176.82 36.649c0 20.241 79.165 36.649 176.82 36.649z" fill="#BF6C66"/><path d="M84.176 39.468v87.957c0 15.364 79.118 27.768 176.82 27.768s176.821-12.404 176.821-27.768V39.468H84.176z" fill="url(#paint1_linear_124_2)"/><path d="M260.996 67.236c97.655 0 176.821-12.432 176.821-27.768s-79.166-27.769-176.821-27.769-176.82 12.433-176.82 27.769c0 15.336 79.165 27.768 176.82 27.768z" fill="#F6F7F7"/><g filter="url(#filter0_d_124_2)"><path d="M199 117.833c0-5.707 4.626-10.333 10.333-10.333h103.334c5.707 0 10.333 4.626 10.333 10.333v103.334c0 5.707-4.626 10.333-10.333 10.333H209.333c-5.707 0-10.333-4.626-10.333-10.333V117.833z" fill="url(#paint2_linear_124_2)" shape-rendering="crispEdges"/><path d="M209.333 108.146h103.334c5.35 0 9.687 4.337 9.687 9.687v103.334c0 5.35-4.337 9.687-9.687 9.687H209.333c-5.35 0-9.687-4.337-9.687-9.687V117.833c0-5.35 4.337-9.687 9.687-9.687z" stroke="#fff" stroke-opacity=".3" stroke-width="1.292" shape-rendering="crispEdges"/><g filter="url(#filter1_d_124_2)" fill="#fff"><path d="M262.124 190.537h-11.443l-5.295-7.555-5.296 7.555h-11.382l11.017-15.663-10.591-15.048h11.382l4.87 6.941 4.869-6.941h11.443l-10.591 15.048 11.017 15.663zm22.099-25.49c2.718.86 4.909 2.334 6.573 4.422 1.664 2.089 2.496 4.607 2.496 7.555 0 4.627-1.502 8.19-4.504 10.688-3.003 2.498-6.716 3.746-11.139 3.746-3.53 0-6.675-.819-9.434-2.456-2.719-1.638-4.687-4.054-5.904-7.248l9.495-5.467c.892 2.989 2.84 4.484 5.843 4.484 1.542 0 2.719-.369 3.53-1.106.852-.737 1.278-1.719 1.278-2.948 0-1.228-.426-2.191-1.278-2.887-.811-.737-1.988-1.105-3.53-1.105h-2.313l-4.2-6.265 6.817-8.415H263.65v-10.503h27.694v8.66l-7.121 8.845z"/></g></g><defs><linearGradient id="paint0_linear_124_2" x1="51.06" y1="230.012" x2="472.382" y2="230.012" gradientUnits="userSpaceOnUse"><stop stop-color="#BFBEBF"/><stop offset=".129" stop-color="#D0D1D2"/><stop offset=".489" stop-color="#F3F3F3"/><stop offset=".86" stop-color="#E0E1E0"/><stop offset="1" stop-color="#CBCBCB"/></linearGradient><linearGradient id="paint1_linear_124_2" x1="84.187" y1="97.331" x2="437.876" y2="97.331" gradientUnits="userSpaceOnUse"><stop stop-color="#BFBEBF"/><stop offset=".129" stop-color="#D0D1D2"/><stop offset=".489" stop-color="#F3F3F3"/><stop offset=".899" stop-color="#E0E1E0"/><stop offset="1" stop-color="#CBCBCB"/></linearGradient><linearGradient id="paint2_linear_124_2" x1="199" y1="169.5" x2="323" y2="169.5" gradientUnits="userSpaceOnUse"><stop stop-color="#0A8879"/><stop offset="1" stop-color="#09AA4C"/></linearGradient><filter id="filter0_d_124_2" x="168" y="86.833" width="186" height="186" filterUnits="userSpaceOnUse" color-interpolation-filters="sRGB"><feFlood flood-opacity="0" result="BackgroundImageFix"/><feColorMatrix in="SourceAlpha" values="0 0 0 0 0 0 0 0 0 0 0 0 0 0 0 0 0 0 127 0" result="hardAlpha"/><feOffset dy="10.333"/><feGaussianBlur stdDeviation="15.5"/><feComposite in2="hardAlpha" operator="out"/><feColorMatrix values="0 0 0 0 0.0392157 0 0 0 0 0.533333 0 0 0 0 0.47451 0 0 0 0.45 0"/><feBlend in2="BackgroundImageFix" result="effect1_dropShadow_124_2"/><feBlend in="SourceGraphic" in2="effect1_dropShadow_124_2" result="shape"/></filter><filter id="filter1_d_124_2" x="223.542" y="147.542" width="74.917" height="54.25" filterUnits="userSpaceOnUse" color-interpolation-filters="sRGB"><feFlood flood-opacity="0" result="BackgroundImageFix"/><feColorMatrix in="SourceAlpha" values="0 0 0 0 0 0 0 0 0 0 0 0 0 0 0 0 0 0 127 0" result="hardAlpha"/><feOffset dy="5.167"/><feGaussianBlur stdDeviation="2.583"/><feComposite in2="hardAlpha" operator="out"/><feColorMatrix values="0 0 0 0 0 0 0 0 0 0 0 0 0 0 0 0 0 0 0.15 0"/><feBlend in2="BackgroundImageFix" result="effect1_dropShadow_124_2"/><feBlend in="SourceGraphic" in2="effect1_dropShadow_124_2" result="shape"/></filter></defs></svg>