<svg width="833" height="541" fill="none" xmlns="http://www.w3.org/2000/svg"><g opacity=".3" fill="#000"><path d="M86.312 22.756v84.783c0 3.671-1.102 6.974-3.673 9.543-2.571 2.569-5.51 3.67-9.55 3.67-3.672 0-6.978-1.468-9.549-4.037-2.57-2.569-4.407-6.239-5.51-11.011l-41.502 9.176c.734 6.239 2.938 12.112 5.876 17.25 2.939 5.506 6.979 10.277 11.753 14.681 4.775 4.038 10.284 7.341 16.528 9.91 6.244 2.569 13.222 3.671 20.568 3.671 8.815 0 16.895-1.469 24.24-4.038 7.347-2.569 13.223-6.239 18.365-11.011 5.142-4.771 8.815-10.276 11.753-16.883 2.571-6.606 4.04-13.58 4.04-20.921V22.756h-43.34zm142.873 0v78.911c0 5.505-1.836 10.277-5.142 13.58-3.305 3.303-8.08 5.138-13.589 5.138-5.51 0-10.284-1.835-13.59-5.138-3.305-3.303-5.142-8.075-5.142-13.58V22.756h-43.339v78.911c0 8.442 1.469 16.149 4.407 23.49 2.938 6.973 6.979 13.213 12.488 18.351 5.509 5.139 11.753 9.176 19.466 12.112 7.713 2.936 16.16 4.405 25.71 4.405 9.549 0 17.997-1.469 25.71-4.405 7.713-2.936 14.324-6.973 19.466-12.112 5.509-5.138 9.549-11.378 12.487-18.351 2.939-6.974 4.408-15.048 4.408-23.49V22.756h-43.34zm109.083 0h-47.012v131.763h43.34V96.162h1.836l11.753 21.287c1.837-7.34 6.244-12.479 6.244-12.846 0-1.101-1.469-5.505 1.102-13.947 2.204-6.973 6.978-10.277 11.753-15.415l-29.016-52.485zm33.791 0v45.878c2.938-5.138 3.672-8.441 4.407-15.415.735-8.074.735-9.543 7.346-12.479 6.244-2.936 10.651-2.202 19.098-1.1 3.673.366 8.081 2.568 12.855 5.138V22.756h-43.706zm128.182 58.357v31.932h20.568v1.835c-1.47 1.101-3.306 2.202-5.142 2.936-1.837.734-3.673 1.468-5.877 1.835-2.204.367-4.775.734-7.713.734-3.673 0-7.346-.734-11.018-2.569-3.673-1.835-6.979-4.037-9.55-6.973-2.571-2.937-5.142-6.24-6.978-10.277-1.837-3.67-2.571-7.708-2.571-12.112s.734-8.442 2.571-12.112c1.836-3.67 4.04-7.34 6.978-10.277 2.939-2.936 5.877-5.138 9.55-6.973 3.672-1.836 7.345-2.57 11.018-2.57 3.306 0 6.244.367 8.448 1.102 2.571.733 4.774 1.468 6.611 2.569 1.836 1.1 3.673 2.569 5.142 4.037 1.469 1.468 2.938 3.303 4.407 5.138l43.34-5.505c-1.837-6.24-4.775-12.112-8.448-17.617-3.673-5.506-8.447-10.644-13.957-15.049-5.509-4.404-11.753-7.707-19.098-10.276-7.346-2.57-15.426-4.038-24.241-4.038-10.284 0-20.201 1.835-29.383 5.873-9.182 4.037-16.895 9.175-23.873 15.782-5.877 5.872-11.019 12.479-14.692 19.82 10.284 8.808 23.874 34.867 23.874 34.867s1.836 7.708 2.938 12.479c11.753 11.378 6.611 31.932 5.509 33.4 1.102.734 19.834 13.947 29.016 20.186 2.203.367 4.407.367 6.611.367 9.549 0 18.364-1.835 26.812-5.872 8.447-4.037 15.793-8.809 22.037-15.415 6.243-6.24 11.385-13.58 15.058-21.655 3.673-8.075 5.509-16.516 5.509-24.958V80.38h-73.456v.734zm127.815 33.767V22.756h-43.34v131.763h107.247V114.88h-63.907zm188.416-54.32V22.756H703.716v131.763h112.756v-37.804h-69.784v-11.378h54.726V71.571h-54.726V60.193h69.784v.367z"/><path d="M175.194 361.523v-9.176c2.939-6.239 6.244-12.846 8.815-19.085.368-1.101.368-2.569 0-4.038-1.469-4.771-1.469-9.542 2.204-13.58 2.204-2.569 4.407-5.138 6.978-6.973 2.204-1.835 4.408-3.303 3.306-6.974-.367-1.468.367-3.303.734-4.771 1.837-5.505 4.041-11.011 6.244-16.149 3.673-8.442 9.917-15.416 16.161-22.022 2.204-2.569 4.04-5.138 4.774-8.442 2.204-8.074 5.51-15.415 9.917-22.755 6.244-9.91 14.692-17.985 23.506-25.325 1.837-1.836 4.775-2.57 7.346-3.304 9.182-2.202 18.732-4.037 27.914-6.239 4.407-1.101 8.08-3.67 11.018-7.341 6.611-8.441 14.324-16.149 23.139-22.388 7.346-5.139 15.059-9.91 22.404-14.682 2.939-1.835 5.877-3.67 7.713-7.34-3.673-3.67-5.509-7.708-5.876-13.213-.368-6.24.367-12.479 5.509-16.884 2.571-2.202 4.407-4.037 4.775-7.707 0-2.202 1.469-4.404 2.203-7.34-1.469.366-2.203.366-3.672.733 1.836-2.936 5.509-4.404 4.407-8.441 2.571-2.203 3.306-6.24 6.611-7.708 0 0 0-.367.367-.734-.367-.367-.734-.367-1.836-1.101 4.775-1.835 5.876-6.606 8.815-9.543 1.836-1.835 2.938-4.037 1.102-6.606 1.101 0 1.469.367 2.203.367-.367-1.835-.734-3.303-1.469-5.506 1.469.367 2.571.734 4.04.734-.734-2.936-1.102-5.138-2.203-8.074 2.571 1.835 3.305 4.404 6.243 4.771-.734-2.202-1.469-4.037-2.203-6.606 2.571 1.1 4.407 1.835 6.978 2.569.367-1.835.367-3.67.735-4.772 2.938.734 5.509 1.102 8.08 1.836.367-.734.367-1.468 1.102-2.937 1.469 4.405 4.775 4.772 8.08 6.24.367-.734.367-1.101.735-2.202 5.142 3.303 9.182 7.34 13.222 11.745l1.836 1.835c1.469 1.1 3.306 1.835 4.775 2.936 2.204 1.835 3.306 4.771 6.611 5.872.367 0 .735.734.735.734-.735 3.67 2.571 4.038 4.407 5.506.735.367 1.836 1.468 1.836 1.468-1.469 2.202 1.102 2.57 1.837 3.67 2.204 2.936 4.407 5.506 6.244 8.075l-.368.367c-.734-.367-1.836-1.101-2.571-1.468l-.367.367c1.837 1.835 3.306 4.037 5.142 5.872l-.367.367c-.735-.367-1.837-.734-3.306-1.1 1.469 3.67 3.306 6.239 3.306 9.175 0 2.936 1.836 4.037 3.673 5.872 3.305 2.937 5.142 6.607 5.876 11.011.735 6.607.368 12.846-4.407 18.352 2.204 1.835 4.04 4.037 6.244 5.505 5.509 3.67 11.385 7.341 16.895 11.011 13.222 8.075 24.975 17.25 34.524 29.729 2.204 2.937 5.142 5.506 8.815 6.607 9.917 2.569 19.834 5.872 30.118 7.34 7.713 1.101 13.956 3.671 19.833 8.442.367.367.734.367 1.102.734 12.487 8.809 22.037 19.82 27.179 34.501 1.102 3.303 1.836 7.34 3.673 9.91 2.203 2.936 5.876 4.404 8.447 6.973 12.855 11.745 20.201 26.426 20.935 43.677 0 .734.735 1.835 1.469 2.569 2.939 2.936 6.244 5.872 9.183 8.808 4.04 3.671 4.407 8.075 2.938 13.213-.368 1.101-.368 2.57 0 3.671 2.938 7.707 6.244 15.048 9.182 22.755v4.038c-1.469 4.037-2.204 8.441-4.408 12.112-3.305 5.505-5.141 11.378-5.876 17.984-1.102 9.543-6.244 17.617-12.488 24.958-10.651 11.745-23.506 20.554-36.361 29.729-2.204 1.468-2.938 3.304-3.305 5.506-.368 4.771-1.102 9.91-1.47 14.681-1.101 8.075-2.938 16.149-8.447 22.389-.735.734-.735 2.202-1.102 3.303-1.469 8.075-4.407 15.415-8.08 22.389-2.204 4.037-5.877 6.239-11.019 6.239-6.978.367-13.589-.734-19.833-4.771-4.775 4.037-10.651 5.138-16.161 2.936-4.04-1.835-8.08-2.202-12.487-2.202-3.306 0-5.877-1.468-6.979-4.772-1.836-6.239-3.672-12.846-5.509-19.452-.367-1.101.367-2.569 1.102-3.303 1.102-1.835 2.204-3.304 3.673-5.139.367-.367.367-.367 1.102-.734 0 1.101-.368 2.202-.368 3.671 4.775 0 9.183-.367 12.855-3.671 1.47-1.468 2.939-3.303 4.775-4.404 2.571-1.835 4.04-4.037 4.408-7.341.367-2.202 1.101-4.404 2.938-5.505 6.244-3.303 10.651-8.442 14.691-13.947l7.713-9.91c-.734 6.974-2.938 12.846-6.244 18.719 9.55-4.405 14.692-12.479 19.834-20.554.367 8.809-.368 17.25-5.142 24.958 4.774-2.936 8.08-6.607 10.651-11.378 2.204-4.404 4.04-9.543 6.244-14.681h4.407c2.204.367 3.306-1.101 4.407-2.569 1.102-1.101 2.204-2.57 3.673-3.671 1.102-1.101 2.204-1.835 3.306-2.936.734-.734 1.102-1.468 2.204-2.936-3.673.367-6.612.367-10.652.734 2.939-2.936 5.51-5.505 8.081-7.341 6.978-5.505 14.324-10.276 21.302-15.782 3.673-2.936 6.978-5.872 10.284-8.809-9.917 5.139-19.099 11.011-30.485 12.479 2.204-1.835 4.408-3.303 6.979-5.138 4.04-2.936 4.775-4.037 5.876-6.606-9.182 4.404-18.364 8.074-27.546 11.01 2.938-2.569 6.244-4.771 9.182-6.973 2.938-2.569 5.877-4.772 8.815-7.708 2.938-2.936 5.509-5.505 8.08-8.808 2.571-2.937 4.775-6.24 6.611-9.543 1.837-3.303 3.673-6.607 5.51-9.543-.368 0-.368-.367-.735-.367-5.876 5.138-12.12 9.176-19.099 12.112 8.448-8.442 16.161-17.617 19.466-29.362-4.774 4.771-9.549 9.542-13.589 14.681-8.448 11.378-16.161 23.123-24.241 34.501 4.04-8.809 8.08-17.618 12.488-26.427 4.407-8.808 8.815-17.617 13.222-26.059-6.978 4.038-12.855 9.176-17.262 15.416-4.408 6.239-8.081 12.846-11.753 19.452 0-.367 0-.734.367-1.468 4.04-15.782 12.12-28.628 26.077-37.804 5.509-3.67 10.284-7.708 15.059-12.112 4.407-4.037 4.407-5.505 1.469-10.644 0 0 0-.367.367-.734 5.877 4.038 12.855 5.873 20.568 6.974-2.204-4.038-4.775-6.24-7.713-8.809-2.204-2.202-5.142-3.303-8.448-3.67-2.571 0-5.142-.734-7.713-1.468-1.469-.367-2.571-1.468-3.672-2.569-1.47-1.469-2.571-2.937-4.04-4.038-2.571-2.569-5.51-5.138-8.081-7.707-2.938-3.304-4.774-7.708-5.509-12.112 2.204 1.835 4.04 4.037 6.244 5.872 2.938 2.936 6.611 4.771 10.651 4.771 4.04.368 6.611-1.835 6.978-6.239.368-4.771-1.101-8.809-3.672-12.479-4.775-6.606-11.019-12.112-17.63-16.883 0 0-.367 0-.735.367 0 .367-.367.734-.367 1.101-.367 6.239-2.204 11.378-6.978 15.415-.735.734-1.102 2.202-1.469 3.303-.735 4.405-1.47 8.809-2.571 13.213-.368 1.468-.735 3.671-3.306 4.038-.367-1.468-.735-2.937-.735-4.405-.734-7.707-5.141-11.011-12.854-10.644-4.775 0-9.183.367-13.957.735-9.917.734-19.834 2.569-28.648 7.707-2.571 1.468-4.041 3.303-4.041 6.24 0 3.67.001 7.34.368 11.378 1.469 14.681 17.997 22.388 30.484 14.314-8.814-9.543-17.997-23.49-18.731-30.097 2.571 4.038 4.775 7.341 6.978 10.644 2.204 2.936 4.408 6.24 6.979 8.809 3.305 3.303 7.713 4.404 12.487 3.303.735-4.404.735-8.442-2.203-12.846 7.713 1.101 15.058 2.936 22.404-1.835-.367 4.404-.735 8.075-1.102 12.479 1.102-.734 1.837-1.101 2.204-1.101 2.203-1.101 3.673-.734 4.04 1.835.367 1.468.367 2.936-.367 4.404-.735 1.835-2.204 3.671-3.673 5.506-5.509 7.34-10.284 15.048-13.222 23.49-3.306 9.909-4.408 19.452-.735 29.729 1.102 2.936 1.102 6.973.367 10.277-.734 4.037-2.203 7.707-4.04 11.378-4.04 7.707-8.815 15.048-13.222 22.388-.735 1.101-1.469 2.202-2.204 3.671 2.204.367 4.04.734 5.877 1.468l4.407 2.202c0 .367-.367.367-.367.734-1.102 0-1.837-.367-2.938-.367-4.041-.367-7.713-.734-11.386 1.101-6.979 3.67-13.957 3.67-20.935-1.101-5.51-4.037-9.917-3.67-15.794.367-2.571 1.835-5.509 3.303-8.447 4.771-4.408 2.202-5.509 4.405-4.04 9.543 8.447.367 14.691-3.67 20.2-9.543 3.306 1.468 6.244 2.936 8.081 5.139-4.408 3.303-8.448 6.606-12.488 9.542-6.244 4.405-12.855 9.543-19.466 13.58-2.938 1.836-4.407 4.038-5.142 6.974-.735 2.936 0 3.67 2.938 4.037 4.408.367 8.448-.367 11.386-4.037 5.142-6.607 10.651-13.213 15.793-19.82 4.04-5.505 9.917-7.34 16.528-7.34 0 .367-.367.734-.735.734-5.876 2.202-8.814 6.973-11.385 12.479-1.102 2.936-2.939 5.872-5.142 8.075-5.142 5.505-9.182 11.377-12.488 17.984-1.102 2.202-2.938 4.771-4.775 6.606-1.836 1.469-2.571 3.304-2.203 5.506 0 5.138.367 10.644.734 15.782 0 1.835 1.102 3.67 2.204 4.771 3.305 3.671 6.978 6.974 10.651 10.644.735.734 1.837 1.835 2.938 3.304-1.469 0-1.836.367-2.203.367-29.75 0-59.133 0-88.883-.367-1.102 0-2.571-.735-3.673-1.469-4.04-2.936-6.978-6.606-9.182-11.377-1.836 1.835-3.306 2.936-5.142 4.771-2.204-1.835-4.04-3.67-5.509-5.506-2.204 2.937-4.408 5.506-6.611 8.075-3.673 4.404-8.081 6.974-13.957 5.873-1.102-.367-2.204 0-2.938 0h-82.639c1.102-1.469 1.469-2.203 2.203-2.937 3.673-3.67 7.346-7.707 11.019-11.378 1.469-1.468 2.204-2.936 2.204-5.138 0-5.138.367-10.277.367-15.415 0-1.468-.735-3.303-1.836-4.037-4.041-2.57-5.877-6.607-8.081-10.644-1.836-3.304-3.673-6.974-6.244-9.543-4.407-5.138-8.447-10.644-11.018-16.883-1.469-3.671-3.673-6.974-7.346-9.176-.367-.367-.734-.734-1.469-1.835 6.978.734 12.12 2.936 16.161 8.074 4.774 6.24 9.916 12.479 14.324 18.719 3.673 5.138 8.447 5.505 13.589 5.138.735 0 1.837-1.101 2.204-1.835.734-2.202-1.102-7.34-3.306-8.441-8.447-5.139-16.527-10.277-23.506-17.251-1.836-2.202-4.775-3.303-7.346-4.771-.734-.367-1.836-.734-3.305-1.468 3.305-2.202 6.244-4.038 9.549-5.873 1.102 1.101 2.204 1.835 2.939 2.936 4.04 4.405 9.182 6.24 15.058 7.341 2.204.367 2.938-.367 3.673-2.202 1.102-3.67 0-5.506-3.306-6.974-3.672-1.468-7.712-2.569-11.018-4.771-6.611-4.404-9.917-4.771-16.528 0-4.775 3.67-9.916 4.037-15.426 1.101-1.836-1.101-4.407-1.468-6.611-1.835-2.938-.367-5.509 0-8.447 0 2.938-3.303 7.345-1.835 11.385-3.303-1.469-2.57-2.938-5.139-4.04-7.341-4.04-7.708-7.713-15.048-12.12-22.756-3.673-6.606-3.673-13.213-1.836-20.186 3.305-12.846 1.101-25.325-5.51-37.07-2.938-5.506-6.978-10.277-10.651-15.415-1.102-1.835-2.571-4.038-3.306-6.24-.367-1.101.368-2.936 1.102-3.67.368-.367 2.204-.367 3.306 0 .734 0 1.469.734 2.571 1.101 0-4.037-.367-7.708-.735-12.479 6.244 4.037 12.488 3.67 18.732 2.202-.368 3.303-1.102 6.24-1.102 8.809 0 3.67 1.102 4.771 4.775 3.67 3.672-1.101 6.243-3.303 8.08-6.239 2.938-4.038 5.142-8.075 8.08-12.112 1.102-1.468 1.837-2.937 2.938-4.405.368 0 .368.367.735.367-3.306 11.378-10.284 20.554-19.099 30.097 4.408.734 8.08 1.835 11.753 2.202 10.284.367 19.099-6.974 19.834-17.25.367-3.671-.368-7.708-.368-11.745 0-2.57-1.102-3.671-3.305-4.772-5.877-2.202-12.121-4.771-17.997-6.973-7.713-2.569-15.426-2.937-23.506-1.835-4.04.734-6.979 2.569-8.081 6.606-.367 1.835-.734 3.67-1.469 5.138-.367.735-.734 1.836-1.102 2.57h-1.101c-.735-1.835-1.837-4.038-2.204-5.873-.367-3.67-.367-7.34.367-10.644.367-2.202 0-3.67-1.836-5.138-3.306-2.936-5.142-6.974-5.142-11.378 0-1.468-.368-2.569-.368-4.771-2.938 3.303-5.141 5.872-7.345 8.441-2.938 3.304-5.877 6.974-8.448 10.644-2.938 4.038-3.673 8.442-2.203 12.846 1.101 2.936 2.203 4.038 5.509 3.671 5.142-.368 8.08-3.304 11.018-6.974.735-1.101 1.469-2.202 2.571-3.303-1.469 9.175-5.876 16.516-14.324 20.92-1.469.734-3.305 1.835-4.04 3.304-1.102 2.569-2.938 3.303-5.142 3.303-1.836.367-3.673.367-5.509.734-5.509 1.468-8.815 5.872-11.753 10.277.367.367.367.734.734 1.101 5.877-2.202 12.121-4.405 18.365-6.607-.368.367-.368.734-.368 1.101-3.305 5.139-3.305 6.24 0 11.011 1.469 1.835 3.306 3.671 5.142 5.506 2.571 2.202 5.142 4.037 7.346 6.239 7.346 6.24 14.324 12.479 18.364 21.288 3.306 7.34 6.611 15.048 9.55 22.389 0 0 0 .367-.368 1.101-8.447-15.049-16.16-29.73-31.219-38.905 6.979 15.415 14.324 30.83 21.303 46.245-.368 0-.735.367-.735.367-11.019-14.681-21.67-28.995-32.688-43.676 3.673 10.277 11.018 17.617 17.262 25.692l-.734.734c-4.408-2.936-8.815-6.24-13.223-9.543 0 .734 0 1.101.368 1.468 3.305 7.708 7.345 15.048 13.222 20.921 5.509 5.872 11.753 11.378 17.262 17.25.735.734 1.102 1.468 1.837 2.202l-.368.367c-7.713-3.67-15.426-7.707-23.139-11.377l-.734.734c3.673 3.303 7.346 6.606 11.753 10.276-10.284-1.835-17.997-6.606-26.445-11.377 1.837 1.835 3.673 3.67 5.51 5.138 8.08 6.239 15.793 12.479 23.873 18.718 2.204 1.836 4.04 4.038 6.611 6.607-4.407.367-7.713-1.468-11.386.734 3.673 4.771 6.244 9.91 11.754 11.011 1.836 5.138 3.305 9.91 5.509 14.314 2.571 5.505 6.611 9.543 10.284 11.378-4.775-7.708-5.142-16.149-4.775-25.325 2.571 4.404 4.775 8.074 6.978 11.378 3.673 5.505 6.244 7.707 9.55 8.074-3.306-5.872-4.408-12.479-5.142-19.085 2.938 4.037 5.876 8.442 8.815 12.846 2.938 4.771 6.978 9.176 12.12 11.745 2.571 1.468 3.673 3.303 4.04 6.239.367 1.835.735 4.038 1.837 5.139 2.203 2.569 4.774 4.771 7.345 6.973 3.673 3.303 8.081 3.67 13.223 3.303-1.47-2.936-2.939-5.505-4.041-7.707 3.306 3.303 6.244 6.973 9.183 10.644.367.367.367 1.468.367 2.202-1.837 6.973-4.04 13.947-5.877 20.92-.734 2.203-2.571 3.671-4.774 3.671-4.775 0-9.183.734-13.59 2.202-5.509 1.835-10.651.734-15.059-2.569-3.305 1.468-5.876 2.936-8.814 3.67-10.284 2.569-16.528.734-20.568-10.277-1.102-3.67-2.204-7.34-3.673-11.011-1.469-3.67-2.938-7.34-4.775-10.643-2.938-5.139-5.142-10.644-5.509-16.884-.367-6.606-1.102-12.846-1.469-19.452-.368-2.937-1.102-5.506-4.04-6.974-1.469-.734-2.939-2.202-4.04-3.303a811.997 811.997 0 01-24.608-25.692c-5.877-6.24-9.55-13.947-10.284-22.756-.368-3.303-.368-6.606-.735-9.91 0-1.101-.367-2.936-1.102-3.67-3.305-3.303-5.509-8.809-7.346-14.314zM400.34 117.082c0-.367.367-.367.367-.367-4.775-5.138-9.917-9.176-16.528-11.745-2.938-1.101-5.876-.367-8.447 2.202 1.101.734 2.203 1.468 2.57 2.202-2.57 2.57-4.774 4.772-6.611 7.341-1.836 2.202-2.571 4.771-2.203 7.708 0 1.468.734 2.569 2.203 2.569l.368-.367c.367-.734.734-1.835 1.102-2.57 1.836-5.138 5.142-6.239 9.916-3.303 2.571 1.835 5.142 3.671 7.713 5.139 2.571 1.835 5.509 2.936 9.917 2.569-2.938-2.936-5.142-5.139-7.713-7.341 4.775 2.202 11.018 1.468 13.957 6.974v-2.936c0-1.469-.368-2.57 1.836-2.937 1.836 0 2.571 1.101 2.571 2.57 0 .734 0 1.835.367 3.303a31.8 31.8 0 011.837-4.405c4.04-1.468 6.978-2.569 10.651-3.67-2.204 3.303-6.611 3.303-8.448 7.341 1.837 0 3.306.734 4.408.367 2.571-.734 4.775-1.835 6.978-2.936l9.917-5.506c4.04-1.835 6.244-.734 7.713 3.303.367 1.101.734 2.203 1.469 3.671 2.204-1.468 2.204-3.304 1.836-4.772-1.469-6.239-5.876-9.909-11.385-13.213 1.101 0 1.836 0 2.203-.367l2.204-1.101c-.367-.734-.735-1.835-1.469-2.202-.735-.367-1.837-.734-2.938-.734-1.837.367-3.306 1.101-5.142 1.835-5.877 2.569-10.652 6.974-15.794 11.378-1.101.734-2.203 1.468-3.305 1.835-4.775 1.835-8.815.367-12.488-2.202 0 .734.368.367.368.367zm-117.164 82.581c0 .734.367 1.469 0 1.836-.735 1.101-1.836 1.835-2.938 2.936-4.408 5.138-9.182 9.91-13.223 15.048-5.509 7.34-6.611 20.554-2.938 28.261 6.611-16.149 14.692-26.059 24.241-28.628-2.571 4.037-5.509 7.707-7.713 11.378-2.571 4.037-4.407 8.074-4.775 12.846 9.917-9.543 22.772-13.58 34.892-18.719-8.08 6.24-16.16 11.745-21.67 20.554l9.917-3.303c8.815-3.304 16.895-7.708 24.241-13.58 5.876-4.772 12.12-9.176 19.466-12.112.367 0 .734-.734 1.469-1.101-11.753-5.873-23.506-11.378-37.096-13.213 1.837-.735 4.041-1.102 5.877-1.836v-.734c-2.204-.734-4.407-2.569-6.611-2.569-8.08 0-15.793.734-23.139 2.936-4.775.734-9.182 1.836-13.957 2.57-9.182.734-13.957 7.34-19.466 13.213 3.673-1.469 6.244-4.772 9.917-5.873-7.713 8.442-17.63 15.048-23.139 25.325 3.673-3.303 7.346-6.973 11.018-10.277.368 0 .735.367 1.102.367 0 3.671-.367 7.341 0 10.644.368 3.67 1.102 6.974 1.837 10.644.734 3.303 1.836 6.607 2.938 9.91-5.142-16.517 11.018-47.714 29.75-56.523zm191.355 96.896c11.753-4.037 33.423-20.921 39.299-30.83-1.102-1.102-1.836-2.57-2.938-3.671-4.775-3.67-9.182-7.707-13.957-11.011-7.345-5.138-15.426-7.707-23.506-10.643-1.469-.367-2.571-1.102-4.04-1.469 0-.367.367-.367.367-.734 15.426 2.203 30.485 4.772 42.605 16.517 0-1.101-.367-1.835-.734-2.202-7.346-13.948-18.732-23.123-33.423-28.262-13.957-4.771-28.648-4.771-42.972-4.404-1.837 0-4.408 1.101-5.877 2.569-4.775 4.772-9.182 9.543-13.957 14.681-.734.734-1.102 1.468-1.836 2.937 5.876-.368 10.651-2.937 16.895-1.836-2.204 1.101-3.673 1.468-4.775 2.203-2.938 1.468-6.244 2.569-9.182 4.037-5.142 2.569-5.509 5.138-2.938 10.644 6.244-.367 12.855-.734 19.099-1.101-1.837 1.468-4.041 2.202-5.877 2.936-3.673 1.468-7.346 3.303-11.019 5.138-2.571 1.468-2.938 3.671-2.571 5.873.735 2.569 2.939 1.835 4.408 2.202 4.407.734 8.815 1.101 13.589 1.835 3.306.734 6.979 1.468 10.284 2.202v1.101c-8.08-.367-16.16-.367-24.975-.734 2.204 3.67 5.142 5.873 8.08 7.341 12.121 5.872 25.343 8.441 38.932 7.34 1.837 0 3.306-.734 5.142-1.468v-1.101c-3.673-2.202-7.345-4.771-11.385-7.34 12.855 1.468 24.975 4.404 37.095 1.468-5.876 5.505-11.753 12.112-19.833 15.782zm-88.883-59.092c0-.367 0-.734.367-1.101 6.244 1.101 12.488 1.835 19.099 2.936-.367-1.468-.734-2.569-1.102-2.936-4.04-4.771-7.713-9.175-11.753-13.947-2.571-2.569-5.876-3.67-9.549-3.303-8.815.367-17.262.734-26.077 1.468-12.121 1.101-23.139 5.505-32.689 12.846-6.978 5.505-12.487 12.112-15.425 20.921 6.243-5.139 12.854-9.176 20.567-11.745 7.713-2.202 15.426-3.671 23.507-4.038-17.263 5.873-34.158 12.112-45.911 27.528 10.284 11.377 20.568 21.654 34.525 28.261-5.509-4.038-10.284-8.809-15.059-14.681 12.488 2.936 24.241.734 36.729-1.101-4.041 3.303-8.448 4.037-11.019 8.441 2.571.734 4.407 1.101 6.611 1.468 8.448.734 16.895-.734 24.975-2.936 4.775-1.468 9.55-3.67 13.957-5.872 2.204-1.102 3.673-2.937 5.51-4.772-2.939-.734-5.877-.734-8.448-.734-2.938 0-5.877.367-8.448 0-2.571 0-5.142.734-7.713-1.468 8.815-1.468 17.997-2.936 26.445-4.404.734-4.405-.367-6.974-3.673-8.075-4.775-2.202-9.917-4.037-14.691-5.872-.735-.367-1.102-.367-1.837-.734 2.939-.734 5.51-.734 8.081-.734l9.916 1.101c2.204.367 2.939-.734 3.306-2.937.367-2.936-.368-5.505-3.306-6.973-4.04-1.835-7.713-3.67-11.753-5.139-1.836-.367-3.673-1.101-5.142-1.468zM563.781 402.63c-2.938-3.303-5.877-6.239-7.713-9.176-6.611-9.175-7.346-19.452-4.775-30.463 1.469-5.138 3.306-10.277 4.775-15.782-8.815-1.468-16.161-4.772-22.772-10.644-1.469 2.936-2.938 5.138-4.407 7.708-5.877 11.011-14.324 19.819-26.077 24.591-2.204 1.101-2.571 2.202-2.571 4.404v27.527c0 1.101.367 2.202 1.102 3.303 2.938 5.873 5.876 11.378 8.814 17.251.368 1.101 1.102 1.835 1.47 3.303 1.101-1.101 2.203-1.835 2.938-2.569 6.978-5.506 13.957-5.873 21.302-.367 1.102.734 2.571 1.835 3.673 1.835 6.244-.367 12.488 0 16.161-7.341 2.203-5.138 5.509-9.91 8.08-13.58zm-298.235-1.101c2.939 5.873 5.142 11.378 8.448 16.516 2.938 5.139 8.815 6.24 13.589 3.304 8.081-5.139 13.957-4.772 21.67 1.101l3.306 2.202c.734-.367 1.102-.734 1.102-1.101 2.938-7.341 8.08-13.58 12.854-19.82.735-1.101 1.102-2.202 1.102-3.67 0-8.809-.367-17.25 0-26.059 0-2.936-.734-4.404-3.673-5.505-13.589-5.873-23.506-15.416-29.015-28.996-.367-.734-.735-1.835-1.102-1.835-6.978 3.303-13.589 6.607-20.568 9.91 1.469 4.404 2.939 8.809 4.04 13.213 1.47 5.138 2.204 10.277 1.837 15.782-1.102 9.91-4.408 18.719-13.59 24.958zm211.556-186.083c9.917 4.037 17.63 11.01 26.077 17.25 8.448 6.239 18.364 9.176 27.546 13.213-5.509-7.341-12.855-12.479-19.833-17.984 10.651 4.404 22.404 7.34 31.219 15.782-2.571-9.176-7.713-16.516-13.589-23.857 2.938 1.101 5.142 2.202 7.713 3.67 9.549 5.506 16.527 13.58 22.037 23.123.367-2.569.367-4.771.367-6.974.367-8.808-2.204-16.149-8.08-22.755-4.04-4.405-8.448-8.809-12.488-13.213-.735-.734-1.102-1.468-1.836-2.202 11.753 4.404 17.997 14.314 24.24 24.223 6.244 9.91 10.284 20.554 9.55 32.666 1.469-9.91 3.305-19.82 3.305-30.096-.367-7.708-3.673-13.947-9.916-18.352-.735-.734-1.47-1.468-2.571-1.835 4.04.367 7.713 2.202 10.284 4.771 3.672 3.671 5.509 8.442 6.978 13.213 2.204 8.075 4.04 16.15 3.673 25.325 4.04-10.276 3.673-19.452-1.102-28.628.367 0 .367-.367.735-.367 4.774 4.404 9.549 8.809 14.324 12.846-.368-1.835-1.469-3.303-2.204-4.404-6.978-10.277-16.528-17.251-26.445-24.591-1.469-1.101-3.672-1.468-5.509-1.835-10.284-2.202-20.935-4.038-31.219-6.24-5.142-1.101-10.284-1.835-15.426-1.101-2.204.367-4.04.734-5.142 2.936 2.938.734 5.509 1.469 8.08 2.203-14.324 1.468-27.546 6.973-40.768 13.213zm-91.821-39.272c16.895-3.671 34.157-4.405 50.685-1.102-1.836 5.139-3.673 9.91-5.876 15.049 8.08-1.836 11.753-6.24 11.753-13.58v-4.038c-.735-6.239-2.204-11.745-7.346-16.149-1.836 1.101-3.306 1.835-4.775 2.569.368-1.468.735-2.202 1.469-2.936 5.877-7.708 4.775-7.708.368-13.58-.368-.367-.368-.734-.368-1.101-1.101-.734-2.203-2.202-3.672-2.569-4.775-1.836-9.183-1.836-13.957 0-2.204.734-5.51 1.101-7.346 0-5.509-2.937-10.651-1.836-15.426.734-5.876 3.303-6.978 10.644-2.571 15.415 1.102 1.101 1.837 2.202 2.571 3.303-1.102 0-1.836-.367-2.204-1.101-2.203-1.835-2.938-1.835-4.774.367-3.306 3.67-5.51 7.708-5.142 12.479 0 2.202 0 4.771.367 6.974.367 6.239 5.142 11.01 11.753 11.745-.734-1.836-1.469-3.304-1.836-4.772-.368-1.835-.735-3.303-1.469-4.771 2.203-1.101 3.672-2.202 5.142-3.303 0-.368-.368-.368-.368-.735-2.203 1.102-4.774 1.102-6.978 1.102zm82.639-2.57c2.571 4.405 4.774 8.809 7.345 12.846 1.47 2.203 3.306 3.304 6.244 3.671 5.51.367 11.386.734 16.895 1.835 5.877 1.101 6.611 2.202 4.04 7.707 0 0 0 .367.368 1.101 4.774-1.101 8.447-4.771 13.222-6.606-.735-1.835-1.102-3.67-2.204-5.138-2.203-3.304-4.774-6.607-7.345-9.91-7.346-7.708-15.794-13.947-24.976-19.453a1036.648 1036.648 0 01-23.139-14.314c2.571 5.506 4.041 10.277 8.081 14.314-1.102.367-1.837.367-2.571.734 1.469 5.506.734 10.644-1.47 15.416 3.673 1.835 4.408-.735 5.51-2.203zm-107.982-25.692c-.367-.367-.734-.367-1.102-.734-.734.367-1.469.734-1.836 1.101-9.549 6.24-19.099 12.479-28.281 19.086-7.713 5.505-14.324 11.745-19.833 19.452-1.469 1.836-2.571 4.405-3.673 6.974 5.142 2.569 8.448 6.239 14.324 7.34-.367-1.101-.367-1.468-.367-1.835-2.204-5.138-1.837-5.872 3.673-6.973l16.527-2.202c2.571-.367 4.775-1.101 5.877-3.671 2.571-4.404 5.142-8.441 8.08-12.846 1.102 1.468 1.837 3.671 4.775 1.835-3.306-4.771-2.571-9.909-1.837-15.048h-3.305c1.836-1.468 2.938-2.569 4.407-4.037h-1.836c1.102-2.569 2.938-5.505 4.407-8.442zm92.556 169.935c-6.979-6.974-15.426-10.644-24.975-12.479a38.433 38.433 0 00-9.183 0c-3.305.367-5.509 2.569-5.876 5.872-1.102 7.708.734 13.947 7.713 17.984 2.571 1.469 5.142 2.937 8.08 3.671 6.978 2.202 13.957 3.303 21.303 2.936 2.203 0 4.407-.734 6.243-1.468 2.571-1.101 4.775-2.936 4.775-5.873 0-3.303-1.836-6.239-5.142-7.707-.734-.367-1.836-.734-2.571-.734-5.876-1.835-11.753-3.671-17.262-5.506-.735-.367-1.837-.734-2.571-1.101 0-.367 0-.367.367-.734 3.306.734 6.611 1.468 9.549 2.202 3.306.734 6.244 1.835 9.55 2.937zm-67.213-5.506c0 .367.367.734.367 1.101-.734.367-1.836.734-2.571 1.101-5.142 1.835-10.651 3.304-15.793 5.506-2.204.734-4.407 2.202-5.509 3.67-2.939 3.67-2.204 7.708 2.203 9.91 1.837 1.101 4.408 1.835 6.612 1.835 8.447.734 16.527-.734 24.24-4.037 9.55-4.038 12.121-8.809 11.753-19.086 0-5.138-1.469-6.606-6.243-7.707-1.837-.367-4.041-.734-6.244-.367-5.877 1.835-11.753 3.303-17.63 5.872-3.305 1.468-6.244 4.037-9.549 6.239 0 .367.367.367.367.735 5.877-1.102 11.753-2.937 17.997-4.772zm-14.324-99.832c-7.346-11.01-11.019-22.021-13.957-34.133-5.142 5.872-8.815 11.745-10.284 18.718-.734 3.303-.735 6.607-.735 9.91s2.204 5.138 5.142 5.138c-.734-2.202-1.469-4.037-2.203-6.239.367-.367.734-.367 1.102-.734 1.469 1.835 2.938 3.303 4.774 5.138.735.734 2.204 1.835 3.306 1.835 3.673.367 8.08.367 12.855.367zm97.697 0c4.04-1.101 5.51-3.67 5.51-6.973.734-10.644-4.041-19.086-11.019-27.527-1.836 12.846-6.978 23.122-13.589 34.133 4.407 0 8.447 1.101 11.753 0 3.672-1.101 6.244-4.404 9.916-6.973-.734 2.569-1.469 4.771-2.571 7.34zm-22.771 218.382l22.037-14.314c2.571-1.835 4.407-3.67 6.978-5.872 6.611-5.873 6.979-13.213 6.244-21.288-2.204 1.835-4.04 4.037-6.611 5.139-4.775 2.202-7.346 5.505-9.917 9.909-5.876 9.176-11.753 17.985-18.731 26.426zm-41.503-77.076c.734-7.707-2.204-10.643-8.815-10.276-9.917.367-19.099 4.404-28.281 7.34-.367 0-.367.367-.367.734 1.469 5.139 2.938 6.24 8.08 6.24 1.836 0 3.673-.367 5.876-.367 4.775-.734 9.55-1.101 14.692-1.835 2.571-1.102 5.876-1.469 8.815-1.836zm49.216-3.303c-.735-.367-1.469-.734-1.837-.734-5.509-1.468-11.018-3.303-16.527-4.404-4.041-1.101-8.081-1.468-12.121-1.835-4.407-.367-6.244 1.101-7.346 5.138-1.469 4.037-.734 5.138 3.673 5.872 6.611 1.102 13.59 1.836 20.201 2.57 2.204.367 4.775.734 6.978.367 3.673-.367 5.877-2.203 6.979-6.974zM340.84 389.417c-1.47 9.91 1.469 18.352 9.549 24.224l23.139 16.516c.367.367.734.367 1.102.367-2.571-2.936-5.142-5.505-6.979-8.808-4.04-5.873-7.713-12.112-11.018-17.985-2.204-3.67-4.775-6.973-8.815-9.175-2.204-1.102-4.407-3.304-6.978-5.139zm76.762 3.67c11.386.367 26.444-7.34 28.281-14.681h-24.241c-2.204 0-4.775 1.101-6.978 2.202-2.939 1.469-3.306 3.671-1.47 6.24 1.837 2.569 2.939 4.404 4.408 6.239zm-43.34-15.415c-.367.367-.367.734-.734 1.101.734 1.101 1.469 1.835 2.204 2.937 5.141 5.138 11.385 9.175 18.731 11.01 5.877 1.469 5.877 1.469 8.815-3.303 3.305-5.138 2.938-6.973-2.571-9.543-1.102-.734-2.571-1.101-4.04-1.101-6.979-.367-14.692-.734-22.405-1.101zm90.719-2.569c5.51-.734 12.121-3.67 17.263-7.341 3.673-2.569 5.142-5.872 5.509-9.909.367-7.341-.734-8.075-7.346-5.506-4.774 1.835-7.713 4.405-8.814 9.91-.735 3.303-2.939 6.24-4.408 9.543l-2.204 3.303zm-110.185.367c-2.203-4.404-4.774-8.442-5.876-12.846-1.469-7.34-6.979-9.176-12.855-11.378-1.469-.367-2.204 0-2.571 1.468-1.469 4.038.367 11.378 3.673 14.314 5.142 4.038 11.018 6.24 17.629 8.442zm300.806-21.655s.367 0 .367-.367c-.367-1.468-.734-2.936-1.469-4.037-2.204-4.771-4.407-9.176-6.611-13.947-1.837-4.037-2.204-4.037-6.978-3.303-1.102 9.542 4.04 16.883 8.447 24.591 2.571-2.57 1.836-5.139 1.469-8.442 2.204 2.202 3.306 4.037 4.775 5.505zm-469.389 3.671c5.142-7.708 9.549-15.416 8.815-25.325-2.204 0-4.408-1.101-5.877 1.468l-7.713 15.415c-.734 1.468-1.102 3.303-1.836 5.138.367 0 .367 0 .734.367 1.47-2.569 3.306-4.771 4.775-7.34.367 3.303-2.571 6.606 1.102 10.277zm369.855 133.231c1.469-2.936-.367-4.037-2.204-4.771-2.203-.734-4.774-1.101-6.978-1.836-2.571-1.101-4.775-.367-6.979 1.469-4.407 4.037-4.407 6.239.368 9.542 2.938 1.835 4.774 1.836 6.978-1.101 1.469-1.835 2.204-4.037 3.673-6.239 1.469.734 2.938 1.835 5.142 2.936zm-286.482-2.936l2.204 3.303c3.306 6.607 5.877 6.607 11.019 1.468.367-.367.734-1.101 1.102-1.835-.735-1.468-1.47-2.936-2.571-4.037-1.47-1.468-3.306-3.304-4.775-3.304-3.673.367-7.346 1.469-10.651 2.57-1.837.734-1.837 2.202 0 4.037.734-.367 2.203-1.101 3.672-2.202zm225.513-158.557c-5.877 6.607-13.957 9.543-21.67 13.581 7.346 5.872 17.63-.735 21.67-13.581zM377.201 139.838c4.04 2.202 5.142 1.835 7.713-.734-1.102-.367-1.837-.734-3.306-1.468 1.836-.735 3.306-1.102 5.142-1.836-4.775-1.468-8.815-2.936-13.222-4.037-1.837-.734-2.938.367-3.306 2.202-.734 3.671 1.102 6.607 5.142 8.442 1.102-.734 1.469-1.835 1.837-2.569zm-52.155 190.121c1.469 4.404 3.306 8.074 6.611 10.643 3.306 2.57 6.979 4.772 11.386 4.405 1.102 0 2.204-.734 3.306-1.101v-1.101c-3.673-1.836-6.979-3.304-10.651-5.506-3.673-1.835-6.979-4.404-10.652-7.34zm109.818-190.855c0 .367.368.734.368 1.101.734 0 1.469.367 2.57.367.735 0 1.837-.734 2.571-1.101.368 1.468 1.102 2.202 1.47 3.303 5.142-1.468 7.345-6.974 4.774-10.644-5.142 1.101-9.916 2.569-15.058 3.67v.734c1.836.368 3.305.735 5.142 1.102-.735.367-1.469 1.101-1.837 1.468zm127.448 338.767c-3.306-5.872-12.121-7.341-15.793-2.936 5.142 2.202 10.651-.367 15.793 2.936zM454.33 114.146c5.51.734 6.611 4.404 6.979 8.441.367 4.038 0 8.075-4.408 9.91 0 1.468 0 2.569.368 4.037 7.345-5.505 6.611-19.819-.735-24.223-.735.367-1.102 1.101-2.204 1.835zM259.302 477.137c4.775-.734 9.183-1.468 13.957-1.835-4.407-4.405-11.386-2.936-13.957 1.835zm102.84-345.741c-2.938 2.569-3.673.734-4.775-.734-2.203-4.037-2.203-8.442-1.102-12.479-2.938 8.075-.734 16.883 5.142 19.086 0-1.836.368-3.304.735-5.873z"/><path d="M546.519 438.599c-7.346 3.67-11.019 10.277-13.59 17.985-2.204-2.57-1.102-4.772-.367-6.974 2.938-5.872 7.713-9.176 13.957-11.011zm-270.321.367c7.345 1.101 13.222 10.644 10.283 16.883-2.571-6.239-4.04-12.846-10.283-16.883zm301.907-48.081c.367-4.404.735-9.175 1.469-13.58 2.938 2.202 2.938 6.974-1.469 13.58zm-69.784-125.524c-9.917-3.67-19.833-6.973-30.117-10.644-.368 0-.735-.367-.735-.734 11.386 1.101 22.037 3.304 31.219 10.644 0 0 0 .367-.367.734zm-160.87-11.377c-11.753 3.303-23.507 6.606-34.892 9.909 3.305-4.404 23.506-10.643 34.892-9.909zm-61.337-41.108c4.408-2.936 9.55-4.771 14.692-5.872 0 .367.367.367.367.734-4.775 1.835-9.55 4.037-14.324 5.872l-.735-.734zm93.658-42.942c6.611-1.101 13.222-2.202 19.466-2.936 9.549-1.468 19.466-.367 29.015 1.101 3.673.734 7.346.734 11.019 1.101-.368 1.835-.368 1.835-2.571 1.835-2.939 0-5.51-.367-8.448-.734-13.222-1.835-26.444-1.835-39.667 1.101a13.92 13.92 0 01-5.509 0c-1.102 0-2.204-1.101-3.305-1.468zm28.28-19.452c-3.305-1.836-6.611-3.304-9.916-5.506-1.469-.734-1.837-2.569-.735-4.037 1.102-1.835 2.571-1.468 4.04-.367 2.571 1.835 4.775 4.037 6.979 5.872.734.734.367 1.835.734 2.937-.367.734-.734.734-1.102 1.101zm14.692-7.341c-.367.367-.735 1.835-1.837 2.202-2.203 1.468-4.407 2.936-6.978 4.404-.735.368-1.836.368-2.204 0-.367-.367-.367-1.468-.367-2.569 0-.734.367-1.101 1.102-1.468 2.204-1.468 4.407-3.303 6.611-4.771 1.469-1.101 3.306 0 3.673 2.202zm4.407.367c1.837 1.468 1.469 2.936.368 4.771-2.204 3.303-6.979 4.405-11.386 2.569 3.673-2.202 6.978-4.404 11.018-7.34zm-34.892.367c4.04 2.569 7.346 4.771 11.386 7.341-2.938 1.468-8.448.734-10.651-1.469-1.837-1.835-1.837-3.303-.735-5.872zm62.439 182.046c0 4.405-.368 5.139-3.673 5.873-2.939.734-5.877.734-9.182.734 4.407-2.569 9.549-2.202 12.855-6.607zm-75.661 6.24c-9.182.734-13.222-.734-13.589-5.139 4.04 1.469 8.447 3.304 13.589 5.139zm20.935-214.712c-3.673-1.835-7.713-3.67-12.12-5.873 3.673-.367 8.08 1.835 12.488 5.506l-.368.367z"/></g></svg>