<svg width="869" height="832" fill="none" xmlns="http://www.w3.org/2000/svg"><g filter="url(#filter0_f_43_1343)"><ellipse cx="434.5" cy="416" rx="184.5" ry="166" fill="#000" fill-opacity=".55"/></g><path d="M224.092 293.64v152.937c0 23.117 94.323 41.864 210.608 41.864 116.285 0 210.608-18.747 210.608-41.864V293.64H224.092z" fill="url(#paint0_linear_43_1343)"/><path d="M434.7 333.531c116.316 0 210.608-18.302 210.608-40.878s-94.292-40.877-210.608-40.877c-116.315 0-210.608 18.301-210.608 40.877 0 22.576 94.293 40.878 210.608 40.878z" fill="#F6F7F7"/><path d="M642.352 291.384c0 20.157-92.916 36.367-207.511 36.367s-207.651-16.21-207.651-36.367c0-20.156 92.915-42.005 207.51-42.005 114.596 0 207.652 21.99 207.652 42.005z" fill="#BD5143"/><path d="M433.996 326.906c97.655 0 176.821-16.408 176.821-36.649 0-20.24-79.166-36.649-176.821-36.649s-176.82 16.409-176.82 36.649c0 20.241 79.165 36.649 176.82 36.649z" fill="#BF6C66"/><path d="M257.176 200.468v87.957c0 15.364 79.118 27.768 176.82 27.768s176.821-12.404 176.821-27.768v-87.957H257.176z" fill="url(#paint1_linear_43_1343)"/><path d="M433.996 228.236c97.655 0 176.821-12.432 176.821-27.768s-79.166-27.769-176.821-27.769-176.82 12.433-176.82 27.769c0 15.336 79.165 27.768 176.82 27.768z" fill="#F6F7F7"/><defs><linearGradient id="paint0_linear_43_1343" x1="224.06" y1="391.012" x2="645.382" y2="391.012" gradientUnits="userSpaceOnUse"><stop stop-color="#BFBEBF"/><stop offset=".129" stop-color="#D0D1D2"/><stop offset=".489" stop-color="#F3F3F3"/><stop offset=".86" stop-color="#E0E1E0"/><stop offset="1" stop-color="#CBCBCB"/></linearGradient><linearGradient id="paint1_linear_43_1343" x1="257.187" y1="258.331" x2="610.876" y2="258.331" gradientUnits="userSpaceOnUse"><stop stop-color="#BFBEBF"/><stop offset=".129" stop-color="#D0D1D2"/><stop offset=".489" stop-color="#F3F3F3"/><stop offset=".899" stop-color="#E0E1E0"/><stop offset="1" stop-color="#CBCBCB"/></linearGradient><filter id="filter0_f_43_1343" x="0" y="0" width="869" height="832" filterUnits="userSpaceOnUse" color-interpolation-filters="sRGB"><feFlood flood-opacity="0" result="BackgroundImageFix"/><feBlend in="SourceGraphic" in2="BackgroundImageFix" result="shape"/><feGaussianBlur stdDeviation="125" result="effect1_foregroundBlur_43_1343"/></filter></defs></svg>