<svg width="925" height="600" fill="none" xmlns="http://www.w3.org/2000/svg"><g opacity=".1" fill="#fff"><path d="M324.527 240.57c-4.884.814-9.361 2.035-14.245 2.442-9.361.814-14.245 7.734-20.35 13.433 3.663-1.628 6.512-4.885 10.175-6.106-7.733 8.955-18.315 15.468-24.013 26.459 3.663-3.664 7.733-7.327 11.396-10.584.407 0 .814.407 1.221.407 0 3.664-.407 7.327 0 10.991.407 3.663 1.221 7.327 2.035 10.99.814 3.664 2.035 6.92 2.849 10.177-4.884-16.282 11.803-48.847 30.932-58.209z"/><path d="M349.761 243.012c2.035-.814 4.07-1.221 6.105-2.035v-.814c-2.442-.814-4.477-2.443-6.919-2.85-8.14-.407-16.28.407-24.013 2.85 0 .814.407 1.628 0 2.035-.814 1.221-2.035 2.035-3.256 3.256-4.477 5.292-9.768 10.177-13.838 15.876-5.698 7.734-6.919 21.574-2.849 29.308 6.919-16.69 15.466-26.866 25.234-29.715-2.849 4.07-5.698 8.141-8.14 12.211-2.442 4.071-4.477 8.548-5.291 13.433 10.582-9.769 24.013-13.84 36.63-19.539-8.14 6.513-17.094 12.212-22.792 21.574 3.663-.814 6.919-2.442 10.175-3.663 9.361-3.257 17.501-7.734 25.234-14.247 6.105-4.885 12.617-9.769 20.35-12.619.407-.407.814-.814 1.628-1.221-12.21-6.106-24.42-12.212-38.258-13.84zm-21.164 11.805c0-.407-.407-.407-.407-.814 4.477-2.85 9.768-4.885 15.059-6.106 0 .407.407.407.407.814-4.884 2.442-10.175 4.478-15.059 6.106zm33.781-15.061c-2.442-5.292-1.628-6.106 3.663-7.327 5.698-.814 11.396-1.628 17.094-2.036 2.849-.407 4.884-1.221 6.105-3.663 2.849-4.478 5.291-8.955 8.14-13.433 1.221 1.628 2.035 3.664 4.884 2.035-3.256-4.884-2.442-10.176-2.035-15.468h-3.663c1.628-1.628 3.256-2.849 4.884-4.07h-1.628c1.628-2.85 3.256-6.106 4.884-8.955-.407-.408-.814-.408-.814-.815-.814.407-1.628.815-2.035 1.222-9.768 6.512-19.943 13.025-29.304 19.945-8.14 5.699-15.059 12.212-20.757 20.353-1.628 2.035-2.442 4.478-4.07 7.327 5.291 2.442 8.954 6.513 14.652 7.734v-2.849zm4.884 177.476c-14.245-6.106-24.42-15.875-30.525-30.122-.407-.814-.814-1.628-1.221-2.035-7.326 3.663-14.245 6.92-21.164 10.583 1.628 4.478 2.849 8.955 4.477 13.84 1.628 5.292 2.442 10.583 2.035 16.282-1.221 10.177-4.477 19.539-13.838 26.052 2.849 6.106 5.698 11.804 8.547 17.503 2.849 5.292 9.361 6.513 14.245 3.257 8.547-5.292 14.652-4.885 22.385 1.221l3.663 2.442c.407-.407 1.221-.814 1.221-.814 3.256-7.734 8.547-14.247 13.431-20.76.814-.814 1.221-2.442 1.221-3.663 0-8.955-.407-17.911 0-27.273-.407-3.664-1.628-5.292-4.477-6.513zm80.993 11.398c-1.221-.408-2.849-1.222-4.07-1.222-7.733-.407-15.873-.814-23.606-.814 0 .407-.407.814-.407 1.221.814.814 1.628 2.036 2.442 2.85 5.698 5.699 11.803 9.362 19.536 11.397 6.105 1.629 6.105 1.629 9.361-3.663 2.849-5.292 2.442-7.327-3.256-9.769zM406.74 175.034c.407-1.629.407-3.257.814-6.106-2.848 2.442-4.069.814-4.883-.814-2.035-4.071-2.035-8.548-1.221-13.026-3.256 8.548-1.221 17.503 5.29 19.946zm39.887 175.441c-2.035-.407-4.477-.815-6.512-.407a161.01 161.01 0 00-18.315 6.105c-3.663 1.629-6.512 4.478-9.768 6.513 0 .407.407.407.407.814 6.105-1.628 12.617-3.663 18.722-5.291 0 .407.407.814.407.814-.814.407-1.628.814-2.849 1.221-5.291 2.035-10.989 3.663-16.28 5.699-2.035.814-4.477 2.035-6.105 4.07-3.256 3.664-2.035 8.141 2.035 10.584 2.035 1.221 4.477 2.035 6.919 2.035 8.547.814 17.094-.814 25.234-4.071 9.768-4.07 12.617-8.955 12.21-19.538.407-5.699-.814-7.327-6.105-8.548zm-35.816 22.795c4.477 1.628 8.954 3.256 14.245 5.291-9.768 1.222-13.838-.814-14.245-5.291zm-8.954 80.597c-2.442-4.071-4.884-7.327-8.954-9.363-2.442-1.628-4.884-3.663-7.326-5.698-1.628 10.176 1.221 19.131 10.175 25.237 8.14 6.106 16.28 11.398 24.42 17.504.407.407.814.407 1.221.407-2.442-3.257-5.291-5.699-7.326-8.956-4.477-6.513-8.547-13.025-12.21-19.131zm-11.396-62.687v-1.221c-3.663-2.035-7.326-3.663-10.989-5.699-3.663-2.035-6.919-4.884-10.989-7.734 1.221 4.885 3.663 8.549 6.919 11.398s7.326 4.885 11.803 4.478c1.221 0 2.035-.815 3.256-1.222zm3.256 19.539c-1.628-7.734-7.326-9.769-13.431-11.805-1.221-.407-2.442 0-2.849 1.629-1.628 4.07.407 11.804 4.07 14.654 5.291 4.477 11.396 6.92 18.315 8.955-2.442-4.885-5.291-8.955-6.105-13.433zm26.862-5.292c2.035 0 4.07-.407 6.105-.407 4.884-.814 10.175-1.221 15.059-2.035l9.768-1.221c.814-8.141-2.035-10.991-9.361-10.991-10.582.407-19.943 4.478-29.304 7.735-.407 0-.407.407-.407.407 1.221 4.884 2.849 6.512 8.14 6.512zm90.353-245.454c.407 4.07 0 8.548-4.883 10.176 0 1.221 0 2.443.407 4.071 7.732-5.699 6.918-20.76-.814-25.238-.407.407-.814 1.222-2.035 2.036 5.698 1.221 6.918 4.884 7.325 8.955zm5.699 39.077c-1.221.407-1.628.407-2.442.407 1.628 5.699.814 10.991-1.628 15.876 3.663 1.628 4.477-1.222 5.698-2.443l7.326 13.433c1.628 2.442 3.663 3.664 6.512 3.664 5.698.407 11.803.814 17.501 2.035 6.105 1.221 6.919 2.442 4.07 8.141 0 0 0 .407.407 1.221 4.884-.814 8.547-4.885 13.838-6.92-.814-2.035-1.221-4.07-2.035-5.292-2.442-3.663-4.884-6.92-7.733-10.176-7.326-8.141-16.28-14.654-26.048-20.353-7.733-4.477-15.466-9.362-24.013-14.654 2.442 6.106 4.07 10.991 8.547 15.061zM217.079 401.764c.407 0 .407 0 .814.407 1.628-2.443 3.256-5.292 4.884-7.734.407 3.663-2.849 7.327.814 10.99 5.291-8.141 9.768-15.875 9.361-26.458-2.035 0-4.477-1.222-6.105 1.628-2.849 5.292-5.291 10.99-8.14 16.282-.407 1.221-.814 2.849-1.628 4.885zm174.196-164.451c-.814 3.257-.814 6.92-.814 10.584 0 3.663 2.035 5.291 5.291 5.698-.814-2.035-1.628-4.477-2.035-6.512.407 0 .814-.407.814-.407 1.628 1.628 3.256 3.663 4.884 5.291.814.814 2.035 2.036 3.256 2.036 4.07.407 8.547 0 13.838 0-7.733-11.398-11.396-23.203-14.652-35.821-4.884 6.105-8.954 12.211-10.582 19.131zm-84.656 306.513c1.221-.814 2.849-1.628 4.477-2.849.814 1.221 1.628 2.442 2.035 3.663 3.663 6.92 6.105 6.92 11.396 1.221.407-.407.814-1.221 1.221-1.628-.814-1.221-1.628-2.849-2.849-4.07-1.628-1.222-3.663-3.664-5.291-3.257-3.663.407-7.733 1.628-11.396 2.85-1.628.814-1.628 2.442.407 4.07zm-6.512-13.839c4.884-.815 9.768-1.222 14.652-2.036-4.477-4.477-11.803-2.849-14.652 2.036zM447.848 304.07c-4.884-2.035-10.175-4.07-15.466-6.106-.814-.407-1.221-.407-2.035-.814 2.849-.814 5.698-.814 8.547-.814 3.663.407 6.919.814 10.582 1.221 2.035.407 3.256-.814 3.256-2.849.407-3.256-.407-6.106-3.663-7.327-4.07-2.035-8.14-3.664-12.21-5.699-1.628-.814-3.256-1.221-5.291-2.035 0-.407 0-.814.407-.814 6.512.814 13.024 2.035 19.943 3.256-.407-1.628-.814-2.442-1.221-3.256-4.07-4.885-8.14-9.77-12.21-14.247-2.442-2.85-6.105-3.664-10.175-3.664-8.954.407-17.908.814-26.862 1.629-12.617 1.221-24.013 5.698-34.188 13.432-7.326 5.699-13.024 12.619-15.873 21.574 6.512-5.291 13.431-9.769 21.571-12.211 8.14-2.443 16.28-3.664 24.42-4.478-17.908 6.106-35.409 12.619-48.026 28.901 10.582 11.805 21.571 22.795 35.816 29.308-6.105-4.07-10.582-9.362-15.466-15.061 13.024 2.849 25.234.814 38.258-.814-4.07 3.256-8.954 4.07-11.396 8.548 2.442.407 4.477 1.221 6.919 1.628 8.954.814 17.501-.814 26.048-3.256 4.884-1.628 9.768-3.664 14.652-6.106 2.035-1.221 3.663-3.256 5.698-4.885-3.256-.814-6.105-.814-8.954-.814s-6.105.407-8.954.407-5.291.814-8.14-1.628c9.361-1.628 18.722-3.256 27.676-4.478 1.221-4.477-.407-6.92-3.663-8.548zm-91.982 3.664c3.663-4.478 24.42-11.398 36.63-10.177-12.617 3.257-24.827 6.513-36.63 10.177zm155.474-54.138c3.663-1.222 6.512-4.478 10.175-7.327-.814 2.442-1.628 4.477-2.849 7.327 4.07-1.222 5.698-4.071 5.698-7.327.814-10.991-4.07-19.946-11.396-28.901-2.035 13.025-7.326 24.423-14.245 35.414 4.884.814 8.954 2.035 12.617.814zm-27.676-75.305c.814 0 1.628.407 2.442.407.814 0 1.628-.815 2.849-1.222l1.221 3.664c5.291-1.628 7.733-7.327 5.291-10.991l-15.873 3.664v.814c1.628.407 3.663.814 5.291 1.221-.814.407-1.221 1.221-1.628 1.628 0 0 0 .407.407.815zm-66.341-13.841l.407-.407c.407-.814.814-1.628.814-2.442 2.035-5.292 5.698-6.513 10.175-3.663 2.849 1.628 5.291 3.663 8.14 5.698 2.849 1.629 5.698 3.257 10.582 2.85-3.256-2.85-5.698-5.292-8.14-7.734 4.884 2.442 11.396 1.628 14.652 7.327v-2.85c0-1.221-.407-2.849 1.628-2.849 2.035 0 2.442 1.221 2.849 2.849 0 .814 0 2.036.407 3.664.814-2.443 1.628-3.664 2.035-4.478 4.07-1.221 7.326-2.442 11.396-3.663-2.442 3.256-6.919 3.256-8.954 7.734 1.628 0 3.256.814 4.477.407 2.442-.814 4.884-2.036 7.326-3.257 3.663-1.628 6.919-4.07 10.175-5.698 4.07-2.036 6.512-.815 8.14 3.663l1.221 3.663c2.442-1.628 2.442-3.256 2.035-4.884-1.628-6.513-6.105-10.177-11.803-13.84 1.221 0 1.628 0 2.442-.407l2.442-1.221c-.407-.814-.814-2.036-1.628-2.443-.814-.407-2.035-.814-2.849-.814-1.628.407-3.663 1.221-5.291 2.036-6.105 2.849-11.396 7.327-16.28 11.804-.814.814-2.035 1.628-3.256 2.035-4.884 2.036-8.954.408-13.024-2.035-4.07-2.035-7.733-4.07-12.617-6.106 4.07-.407 8.547 2.036 13.024 5.699l.407-.407c-4.884-5.292-10.582-9.769-17.094-12.212-3.256-1.221-6.105-.407-8.954 2.443 1.221.814 2.035 1.628 2.849 2.442-2.442 2.849-4.884 5.292-6.919 7.734-2.035 2.035-2.442 4.885-2.442 7.734-.814.407-.407 1.628 1.628 1.628zm2.442 4.885c-2.035-.814-2.849.407-3.256 2.442-.814 4.071 1.221 6.92 5.291 8.956.407-.814.814-1.629 1.221-2.85 4.07 2.036 5.291 2.036 8.14-.814-1.221-.407-2.035-.814-3.256-1.221 2.035-.814 3.256-1.221 5.291-2.035-4.884-1.629-8.954-2.85-13.431-4.478zm111.111 230.801c-4.884 2.035-8.14 4.885-9.361 10.176-.814 3.257-2.849 6.513-4.477 9.77-.407 1.221-1.221 2.035-2.035 3.663 5.698-.814 12.617-4.07 17.908-7.327 3.663-2.442 5.698-6.106 5.698-10.583.407-7.734-.814-8.549-7.733-5.699zm-60.236-9.77c-4.477-.407-6.512 1.221-7.733 5.292s-.814 5.292 3.663 6.106c6.919.814 14.245 1.628 21.164 2.849 2.442.407 4.884.814 7.326.407 4.477 0 6.512-2.442 7.733-6.92-.814-.407-1.221-.814-2.035-.814l-17.094-4.884c-4.477-.815-8.547-1.629-13.024-2.036zm129.426 137.585c4.884 2.035 10.989-.407 16.28 2.849-3.256-6.106-12.617-7.327-16.28-2.849zm-53.724-152.239c-6.105 6.92-14.652 9.77-22.792 14.247 7.733 6.106 18.315-.814 22.792-14.247zm-21.978 68.386c-4.884 2.035-7.733 5.698-10.582 10.176-5.698 9.769-11.803 19.132-19.129 27.68 7.733-4.885 15.466-9.769 22.792-15.061 2.442-1.628 4.884-4.071 6.919-6.106 6.919-6.106 7.326-13.84 6.512-22.388-2.035 2.442-4.07 4.478-6.512 5.699zm38.258-138.4c-4.884-4.07-9.361-7.734-14.652-11.397-7.326-5.292-16.28-7.734-24.827-10.991-1.221-.407-2.849-1.221-4.07-1.628 0-.407.407-.407.407-.814 15.873 2.442 31.746 4.885 44.363 17.096 0-1.221-.407-1.628-.814-2.442-7.326-14.654-19.536-24.423-34.595-29.715-14.652-5.292-29.711-4.885-44.77-4.478-2.035 0-4.477 1.222-6.105 2.443-4.884 4.884-9.768 10.176-14.652 15.061-.814.814-.814 1.628-1.628 3.256 6.105-.407 10.989-2.849 17.501-2.035-2.035.814-3.663 1.628-5.291 2.442-3.256 1.629-6.512 2.443-9.768 4.071-5.291 2.849-6.105 5.292-2.849 10.99l13.838 2.036c-3.663 1.628-7.733 3.256-11.396 5.291-2.442 1.629-3.256 3.664-2.442 6.106.814 2.443 2.849 2.035 4.477 2.443 4.477.814 9.361 1.221 13.838 2.035 3.663.407 7.326 1.628 10.989 2.442v1.221c-8.547-.407-17.094-.407-26.048-.814 2.035 4.071 5.291 6.106 8.547 7.327 12.617 6.106 26.455 8.955 40.293 7.327 1.628 0 3.256-.814 5.291-1.221 0-.407 0-.814.407-1.221-3.663-2.442-7.733-4.885-11.803-7.734 13.431 1.628 26.048 4.477 38.665 1.628-6.105 6.513-12.21 13.433-20.757 17.096 12.21-4.07 35.002-21.981 41.107-32.157-1.221-1.221-2.035-2.849-3.256-3.664zm-2.442 3.257c-10.582-3.664-20.757-7.327-31.339-10.991-.407 0-.814-.407-.814-.814 11.803 1.221 23.199 3.257 32.56 10.991-.407.407-.407.407-.407.814zm61.457-61.465c-1.628-1.222-3.663-1.629-5.698-2.036-10.989-2.035-21.571-4.477-32.56-6.513-5.291-1.221-10.582-2.035-15.873-1.221-2.035.407-4.07.814-5.291 2.85l8.547 2.442c-15.466 1.628-29.304 7.327-43.142 13.84 10.582 4.07 18.315 11.805 26.862 17.91 8.547 6.513 19.129 9.77 28.897 13.84-5.698-7.734-13.431-13.026-20.757-18.724 11.396 4.884 23.199 7.734 32.56 16.689-2.442-9.362-7.733-17.096-13.838-24.83 2.849.814 5.291 2.442 7.733 3.663 9.768 5.699 17.094 14.247 22.792 24.016.407-2.442.407-4.884.407-7.327.407-8.955-2.442-17.096-8.547-23.609-4.07-4.885-8.547-9.362-13.024-13.84-.814-.814-1.221-1.628-1.628-2.035 12.21 4.885 18.722 14.654 25.234 25.237 6.512 10.177 10.582 21.574 10.175 34.193 1.221-10.583 3.663-20.76 3.256-31.343-.407-8.141-3.663-14.654-10.175-19.132-.814-.814-1.628-1.221-2.442-2.035 4.477.407 7.733 2.035 10.582 5.292 3.663 4.07 5.698 8.955 7.326 13.84 2.442 8.548 4.07 17.096 4.07 26.458 4.07-10.583 4.07-20.353-1.221-29.715.407 0 .407-.407.814-.407 4.884 4.478 9.768 8.955 15.059 13.433-.407-2.035-1.221-3.257-2.442-4.885-7.733-11.397-17.501-18.724-27.676-26.051zm-14.245 291.859c-2.442-.814-4.884-1.221-7.326-2.035-2.849-.815-5.291-.408-7.326 1.628-4.884 4.07-4.884 6.513.407 9.769 3.256 2.035 4.884 2.035 7.326-1.221 1.628-2.035 2.442-4.478 3.663-6.513 1.628.814 3.663 2.035 5.698 3.256 1.221-3.256-.407-4.07-2.442-4.884zm-53.317-122.117c-2.442.814-2.849 2.442-2.849 4.478v28.9c0 1.222.407 2.443 1.221 3.257 3.256 6.106 6.105 11.805 9.361 17.91.407.814.814 2.036 1.628 3.257 1.221-1.221 2.442-1.628 3.256-2.443 7.326-5.698 14.652-6.105 22.385-.407 1.221.815 2.442 2.036 4.07 2.036 6.512-.407 13.024 0 16.687-7.734 2.442-5.292 6.105-10.177 8.547-14.247-3.256-3.664-6.105-6.513-8.14-9.363-6.919-9.769-7.733-20.352-4.884-31.75 1.221-5.292 3.256-10.583 4.884-16.282-8.954-1.221-16.687-4.885-23.606-11.398-1.628 2.85-2.849 5.699-4.477 8.141-6.919 11.805-15.873 20.76-28.083 25.645zm-84.249 10.177c-2.442 0-4.884 1.221-7.326 2.442-3.256 1.628-3.663 3.663-1.628 6.513 1.221 2.035 2.849 4.07 4.477 6.106 12.21.407 27.676-7.734 29.711-15.469-8.14.408-16.687 0-25.234.408zm13.024-231.616c-2.035.815-3.256 1.629-5.291 2.85.407-1.628.814-2.442 1.628-3.257 6.105-8.141 4.884-8.141.407-13.839-.407-.408-.407-.815-.407-1.222-1.221-.814-2.442-2.035-3.663-2.849-4.884-1.628-9.361-2.035-14.652 0-2.035.814-5.698.814-7.733 0-5.698-3.256-10.989-1.628-16.28.814-6.105 3.257-7.326 10.991-2.442 16.282.814 1.221 1.628 2.443 2.849 3.664-1.221 0-1.628-.407-2.442-.814-2.442-2.036-3.256-2.036-4.884.407-3.256 3.663-5.698 7.734-5.291 13.026 0 2.442 0 4.884.407 7.327.407 6.512 5.291 11.397 12.21 12.211-.814-1.628-1.221-3.256-2.035-4.884-.407-1.629-.814-3.664-1.221-4.885 2.035-1.221 3.663-2.442 5.291-3.257 0-.407-.407-.407-.407-.814h-7.326c17.908-4.07 35.409-4.477 52.91-1.221-2.035 5.292-4.07 10.177-6.105 15.875 8.547-2.035 12.21-6.513 12.21-13.84v-4.07c-.814-7.327-2.442-13.026-7.733-17.504zm-7.326-8.955c-2.442 3.257-7.326 4.478-11.803 2.85 3.663-2.443 7.326-4.885 11.396-7.734 2.035 1.221 1.628 3.256.407 4.884zm-16.687-1.221c0-.407.407-1.221.814-1.628 2.035-1.628 4.477-3.257 6.919-4.885 1.628-1.221 3.663 0 3.663 2.443-.407.407-.814 1.628-1.628 2.442-2.035 1.628-4.477 3.256-7.326 4.477-.814.408-2.035.408-2.442 0v-2.849zm-14.652-6.513c1.221-1.628 2.849-1.628 4.07-.407 2.442 2.035 4.884 4.071 7.326 6.513.814.814.407 2.035.814 3.256-.407.408-.814.408-1.221.815-3.256-2.036-6.919-3.664-10.582-5.699-1.221-.814-1.628-2.85-.407-4.478zm-5.291 2.85c4.07 2.442 7.733 4.884 11.803 7.734-3.256 1.628-8.954.814-10.989-1.222-2.035-2.035-2.035-3.663-.814-6.512zm46.398 28.493c-2.849 0-6.105-.407-8.954-.814-13.838-2.035-27.676-2.035-41.514 1.222-1.628.407-3.663.407-5.698 0-1.221 0-2.035-.815-3.256-1.629 6.919-1.221 13.431-2.035 20.35-3.256 10.175-1.628 20.35-.407 30.118 1.221 3.663.814 7.733.814 11.396 1.221-.407 1.628-.407 2.035-2.442 2.035z"/><path d="M366.448 510.448c-8.954-5.292-17.501-10.584-24.827-18.318-2.035-2.035-5.291-3.256-7.733-4.885l-3.256-1.628c3.663-2.035 6.512-4.07 9.768-6.106 1.221 1.222 2.035 2.036 3.256 2.85 4.477 4.477 9.768 6.513 15.873 7.734 2.035.407 3.256-.407 3.663-2.443 1.221-3.663 0-5.698-3.256-7.327-4.07-1.628-7.733-2.849-11.396-5.291-6.919-4.478-10.175-4.885-17.094 0-4.884 3.663-10.175 4.07-15.873 1.221-2.035-1.221-4.477-1.628-6.919-1.628-2.849-.407-6.105 0-8.954 0 3.256-3.664 7.733-2.036 12.21-3.664-1.628-2.849-2.849-5.292-4.07-7.734-4.07-7.734-8.14-15.875-12.617-23.609-3.663-6.92-4.07-13.84-2.035-21.167 3.256-13.433 1.221-26.459-5.698-38.67-3.256-5.699-7.326-10.584-10.989-15.875-1.221-2.036-2.849-4.071-3.256-6.513-.407-1.222.407-2.85 1.221-4.071.407-.407 2.035-.407 3.256 0 .814 0 1.628.814 2.849 1.221-.407-4.07-.407-8.141-.814-13.026 6.512 4.478 13.024 3.664 19.536 2.443-.407 3.663-1.221 6.513-1.221 9.362 0 4.071 1.221 4.885 4.884 3.664 3.663-1.222 6.512-3.664 8.547-6.513 2.849-4.071 5.698-8.141 8.14-12.619.814-1.628 2.035-3.256 2.849-4.478.407 0 .407.407.814.407-3.663 11.805-10.989 21.574-19.943 31.344 4.477.814 8.547 2.035 12.21 2.035 10.582.407 19.536-7.327 20.35-18.318.407-4.07-.407-8.141-.407-12.211 0-2.443-1.221-4.071-3.663-4.885-6.512-2.442-12.617-4.885-19.129-7.327-7.733-2.442-15.873-3.256-24.42-1.628-4.477.814-7.326 2.849-8.547 6.92-.407 1.628-.814 3.663-1.628 5.292-.407.814-.814 1.628-1.221 2.849h-.814c-.814-2.035-2.035-4.071-2.035-6.106-.407-3.663-.407-7.734.407-11.397.407-2.443 0-4.071-1.628-5.292-3.663-3.257-5.291-7.327-5.291-11.805 0-1.221-.407-2.849-.407-4.884a471.88 471.88 0 00-7.326 8.548c-2.849 3.663-6.105 7.327-8.954 10.99-2.849 4.071-3.663 8.548-2.035 13.433.814 3.257 2.442 4.071 5.698 4.071 5.291-.407 8.547-3.664 11.396-7.327l2.442-3.664c-1.628 9.769-6.105 17.096-14.652 21.981-1.628.814-3.256 2.035-4.07 3.664-1.221 2.442-2.849 3.256-5.291 3.663-2.035.407-3.663.407-5.698.814-6.105 1.628-8.954 6.106-12.21 10.991.407.407.407.814.814 1.221 6.512-2.442 12.617-4.478 19.129-6.92 0 .407-.407.814-.407 1.221-3.256 5.292-3.663 6.513 0 11.398 1.628 2.035 3.256 4.07 5.291 5.698 2.442 2.036 5.291 4.071 7.733 6.513 7.326 6.513 15.059 13.026 19.129 21.981 3.663 7.734 6.919 15.468 10.175 23.203 0 0 0 .407-.407 1.221-8.547-15.468-17.094-30.937-32.56-40.706 7.326 16.282 14.652 32.158 21.978 48.44-.407.407-.407.407-.814.407-11.396-15.061-22.792-30.529-34.188-45.59 3.663 10.583 11.396 18.317 17.908 26.865l-.814.814c-4.477-3.256-8.954-6.513-13.838-9.769v1.628c3.663 7.734 7.733 15.468 13.838 21.981 5.698 6.106 12.21 11.805 17.908 17.911.814.814 1.221 1.628 2.035 2.035l-.407.407c-8.14-4.071-16.28-7.734-24.013-11.805 0 .408-.407.407-.407.815 4.07 3.256 7.733 6.919 12.21 10.99-10.582-1.628-19.129-6.92-27.676-11.805 1.628 2.036 3.663 3.664 5.698 5.292 8.14 6.513 16.687 12.619 24.827 19.539 2.442 2.035 4.477 4.07 6.919 6.92-4.477.407-8.14-1.628-11.803.407 3.663 4.885 6.512 10.176 12.21 11.397 2.035 5.292 3.256 10.177 5.698 15.061 2.849 5.699 6.919 10.177 10.582 11.805-5.291-8.141-5.291-16.689-4.884-26.459 2.849 4.478 4.884 8.549 7.326 12.212 3.663 5.699 6.512 7.734 9.768 8.548-3.256-6.513-4.477-13.025-5.291-19.945 3.256 4.477 6.105 8.955 8.954 13.432 3.256 5.292 7.326 9.363 12.617 12.212 2.442 1.221 4.07 3.257 4.07 6.513.407 2.035.814 4.071 2.035 5.292 2.035 2.849 4.884 4.884 7.733 7.327 3.663 3.256 8.14 3.663 13.838 3.256l-4.07-8.141c3.663 3.664 6.512 7.327 9.361 11.398.407.407.407 1.628.407 2.442-2.035 7.327-4.07 14.654-6.105 21.574-.407 1.221-.814 2.035-1.628 2.849l3.256 2.036 5.698-5.699c1.628-1.628 2.442-3.257 2.442-5.292 0-5.292.407-10.99.407-16.282 0-1.628-.814-3.664-1.628-4.071-4.477-2.849-6.105-6.92-8.547-10.99-2.035-3.257-4.07-7.327-6.512-10.177-4.884-5.291-8.547-10.99-11.396-17.503-1.628-4.071-4.07-7.327-7.733-9.362-.407-.407-.814-.814-1.628-2.036 7.326.814 12.617 3.257 16.687 8.549 4.884 6.512 10.175 13.025 15.059 19.538 3.663 5.292 8.954 5.699 14.245 5.292.814 0 2.035-.814 2.442-1.628.814-2.036-1.628-7.327-3.663-8.548zm-38.258-2.443c-2.442-6.513-4.07-13.84-10.582-17.91 7.733 1.628 13.838 11.397 10.582 17.91zm336.996-56.988c4.07-2.849 4.884-4.07 6.105-6.92-9.361 4.885-19.129 8.549-28.897 11.398 3.256-2.849 6.512-4.885 9.768-7.327 3.256-2.442 6.512-5.292 9.361-7.734 2.849-2.849 6.105-6.106 8.547-8.955 2.442-3.257 4.884-6.513 6.919-9.77 2.035-3.256 3.663-6.92 5.698-10.176-.407 0-.407-.407-.814-.407-6.105 5.292-12.617 9.769-19.943 12.619 8.547-8.956 16.687-18.318 20.35-30.529-4.884 4.884-10.175 9.769-14.245 15.468-8.547 11.804-17.094 24.016-25.234 35.821 4.07-9.363 8.547-18.318 13.024-27.68 4.477-8.955 8.954-18.318 13.431-27.273-7.326 4.071-13.431 9.362-17.908 15.875-4.477 6.513-8.14 13.433-12.21 20.353 0-.407 0-.814.407-1.221 4.07-16.689 12.617-29.715 26.862-39.485 5.698-3.663 10.989-8.141 15.873-12.618 4.884-4.071 4.884-5.699 1.628-10.991 0 0 .407-.407.407-.814 6.512 4.071 13.431 6.106 21.571 7.327-2.035-4.07-5.291-6.513-7.733-8.955-2.442-2.442-5.291-3.257-8.547-3.664-2.849 0-5.291-.814-7.733-1.628-1.628-.407-2.849-1.628-3.663-2.849-1.628-1.221-2.849-2.85-4.07-4.478-2.849-2.849-5.698-5.292-8.547-8.141-3.256-3.663-5.291-7.734-6.105-12.619 2.442 2.036 4.07 4.071 6.512 6.106 3.256 2.85 6.919 4.885 10.989 5.292 4.477.407 6.919-2.035 7.326-6.513.407-4.885-1.221-8.955-4.07-13.026-4.884-6.92-11.396-12.619-18.315-17.503 0 0-.407 0-.814.407 0 .407-.407.814-.407 1.221-.407 6.513-2.035 11.805-7.326 15.875-.814.814-1.221 2.443-1.628 3.664-.814 4.477-1.628 9.362-2.442 13.84-.407 1.628-.814 3.663-3.256 4.477-.407-1.628-.814-3.256-.814-4.477-.814-7.734-5.291-11.398-13.431-11.398-4.884 0-9.768.407-14.652.814-10.582.814-20.757 2.85-29.711 7.734-2.442 1.628-4.07 3.257-4.07 6.513 0 4.071 0 7.734.407 11.805 1.628 15.061 19.129 23.202 31.746 14.654-9.361-9.77-18.722-24.424-19.536-31.344 2.849 4.071 4.884 7.734 7.326 10.991 2.035 3.256 4.477 6.513 7.326 9.362 3.663 3.664 8.14 4.478 13.024 3.257.814-4.478.814-8.956-2.035-13.433 7.733 1.221 15.466 3.256 23.199-2.035-.407 4.884-.814 8.548-1.221 13.025 1.221-.814 1.628-.814 2.442-1.221 2.442-1.221 3.663-.814 4.07 1.628.407 1.629.407 3.257-.407 4.478-.814 2.035-2.442 4.071-3.663 5.699-5.698 7.734-10.582 15.468-13.838 24.423-3.663 10.176-4.477 20.353-.814 30.936 1.221 3.257 1.221 7.327.407 10.584-.814 4.07-2.035 8.141-4.07 11.804-4.477 7.734-8.954 15.468-13.838 23.203-.814 1.221-1.628 2.442-2.442 4.07 2.442.407 4.477.814 6.105 1.221 1.628.407 3.256 1.629 4.884 2.443 0 .407-.407.407-.407.814-.814-.407-2.035-.407-3.256-.407-4.07-.407-7.733-.814-11.803 1.221-7.326 3.663-14.652 3.663-21.571-1.221-6.105-4.071-10.175-4.071-16.28.407-2.849 2.035-5.698 3.663-8.547 4.884-4.884 2.443-6.105 4.885-4.477 10.177 8.954.407 15.466-3.664 20.757-10.177 3.256 1.629 6.512 3.257 8.547 5.292-4.477 3.664-8.954 6.92-13.024 9.769-6.512 4.885-13.431 9.77-20.35 13.84-3.256 2.036-4.477 4.478-5.291 7.327-.814 2.85 0 4.071 2.849 4.478 4.477.407 8.547-.407 11.803-4.478 5.291-6.92 10.989-13.84 16.28-20.759 4.477-5.699 10.175-7.327 17.094-7.735 0 .408-.407.815-.814.815-6.105 2.442-9.361 7.327-11.803 13.025-1.221 2.85-2.849 6.106-5.291 8.549-5.291 5.698-9.768 11.804-13.024 19.131-1.221 2.442-2.849 4.885-4.884 6.92-1.628 1.628-2.442 3.257-2.442 5.699 0 5.699.407 10.99.814 16.689 0 1.628.814 3.664 2.035 4.885.814 1.221 2.035 2.035 2.849 3.256l4.07-.814-1.221-2.442c-2.035-6.513-4.07-13.433-5.698-20.353-.407-.814.407-2.442.814-3.663 1.221-1.629 2.442-3.664 3.663-5.292l.814-.814c0 1.221-.407 2.035-.407 3.663 4.884 0 9.768-.407 13.431-3.663 1.628-1.629 3.256-3.257 4.884-4.478 2.849-2.035 4.07-4.478 4.477-7.734.407-2.442.814-4.478 3.256-5.699 6.512-3.256 10.989-8.955 15.466-14.654 2.849-3.663 5.291-6.92 8.14-10.583-.814 7.327-3.256 13.433-6.512 19.538 9.768-4.477 15.059-13.025 20.757-21.573.407 9.362-.407 17.91-5.291 26.051 4.884-2.849 8.547-6.92 10.989-11.805 2.442-4.477 4.07-9.769 6.512-15.061 1.221 0 2.849-.407 4.884 0 2.442.407 3.256-1.221 4.477-2.442l3.663-3.663c1.221-.815 2.442-2.036 3.256-2.85.814-.814 1.221-1.628 2.442-2.849-4.07.407-6.919.407-10.989.814 3.256-2.849 5.698-5.699 8.547-7.734 7.326-5.699 14.652-10.991 21.978-16.282 3.663-2.85 7.326-6.106 10.989-8.956-10.175 5.292-19.943 11.398-31.746 13.026 2.849-2.035 5.291-3.663 7.326-5.292zm-79.365 57.802c-2.442-2.849-1.221-4.884-.407-7.327 2.849-6.513 7.733-9.769 14.245-11.804-7.326 4.07-10.989 10.99-13.838 19.131zm46.805-68.792c.407-4.478.814-9.769 1.221-14.247 3.663 2.442 3.663 7.327-1.221 14.247zm-266.178 70.421c-8.954-5.292-17.501-10.584-24.827-18.318-2.035-2.035-5.291-3.256-7.733-4.885l-3.256-1.628c3.663-2.035 6.512-4.07 9.768-6.106 1.221 1.222 2.035 2.036 3.256 2.85 4.477 4.477 9.768 6.513 15.873 7.734 2.035.407 3.256-.407 3.663-2.443 1.221-3.663 0-5.698-3.256-7.327-4.07-1.628-7.733-2.849-11.396-5.291-6.919-4.478-10.175-4.885-17.094 0-4.884 3.663-10.175 4.07-15.873 1.221-2.035-1.221-4.477-1.628-6.919-1.628-2.849-.407-6.105 0-8.954 0 3.256-3.664 7.733-2.036 12.21-3.664-1.628-2.849-2.849-5.292-4.07-7.734-4.07-7.734-8.14-15.875-12.617-23.609-3.663-6.92-4.07-13.84-2.035-21.167 3.256-13.433 1.221-26.459-5.698-38.67-3.256-5.699-7.326-10.584-10.989-15.875-1.221-2.036-2.849-4.071-3.256-6.513-.407-1.222.407-2.85 1.221-4.071.407-.407 2.035-.407 3.256 0 .814 0 1.628.814 2.849 1.221-.407-4.07-.407-8.141-.814-13.026 6.512 4.478 13.024 3.664 19.536 2.443-.407 3.663-1.221 6.513-1.221 9.362 0 4.071 1.221 4.885 4.884 3.664 3.663-1.222 6.512-3.664 8.547-6.513 2.849-4.071 5.698-8.141 8.14-12.619.814-1.628 2.035-3.256 2.849-4.478.407 0 .407.407.814.407-3.663 11.805-10.989 21.574-19.943 31.344 4.477.814 8.547 2.035 12.21 2.035 10.582.407 19.536-7.327 20.35-18.318.407-4.07-.407-8.141-.407-12.211 0-2.443-1.221-4.071-3.663-4.885-6.512-2.442-12.617-4.885-19.129-7.327-7.733-2.442-15.873-3.256-24.42-1.628-4.477.814-7.326 2.849-8.547 6.92-.407 1.628-.814 3.663-1.628 5.292-.407.814-.814 1.628-1.221 2.849h-.814c-.814-2.035-2.035-4.071-2.035-6.106-.407-3.663-.407-7.734.407-11.397.407-2.443 0-4.071-1.628-5.292-3.663-3.257-5.291-7.327-5.291-11.805 0-1.221-.407-2.849-.407-4.884a471.88 471.88 0 00-7.326 8.548c-2.849 3.663-6.105 7.327-8.954 10.99-2.849 4.071-3.663 8.548-2.035 13.433.814 3.257 2.442 4.071 5.698 4.071 5.291-.407 8.547-3.664 11.396-7.327l2.442-3.664c-1.628 9.769-6.105 17.096-14.652 21.981-1.628.814-3.256 2.035-4.07 3.664-1.221 2.442-2.849 3.256-5.291 3.663-2.035.407-3.663.407-5.698.814-6.105 1.628-8.954 6.106-12.21 10.991.407.407.407.814.814 1.221 6.512-2.442 12.617-4.478 19.129-6.92 0 .407-.407.814-.407 1.221-3.256 5.292-3.663 6.513 0 11.398 1.628 2.035 3.256 4.07 5.291 5.698 2.442 2.036 5.291 4.071 7.733 6.513 7.326 6.513 15.059 13.026 19.129 21.981 3.663 7.734 6.919 15.468 10.175 23.203 0 0 0 .407-.407 1.221-8.547-15.468-17.094-30.937-32.56-40.706 7.326 16.282 14.652 32.158 21.978 48.44-.407.407-.407.407-.814.407-11.396-15.061-22.792-30.529-34.188-45.59 3.663 10.583 11.396 18.317 17.908 26.865l-.814.814c-4.477-3.256-8.954-6.513-13.838-9.769v1.628c3.663 7.734 7.733 15.468 13.838 21.981 5.698 6.106 12.21 11.805 17.908 17.911.814.814 1.221 1.628 2.035 2.035l-.407.407c-8.14-4.071-16.28-7.734-24.013-11.805 0 .408-.407.407-.407.815 4.07 3.256 7.733 6.919 12.21 10.99-10.582-1.628-19.129-6.92-27.676-11.805 1.628 2.036 3.663 3.664 5.698 5.292 8.14 6.513 16.687 12.619 24.827 19.539 2.442 2.035 4.477 4.07 6.919 6.92-4.477.407-8.14-1.628-11.803.407 3.663 4.885 6.512 10.176 12.21 11.397 2.035 5.292 3.256 10.177 5.698 15.061 2.849 5.699 6.919 10.177 10.582 11.805-5.291-8.141-5.291-16.689-4.884-26.459 2.849 4.478 4.884 8.549 7.326 12.212 3.663 5.699 6.512 7.734 9.768 8.548-3.256-6.513-4.477-13.025-5.291-19.945 3.256 4.477 6.105 8.955 8.954 13.432 3.256 5.292 7.326 9.363 12.617 12.212 2.442 1.221 4.07 3.257 4.07 6.513.407 2.035.814 4.071 2.035 5.292 2.035 2.849 4.884 4.884 7.733 7.327 3.663 3.256 8.14 3.663 13.838 3.256l-4.07-8.141c3.663 3.664 6.512 7.327 9.361 11.398.407.407.407 1.628.407 2.442-2.035 7.327-4.07 14.654-6.105 21.574-.407 1.221-.814 2.035-1.628 2.849l3.256 2.036 5.698-5.699c1.628-1.628 2.442-3.257 2.442-5.292 0-5.292.407-10.99.407-16.282 0-1.628-.814-3.664-1.628-4.071-4.477-2.849-6.105-6.92-8.547-10.99-2.035-3.257-4.07-7.327-6.512-10.177-4.884-5.291-8.547-10.99-11.396-17.503-1.628-4.071-4.07-7.327-7.733-9.362-.407-.407-.814-.814-1.628-2.036 7.326.814 12.617 3.257 16.687 8.549 4.884 6.512 10.175 13.025 15.059 19.538 3.663 5.292 8.954 5.699 14.245 5.292.814 0 2.035-.814 2.442-1.628.814-2.036-1.628-7.327-3.663-8.548zm-38.258-2.443c-2.442-6.513-4.07-13.84-10.582-17.91 7.733 1.628 13.838 11.397 10.582 17.91zm38.258 2.443c-8.954-5.292-17.501-10.584-24.827-18.318-2.035-2.035-5.291-3.256-7.733-4.885l-3.256-1.628c3.663-2.035 6.512-4.07 9.768-6.106 1.221 1.222 2.035 2.036 3.256 2.85 4.477 4.477 9.768 6.513 15.873 7.734 2.035.407 3.256-.407 3.663-2.443 1.221-3.663 0-5.698-3.256-7.327-4.07-1.628-7.733-2.849-11.396-5.291-6.919-4.478-10.175-4.885-17.094 0-4.884 3.663-10.175 4.07-15.873 1.221-2.035-1.221-4.477-1.628-6.919-1.628-2.849-.407-6.105 0-8.954 0 3.256-3.664 7.733-2.036 12.21-3.664-1.628-2.849-2.849-5.292-4.07-7.734-4.07-7.734-8.14-15.875-12.617-23.609-3.663-6.92-4.07-13.84-2.035-21.167 3.256-13.433 1.221-26.459-5.698-38.67-3.256-5.699-7.326-10.584-10.989-15.875-1.221-2.036-2.849-4.071-3.256-6.513-.407-1.222.407-2.85 1.221-4.071.407-.407 2.035-.407 3.256 0 .814 0 1.628.814 2.849 1.221-.407-4.07-.407-8.141-.814-13.026 6.512 4.478 13.024 3.664 19.536 2.443-.407 3.663-1.221 6.513-1.221 9.362 0 4.071 1.221 4.885 4.884 3.664 3.663-1.222 6.512-3.664 8.547-6.513 2.849-4.071 5.698-8.141 8.14-12.619.814-1.628 2.035-3.256 2.849-4.478.407 0 .407.407.814.407-3.663 11.805-10.989 21.574-19.943 31.344 4.477.814 8.547 2.035 12.21 2.035 10.582.407 19.536-7.327 20.35-18.318.407-4.07-.407-8.141-.407-12.211 0-2.443-1.221-4.071-3.663-4.885-6.512-2.442-12.617-4.885-19.129-7.327-7.733-2.442-15.873-3.256-24.42-1.628-4.477.814-7.326 2.849-8.547 6.92-.407 1.628-.814 3.663-1.628 5.292-.407.814-.814 1.628-1.221 2.849h-.814c-.814-2.035-2.035-4.071-2.035-6.106-.407-3.663-.407-7.734.407-11.397.407-2.443 0-4.071-1.628-5.292-3.663-3.257-5.291-7.327-5.291-11.805 0-1.221-.407-2.849-.407-4.884a471.88 471.88 0 00-7.326 8.548c-2.849 3.663-6.105 7.327-8.954 10.99-2.849 4.071-3.663 8.548-2.035 13.433.814 3.257 2.442 4.071 5.698 4.071 5.291-.407 8.547-3.664 11.396-7.327l2.442-3.664c-1.628 9.769-6.105 17.096-14.652 21.981-1.628.814-3.256 2.035-4.07 3.664-1.221 2.442-2.849 3.256-5.291 3.663-2.035.407-3.663.407-5.698.814-6.105 1.628-8.954 6.106-12.21 10.991.407.407.407.814.814 1.221 6.512-2.442 12.617-4.478 19.129-6.92 0 .407-.407.814-.407 1.221-3.256 5.292-3.663 6.513 0 11.398 1.628 2.035 3.256 4.07 5.291 5.698 2.442 2.036 5.291 4.071 7.733 6.513 7.326 6.513 15.059 13.026 19.129 21.981 3.663 7.734 6.919 15.468 10.175 23.203 0 0 0 .407-.407 1.221-8.547-15.468-17.094-30.937-32.56-40.706 7.326 16.282 14.652 32.158 21.978 48.44-.407.407-.407.407-.814.407-11.396-15.061-22.792-30.529-34.188-45.59 3.663 10.583 11.396 18.317 17.908 26.865l-.814.814c-4.477-3.256-8.954-6.513-13.838-9.769v1.628c3.663 7.734 7.733 15.468 13.838 21.981 5.698 6.106 12.21 11.805 17.908 17.911.814.814 1.221 1.628 2.035 2.035l-.407.407c-8.14-4.071-16.28-7.734-24.013-11.805 0 .408-.407.407-.407.815 4.07 3.256 7.733 6.919 12.21 10.99-10.582-1.628-19.129-6.92-27.676-11.805 1.628 2.036 3.663 3.664 5.698 5.292 8.14 6.513 16.687 12.619 24.827 19.539 2.442 2.035 4.477 4.07 6.919 6.92-4.477.407-8.14-1.628-11.803.407 3.663 4.885 6.512 10.176 12.21 11.397 2.035 5.292 3.256 10.177 5.698 15.061 2.849 5.699 6.919 10.177 10.582 11.805-5.291-8.141-5.291-16.689-4.884-26.459 2.849 4.478 4.884 8.549 7.326 12.212 3.663 5.699 6.512 7.734 9.768 8.548-3.256-6.513-4.477-13.025-5.291-19.945 3.256 4.477 6.105 8.955 8.954 13.432 3.256 5.292 7.326 9.363 12.617 12.212 2.442 1.221 4.07 3.257 4.07 6.513.407 2.035.814 4.071 2.035 5.292 2.035 2.849 4.884 4.884 7.733 7.327 3.663 3.256 8.14 3.663 13.838 3.256l-4.07-8.141c3.663 3.664 6.512 7.327 9.361 11.398.407.407.407 1.628.407 2.442-2.035 7.327-4.07 14.654-6.105 21.574-.407 1.221-.814 2.035-1.628 2.849l3.256 2.036 5.698-5.699c1.628-1.628 2.442-3.257 2.442-5.292 0-5.292.407-10.99.407-16.282 0-1.628-.814-3.664-1.628-4.071-4.477-2.849-6.105-6.92-8.547-10.99-2.035-3.257-4.07-7.327-6.512-10.177-4.884-5.291-8.547-10.99-11.396-17.503-1.628-4.071-4.07-7.327-7.733-9.362-.407-.407-.814-.814-1.628-2.036 7.326.814 12.617 3.257 16.687 8.549 4.884 6.512 10.175 13.025 15.059 19.538 3.663 5.292 8.954 5.699 14.245 5.292.814 0 2.035-.814 2.442-1.628.814-2.036-1.628-7.327-3.663-8.548zm-38.258-2.443c-2.442-6.513-4.07-13.84-10.582-17.91 7.733 1.628 13.838 11.397 10.582 17.91z"/><path d="M698.153 378.562c-1.221 10.176 4.07 17.503 8.954 25.644 2.442-2.442 1.628-5.292 1.221-8.955 2.035 2.442 3.256 4.07 4.884 5.699 0 0 .407 0 .407-.407-.407-1.629-.814-2.85-1.628-4.478-2.442-4.885-4.477-9.769-6.919-14.654-1.628-3.256-2.035-3.664-6.919-2.849zm-193.325-11.805c-.814-.407-1.628-.814-2.849-.814-6.105-2.035-12.21-3.664-18.315-5.699-.814-.407-1.628-.814-2.849-1.221 0-.407 0-.407.407-.814 3.256.814 6.919 1.628 10.175 2.442 3.256.814 6.512 2.035 10.175 2.85-7.326-7.327-16.28-11.398-26.048-13.026a39.225 39.225 0 00-9.768 0c-3.663.407-5.698 2.849-6.105 6.106-1.221 7.734.814 14.654 7.733 18.724 2.849 1.628 5.291 2.85 8.547 4.071 7.326 2.442 14.652 3.256 22.385 3.256 2.035 0 4.477-.407 6.512-1.628 2.442-1.221 5.291-2.849 4.884-6.106 0-3.256-1.628-6.106-4.884-8.141zm-4.884 11.398c-3.256.814-6.105.814-9.768.814 4.477-2.443 10.175-2.036 13.431-6.92.407 4.477 0 5.291-3.663 6.106zM105.968 128.222c0 4.071-1.221 7.327-4.07 10.177-2.85 2.849-6.105 4.07-10.175 4.07s-7.326-1.221-10.175-4.07c-2.85-2.85-4.884-6.92-5.698-11.805l-44.77 10.177c.814 6.513 2.849 13.025 6.105 18.724 3.256 5.699 7.326 10.991 12.617 15.468 4.884 4.478 10.989 8.141 17.908 10.584 6.919 2.442 14.245 4.07 22.385 4.07 9.768 0 18.315-1.221 26.048-4.477 7.733-2.85 14.245-6.92 19.943-11.805 5.698-4.885 9.768-10.99 12.617-17.91s4.477-14.654 4.477-22.795V37.042h-47.212v91.18zm154.253-6.106c0 6.106-2.035 10.991-5.698 14.654-3.663 3.664-8.547 5.699-14.245 5.699-6.105 0-10.989-2.035-14.652-5.699-3.663-3.663-5.698-8.548-5.698-14.654V36.635h-46.805v85.481c0 9.363 1.628 17.504 4.884 25.238 3.256 7.734 7.733 14.247 13.431 19.946 5.698 5.698 13.024 10.176 21.164 13.025 8.14 3.257 17.501 4.885 27.676 4.885 10.175 0 19.129-1.628 27.676-4.885 8.14-3.256 15.466-7.327 21.164-13.025 5.698-5.699 10.175-12.212 13.431-19.946 3.256-7.734 4.884-16.282 4.884-25.238V36.635h-47.212v85.481zm154.66-38.263c2.035-3.663-1.221-4.477 3.663-7.327l-3.663-6.513v13.84zm0-22.795l5.698 2.443 12.21 5.291 1.221-3.663 9.361 2.442 4.07-11.804 6.512-9.77 4.07 13.433c1.221.407 2.442 1.221 3.663 2.035V37.042h-46.805v24.016zm-36.63-24.016h-50.875v142.062h46.805v-63.093h2.035l12.617 22.795c2.035-8.141 6.919-13.433 6.919-13.84 0-.407-.407-1.628-.407-3.664l4.884-3.663-4.07-5.292-2.442-3.256 4.07-1.628c4.884-2.036 13.024-5.292 13.024-5.292l2.849-3.257-4.07-5.291-31.339-56.581zm174.603 97.286h22.385v2.036c-1.628 1.221-3.663 2.035-5.698 3.256-2.035.814-4.07 1.628-6.512 2.035-2.442.407-4.884.814-8.14.814-4.07 0-8.14-.814-11.803-2.849-4.07-2.035-7.326-4.478-10.582-7.734-3.256-3.257-5.698-6.92-7.326-10.991-1.628-4.07-2.849-8.548-2.849-13.025 0-4.478.814-8.956 2.849-13.026s4.477-7.734 7.326-10.99c3.256-3.257 6.512-5.7 10.582-7.735 4.07-2.035 7.733-2.85 11.803-2.85 3.663 0 6.512.408 9.361 1.222 2.849.814 4.884 1.628 6.919 2.85 2.035 1.22 4.07 2.849 5.698 4.477 1.628 1.628 3.256 3.664 4.884 5.699l46.805-6.106c-2.035-6.513-5.291-13.026-9.361-19.132-4.07-6.105-8.954-11.397-15.059-16.282-6.105-4.885-13.024-8.548-20.757-11.397-7.733-2.85-16.687-4.07-26.048-4.07-10.989 0-21.571 2.034-31.339 6.512-9.768 4.478-18.315 10.176-25.641 17.096-6.512 6.513-13.838 17.097-18.315 27.273 17.908 10.99 27.269 30.122 28.083 31.75l13.024 10.584-2.442 3.663h3.256s-.814 7.734-3.663 10.991c0 .407 0 .407.407.814 15.059 8.955 13.024 26.051 11.396 32.157 6.512 4.478 13.838 9.77 18.722 13.026 2.442.407 4.884.407 7.326.407 10.175 0 19.943-2.035 28.897-6.513 8.954-4.07 17.094-9.769 24.013-16.689 6.919-6.92 12.21-14.654 16.28-23.202 4.07-8.548 6.105-17.911 6.105-26.866V99.321h-79.365v35.007h-1.221zm137.973-97.286h-46.805v142.062h115.995v-42.74h-69.19V37.042zM893.921 77.34V37.043H772.227v142.062h121.694V138.4h-74.889v-12.212h58.608V89.552h-58.608V77.34h74.889z"/></g></svg>