<svg width="223" height="168" viewBox="0 0 223 168" fill="none" xmlns="http://www.w3.org/2000/svg">
<g id="Group">
<path id="Vector" d="M-0.00689697 64.5249V145.325C-0.00689697 157.538 49.8258 167.442 111.261 167.442C172.697 167.442 222.53 157.538 222.53 145.325V64.5249H-0.00689697Z" fill="url(#paint0_linear_39_1138)"/>
<path id="Vector_2" d="M111.261 85.6003C172.713 85.6003 222.53 75.9313 222.53 64.004C222.53 52.0767 172.713 42.4077 111.261 42.4077C49.8096 42.4077 -0.00689697 52.0767 -0.00689697 64.004C-0.00689697 75.9313 49.8096 85.6003 111.261 85.6003Z" fill="#F6F7F7"/>
<path id="Vector_3" d="M220.968 63.3337C220.968 73.9829 171.879 82.5469 111.336 82.5469C50.7927 82.5469 1.62939 73.9829 1.62939 63.3337C1.62939 52.6845 50.7183 41.1416 111.261 41.1416C171.804 41.1416 220.968 52.7589 220.968 63.3337Z" fill="#BD5143"/>
<path id="Vector_4" d="M110.889 82.0999C162.483 82.0999 204.307 73.4311 204.307 62.7377C204.307 52.0442 162.483 43.3755 110.889 43.3755C59.2963 43.3755 17.4717 52.0442 17.4717 62.7377C17.4717 73.4311 59.2963 82.0999 110.889 82.0999Z" fill="#BF6C66"/>
<path id="Vector_5" d="M17.4717 15.3003V61.7696C17.4717 69.8868 59.2717 76.4402 110.889 76.4402C162.507 76.4402 204.307 69.8868 204.307 61.7696V15.3003H17.4717Z" fill="url(#paint1_linear_39_1138)"/>
<path id="Vector_6" d="M110.889 29.9711C162.483 29.9711 204.307 23.4028 204.307 15.3005C204.307 7.19813 162.483 0.629883 110.889 0.629883C59.2963 0.629883 17.4717 7.19813 17.4717 15.3005C17.4717 23.4028 59.2963 29.9711 110.889 29.9711Z" fill="#F6F7F7"/>
</g>
<defs>
<linearGradient id="paint0_linear_39_1138" x1="-0.0240037" y1="115.968" x2="222.569" y2="115.968" gradientUnits="userSpaceOnUse">
<stop stop-color="#BFBEBF"/>
<stop offset="0.1285" stop-color="#D0D1D2"/>
<stop offset="0.4888" stop-color="#F3F3F3"/>
<stop offset="0.86" stop-color="#E0E1E0"/>
<stop offset="1" stop-color="#CBCBCB"/>
</linearGradient>
<linearGradient id="paint1_linear_39_1138" x1="17.4778" y1="45.8704" x2="204.338" y2="45.8704" gradientUnits="userSpaceOnUse">
<stop stop-color="#BFBEBF"/>
<stop offset="0.1285" stop-color="#D0D1D2"/>
<stop offset="0.4888" stop-color="#F3F3F3"/>
<stop offset="0.8994" stop-color="#E0E1E0"/>
<stop offset="1" stop-color="#CBCBCB"/>
</linearGradient>
</defs>
</svg>
