<svg width="833" height="541" viewBox="0 0 833 541" fill="none" xmlns="http://www.w3.org/2000/svg">
<g opacity="0.3">
<path d="M86.3117 22.7559V107.539C86.3117 111.21 85.2099 114.513 82.6389 117.082C80.0679 119.651 77.1296 120.752 73.0895 120.752C69.4167 120.752 66.1111 119.284 63.5401 116.715C60.9691 114.146 59.1327 110.476 58.0309 105.704L16.5278 114.88C17.2623 121.119 19.466 126.992 22.4043 132.13C25.3426 137.636 29.3827 142.407 34.1574 146.811C38.9321 150.849 44.4414 154.152 50.6852 156.721C56.929 159.29 63.9074 160.392 71.2531 160.392C80.0679 160.392 88.1481 158.923 95.4938 156.354C102.84 153.785 108.716 150.115 113.858 145.343C119 140.572 122.673 135.067 125.611 128.46C128.182 121.854 129.651 114.88 129.651 107.539V22.7559H86.3117Z" fill="black"/>
<path d="M229.185 22.7559V101.667C229.185 107.172 227.349 111.944 224.043 115.247C220.738 118.55 215.963 120.385 210.454 120.385C204.944 120.385 200.17 118.55 196.864 115.247C193.559 111.944 191.722 107.172 191.722 101.667V22.7559H148.383V101.667C148.383 110.109 149.852 117.816 152.79 125.157C155.728 132.13 159.769 138.37 165.278 143.508C170.787 148.647 177.031 152.684 184.744 155.62C192.457 158.556 200.904 160.025 210.454 160.025C220.003 160.025 228.451 158.556 236.164 155.62C243.877 152.684 250.488 148.647 255.63 143.508C261.139 138.37 265.179 132.13 268.117 125.157C271.056 118.183 272.525 110.109 272.525 101.667V22.7559H229.185Z" fill="black"/>
<path d="M338.268 22.7559H291.256V154.519H334.596V96.1616H336.432L348.185 117.449C350.022 110.109 354.429 104.97 354.429 104.603C354.429 103.502 352.96 99.0978 355.531 90.6561C357.735 83.6826 362.509 80.3793 367.284 75.2409L338.268 22.7559ZM372.059 22.7559V68.6344C374.997 63.496 375.731 60.1928 376.466 53.2192C377.201 45.1446 377.201 43.6765 383.812 40.7403C390.056 37.804 394.463 38.5381 402.91 39.6392C406.583 40.0062 410.991 42.2084 415.765 44.7776V22.7559H372.059Z" fill="black"/>
<path d="M500.241 81.1133V113.045H520.809V114.88C519.339 115.981 517.503 117.082 515.667 117.816C513.83 118.55 511.994 119.284 509.79 119.651C507.586 120.018 505.015 120.385 502.077 120.385C498.404 120.385 494.731 119.651 491.059 117.816C487.386 115.981 484.08 113.779 481.509 110.843C478.938 107.906 476.367 104.603 474.531 100.566C472.694 96.8955 471.96 92.8582 471.96 88.4538C471.96 84.0495 472.694 80.0122 474.531 76.3419C476.367 72.6716 478.571 69.0013 481.509 66.0651C484.448 63.1289 487.386 60.9267 491.059 59.0916C494.731 57.2564 498.404 56.5224 502.077 56.5224C505.383 56.5224 508.321 56.8894 510.525 57.6235C513.096 58.3575 515.299 59.0916 517.136 60.1927C518.972 61.2937 520.809 62.7619 522.278 64.23C523.747 65.6981 525.216 67.5332 526.685 69.3684L570.025 63.8629C568.188 57.6235 565.25 51.751 561.577 46.2456C557.904 40.7402 553.13 35.6018 547.62 31.1974C542.111 26.7931 535.867 23.4898 528.522 20.9206C521.176 18.3514 513.096 16.8833 504.281 16.8833C493.997 16.8833 484.08 18.7184 474.898 22.7558C465.716 26.7931 458.003 31.9315 451.025 38.538C445.148 44.4104 440.006 51.0169 436.333 58.3575C446.617 67.1662 460.207 93.2252 460.207 93.2252C460.207 93.2252 462.043 100.933 463.145 105.704C474.898 117.082 469.756 137.636 468.654 139.104C469.756 139.838 488.488 153.051 497.67 159.29C499.873 159.657 502.077 159.657 504.281 159.657C513.83 159.657 522.645 157.822 531.093 153.785C539.54 149.748 546.886 144.976 553.13 138.37C559.373 132.13 564.515 124.79 568.188 116.715C571.861 108.64 573.697 100.199 573.697 91.7571V80.3792H500.241V81.1133Z" fill="black"/>
<path d="M628.056 114.88V22.7559H584.716V154.519H691.963V114.88H628.056Z" fill="black"/>
<path d="M816.472 60.5598V22.7559H703.716V154.519H816.472V116.715H746.688V105.337H801.414V71.5706H746.688V60.1928H816.472V60.5598Z" fill="black"/>
<path d="M175.194 361.523C175.194 358.587 175.194 355.283 175.194 352.347C178.133 346.108 181.438 339.501 184.009 333.262C184.377 332.161 184.377 330.693 184.009 329.224C182.54 324.453 182.54 319.682 186.213 315.644C188.417 313.075 190.62 310.506 193.191 308.671C195.395 306.836 197.599 305.368 196.497 301.697C196.13 300.229 196.864 298.394 197.231 296.926C199.068 291.421 201.272 285.915 203.475 280.777C207.148 272.335 213.392 265.361 219.636 258.755C221.84 256.186 223.676 253.617 224.41 250.313C226.614 242.239 229.92 234.898 234.327 227.558C240.571 217.648 249.019 209.573 257.833 202.233C259.67 200.397 262.608 199.663 265.179 198.929C274.361 196.727 283.911 194.892 293.093 192.69C297.5 191.589 301.173 189.02 304.111 185.349C310.722 176.908 318.435 169.2 327.25 162.961C334.596 157.822 342.309 153.051 349.654 148.279C352.593 146.444 355.531 144.609 357.367 140.939C353.694 137.269 351.858 133.231 351.491 127.726C351.123 121.486 351.858 115.247 357 110.842C359.571 108.64 361.407 106.805 361.775 103.135C361.775 100.933 363.244 98.7305 363.978 95.7943C362.509 96.1613 361.775 96.1613 360.306 96.5284C362.142 93.5921 365.815 92.124 364.713 88.0867C367.284 85.8845 368.019 81.8472 371.324 80.3791C371.324 80.3791 371.324 80.0121 371.691 79.6451C371.324 79.278 370.957 79.278 369.855 78.544C374.63 76.7088 375.731 71.9375 378.67 69.0012C380.506 67.1661 381.608 64.9639 379.772 62.3947C380.873 62.3947 381.241 62.7617 381.975 62.7617C381.608 60.9266 381.241 59.4585 380.506 57.2563C381.975 57.6233 383.077 57.9904 384.546 57.9904C383.812 55.0541 383.444 52.852 382.343 49.9157C384.914 51.7509 385.648 54.3201 388.586 54.6871C387.852 52.4849 387.117 50.6498 386.383 48.0806C388.954 49.1817 390.79 49.9157 393.361 50.6498C393.728 48.8147 393.728 46.9795 394.096 45.8784C397.034 46.6125 399.605 46.9795 402.176 47.7136C402.543 46.9795 402.543 46.2455 403.278 44.7773C404.747 49.1817 408.053 49.5487 411.358 51.0168C411.725 50.2828 411.725 49.9157 412.093 48.8147C417.235 52.1179 421.275 56.1552 425.315 60.5596C426.049 61.2936 426.417 61.6607 427.151 62.3947C428.62 63.4958 430.457 64.2299 431.926 65.3309C434.13 67.1661 435.232 70.1023 438.537 71.2034C438.904 71.2034 439.272 71.9375 439.272 71.9375C438.537 75.6077 441.843 75.9748 443.679 77.4429C444.414 77.8099 445.515 78.911 445.515 78.911C444.046 81.1132 446.617 81.4802 447.352 82.5813C449.556 85.5175 451.759 88.0867 453.596 90.6559L453.228 91.0229C452.494 90.6559 451.392 89.9219 450.657 89.5548L450.29 89.9219C452.127 91.757 453.596 93.9592 455.432 95.7943L455.065 96.1613C454.33 95.7943 453.228 95.4273 451.759 95.0602C453.228 98.7305 455.065 101.3 455.065 104.236C455.065 107.172 456.901 108.273 458.738 110.108C462.043 113.045 463.88 116.715 464.614 121.119C465.349 127.726 464.982 133.965 460.207 139.471C462.411 141.306 464.247 143.508 466.451 144.976C471.96 148.646 477.836 152.317 483.346 155.987C496.568 164.062 508.321 173.237 517.87 185.716C520.074 188.653 523.012 191.222 526.685 192.323C536.602 194.892 546.519 198.195 556.803 199.663C564.516 200.764 570.759 203.334 576.636 208.105C577.003 208.472 577.37 208.472 577.738 208.839C590.225 217.648 599.775 228.659 604.917 243.34C606.019 246.643 606.753 250.68 608.59 253.25C610.793 256.186 614.466 257.654 617.037 260.223C629.892 271.968 637.238 286.649 637.972 303.9C637.972 304.634 638.707 305.735 639.441 306.469C642.38 309.405 645.685 312.341 648.624 315.277C652.664 318.948 653.031 323.352 651.562 328.49C651.194 329.591 651.194 331.06 651.562 332.161C654.5 339.868 657.806 347.209 660.744 354.916C660.744 356.385 660.744 357.486 660.744 358.954C659.275 362.991 658.54 367.395 656.336 371.066C653.031 376.571 651.195 382.444 650.46 389.05C649.358 398.593 644.216 406.667 637.972 414.008C627.321 425.753 614.466 434.562 601.611 443.737C599.407 445.205 598.673 447.041 598.306 449.243C597.938 454.014 597.204 459.153 596.836 463.924C595.735 471.999 593.898 480.073 588.389 486.313C587.654 487.047 587.654 488.515 587.287 489.616C585.818 497.691 582.88 505.031 579.207 512.005C577.003 516.042 573.33 518.244 568.188 518.244C561.21 518.611 554.599 517.51 548.355 513.473C543.58 517.51 537.704 518.611 532.194 516.409C528.154 514.574 524.114 514.207 519.707 514.207C516.401 514.207 513.83 512.739 512.728 509.435C510.892 503.196 509.056 496.589 507.219 489.983C506.852 488.882 507.586 487.414 508.321 486.68C509.423 484.845 510.525 483.376 511.994 481.541C512.361 481.174 512.361 481.174 513.096 480.807C513.096 481.908 512.728 483.009 512.728 484.478C517.503 484.478 521.911 484.111 525.583 480.807C527.053 479.339 528.522 477.504 530.358 476.403C532.929 474.568 534.398 472.366 534.766 469.062C535.133 466.86 535.867 464.658 537.704 463.557C543.948 460.254 548.355 455.115 552.395 449.61C554.966 446.307 557.537 443.003 560.108 439.7C559.374 446.674 557.17 452.546 553.864 458.419C563.414 454.014 568.556 445.94 573.698 437.865C574.065 446.674 573.33 455.115 568.556 462.823C573.33 459.887 576.636 456.216 579.207 451.445C581.411 447.041 583.247 441.902 585.451 436.764C586.552 436.764 588.389 436.764 589.858 436.764C592.062 437.131 593.164 435.663 594.265 434.195C595.367 433.094 596.469 431.625 597.938 430.524C599.04 429.423 600.142 428.689 601.244 427.588C601.978 426.854 602.346 426.12 603.448 424.652C599.775 425.019 596.836 425.019 592.796 425.386C595.735 422.45 598.306 419.881 600.877 418.045C607.855 412.54 615.201 407.769 622.179 402.263C625.852 399.327 629.157 396.391 632.463 393.454C622.546 398.593 613.364 404.465 601.978 405.933C604.182 404.098 606.386 402.63 608.957 400.795C612.997 397.859 613.732 396.758 614.833 394.189C605.651 398.593 596.469 402.263 587.287 405.199C590.225 402.63 593.531 400.428 596.469 398.226C599.407 395.657 602.346 393.454 605.284 390.518C608.222 387.582 610.793 385.013 613.364 381.71C615.935 378.773 618.139 375.47 619.975 372.167C621.812 368.864 623.648 365.56 625.485 362.624C625.117 362.624 625.117 362.257 624.75 362.257C618.874 367.395 612.63 371.433 605.651 374.369C614.099 365.927 621.812 356.752 625.117 345.007C620.343 349.778 615.568 354.549 611.528 359.688C603.08 371.066 595.367 382.811 587.287 394.189C591.327 385.38 595.367 376.571 599.775 367.762C604.182 358.954 608.59 350.145 612.997 341.703C606.019 345.741 600.142 350.879 595.735 357.119C591.327 363.358 587.654 369.965 583.982 376.571C583.982 376.204 583.982 375.837 584.349 375.103C588.389 359.321 596.469 346.475 610.426 337.299C615.935 333.629 620.71 329.591 625.485 325.187C629.892 321.15 629.892 319.682 626.954 314.543C626.954 314.543 626.954 314.176 627.321 313.809C633.198 317.847 640.176 319.682 647.889 320.783C645.685 316.745 643.114 314.543 640.176 311.974C637.972 309.772 635.034 308.671 631.728 308.304C629.157 308.304 626.586 307.57 624.015 306.836C622.546 306.469 621.444 305.368 620.343 304.267C618.873 302.798 617.772 301.33 616.303 300.229C613.732 297.66 610.793 295.091 608.222 292.522C605.284 289.218 603.448 284.814 602.713 280.41C604.917 282.245 606.753 284.447 608.957 286.282C611.895 289.218 615.568 291.053 619.608 291.053C623.648 291.421 626.219 289.218 626.586 284.814C626.954 280.043 625.485 276.005 622.914 272.335C618.139 265.729 611.895 260.223 605.284 255.452C605.284 255.452 604.917 255.452 604.549 255.819C604.549 256.186 604.182 256.553 604.182 256.92C603.815 263.159 601.978 268.298 597.204 272.335C596.469 273.069 596.102 274.537 595.735 275.638C595 280.043 594.265 284.447 593.164 288.851C592.796 290.319 592.429 292.522 589.858 292.889C589.491 291.421 589.123 289.952 589.123 288.484C588.389 280.777 583.982 277.473 576.269 277.84C571.494 277.84 567.086 278.207 562.312 278.575C552.395 279.309 542.478 281.144 533.664 286.282C531.093 287.75 529.623 289.585 529.623 292.522C529.623 296.192 529.624 299.862 529.991 303.9C531.46 318.581 547.988 326.288 560.475 318.214C551.661 308.671 542.478 294.724 541.744 288.117C544.315 292.155 546.519 295.458 548.722 298.761C550.926 301.697 553.13 305.001 555.701 307.57C559.006 310.873 563.414 311.974 568.188 310.873C568.923 306.469 568.923 302.431 565.985 298.027C573.698 299.128 581.043 300.963 588.389 296.192C588.022 300.596 587.654 304.267 587.287 308.671C588.389 307.937 589.124 307.57 589.491 307.57C591.694 306.469 593.164 306.836 593.531 309.405C593.898 310.873 593.898 312.341 593.164 313.809C592.429 315.644 590.96 317.48 589.491 319.315C583.982 326.655 579.207 334.363 576.269 342.805C572.963 352.714 571.861 362.257 575.534 372.534C576.636 375.47 576.636 379.507 575.901 382.811C575.167 386.848 573.698 390.518 571.861 394.189C567.821 401.896 563.046 409.237 558.639 416.577C557.904 417.678 557.17 418.779 556.435 420.248C558.639 420.615 560.475 420.982 562.312 421.716C563.781 422.45 565.25 423.184 566.719 423.918C566.719 424.285 566.352 424.285 566.352 424.652C565.25 424.652 564.515 424.285 563.414 424.285C559.373 423.918 555.701 423.551 552.028 425.386C545.049 429.056 538.071 429.056 531.093 424.285C525.583 420.248 521.176 420.615 515.299 424.652C512.728 426.487 509.79 427.955 506.852 429.423C502.444 431.625 501.343 433.828 502.812 438.966C511.259 439.333 517.503 435.296 523.012 429.423C526.318 430.891 529.256 432.359 531.093 434.562C526.685 437.865 522.645 441.168 518.605 444.104C512.361 448.509 505.75 453.647 499.139 457.684C496.201 459.52 494.732 461.722 493.997 464.658C493.262 467.594 493.997 468.328 496.935 468.695C501.343 469.062 505.383 468.328 508.321 464.658C513.463 458.051 518.972 451.445 524.114 444.838C528.154 439.333 534.031 437.498 540.642 437.498C540.642 437.865 540.275 438.232 539.907 438.232C534.031 440.434 531.093 445.205 528.522 450.711C527.42 453.647 525.583 456.583 523.38 458.786C518.238 464.291 514.198 470.163 510.892 476.77C509.79 478.972 507.954 481.541 506.117 483.376C504.281 484.845 503.546 486.68 503.914 488.882C503.914 494.02 504.281 499.526 504.648 504.664C504.648 506.499 505.75 508.334 506.852 509.435C510.157 513.106 513.83 516.409 517.503 520.079C518.238 520.813 519.34 521.914 520.441 523.383C518.972 523.383 518.605 523.75 518.238 523.75C488.488 523.75 459.105 523.75 429.355 523.383C428.253 523.383 426.784 522.648 425.682 521.914C421.642 518.978 418.704 515.308 416.5 510.537C414.664 512.372 413.194 513.473 411.358 515.308C409.154 513.473 407.318 511.638 405.849 509.802C403.645 512.739 401.441 515.308 399.238 517.877C395.565 522.281 391.157 524.851 385.281 523.75C384.179 523.383 383.077 523.75 382.343 523.75C356.633 523.75 331.29 523.75 305.58 523.75C303.744 523.75 301.907 523.75 299.704 523.75C300.806 522.281 301.173 521.547 301.907 520.813C305.58 517.143 309.253 513.106 312.926 509.435C314.395 507.967 315.13 506.499 315.13 504.297C315.13 499.159 315.497 494.02 315.497 488.882C315.497 487.414 314.762 485.579 313.661 484.845C309.62 482.275 307.784 478.238 305.58 474.201C303.744 470.897 301.907 467.227 299.336 464.658C294.929 459.52 290.889 454.014 288.318 447.775C286.849 444.104 284.645 440.801 280.972 438.599C280.605 438.232 280.238 437.865 279.503 436.764C286.481 437.498 291.623 439.7 295.664 444.838C300.438 451.078 305.58 457.317 309.988 463.557C313.661 468.695 318.435 469.062 323.577 468.695C324.312 468.695 325.414 467.594 325.781 466.86C326.515 464.658 324.679 459.52 322.475 458.419C314.028 453.28 305.948 448.142 298.969 441.168C297.133 438.966 294.194 437.865 291.623 436.397C290.889 436.03 289.787 435.663 288.318 434.929C291.623 432.727 294.562 430.891 297.867 429.056C298.969 430.157 300.071 430.891 300.806 431.992C304.846 436.397 309.988 438.232 315.864 439.333C318.068 439.7 318.802 438.966 319.537 437.131C320.639 433.461 319.537 431.625 316.231 430.157C312.559 428.689 308.519 427.588 305.213 425.386C298.602 420.982 295.296 420.615 288.685 425.386C283.91 429.056 278.769 429.423 273.259 426.487C271.423 425.386 268.852 425.019 266.648 424.652C263.71 424.285 261.139 424.652 258.201 424.652C261.139 421.349 265.546 422.817 269.586 421.349C268.117 418.779 266.648 416.21 265.546 414.008C261.506 406.3 257.833 398.96 253.426 391.252C249.753 384.646 249.753 378.039 251.59 371.066C254.895 358.22 252.691 345.741 246.08 333.996C243.142 328.49 239.102 323.719 235.429 318.581C234.327 316.746 232.858 314.543 232.123 312.341C231.756 311.24 232.491 309.405 233.225 308.671C233.593 308.304 235.429 308.304 236.531 308.671C237.265 308.671 238 309.405 239.102 309.772C239.102 305.735 238.735 302.064 238.367 297.293C244.611 301.33 250.855 300.963 257.099 299.495C256.731 302.798 255.997 305.735 255.997 308.304C255.997 311.974 257.099 313.075 260.772 311.974C264.444 310.873 267.015 308.671 268.852 305.735C271.79 301.697 273.994 297.66 276.932 293.623C278.034 292.155 278.769 290.686 279.87 289.218C280.238 289.218 280.238 289.585 280.605 289.585C277.299 300.963 270.321 310.139 261.506 319.682C265.914 320.416 269.586 321.517 273.259 321.884C283.543 322.251 292.358 314.91 293.093 304.634C293.46 300.963 292.725 296.926 292.725 292.889C292.725 290.319 291.623 289.218 289.42 288.117C283.543 285.915 277.299 283.346 271.423 281.144C263.71 278.575 255.997 278.207 247.917 279.309C243.877 280.043 240.938 281.878 239.836 285.915C239.469 287.75 239.102 289.585 238.367 291.053C238 291.788 237.633 292.889 237.265 293.623C236.898 293.623 236.531 293.623 236.164 293.623C235.429 291.788 234.327 289.585 233.96 287.75C233.593 284.08 233.593 280.41 234.327 277.106C234.694 274.904 234.327 273.436 232.491 271.968C229.185 269.032 227.349 264.994 227.349 260.59C227.349 259.122 226.981 258.021 226.981 255.819C224.043 259.122 221.84 261.691 219.636 264.26C216.698 267.564 213.759 271.234 211.188 274.904C208.25 278.942 207.515 283.346 208.985 287.75C210.086 290.686 211.188 291.788 214.494 291.421C219.636 291.053 222.574 288.117 225.512 284.447C226.247 283.346 226.981 282.245 228.083 281.144C226.614 290.319 222.207 297.66 213.759 302.064C212.29 302.798 210.454 303.899 209.719 305.368C208.617 307.937 206.781 308.671 204.577 308.671C202.741 309.038 200.904 309.038 199.068 309.405C193.559 310.873 190.253 315.277 187.315 319.682C187.682 320.049 187.682 320.416 188.049 320.783C193.926 318.581 200.17 316.378 206.414 314.176C206.046 314.543 206.046 314.91 206.046 315.277C202.741 320.416 202.741 321.517 206.046 326.288C207.515 328.123 209.352 329.959 211.188 331.794C213.759 333.996 216.33 335.831 218.534 338.033C225.88 344.273 232.858 350.512 236.898 359.321C240.204 366.661 243.509 374.369 246.448 381.71C246.448 381.71 246.448 382.077 246.08 382.811C237.633 367.762 229.92 353.081 214.861 343.906C221.84 359.321 229.185 374.736 236.164 390.151C235.796 390.151 235.429 390.518 235.429 390.518C224.41 375.837 213.759 361.523 202.741 346.842C206.414 357.119 213.759 364.459 220.003 372.534C219.636 372.901 219.636 372.901 219.269 373.268C214.861 370.332 210.454 367.028 206.046 363.725C206.046 364.459 206.046 364.826 206.414 365.193C209.719 372.901 213.759 380.241 219.636 386.114C225.145 391.986 231.389 397.492 236.898 403.364C237.633 404.098 238 404.832 238.735 405.566L238.367 405.933C230.654 402.263 222.941 398.226 215.228 394.556C214.861 394.923 214.861 394.923 214.494 395.29C218.167 398.593 221.84 401.896 226.247 405.566C215.963 403.731 208.25 398.96 199.802 394.189C201.639 396.024 203.475 397.859 205.312 399.327C213.392 405.566 221.105 411.806 229.185 418.045C231.389 419.881 233.225 422.083 235.796 424.652C231.389 425.019 228.083 423.184 224.41 425.386C228.083 430.157 230.654 435.296 236.164 436.397C238 441.535 239.469 446.307 241.673 450.711C244.244 456.216 248.284 460.254 251.957 462.089C247.182 454.381 246.815 445.94 247.182 436.764C249.753 441.168 251.957 444.838 254.16 448.142C257.833 453.647 260.404 455.849 263.71 456.216C260.404 450.344 259.302 443.737 258.568 437.131C261.506 441.168 264.444 445.573 267.383 449.977C270.321 454.748 274.361 459.153 279.503 461.722C282.074 463.19 283.176 465.025 283.543 467.961C283.91 469.796 284.278 471.999 285.38 473.1C287.583 475.669 290.154 477.871 292.725 480.073C296.398 483.376 300.806 483.743 305.948 483.376C304.478 480.44 303.009 477.871 301.907 475.669C305.213 478.972 308.151 482.642 311.09 486.313C311.457 486.68 311.457 487.781 311.457 488.515C309.62 495.488 307.417 502.462 305.58 509.435C304.846 511.638 303.009 513.106 300.806 513.106C296.031 513.106 291.623 513.84 287.216 515.308C281.707 517.143 276.565 516.042 272.157 512.739C268.852 514.207 266.281 515.675 263.343 516.409C253.059 518.978 246.815 517.143 242.775 506.132C241.673 502.462 240.571 498.792 239.102 495.121C237.633 491.451 236.164 487.781 234.327 484.478C231.389 479.339 229.185 473.834 228.818 467.594C228.451 460.988 227.716 454.748 227.349 448.142C226.981 445.205 226.247 442.636 223.309 441.168C221.84 440.434 220.37 438.966 219.269 437.865C210.821 429.423 202.741 420.982 194.661 412.173C188.784 405.933 185.111 398.226 184.377 389.417C184.009 386.114 184.009 382.811 183.642 379.507C183.642 378.406 183.275 376.571 182.54 375.837C179.235 372.534 177.031 367.028 175.194 361.523ZM400.34 117.082C400.34 116.715 400.707 116.715 400.707 116.715C395.932 111.577 390.79 107.539 384.179 104.97C381.241 103.869 378.303 104.603 375.732 107.172C376.833 107.906 377.935 108.64 378.302 109.374C375.732 111.944 373.528 114.146 371.691 116.715C369.855 118.917 369.12 121.486 369.488 124.423C369.488 125.891 370.222 126.992 371.691 126.992C372.059 126.625 372.059 126.625 372.059 126.625C372.426 125.891 372.793 124.79 373.161 124.055C374.997 118.917 378.303 117.816 383.077 120.752C385.648 122.587 388.219 124.423 390.79 125.891C393.361 127.726 396.299 128.827 400.707 128.46C397.769 125.524 395.565 123.321 392.994 121.119C397.769 123.321 404.012 122.587 406.951 128.093C406.951 126.992 406.951 126.258 406.951 125.157C406.951 123.688 406.583 122.587 408.787 122.22C410.623 122.22 411.358 123.321 411.358 124.79C411.358 125.524 411.358 126.625 411.725 128.093C412.46 125.891 413.194 124.423 413.562 123.688C417.602 122.22 420.54 121.119 424.213 120.018C422.009 123.321 417.602 123.321 415.765 127.359C417.602 127.359 419.071 128.093 420.173 127.726C422.744 126.992 424.948 125.891 427.151 124.79C430.457 122.954 433.762 121.119 437.068 119.284C441.108 117.449 443.312 118.55 444.781 122.587C445.148 123.688 445.515 124.79 446.25 126.258C448.454 124.79 448.454 122.954 448.086 121.486C446.617 115.247 442.21 111.577 436.701 108.273C437.802 108.273 438.537 108.273 438.904 107.906C439.639 107.539 440.373 107.172 441.108 106.805C440.741 106.071 440.373 104.97 439.639 104.603C438.904 104.236 437.802 103.869 436.701 103.869C434.864 104.236 433.395 104.97 431.559 105.704C425.682 108.273 420.907 112.678 415.765 117.082C414.664 117.816 413.562 118.55 412.46 118.917C407.685 120.752 403.645 119.284 399.972 116.715C399.972 117.449 400.34 117.082 400.34 117.082ZM283.176 199.663C283.176 200.397 283.543 201.132 283.176 201.499C282.441 202.6 281.34 203.334 280.238 204.435C275.83 209.573 271.056 214.345 267.015 219.483C261.506 226.823 260.404 240.037 264.077 247.744C270.688 231.595 278.769 221.685 288.318 219.116C285.747 223.153 282.809 226.823 280.605 230.494C278.034 234.531 276.198 238.568 275.83 243.34C285.747 233.797 298.602 229.76 310.722 224.621C302.642 230.861 294.562 236.366 289.052 245.175C292.358 244.074 295.664 242.973 298.969 241.872C307.784 238.568 315.864 234.164 323.21 228.292C329.086 223.52 335.33 219.116 342.676 216.18C343.043 216.18 343.41 215.446 344.145 215.079C332.392 209.206 320.639 203.701 307.049 201.866C308.886 201.131 311.09 200.764 312.926 200.03C312.926 199.663 312.926 199.663 312.926 199.296C310.722 198.562 308.519 196.727 306.315 196.727C298.235 196.727 290.522 197.461 283.176 199.663C278.401 200.397 273.994 201.499 269.219 202.233C260.037 202.967 255.262 209.573 249.753 215.446C253.426 213.977 255.997 210.674 259.67 209.573C251.957 218.015 242.04 224.621 236.531 234.898C240.204 231.595 243.877 227.925 247.549 224.621C247.917 224.621 248.284 224.988 248.651 224.988C248.651 228.659 248.284 232.329 248.651 235.632C249.019 239.302 249.753 242.606 250.488 246.276C251.222 249.579 252.324 252.883 253.426 256.186C248.284 239.669 264.444 208.472 283.176 199.663ZM474.531 296.559C486.284 292.522 507.954 275.638 513.83 265.729C512.728 264.627 511.994 263.159 510.892 262.058C506.117 258.388 501.71 254.351 496.935 251.047C489.59 245.909 481.509 243.34 473.429 240.404C471.96 240.037 470.858 239.302 469.389 238.935C469.389 238.568 469.756 238.568 469.756 238.201C485.182 240.404 500.241 242.973 512.361 254.718C512.361 253.617 511.994 252.883 511.627 252.516C504.281 238.568 492.895 229.393 478.204 224.254C464.247 219.483 449.556 219.483 435.232 219.85C433.395 219.85 430.824 220.951 429.355 222.419C424.58 227.191 420.173 231.962 415.398 237.1C414.664 237.834 414.296 238.568 413.562 240.037C419.438 239.669 424.213 237.1 430.457 238.201C428.253 239.302 426.784 239.669 425.682 240.404C422.744 241.872 419.438 242.973 416.5 244.441C411.358 247.01 410.991 249.579 413.562 255.085C419.806 254.718 426.417 254.351 432.661 253.984C430.824 255.452 428.62 256.186 426.784 256.92C423.111 258.388 419.438 260.223 415.765 262.058C413.194 263.526 412.827 265.729 413.194 267.931C413.929 270.5 416.133 269.766 417.602 270.133C422.009 270.867 426.417 271.234 431.191 271.968C434.497 272.702 438.17 273.436 441.475 274.17C441.475 274.537 441.475 274.904 441.475 275.271C433.395 274.904 425.315 274.904 416.5 274.537C418.704 278.207 421.642 280.41 424.58 281.878C436.701 287.75 449.923 290.319 463.512 289.218C465.349 289.218 466.818 288.484 468.654 287.75C468.654 287.383 468.654 287.016 468.654 286.649C464.981 284.447 461.309 281.878 457.269 279.309C470.124 280.777 482.244 283.713 494.364 280.777C488.488 286.282 482.611 292.889 474.531 296.559ZM385.648 237.467C385.648 237.1 385.648 236.733 386.015 236.366C392.259 237.467 398.503 238.201 405.114 239.302C404.747 237.834 404.38 236.733 404.012 236.366C399.972 231.595 396.299 227.191 392.259 222.419C389.688 219.85 386.383 218.749 382.71 219.116C373.895 219.483 365.448 219.85 356.633 220.584C344.512 221.685 333.494 226.089 323.944 233.43C316.966 238.935 311.457 245.542 308.519 254.351C314.762 249.212 321.373 245.175 329.086 242.606C336.799 240.404 344.512 238.935 352.593 238.568C335.33 244.441 318.435 250.68 306.682 266.096C316.966 277.473 327.25 287.75 341.207 294.357C335.698 290.319 330.923 285.548 326.148 279.676C338.636 282.612 350.389 280.41 362.877 278.575C358.836 281.878 354.429 282.612 351.858 287.016C354.429 287.75 356.265 288.117 358.469 288.484C366.917 289.218 375.364 287.75 383.444 285.548C388.219 284.08 392.994 281.878 397.401 279.676C399.605 278.574 401.074 276.739 402.911 274.904C399.972 274.17 397.034 274.17 394.463 274.17C391.525 274.17 388.586 274.537 386.015 274.17C383.444 274.17 380.873 274.904 378.302 272.702C387.117 271.234 396.299 269.766 404.747 268.298C405.481 263.893 404.38 261.324 401.074 260.223C396.299 258.021 391.157 256.186 386.383 254.351C385.648 253.984 385.281 253.984 384.546 253.617C387.485 252.883 390.056 252.883 392.627 252.883C395.932 253.25 399.238 253.617 402.543 253.984C404.747 254.351 405.482 253.25 405.849 251.047C406.216 248.111 405.481 245.542 402.543 244.074C398.503 242.239 394.83 240.404 390.79 238.935C388.954 238.568 387.117 237.834 385.648 237.467ZM563.781 402.63C560.843 399.327 557.904 396.391 556.068 393.454C549.457 384.279 548.722 374.002 551.293 362.991C552.762 357.853 554.599 352.714 556.068 347.209C547.253 345.741 539.907 342.437 533.296 336.565C531.827 339.501 530.358 341.703 528.889 344.273C523.012 355.284 514.565 364.092 502.812 368.864C500.608 369.965 500.241 371.066 500.241 373.268C500.241 382.444 500.241 391.619 500.241 400.795C500.241 401.896 500.608 402.997 501.343 404.098C504.281 409.971 507.219 415.476 510.157 421.349C510.525 422.45 511.259 423.184 511.627 424.652C512.728 423.551 513.83 422.817 514.565 422.083C521.543 416.577 528.522 416.21 535.867 421.716C536.969 422.45 538.438 423.551 539.54 423.551C545.784 423.184 552.028 423.551 555.701 416.21C557.904 411.072 561.21 406.3 563.781 402.63ZM265.546 401.529C268.485 407.402 270.688 412.907 273.994 418.045C276.932 423.184 282.809 424.285 287.583 421.349C295.664 416.21 301.54 416.577 309.253 422.45C310.355 423.184 311.457 423.918 312.559 424.652C313.293 424.285 313.661 423.918 313.661 423.551C316.599 416.21 321.741 409.971 326.515 403.731C327.25 402.63 327.617 401.529 327.617 400.061C327.617 391.252 327.25 382.811 327.617 374.002C327.617 371.066 326.883 369.598 323.944 368.497C310.355 362.624 300.438 353.081 294.929 339.501C294.562 338.767 294.194 337.666 293.827 337.666C286.849 340.969 280.238 344.273 273.259 347.576C274.728 351.98 276.198 356.385 277.299 360.789C278.769 365.927 279.503 371.066 279.136 376.571C278.034 386.481 274.728 395.29 265.546 401.529ZM477.102 215.446C487.019 219.483 494.732 226.456 503.179 232.696C511.627 238.935 521.543 241.872 530.725 245.909C525.216 238.568 517.87 233.43 510.892 227.925C521.543 232.329 533.296 235.265 542.111 243.707C539.54 234.531 534.398 227.191 528.522 219.85C531.46 220.951 533.664 222.052 536.235 223.52C545.784 229.026 552.762 237.1 558.272 246.643C558.639 244.074 558.639 241.872 558.639 239.669C559.006 230.861 556.435 223.52 550.559 216.914C546.519 212.509 542.111 208.105 538.071 203.701C537.336 202.967 536.969 202.233 536.235 201.499C547.988 205.903 554.232 215.813 560.475 225.722C566.719 235.632 570.759 246.276 570.025 258.388C571.494 248.478 573.33 238.568 573.33 228.292C572.963 220.584 569.657 214.345 563.414 209.94C562.679 209.206 561.944 208.472 560.843 208.105C564.883 208.472 568.556 210.307 571.127 212.876C574.799 216.547 576.636 221.318 578.105 226.089C580.309 234.164 582.145 242.239 581.778 251.414C585.818 241.138 585.451 231.962 580.676 222.786C581.043 222.786 581.043 222.419 581.411 222.419C586.185 226.823 590.96 231.228 595.735 235.265C595.367 233.43 594.266 231.962 593.531 230.861C586.553 220.584 577.003 213.61 567.086 206.27C565.617 205.169 563.414 204.802 561.577 204.435C551.293 202.233 540.642 200.397 530.358 198.195C525.216 197.094 520.074 196.36 514.932 197.094C512.728 197.461 510.892 197.828 509.79 200.03C512.728 200.764 515.299 201.499 517.87 202.233C503.546 203.701 490.324 209.206 477.102 215.446ZM385.281 176.174C402.176 172.503 419.438 171.769 435.966 175.072C434.13 180.211 432.293 184.982 430.09 190.121C438.17 188.285 441.843 183.881 441.843 176.541C441.843 175.072 441.843 173.971 441.843 172.503C441.108 166.264 439.639 160.758 434.497 156.354C432.661 157.455 431.191 158.189 429.722 158.923C430.09 157.455 430.457 156.721 431.191 155.987C437.068 148.279 435.966 148.279 431.559 142.407C431.191 142.04 431.191 141.673 431.191 141.306C430.09 140.572 428.988 139.104 427.519 138.737C422.744 136.901 418.336 136.901 413.562 138.737C411.358 139.471 408.052 139.838 406.216 138.737C400.707 135.8 395.565 136.901 390.79 139.471C384.914 142.774 383.812 150.115 388.219 154.886C389.321 155.987 390.056 157.088 390.79 158.189C389.688 158.189 388.954 157.822 388.586 157.088C386.383 155.253 385.648 155.253 383.812 157.455C380.506 161.125 378.302 165.163 378.67 169.934C378.67 172.136 378.67 174.705 379.037 176.908C379.404 183.147 384.179 187.918 390.79 188.653C390.056 186.817 389.321 185.349 388.954 183.881C388.586 182.046 388.219 180.578 387.485 179.11C389.688 178.009 391.157 176.908 392.627 175.807C392.627 175.439 392.259 175.439 392.259 175.072C390.056 176.174 387.485 176.174 385.281 176.174ZM467.92 173.604C470.491 178.009 472.694 182.413 475.265 186.45C476.735 188.653 478.571 189.754 481.509 190.121C487.019 190.488 492.895 190.855 498.404 191.956C504.281 193.057 505.015 194.158 502.444 199.663C502.444 199.663 502.444 200.03 502.812 200.764C507.586 199.663 511.259 195.993 516.034 194.158C515.299 192.323 514.932 190.488 513.83 189.02C511.627 185.716 509.056 182.413 506.485 179.11C499.139 171.402 490.691 165.163 481.509 159.657C474.164 155.253 466.451 150.482 458.37 145.343C460.941 150.849 462.411 155.62 466.451 159.657C465.349 160.024 464.614 160.024 463.88 160.391C465.349 165.897 464.614 171.035 462.41 175.807C466.083 177.642 466.818 175.072 467.92 173.604ZM359.938 147.912C359.571 147.545 359.204 147.545 358.836 147.178C358.102 147.545 357.367 147.912 357 148.279C347.451 154.519 337.901 160.758 328.719 167.365C321.006 172.87 314.395 179.11 308.886 186.817C307.417 188.653 306.315 191.222 305.213 193.791C310.355 196.36 313.661 200.03 319.537 201.131C319.17 200.03 319.17 199.663 319.17 199.296C316.966 194.158 317.333 193.424 322.843 192.323C328.352 191.589 333.861 190.855 339.37 190.121C341.941 189.754 344.145 189.02 345.247 186.45C347.818 182.046 350.389 178.009 353.327 173.604C354.429 175.072 355.164 177.275 358.102 175.439C354.796 170.668 355.531 165.53 356.265 160.391C355.164 160.391 354.062 160.391 352.96 160.391C354.796 158.923 355.898 157.822 357.367 156.354C356.633 156.354 356.265 156.354 355.531 156.354C356.633 153.785 358.469 150.849 359.938 147.912ZM452.494 317.847C445.515 310.873 437.068 307.203 427.519 305.368C424.58 305.001 421.275 305.001 418.336 305.368C415.031 305.735 412.827 307.937 412.46 311.24C411.358 318.948 413.194 325.187 420.173 329.224C422.744 330.693 425.315 332.161 428.253 332.895C435.231 335.097 442.21 336.198 449.556 335.831C451.759 335.831 453.963 335.097 455.799 334.363C458.37 333.262 460.574 331.427 460.574 328.49C460.574 325.187 458.738 322.251 455.432 320.783C454.698 320.416 453.596 320.049 452.861 320.049C446.985 318.214 441.108 316.378 435.599 314.543C434.864 314.176 433.762 313.809 433.028 313.442C433.028 313.075 433.028 313.075 433.395 312.708C436.701 313.442 440.006 314.176 442.944 314.91C446.25 315.644 449.188 316.745 452.494 317.847ZM385.281 312.341C385.281 312.708 385.648 313.075 385.648 313.442C384.914 313.809 383.812 314.176 383.077 314.543C377.935 316.378 372.426 317.847 367.284 320.049C365.08 320.783 362.877 322.251 361.775 323.719C358.836 327.389 359.571 331.427 363.978 333.629C365.815 334.73 368.386 335.464 370.59 335.464C379.037 336.198 387.117 334.73 394.83 331.427C404.38 327.389 406.951 322.618 406.583 312.341C406.583 307.203 405.114 305.735 400.34 304.634C398.503 304.267 396.299 303.9 394.096 304.267C388.219 306.102 382.343 307.57 376.466 310.139C373.161 311.607 370.222 314.176 366.917 316.378C366.917 316.745 367.284 316.745 367.284 317.113C373.161 316.011 379.037 314.176 385.281 312.341ZM370.957 212.509C363.611 201.499 359.938 190.488 357 178.376C351.858 184.248 348.185 190.121 346.716 197.094C345.982 200.397 345.981 203.701 345.981 207.004C345.981 210.307 348.185 212.142 351.123 212.142C350.389 209.94 349.654 208.105 348.92 205.903C349.287 205.536 349.654 205.536 350.022 205.169C351.491 207.004 352.96 208.472 354.796 210.307C355.531 211.041 357 212.142 358.102 212.142C361.775 212.509 366.182 212.509 370.957 212.509ZM468.654 212.509C472.694 211.408 474.164 208.839 474.164 205.536C474.898 194.892 470.123 186.45 463.145 178.009C461.309 190.855 456.167 201.131 449.556 212.142C453.963 212.142 458.003 213.243 461.309 212.142C464.981 211.041 467.553 207.738 471.225 205.169C470.491 207.738 469.756 209.94 468.654 212.509ZM445.883 430.891C453.228 426.12 460.574 421.349 467.92 416.577C470.491 414.742 472.327 412.907 474.898 410.705C481.509 404.832 481.877 397.492 481.142 389.417C478.938 391.252 477.102 393.454 474.531 394.556C469.756 396.758 467.185 400.061 464.614 404.465C458.738 413.641 452.861 422.45 445.883 430.891ZM404.38 353.815C405.114 346.108 402.176 343.172 395.565 343.539C385.648 343.906 376.466 347.943 367.284 350.879C366.917 350.879 366.917 351.246 366.917 351.613C368.386 356.752 369.855 357.853 374.997 357.853C376.833 357.853 378.67 357.486 380.873 357.486C385.648 356.752 390.423 356.385 395.565 355.651C398.136 354.549 401.441 354.182 404.38 353.815ZM453.596 350.512C452.861 350.145 452.127 349.778 451.759 349.778C446.25 348.31 440.741 346.475 435.232 345.374C431.191 344.273 427.151 343.906 423.111 343.539C418.704 343.172 416.867 344.64 415.765 348.677C414.296 352.714 415.031 353.815 419.438 354.549C426.049 355.651 433.028 356.385 439.639 357.119C441.843 357.486 444.414 357.853 446.617 357.486C450.29 357.119 452.494 355.283 453.596 350.512ZM340.84 389.417C339.37 399.327 342.309 407.769 350.389 413.641C358.102 419.146 365.815 424.652 373.528 430.157C373.895 430.524 374.262 430.524 374.63 430.524C372.059 427.588 369.488 425.019 367.651 421.716C363.611 415.843 359.938 409.604 356.633 403.731C354.429 400.061 351.858 396.758 347.818 394.556C345.614 393.454 343.411 391.252 340.84 389.417ZM417.602 393.087C428.988 393.454 444.046 385.747 445.883 378.406C437.802 378.406 429.722 378.406 421.642 378.406C419.438 378.406 416.867 379.507 414.664 380.608C411.725 382.077 411.358 384.279 413.194 386.848C415.031 389.417 416.133 391.252 417.602 393.087ZM374.262 377.672C373.895 378.039 373.895 378.406 373.528 378.773C374.262 379.874 374.997 380.608 375.732 381.71C380.873 386.848 387.117 390.885 394.463 392.72C400.34 394.189 400.34 394.189 403.278 389.417C406.583 384.279 406.216 382.444 400.707 379.874C399.605 379.14 398.136 378.773 396.667 378.773C389.688 378.406 381.975 378.039 374.262 377.672ZM464.981 375.103C470.491 374.369 477.102 371.433 482.244 367.762C485.917 365.193 487.386 361.89 487.753 357.853C488.12 350.512 487.019 349.778 480.407 352.347C475.633 354.182 472.694 356.752 471.593 362.257C470.858 365.56 468.654 368.497 467.185 371.8C466.451 372.901 465.716 374.002 464.981 375.103ZM354.796 375.47C352.593 371.066 350.022 367.028 348.92 362.624C347.451 355.284 341.941 353.448 336.065 351.246C334.596 350.879 333.861 351.246 333.494 352.714C332.025 356.752 333.861 364.092 337.167 367.028C342.309 371.066 348.185 373.268 354.796 375.47ZM655.602 353.815C655.602 353.815 655.969 353.815 655.969 353.448C655.602 351.98 655.235 350.512 654.5 349.411C652.296 344.64 650.093 340.235 647.889 335.464C646.052 331.427 645.685 331.427 640.911 332.161C639.809 341.703 644.951 349.044 649.358 356.752C651.929 354.182 651.194 351.613 650.827 348.31C653.031 350.512 654.133 352.347 655.602 353.815ZM186.213 357.486C191.355 349.778 195.762 342.07 195.028 332.161C192.824 332.161 190.62 331.06 189.151 333.629C186.58 338.767 184.009 343.906 181.438 349.044C180.704 350.512 180.336 352.347 179.602 354.182C179.969 354.182 179.969 354.182 180.336 354.549C181.806 351.98 183.642 349.778 185.111 347.209C185.478 350.512 182.54 353.815 186.213 357.486ZM556.068 490.717C557.537 487.781 555.701 486.68 553.864 485.946C551.661 485.212 549.09 484.845 546.886 484.11C544.315 483.009 542.111 483.743 539.907 485.579C535.5 489.616 535.5 491.818 540.275 495.121C543.213 496.956 545.049 496.957 547.253 494.02C548.722 492.185 549.457 489.983 550.926 487.781C552.395 488.515 553.864 489.616 556.068 490.717ZM269.586 487.781C270.321 488.882 271.056 489.983 271.79 491.084C275.096 497.691 277.667 497.691 282.809 492.552C283.176 492.185 283.543 491.451 283.911 490.717C283.176 489.249 282.441 487.781 281.34 486.68C279.87 485.212 278.034 483.376 276.565 483.376C272.892 483.743 269.219 484.845 265.914 485.946C264.077 486.68 264.077 488.148 265.914 489.983C266.648 489.616 268.117 488.882 269.586 487.781ZM495.099 329.224C489.222 335.831 481.142 338.767 473.429 342.805C480.775 348.677 491.059 342.07 495.099 329.224ZM377.201 139.838C381.241 142.04 382.343 141.673 384.914 139.104C383.812 138.737 383.077 138.37 381.608 137.636C383.444 136.901 384.914 136.534 386.75 135.8C381.975 134.332 377.935 132.864 373.528 131.763C371.691 131.029 370.59 132.13 370.222 133.965C369.488 137.636 371.324 140.572 375.364 142.407C376.466 141.673 376.833 140.572 377.201 139.838ZM325.046 329.959C326.515 334.363 328.352 338.033 331.657 340.602C334.963 343.172 338.636 345.374 343.043 345.007C344.145 345.007 345.247 344.273 346.349 343.906C346.349 343.539 346.349 343.172 346.349 342.805C342.676 340.969 339.37 339.501 335.698 337.299C332.025 335.464 328.719 332.895 325.046 329.959ZM434.864 139.104C434.864 139.471 435.232 139.838 435.232 140.205C435.966 140.205 436.701 140.572 437.802 140.572C438.537 140.572 439.639 139.838 440.373 139.471C440.741 140.939 441.475 141.673 441.843 142.774C446.985 141.306 449.188 135.8 446.617 132.13C441.475 133.231 436.701 134.699 431.559 135.8C431.559 136.167 431.559 136.534 431.559 136.534C433.395 136.902 434.864 137.269 436.701 137.636C435.966 138.003 435.232 138.737 434.864 139.104ZM562.312 477.871C559.006 471.999 550.191 470.53 546.519 474.935C551.661 477.137 557.17 474.568 562.312 477.871ZM454.33 114.146C459.84 114.88 460.941 118.55 461.309 122.587C461.676 126.625 461.309 130.662 456.901 132.497C456.901 133.965 456.901 135.066 457.269 136.534C464.614 131.029 463.88 116.715 456.534 112.311C455.799 112.678 455.432 113.412 454.33 114.146ZM259.302 477.137C264.077 476.403 268.485 475.669 273.259 475.302C268.852 470.897 261.873 472.366 259.302 477.137ZM362.142 131.396C359.204 133.965 358.469 132.13 357.367 130.662C355.164 126.625 355.164 122.22 356.265 118.183C353.327 126.258 355.531 135.066 361.407 137.269C361.407 135.433 361.775 133.965 362.142 131.396Z" fill="black"/>
<path d="M546.519 438.599C539.173 442.269 535.5 448.876 532.929 456.584C530.725 454.014 531.827 451.812 532.562 449.61C535.5 443.738 540.275 440.434 546.519 438.599Z" fill="black"/>
<path d="M276.198 438.966C283.543 440.067 289.42 449.61 286.481 455.849C283.91 449.61 282.441 443.003 276.198 438.966Z" fill="black"/>
<path d="M578.105 390.885C578.472 386.481 578.84 381.71 579.574 377.305C582.512 379.507 582.512 384.279 578.105 390.885Z" fill="black"/>
<path d="M508.321 265.361C498.404 261.691 488.488 258.388 478.204 254.717C477.836 254.717 477.469 254.35 477.469 253.983C488.855 255.084 499.506 257.287 508.688 264.627C508.688 264.627 508.688 264.994 508.321 265.361Z" fill="black"/>
<path d="M347.451 253.984C335.698 257.287 323.944 260.59 312.559 263.893C315.864 259.489 336.065 253.25 347.451 253.984Z" fill="black"/>
<path d="M286.114 212.876C290.522 209.94 295.664 208.105 300.806 207.004C300.806 207.371 301.173 207.371 301.173 207.738C296.398 209.573 291.623 211.775 286.849 213.61C286.481 213.243 286.481 213.243 286.114 212.876Z" fill="black"/>
<path d="M379.772 169.934C386.383 168.833 392.994 167.732 399.238 166.998C408.787 165.53 418.704 166.631 428.253 168.099C431.926 168.833 435.599 168.833 439.272 169.2C438.904 171.035 438.904 171.035 436.701 171.035C433.762 171.035 431.191 170.668 428.253 170.301C415.031 168.466 401.809 168.466 388.586 171.402C386.75 171.769 384.914 171.769 383.077 171.402C381.975 171.402 380.873 170.301 379.772 169.934Z" fill="black"/>
<path d="M408.052 150.482C404.747 148.646 401.441 147.178 398.136 144.976C396.667 144.242 396.299 142.407 397.401 140.939C398.503 139.104 399.972 139.471 401.441 140.572C404.012 142.407 406.216 144.609 408.42 146.444C409.154 147.178 408.787 148.279 409.154 149.381C408.787 150.115 408.42 150.115 408.052 150.482Z" fill="black"/>
<path d="M422.744 143.141C422.377 143.508 422.009 144.976 420.907 145.343C418.704 146.811 416.5 148.279 413.929 149.747C413.194 150.115 412.093 150.115 411.725 149.747C411.358 149.38 411.358 148.279 411.358 147.178C411.358 146.444 411.725 146.077 412.46 145.71C414.664 144.242 416.867 142.407 419.071 140.939C420.54 139.838 422.377 140.939 422.744 143.141Z" fill="black"/>
<path d="M427.151 143.508C428.988 144.976 428.62 146.444 427.519 148.279C425.315 151.582 420.54 152.684 416.133 150.848C419.806 148.646 423.111 146.444 427.151 143.508Z" fill="black"/>
<path d="M392.259 143.875C396.299 146.444 399.605 148.646 403.645 151.216C400.707 152.684 395.197 151.95 392.994 149.747C391.157 147.912 391.157 146.444 392.259 143.875Z" fill="black"/>
<path d="M454.698 325.921C454.698 330.326 454.33 331.06 451.025 331.794C448.086 332.528 445.148 332.528 441.843 332.528C446.25 329.959 451.392 330.326 454.698 325.921Z" fill="black"/>
<path d="M379.037 332.161C369.855 332.895 365.815 331.427 365.448 327.022C369.488 328.491 373.895 330.326 379.037 332.161Z" fill="black"/>
<path d="M399.972 117.449C396.299 115.614 392.259 113.779 387.852 111.576C391.525 111.209 395.932 113.411 400.34 117.082L399.972 117.449Z" fill="black"/>
</g>
</svg>
