<svg width="422" height="317" viewBox="0 0 422 317" fill="none" xmlns="http://www.w3.org/2000/svg">
<path d="M0.0923767 121.64V274.578C0.0923767 297.694 94.4154 316.442 210.7 316.442C326.985 316.442 421.308 297.694 421.308 274.578V121.64H0.0923767Z" fill="url(#paint0_linear_35_465)"/>
<path d="M210.7 161.531C327.016 161.531 421.308 143.229 421.308 120.653C421.308 98.0773 327.016 79.7759 210.7 79.7759C94.3847 79.7759 0.0923767 98.0773 0.0923767 120.653C0.0923767 143.229 94.3847 161.531 210.7 161.531Z" fill="#F6F7F7"/>
<path d="M418.352 119.385C418.352 139.541 325.436 155.751 210.841 155.751C96.2455 155.751 3.18951 139.541 3.18951 119.385C3.18951 99.2279 96.1047 77.3796 210.7 77.3796C325.296 77.3796 418.352 99.3688 418.352 119.385Z" fill="#BD5143"/>
<path d="M209.996 154.906C307.651 154.906 386.817 138.498 386.817 118.257C386.817 98.0166 307.651 81.6084 209.996 81.6084C112.341 81.6084 33.1758 98.0166 33.1758 118.257C33.1758 138.498 112.341 154.906 209.996 154.906Z" fill="#BF6C66"/>
<path d="M33.1758 28.4678V116.425C33.1758 131.789 112.294 144.193 209.996 144.193C307.698 144.193 386.817 131.789 386.817 116.425V28.4678H33.1758Z" fill="url(#paint1_linear_35_465)"/>
<path d="M209.996 56.2363C307.651 56.2363 386.817 43.8039 386.817 28.4679C386.817 13.1318 307.651 0.699463 209.996 0.699463C112.341 0.699463 33.1758 13.1318 33.1758 28.4679C33.1758 43.8039 112.341 56.2363 209.996 56.2363Z" fill="#F6F7F7"/>
<defs>
<linearGradient id="paint0_linear_35_465" x1="0.0599972" y1="219.012" x2="421.382" y2="219.012" gradientUnits="userSpaceOnUse">
<stop stop-color="#BFBEBF"/>
<stop offset="0.1285" stop-color="#D0D1D2"/>
<stop offset="0.4888" stop-color="#F3F3F3"/>
<stop offset="0.86" stop-color="#E0E1E0"/>
<stop offset="1" stop-color="#CBCBCB"/>
</linearGradient>
<linearGradient id="paint1_linear_35_465" x1="33.1872" y1="86.3306" x2="386.876" y2="86.3306" gradientUnits="userSpaceOnUse">
<stop stop-color="#BFBEBF"/>
<stop offset="0.1285" stop-color="#D0D1D2"/>
<stop offset="0.4888" stop-color="#F3F3F3"/>
<stop offset="0.8994" stop-color="#E0E1E0"/>
<stop offset="1" stop-color="#CBCBCB"/>
</linearGradient>
</defs>
</svg>
