<svg width="454" height="341" viewBox="0 0 454 341" fill="none" xmlns="http://www.w3.org/2000/svg">
<path d="M0 130.813V295.48C0 320.37 101.537 340.555 226.715 340.555C351.894 340.555 453.431 320.37 453.431 295.48V130.813H0Z" fill="url(#paint0_linear_19_550)"/>
<path d="M226.715 173.763C351.927 173.763 453.431 154.058 453.431 129.751C453.431 105.443 351.927 85.738 226.715 85.738C101.504 85.738 0 105.443 0 129.751C0 154.058 101.504 173.763 226.715 173.763Z" fill="#F6F7F7"/>
<path d="M450.248 128.385C450.248 150.087 350.227 167.541 226.867 167.541C103.507 167.541 3.33405 150.087 3.33405 128.385C3.33405 106.682 103.356 83.158 226.715 83.158C350.075 83.158 450.248 106.834 450.248 128.385Z" fill="#BD5143"/>
<path d="M225.958 166.63C331.082 166.63 416.302 148.963 416.302 127.17C416.302 105.378 331.082 87.711 225.958 87.711C120.834 87.711 35.6137 105.378 35.6137 127.17C35.6137 148.963 120.834 166.63 225.958 166.63Z" fill="#BF6C66"/>
<path d="M35.6137 30.4948V125.198C35.6137 141.74 120.784 155.096 225.958 155.096C331.132 155.096 416.302 141.74 416.302 125.198V30.4948H35.6137Z" fill="url(#paint1_linear_19_550)"/>
<path d="M225.958 60.3929C331.082 60.3929 416.302 47.0071 416.302 30.4948C416.302 13.9825 331.082 0.59668 225.958 0.59668C120.834 0.59668 35.6137 13.9825 35.6137 30.4948C35.6137 47.0071 120.834 60.3929 225.958 60.3929Z" fill="#F6F7F7"/>
<defs>
<linearGradient id="paint0_linear_19_550" x1="-0.034856" y1="235.653" x2="453.511" y2="235.653" gradientUnits="userSpaceOnUse">
<stop stop-color="#BFBEBF"/>
<stop offset="0.1285" stop-color="#D0D1D2"/>
<stop offset="0.4888" stop-color="#F3F3F3"/>
<stop offset="0.86" stop-color="#E0E1E0"/>
<stop offset="1" stop-color="#CBCBCB"/>
</linearGradient>
<linearGradient id="paint1_linear_19_550" x1="35.626" y1="92.7955" x2="416.366" y2="92.7955" gradientUnits="userSpaceOnUse">
<stop stop-color="#BFBEBF"/>
<stop offset="0.1285" stop-color="#D0D1D2"/>
<stop offset="0.4888" stop-color="#F3F3F3"/>
<stop offset="0.8994" stop-color="#E0E1E0"/>
<stop offset="1" stop-color="#CBCBCB"/>
</linearGradient>
</defs>
</svg>
