<svg width="925" height="600" viewBox="0 0 925 600" fill="none" xmlns="http://www.w3.org/2000/svg">
<g opacity="0.1">
<path d="M324.527 240.57C319.643 241.384 315.166 242.605 310.282 243.012C300.921 243.826 296.037 250.746 289.932 256.445C293.595 254.817 296.444 251.56 300.107 250.339C292.374 259.294 281.792 265.807 276.094 276.798C279.757 273.134 283.827 269.471 287.49 266.214C287.897 266.214 288.304 266.621 288.711 266.621C288.711 270.285 288.304 273.948 288.711 277.612C289.118 281.275 289.932 284.939 290.746 288.602C291.56 292.266 292.781 295.522 293.595 298.779C288.711 282.497 305.398 249.932 324.527 240.57Z" fill="white"/>
<path d="M349.761 243.012C351.796 242.198 353.831 241.791 355.866 240.977C355.866 240.57 355.866 240.57 355.866 240.163C353.424 239.349 351.389 237.72 348.947 237.313C340.807 236.906 332.667 237.72 324.934 240.163C324.934 240.977 325.341 241.791 324.934 242.198C324.12 243.419 322.899 244.233 321.678 245.454C317.201 250.746 311.91 255.631 307.84 261.33C302.142 269.064 300.921 282.904 304.991 290.638C311.91 273.948 320.457 263.772 330.225 260.923C327.376 264.993 324.527 269.064 322.085 273.134C319.643 277.205 317.608 281.682 316.794 286.567C327.376 276.798 340.807 272.727 353.424 267.028C345.284 273.541 336.33 279.24 330.632 288.602C334.295 287.788 337.551 286.16 340.807 284.939C350.168 281.682 358.308 277.205 366.041 270.692C372.146 265.807 378.658 260.923 386.391 258.073C386.798 257.666 387.205 257.259 388.019 256.852C375.809 250.746 363.599 244.64 349.761 243.012ZM328.597 254.817C328.597 254.41 328.19 254.41 328.19 254.003C332.667 251.153 337.958 249.118 343.249 247.897C343.249 248.304 343.656 248.304 343.656 248.711C338.772 251.153 333.481 253.189 328.597 254.817Z" fill="white"/>
<path d="M362.378 239.756C359.936 234.464 360.75 233.65 366.041 232.429C371.739 231.615 377.437 230.801 383.135 230.393C385.984 229.986 388.019 229.172 389.24 226.73C392.089 222.252 394.531 217.775 397.38 213.297C398.601 214.925 399.415 216.961 402.264 215.332C399.008 210.448 399.822 205.156 400.229 199.864C399.008 199.864 398.194 199.864 396.566 199.864C398.194 198.236 399.822 197.015 401.45 195.794C400.636 195.794 400.229 195.794 399.822 195.794C401.45 192.944 403.078 189.688 404.706 186.839C404.299 186.431 403.892 186.431 403.892 186.024C403.078 186.431 402.264 186.839 401.857 187.246C392.089 193.758 381.914 200.271 372.553 207.191C364.413 212.89 357.494 219.403 351.796 227.544C350.168 229.579 349.354 232.022 347.726 234.871C353.017 237.313 356.68 241.384 362.378 242.605C362.378 240.977 362.378 240.163 362.378 239.756Z" fill="white"/>
<path d="M367.262 417.232C353.017 411.126 342.842 401.357 336.737 387.11C336.33 386.296 335.923 385.482 335.516 385.075C328.19 388.738 321.271 391.995 314.352 395.658C315.98 400.136 317.201 404.613 318.829 409.498C320.457 414.79 321.271 420.081 320.864 425.78C319.643 435.957 316.387 445.319 307.026 451.832C309.875 457.938 312.724 463.636 315.573 469.335C318.422 474.627 324.934 475.848 329.818 472.592C338.365 467.3 344.47 467.707 352.203 473.813C353.424 474.627 354.645 475.441 355.866 476.255C356.273 475.848 357.087 475.441 357.087 475.441C360.343 467.707 365.634 461.194 370.518 454.681C371.332 453.867 371.739 452.239 371.739 451.018C371.739 442.063 371.332 433.107 371.739 423.745C371.332 420.081 370.111 418.453 367.262 417.232Z" fill="white"/>
<path d="M448.255 428.63C447.034 428.222 445.406 427.408 444.185 427.408C436.452 427.001 428.312 426.594 420.579 426.594C420.579 427.001 420.172 427.408 420.172 427.815C420.986 428.629 421.8 429.851 422.614 430.665C428.312 436.364 434.417 440.027 442.15 442.062C448.255 443.691 448.255 443.691 451.511 438.399C454.36 433.107 453.953 431.072 448.255 428.63Z" fill="white"/>
<path d="M406.74 175.034C407.147 173.405 407.147 171.777 407.554 168.928C404.706 171.37 403.485 169.742 402.671 168.114C400.636 164.043 400.636 159.566 401.45 155.088C398.194 163.636 400.229 172.591 406.74 175.034Z" fill="white"/>
<path d="M446.627 350.475C444.592 350.068 442.15 349.66 440.115 350.068C434.01 351.696 427.905 353.731 421.8 356.173C418.137 357.802 415.288 360.651 412.032 362.686C412.032 363.093 412.439 363.093 412.439 363.5C418.544 361.872 425.056 359.837 431.161 358.209C431.161 358.616 431.568 359.023 431.568 359.023C430.754 359.43 429.94 359.837 428.719 360.244C423.428 362.279 417.73 363.907 412.439 365.943C410.404 366.757 407.962 367.978 406.334 370.013C403.078 373.677 404.299 378.154 408.369 380.597C410.404 381.818 412.846 382.632 415.288 382.632C423.835 383.446 432.382 381.818 440.522 378.561C450.29 374.491 453.139 369.606 452.732 359.023C453.139 353.324 451.918 351.696 446.627 350.475ZM410.811 373.27C415.288 374.898 419.765 376.526 425.056 378.561C415.288 379.783 411.218 377.747 410.811 373.27Z" fill="white"/>
<path d="M401.857 453.867C399.415 449.796 396.973 446.54 392.903 444.504C390.461 442.876 388.019 440.841 385.577 438.806C383.949 448.982 386.798 457.937 395.752 464.043C403.892 470.149 412.032 475.441 420.172 481.547C420.579 481.954 420.986 481.954 421.393 481.954C418.951 478.697 416.102 476.255 414.067 472.998C409.59 466.485 405.52 459.973 401.857 453.867Z" fill="white"/>
<path d="M390.461 391.18C390.461 390.773 390.461 390.366 390.461 389.959C386.798 387.924 383.135 386.296 379.472 384.26C375.809 382.225 372.553 379.376 368.483 376.526C369.704 381.411 372.146 385.075 375.402 387.924C378.658 390.773 382.728 392.809 387.205 392.402C388.426 392.402 389.24 391.587 390.461 391.18Z" fill="white"/>
<path d="M393.717 410.719C392.089 402.985 386.391 400.95 380.286 398.914C379.065 398.507 377.844 398.914 377.437 400.543C375.809 404.613 377.844 412.347 381.507 415.197C386.798 419.674 392.903 422.117 399.822 424.152C397.38 419.267 394.531 415.197 393.717 410.719Z" fill="white"/>
<path d="M420.579 405.427C422.614 405.427 424.649 405.02 426.684 405.02C431.568 404.206 436.859 403.799 441.743 402.985C444.999 402.578 448.255 402.171 451.511 401.764C452.325 393.623 449.476 390.773 442.15 390.773C431.568 391.18 422.207 395.251 412.846 398.508C412.439 398.508 412.439 398.915 412.439 398.915C413.66 403.799 415.288 405.427 420.579 405.427Z" fill="white"/>
<path d="M510.932 159.973C511.339 164.043 510.932 168.521 506.049 170.149C506.049 171.37 506.049 172.592 506.456 174.22C514.188 168.521 513.374 153.46 505.642 148.982C505.235 149.389 504.828 150.204 503.607 151.018C509.305 152.239 510.525 155.902 510.932 159.973Z" fill="white"/>
<path d="M516.631 199.05C515.41 199.457 515.003 199.457 514.189 199.457C515.817 205.156 515.003 210.448 512.561 215.333C516.224 216.961 517.038 214.111 518.259 212.89C520.701 217.368 523.143 221.845 525.585 226.323C527.213 228.765 529.248 229.987 532.097 229.987C537.795 230.394 543.9 230.801 549.598 232.022C555.703 233.243 556.517 234.464 553.668 240.163C553.668 240.163 553.668 240.57 554.075 241.384C558.959 240.57 562.622 236.499 567.913 234.464C567.099 232.429 566.692 230.394 565.878 229.172C563.436 225.509 560.994 222.252 558.145 218.996C550.819 210.855 541.865 204.342 532.097 198.643C524.364 194.166 516.631 189.281 508.084 183.989C510.526 190.095 512.154 194.98 516.631 199.05Z" fill="white"/>
<path d="M217.079 401.764C217.486 401.764 217.486 401.764 217.893 402.171C219.521 399.728 221.149 396.879 222.777 394.437C223.184 398.1 219.928 401.764 223.591 405.427C228.882 397.286 233.359 389.552 232.952 378.969C230.917 378.969 228.475 377.747 226.847 380.597C223.998 385.889 221.556 391.587 218.707 396.879C218.3 398.1 217.893 399.728 217.079 401.764Z" fill="white"/>
<path d="M391.275 237.313C390.461 240.57 390.461 244.233 390.461 247.897C390.461 251.56 392.496 253.188 395.752 253.595C394.938 251.56 394.124 249.118 393.717 247.083C394.124 247.083 394.531 246.676 394.531 246.676C396.159 248.304 397.787 250.339 399.415 251.967C400.229 252.781 401.45 254.003 402.671 254.003C406.741 254.41 411.218 254.003 416.509 254.003C408.776 242.605 405.113 230.8 401.857 218.182C396.973 224.287 392.903 230.393 391.275 237.313Z" fill="white"/>
<path d="M306.619 543.826C307.84 543.012 309.468 542.198 311.096 540.977C311.91 542.198 312.724 543.419 313.131 544.64C316.794 551.56 319.236 551.56 324.527 545.861C324.934 545.454 325.341 544.64 325.748 544.233C324.934 543.012 324.12 541.384 322.899 540.163C321.271 538.941 319.236 536.499 317.608 536.906C313.945 537.313 309.875 538.534 306.212 539.756C304.584 540.57 304.584 542.198 306.619 543.826Z" fill="white"/>
<path d="M300.107 529.987C304.991 529.172 309.875 528.765 314.759 527.951C310.282 523.474 302.956 525.102 300.107 529.987Z" fill="white"/>
<path d="M447.848 304.07C442.964 302.035 437.673 300 432.382 297.964C431.568 297.557 431.161 297.557 430.347 297.15C433.196 296.336 436.045 296.336 438.894 296.336C442.557 296.743 445.813 297.15 449.476 297.557C451.511 297.964 452.732 296.743 452.732 294.708C453.139 291.452 452.325 288.602 449.069 287.381C444.999 285.346 440.929 283.717 436.859 281.682C435.231 280.868 433.603 280.461 431.568 279.647C431.568 279.24 431.568 278.833 431.975 278.833C438.487 279.647 444.999 280.868 451.918 282.089C451.511 280.461 451.104 279.647 450.697 278.833C446.627 273.948 442.557 269.063 438.487 264.586C436.045 261.736 432.382 260.922 428.312 260.922C419.358 261.329 410.404 261.736 401.45 262.551C388.833 263.772 377.437 268.249 367.262 275.983C359.936 281.682 354.238 288.602 351.389 297.557C357.901 292.266 364.82 287.788 372.96 285.346C381.1 282.903 389.24 281.682 397.38 280.868C379.472 286.974 361.971 293.487 349.354 309.769C359.936 321.574 370.925 332.564 385.17 339.077C379.065 335.007 374.588 329.715 369.704 324.016C382.728 326.865 394.938 324.83 407.962 323.202C403.892 326.458 399.008 327.272 396.566 331.75C399.008 332.157 401.043 332.971 403.485 333.378C412.439 334.192 420.986 332.564 429.533 330.122C434.417 328.494 439.301 326.458 444.185 324.016C446.22 322.795 447.848 320.76 449.883 319.131C446.627 318.317 443.778 318.317 440.929 318.317C438.08 318.317 434.824 318.724 431.975 318.724C429.126 318.724 426.684 319.538 423.835 317.096C433.196 315.468 442.557 313.84 451.511 312.618C452.732 308.141 451.104 305.698 447.848 304.07ZM355.866 307.734C359.529 303.256 380.286 296.336 392.496 297.557C379.879 300.814 367.669 304.07 355.866 307.734Z" fill="white"/>
<path d="M511.34 253.596C515.003 252.374 517.852 249.118 521.515 246.269C520.701 248.711 519.887 250.746 518.666 253.596C522.736 252.374 524.364 249.525 524.364 246.269C525.178 235.278 520.294 226.323 512.968 217.368C510.933 230.393 505.642 241.791 498.723 252.782C503.607 253.596 507.677 254.817 511.34 253.596Z" fill="white"/>
<path d="M483.664 178.291C484.478 178.291 485.292 178.698 486.106 178.698C486.92 178.698 487.734 177.883 488.955 177.476C489.362 178.698 489.769 179.919 490.176 181.14C495.467 179.512 497.909 173.813 495.467 170.149C490.176 171.371 484.885 172.592 479.594 173.813C479.594 174.22 479.594 174.22 479.594 174.627C481.222 175.034 483.257 175.441 484.885 175.848C484.071 176.255 483.664 177.069 483.257 177.476C483.257 177.476 483.257 177.883 483.664 178.291Z" fill="white"/>
<path d="M417.323 164.45C417.73 164.043 417.73 164.043 417.73 164.043C418.137 163.229 418.544 162.415 418.544 161.601C420.579 156.309 424.242 155.088 428.719 157.938C431.568 159.566 434.01 161.601 436.859 163.636C439.708 165.265 442.557 166.893 447.441 166.486C444.185 163.636 441.743 161.194 439.301 158.752C444.185 161.194 450.697 160.38 453.953 166.079C453.953 164.857 453.953 164.043 453.953 163.229C453.953 162.008 453.546 160.38 455.581 160.38C457.616 160.38 458.023 161.601 458.43 163.229C458.43 164.043 458.43 165.265 458.837 166.893C459.651 164.45 460.465 163.229 460.872 162.415C464.942 161.194 468.198 159.973 472.268 158.752C469.826 162.008 465.349 162.008 463.314 166.486C464.942 166.486 466.57 167.3 467.791 166.893C470.233 166.079 472.675 164.857 475.117 163.636C478.78 162.008 482.036 159.566 485.292 157.938C489.362 155.902 491.804 157.123 493.432 161.601C493.839 162.822 494.246 164.043 494.653 165.264C497.095 163.636 497.095 162.008 496.688 160.38C495.06 153.867 490.583 150.203 484.885 146.54C486.106 146.54 486.513 146.54 487.327 146.133C488.141 145.726 488.955 145.319 489.769 144.912C489.362 144.098 488.955 142.876 488.141 142.469C487.327 142.062 486.106 141.655 485.292 141.655C483.664 142.062 481.629 142.876 480.001 143.691C473.896 146.54 468.605 151.018 463.721 155.495C462.907 156.309 461.686 157.123 460.465 157.53C455.581 159.566 451.511 157.938 447.441 155.495C443.371 153.46 439.708 151.425 434.824 149.389C438.894 148.982 443.371 151.425 447.848 155.088L448.255 154.681C443.371 149.389 437.673 144.912 431.161 142.469C427.905 141.248 425.056 142.062 422.207 144.912C423.428 145.726 424.242 146.54 425.056 147.354C422.614 150.203 420.172 152.646 418.137 155.088C416.102 157.123 415.695 159.973 415.695 162.822C414.881 163.229 415.288 164.45 417.323 164.45Z" fill="white"/>
<path d="M419.765 169.335C417.73 168.521 416.916 169.742 416.509 171.777C415.695 175.848 417.73 178.697 421.8 180.733C422.207 179.919 422.614 179.104 423.021 177.883C427.091 179.919 428.312 179.919 431.161 177.069C429.94 176.662 429.126 176.255 427.905 175.848C429.94 175.034 431.161 174.627 433.196 173.813C428.312 172.184 424.242 170.963 419.765 169.335Z" fill="white"/>
<path d="M530.876 400.136C525.992 402.171 522.736 405.021 521.515 410.312C520.701 413.569 518.666 416.825 517.038 420.082C516.631 421.303 515.817 422.117 515.003 423.745C520.701 422.931 527.62 419.675 532.911 416.418C536.574 413.976 538.609 410.312 538.609 405.835C539.016 398.101 537.795 397.286 530.876 400.136Z" fill="white"/>
<path d="M470.64 390.366C466.163 389.959 464.128 391.587 462.907 395.658C461.686 399.729 462.093 400.95 466.57 401.764C473.489 402.578 480.815 403.392 487.734 404.613C490.176 405.02 492.618 405.427 495.06 405.02C499.537 405.02 501.572 402.578 502.793 398.1C501.979 397.693 501.572 397.286 500.758 397.286C495.06 395.658 489.362 394.03 483.664 392.402C479.187 391.587 475.117 390.773 470.64 390.366Z" fill="white"/>
<path d="M600.066 527.951C604.95 529.986 611.055 527.544 616.346 530.8C613.09 524.694 603.729 523.473 600.066 527.951Z" fill="white"/>
<path d="M546.342 375.712C540.237 382.632 531.69 385.482 523.55 389.959C531.283 396.065 541.865 389.145 546.342 375.712Z" fill="white"/>
<path d="M524.364 444.098C519.48 446.133 516.631 449.796 513.782 454.274C508.084 464.043 501.979 473.406 494.653 481.954C502.386 477.069 510.119 472.185 517.445 466.893C519.887 465.265 522.329 462.822 524.364 460.787C531.283 454.681 531.69 446.947 530.876 438.399C528.841 440.841 526.806 442.877 524.364 444.098Z" fill="white"/>
<path d="M562.622 305.698C557.738 301.628 553.261 297.964 547.97 294.301C540.644 289.009 531.69 286.567 523.143 283.31C521.922 282.903 520.294 282.089 519.073 281.682C519.073 281.275 519.48 281.275 519.48 280.868C535.353 283.31 551.226 285.753 563.843 297.964C563.843 296.743 563.436 296.336 563.029 295.522C555.703 280.868 543.493 271.099 528.434 265.807C513.782 260.515 498.723 260.922 483.664 261.329C481.629 261.329 479.187 262.551 477.559 263.772C472.675 268.656 467.791 273.948 462.907 278.833C462.093 279.647 462.093 280.461 461.279 282.089C467.384 281.682 472.268 279.24 478.78 280.054C476.745 280.868 475.117 281.682 473.489 282.496C470.233 284.125 466.977 284.939 463.721 286.567C458.43 289.416 457.616 291.859 460.872 297.557L474.71 299.593C471.047 301.221 466.977 302.849 463.314 304.884C460.872 306.513 460.058 308.548 460.872 310.99C461.686 313.433 463.721 313.025 465.349 313.433C469.826 314.247 474.71 314.654 479.187 315.468C482.85 315.875 486.513 317.096 490.176 317.91C490.176 318.317 490.176 318.724 490.176 319.131C481.629 318.724 473.082 318.724 464.128 318.317C466.163 322.388 469.419 324.423 472.675 325.644C485.292 331.75 499.13 334.599 512.968 332.971C514.596 332.971 516.224 332.157 518.259 331.75C518.259 331.343 518.259 330.936 518.666 330.529C515.003 328.087 510.933 325.644 506.863 322.795C520.294 324.423 532.911 327.272 545.528 324.423C539.423 330.936 533.318 337.856 524.771 341.519C536.981 337.449 559.773 319.538 565.878 309.362C564.657 308.141 563.843 306.513 562.622 305.698ZM560.18 308.955C549.598 305.291 539.423 301.628 528.841 297.964C528.434 297.964 528.027 297.557 528.027 297.15C539.83 298.371 551.226 300.407 560.587 308.141C560.18 308.548 560.18 308.548 560.18 308.955Z" fill="white"/>
<path d="M621.637 247.49C620.009 246.268 617.974 245.861 615.939 245.454C604.95 243.419 594.368 240.977 583.379 238.941C578.088 237.72 572.797 236.906 567.506 237.72C565.471 238.127 563.436 238.534 562.215 240.57C565.064 241.384 567.913 242.198 570.762 243.012C555.296 244.64 541.458 250.339 527.62 256.852C538.202 260.922 545.935 268.657 554.482 274.762C563.029 281.275 573.611 284.532 583.379 288.602C577.681 280.868 569.948 275.576 562.622 269.878C574.018 274.762 585.821 277.612 595.182 286.567C592.74 277.205 587.449 269.471 581.344 261.737C584.193 262.551 586.635 264.179 589.077 265.4C598.845 271.099 606.171 279.647 611.869 289.416C612.276 286.974 612.276 284.532 612.276 282.089C612.683 273.134 609.834 264.993 603.729 258.48C599.659 253.595 595.182 249.118 590.705 244.64C589.891 243.826 589.484 243.012 589.077 242.605C601.287 247.49 607.799 257.259 614.311 267.842C620.823 278.019 624.893 289.416 624.486 302.035C625.707 291.452 628.149 281.275 627.742 270.692C627.335 262.551 624.079 256.038 617.567 251.56C616.753 250.746 615.939 250.339 615.125 249.525C619.602 249.932 622.858 251.56 625.707 254.817C629.37 258.887 631.405 263.772 633.033 268.657C635.475 277.205 637.103 285.753 637.103 295.115C641.173 284.532 641.173 274.762 635.882 265.4C636.289 265.4 636.289 264.993 636.696 264.993C641.58 269.471 646.464 273.948 651.755 278.426C651.348 276.391 650.534 275.169 649.313 273.541C641.58 262.144 631.812 254.817 621.637 247.49Z" fill="white"/>
<path d="M607.392 539.349C604.95 538.535 602.508 538.128 600.066 537.314C597.217 536.499 594.775 536.906 592.74 538.942C587.856 543.012 587.856 545.455 593.147 548.711C596.403 550.746 598.031 550.746 600.473 547.49C602.101 545.455 602.915 543.012 604.136 540.977C605.764 541.791 607.799 543.012 609.834 544.233C611.055 540.977 609.427 540.163 607.392 539.349Z" fill="white"/>
<path d="M554.075 417.232C551.633 418.046 551.226 419.674 551.226 421.71C551.226 431.479 551.226 440.841 551.226 450.61C551.226 451.832 551.633 453.053 552.447 453.867C555.703 459.973 558.552 465.672 561.808 471.777C562.215 472.591 562.622 473.813 563.436 475.034C564.657 473.813 565.878 473.406 566.692 472.591C574.018 466.893 581.344 466.486 589.077 472.184C590.298 472.999 591.519 474.22 593.147 474.22C599.659 473.813 606.171 474.22 609.834 466.486C612.276 461.194 615.939 456.309 618.381 452.239C615.125 448.575 612.276 445.726 610.241 442.876C603.322 433.107 602.508 422.524 605.357 411.126C606.578 405.834 608.613 400.543 610.241 394.844C601.287 393.623 593.554 389.959 586.635 383.446C585.007 386.296 583.786 389.145 582.158 391.587C575.239 403.392 566.285 412.347 554.075 417.232Z" fill="white"/>
<path d="M469.826 427.409C467.384 427.409 464.942 428.63 462.5 429.851C459.244 431.479 458.837 433.514 460.872 436.364C462.093 438.399 463.721 440.434 465.349 442.47C477.559 442.877 493.025 434.736 495.06 427.001C486.92 427.409 478.373 427.001 469.826 427.409Z" fill="white"/>
<path d="M482.85 195.793C480.815 196.608 479.594 197.422 477.559 198.643C477.966 197.015 478.373 196.201 479.187 195.386C485.292 187.245 484.071 187.245 479.594 181.547C479.187 181.139 479.187 180.732 479.187 180.325C477.966 179.511 476.745 178.29 475.524 177.476C470.64 175.848 466.163 175.441 460.872 177.476C458.837 178.29 455.174 178.29 453.139 177.476C447.441 174.22 442.15 175.848 436.859 178.29C430.754 181.547 429.533 189.281 434.417 194.572C435.231 195.793 436.045 197.015 437.266 198.236C436.045 198.236 435.638 197.829 434.824 197.422C432.382 195.386 431.568 195.386 429.94 197.829C426.684 201.492 424.242 205.563 424.649 210.855C424.649 213.297 424.649 215.739 425.056 218.182C425.463 224.694 430.347 229.579 437.266 230.393C436.452 228.765 436.045 227.137 435.231 225.509C434.824 223.88 434.417 221.845 434.01 220.624C436.045 219.403 437.673 218.182 439.301 217.367C439.301 216.96 438.894 216.96 438.894 216.553H431.568C449.476 212.483 466.977 212.076 484.478 215.332C482.443 220.624 480.408 225.509 478.373 231.207C486.92 229.172 490.583 224.694 490.583 217.367C490.583 216.146 490.583 214.518 490.583 213.297C489.769 205.97 488.141 200.271 482.85 195.793ZM475.524 186.838C473.082 190.095 468.198 191.316 463.721 189.688C467.384 187.245 471.047 184.803 475.117 181.954C477.152 183.175 476.745 185.21 475.524 186.838ZM458.837 185.617C458.837 185.21 459.244 184.396 459.651 183.989C461.686 182.361 464.128 180.732 466.57 179.104C468.198 177.883 470.233 179.104 470.233 181.547C469.826 181.954 469.419 183.175 468.605 183.989C466.57 185.617 464.128 187.245 461.279 188.466C460.465 188.874 459.244 188.874 458.837 188.466C458.837 187.652 458.837 186.431 458.837 185.617ZM444.185 179.104C445.406 177.476 447.034 177.476 448.255 178.697C450.697 180.732 453.139 182.768 455.581 185.21C456.395 186.024 455.988 187.245 456.395 188.466C455.988 188.874 455.581 188.874 455.174 189.281C451.918 187.245 448.255 185.617 444.592 183.582C443.371 182.768 442.964 180.732 444.185 179.104ZM438.894 181.954C442.964 184.396 446.627 186.838 450.697 189.688C447.441 191.316 441.743 190.502 439.708 188.466C437.673 186.431 437.673 184.803 438.894 181.954ZM485.292 210.447C482.443 210.447 479.187 210.04 476.338 209.633C462.5 207.598 448.662 207.598 434.824 210.855C433.196 211.262 431.161 211.262 429.126 210.855C427.905 210.855 427.091 210.04 425.87 209.226C432.789 208.005 439.301 207.191 446.22 205.97C456.395 204.342 466.57 205.563 476.338 207.191C480.001 208.005 484.071 208.005 487.734 208.412C487.327 210.04 487.327 210.447 485.292 210.447Z" fill="white"/>
<path d="M366.448 510.448C357.494 505.156 348.947 499.864 341.621 492.13C339.586 490.095 336.33 488.874 333.888 487.245C333.074 486.838 332.26 486.431 330.632 485.617C334.295 483.582 337.144 481.547 340.4 479.511C341.621 480.733 342.435 481.547 343.656 482.361C348.133 486.838 353.424 488.874 359.529 490.095C361.564 490.502 362.785 489.688 363.192 487.652C364.413 483.989 363.192 481.954 359.936 480.325C355.866 478.697 352.203 477.476 348.54 475.034C341.621 470.556 338.365 470.149 331.446 475.034C326.562 478.697 321.271 479.104 315.573 476.255C313.538 475.034 311.096 474.627 308.654 474.627C305.805 474.22 302.549 474.627 299.7 474.627C302.956 470.963 307.433 472.591 311.91 470.963C310.282 468.114 309.061 465.671 307.84 463.229C303.77 455.495 299.7 447.354 295.223 439.62C291.56 432.7 291.153 425.78 293.188 418.453C296.444 405.02 294.409 391.994 287.49 379.783C284.234 374.084 280.164 369.199 276.501 363.908C275.28 361.872 273.652 359.837 273.245 357.395C272.838 356.173 273.652 354.545 274.466 353.324C274.873 352.917 276.501 352.917 277.722 353.324C278.536 353.324 279.35 354.138 280.571 354.545C280.164 350.475 280.164 346.404 279.757 341.519C286.269 345.997 292.781 345.183 299.293 343.962C298.886 347.625 298.072 350.475 298.072 353.324C298.072 357.395 299.293 358.209 302.956 356.988C306.619 355.766 309.468 353.324 311.503 350.475C314.352 346.404 317.201 342.334 319.643 337.856C320.457 336.228 321.678 334.6 322.492 333.378C322.899 333.378 322.899 333.785 323.306 333.785C319.643 345.59 312.317 355.359 303.363 365.129C307.84 365.943 311.91 367.164 315.573 367.164C326.155 367.571 335.109 359.837 335.923 348.846C336.33 344.776 335.516 340.705 335.516 336.635C335.516 334.192 334.295 332.564 331.853 331.75C325.341 329.308 319.236 326.865 312.724 324.423C304.991 321.981 296.851 321.167 288.304 322.795C283.827 323.609 280.978 325.644 279.757 329.715C279.35 331.343 278.943 333.378 278.129 335.007C277.722 335.821 277.315 336.635 276.908 337.856C276.501 337.856 276.094 337.856 276.094 337.856C275.28 335.821 274.059 333.785 274.059 331.75C273.652 328.087 273.652 324.016 274.466 320.353C274.873 317.91 274.466 316.282 272.838 315.061C269.175 311.804 267.547 307.734 267.547 303.256C267.547 302.035 267.14 300.407 267.14 298.372C264.291 301.628 261.849 304.477 259.814 306.92C256.965 310.583 253.709 314.247 250.86 317.91C248.011 321.981 247.197 326.458 248.825 331.343C249.639 334.6 251.267 335.414 254.523 335.414C259.814 335.007 263.07 331.75 265.919 328.087C266.733 326.865 267.547 325.644 268.361 324.423C266.733 334.192 262.256 341.519 253.709 346.404C252.081 347.218 250.453 348.439 249.639 350.068C248.418 352.51 246.79 353.324 244.348 353.731C242.313 354.138 240.685 354.138 238.65 354.545C232.545 356.173 229.696 360.651 226.44 365.536C226.847 365.943 226.847 366.35 227.254 366.757C233.766 364.315 239.871 362.279 246.383 359.837C246.383 360.244 245.976 360.651 245.976 361.058C242.72 366.35 242.313 367.571 245.976 372.456C247.604 374.491 249.232 376.526 251.267 378.154C253.709 380.19 256.558 382.225 259 384.667C266.326 391.18 274.059 397.693 278.129 406.648C281.792 414.382 285.048 422.116 288.304 429.851C288.304 429.851 288.304 430.258 287.897 431.072C279.35 415.604 270.803 400.135 255.337 390.366C262.663 406.648 269.989 422.524 277.315 438.806C276.908 439.213 276.908 439.213 276.501 439.213C265.105 424.152 253.709 408.684 242.313 393.623C245.976 404.206 253.709 411.94 260.221 420.488L259.407 421.302C254.93 418.046 250.453 414.789 245.569 411.533C245.569 412.347 245.569 412.754 245.569 413.161C249.232 420.895 253.302 428.629 259.407 435.142C265.105 441.248 271.617 446.947 277.315 453.053C278.129 453.867 278.536 454.681 279.35 455.088L278.943 455.495C270.803 451.424 262.663 447.761 254.93 443.69C254.93 444.098 254.523 444.097 254.523 444.505C258.593 447.761 262.256 451.424 266.733 455.495C256.151 453.867 247.604 448.575 239.057 443.69C240.685 445.726 242.72 447.354 244.755 448.982C252.895 455.495 261.442 461.601 269.582 468.521C272.024 470.556 274.059 472.591 276.501 475.441C272.024 475.848 268.361 473.813 264.698 475.848C268.361 480.733 271.21 486.024 276.908 487.245C278.943 492.537 280.164 497.422 282.606 502.306C285.455 508.005 289.525 512.483 293.188 514.111C287.897 505.97 287.897 497.422 288.304 487.652C291.153 492.13 293.188 496.201 295.63 499.864C299.293 505.563 302.142 507.598 305.398 508.412C302.142 501.899 300.921 495.387 300.107 488.467C303.363 492.944 306.212 497.422 309.061 501.899C312.317 507.191 316.387 511.262 321.678 514.111C324.12 515.332 325.748 517.368 325.748 520.624C326.155 522.659 326.562 524.695 327.783 525.916C329.818 528.765 332.667 530.8 335.516 533.243C339.179 536.499 343.656 536.906 349.354 536.499C347.726 533.243 346.505 530.8 345.284 528.358C348.947 532.022 351.796 535.685 354.645 539.756C355.052 540.163 355.052 541.384 355.052 542.198C353.017 549.525 350.982 556.852 348.947 563.772C348.54 564.993 348.133 565.807 347.319 566.621L350.575 568.657C352.61 566.621 354.238 564.993 356.273 562.958C357.901 561.33 358.715 559.701 358.715 557.666C358.715 552.374 359.122 546.676 359.122 541.384C359.122 539.756 358.308 537.72 357.494 537.313C353.017 534.464 351.389 530.393 348.947 526.323C346.912 523.066 344.877 518.996 342.435 516.146C337.551 510.855 333.888 505.156 331.039 498.643C329.411 494.572 326.969 491.316 323.306 489.281C322.899 488.874 322.492 488.467 321.678 487.245C329.004 488.059 334.295 490.502 338.365 495.794C343.249 502.306 348.54 508.819 353.424 515.332C357.087 520.624 362.378 521.031 367.669 520.624C368.483 520.624 369.704 519.81 370.111 518.996C370.925 516.96 368.483 511.669 366.448 510.448ZM328.19 508.005C325.748 501.492 324.12 494.165 317.608 490.095C325.341 491.723 331.446 501.492 328.19 508.005ZM665.186 451.017C669.256 448.168 670.07 446.947 671.291 444.097C661.93 448.982 652.162 452.646 642.394 455.495C645.65 452.646 648.906 450.61 652.162 448.168C655.418 445.726 658.674 442.876 661.523 440.434C664.372 437.585 667.628 434.328 670.07 431.479C672.512 428.222 674.954 424.966 676.989 421.709C679.024 418.453 680.652 414.789 682.687 411.533C682.28 411.533 682.28 411.126 681.873 411.126C675.768 416.418 669.256 420.895 661.93 423.745C670.477 414.789 678.617 405.427 682.28 393.216C677.396 398.1 672.105 402.985 668.035 408.684C659.488 420.488 650.941 432.7 642.801 444.505C646.871 435.142 651.348 426.187 655.825 416.825C660.302 407.87 664.779 398.507 669.256 389.552C661.93 393.623 655.825 398.914 651.348 405.427C646.871 411.94 643.208 418.86 639.138 425.78C639.138 425.373 639.138 424.966 639.545 424.559C643.615 407.87 652.162 394.844 666.407 385.074C672.105 381.411 677.396 376.933 682.28 372.456C687.164 368.385 687.164 366.757 683.908 361.465C683.908 361.465 684.315 361.058 684.315 360.651C690.827 364.722 697.746 366.757 705.886 367.978C703.851 363.908 700.595 361.465 698.153 359.023C695.711 356.581 692.862 355.766 689.606 355.359C686.757 355.359 684.315 354.545 681.873 353.731C680.245 353.324 679.024 352.103 678.21 350.882C676.582 349.661 675.361 348.032 674.14 346.404C671.291 343.555 668.442 341.112 665.593 338.263C662.337 334.6 660.302 330.529 659.488 325.644C661.93 327.68 663.558 329.715 666 331.75C669.256 334.6 672.919 336.635 676.989 337.042C681.466 337.449 683.908 335.007 684.315 330.529C684.722 325.644 683.094 321.574 680.245 317.503C675.361 310.583 668.849 304.884 661.93 300C661.93 300 661.523 300 661.116 300.407C661.116 300.814 660.709 301.221 660.709 301.628C660.302 308.141 658.674 313.433 653.383 317.503C652.569 318.317 652.162 319.946 651.755 321.167C650.941 325.644 650.127 330.529 649.313 335.007C648.906 336.635 648.499 338.67 646.057 339.484C645.65 337.856 645.243 336.228 645.243 335.007C644.429 327.273 639.952 323.609 631.812 323.609C626.928 323.609 622.044 324.016 617.16 324.423C606.578 325.237 596.403 327.273 587.449 332.157C585.007 333.785 583.379 335.414 583.379 338.67C583.379 342.741 583.379 346.404 583.786 350.475C585.414 365.536 602.915 373.677 615.532 365.129C606.171 355.359 596.81 340.705 595.996 333.785C598.845 337.856 600.88 341.519 603.322 344.776C605.357 348.032 607.799 351.289 610.648 354.138C614.311 357.802 618.788 358.616 623.672 357.395C624.486 352.917 624.486 348.439 621.637 343.962C629.37 345.183 637.103 347.218 644.836 341.927C644.429 346.811 644.022 350.475 643.615 354.952C644.836 354.138 645.243 354.138 646.057 353.731C648.499 352.51 649.72 352.917 650.127 355.359C650.534 356.988 650.534 358.616 649.72 359.837C648.906 361.872 647.278 363.908 646.057 365.536C640.359 373.27 635.475 381.004 632.219 389.959C628.556 400.135 627.742 410.312 631.405 420.895C632.626 424.152 632.626 428.222 631.812 431.479C630.998 435.549 629.777 439.62 627.742 443.283C623.265 451.017 618.788 458.751 613.904 466.486C613.09 467.707 612.276 468.928 611.462 470.556C613.904 470.963 615.939 471.37 617.567 471.777C619.195 472.184 620.823 473.406 622.451 474.22C622.451 474.627 622.044 474.627 622.044 475.034C621.23 474.627 620.009 474.627 618.788 474.627C614.718 474.22 611.055 473.813 606.985 475.848C599.659 479.511 592.333 479.511 585.414 474.627C579.309 470.556 575.239 470.556 569.134 475.034C566.285 477.069 563.436 478.697 560.587 479.918C555.703 482.361 554.482 484.803 556.11 490.095C565.064 490.502 571.576 486.431 576.867 479.918C580.123 481.547 583.379 483.175 585.414 485.21C580.937 488.874 576.46 492.13 572.39 494.979C565.878 499.864 558.959 504.749 552.04 508.819C548.784 510.855 547.563 513.297 546.749 516.146C545.935 518.996 546.749 520.217 549.598 520.624C554.075 521.031 558.145 520.217 561.401 516.146C566.692 509.226 572.39 502.306 577.681 495.387C582.158 489.688 587.856 488.06 594.775 487.652C594.775 488.06 594.368 488.467 593.961 488.467C587.856 490.909 584.6 495.794 582.158 501.492C580.937 504.342 579.309 507.598 576.867 510.041C571.576 515.739 567.099 521.845 563.843 529.172C562.622 531.614 560.994 534.057 558.959 536.092C557.331 537.72 556.517 539.349 556.517 541.791C556.517 547.49 556.924 552.781 557.331 558.48C557.331 560.108 558.145 562.144 559.366 563.365C560.18 564.586 561.401 565.4 562.215 566.621L566.285 565.807C565.878 564.993 565.471 564.179 565.064 563.365C563.029 556.852 560.994 549.932 559.366 543.012C558.959 542.198 559.773 540.57 560.18 539.349C561.401 537.72 562.622 535.685 563.843 534.057C564.25 533.65 564.25 533.65 564.657 533.243C564.657 534.464 564.25 535.278 564.25 536.906C569.134 536.906 574.018 536.499 577.681 533.243C579.309 531.614 580.937 529.986 582.565 528.765C585.414 526.73 586.635 524.287 587.042 521.031C587.449 518.589 587.856 516.553 590.298 515.332C596.81 512.076 601.287 506.377 605.764 500.678C608.613 497.015 611.055 493.758 613.904 490.095C613.09 497.422 610.648 503.528 607.392 509.633C617.16 505.156 622.451 496.608 628.149 488.06C628.556 497.422 627.742 505.97 622.858 514.111C627.742 511.262 631.405 507.191 633.847 502.306C636.289 497.829 637.917 492.537 640.359 487.245C641.58 487.245 643.208 486.838 645.243 487.245C647.685 487.652 648.499 486.024 649.72 484.803C650.941 483.582 652.162 482.361 653.383 481.14C654.604 480.325 655.825 479.104 656.639 478.29C657.453 477.476 657.86 476.662 659.081 475.441C655.011 475.848 652.162 475.848 648.092 476.255C651.348 473.406 653.79 470.556 656.639 468.521C663.965 462.822 671.291 457.53 678.617 452.239C682.28 449.389 685.943 446.133 689.606 443.283C679.431 448.575 669.663 454.681 657.86 456.309C660.709 454.274 663.151 452.646 665.186 451.017ZM585.821 508.819C583.379 505.97 584.6 503.935 585.414 501.492C588.263 494.979 593.147 491.723 599.659 489.688C592.333 493.758 588.67 500.678 585.821 508.819ZM632.626 440.027C633.033 435.549 633.44 430.258 633.847 425.78C637.51 428.222 637.51 433.107 632.626 440.027ZM366.448 510.448C357.494 505.156 348.947 499.864 341.621 492.13C339.586 490.095 336.33 488.874 333.888 487.245C333.074 486.838 332.26 486.431 330.632 485.617C334.295 483.582 337.144 481.547 340.4 479.511C341.621 480.733 342.435 481.547 343.656 482.361C348.133 486.838 353.424 488.874 359.529 490.095C361.564 490.502 362.785 489.688 363.192 487.652C364.413 483.989 363.192 481.954 359.936 480.325C355.866 478.697 352.203 477.476 348.54 475.034C341.621 470.556 338.365 470.149 331.446 475.034C326.562 478.697 321.271 479.104 315.573 476.255C313.538 475.034 311.096 474.627 308.654 474.627C305.805 474.22 302.549 474.627 299.7 474.627C302.956 470.963 307.433 472.591 311.91 470.963C310.282 468.114 309.061 465.671 307.84 463.229C303.77 455.495 299.7 447.354 295.223 439.62C291.56 432.7 291.153 425.78 293.188 418.453C296.444 405.02 294.409 391.994 287.49 379.783C284.234 374.084 280.164 369.199 276.501 363.908C275.28 361.872 273.652 359.837 273.245 357.395C272.838 356.173 273.652 354.545 274.466 353.324C274.873 352.917 276.501 352.917 277.722 353.324C278.536 353.324 279.35 354.138 280.571 354.545C280.164 350.475 280.164 346.404 279.757 341.519C286.269 345.997 292.781 345.183 299.293 343.962C298.886 347.625 298.072 350.475 298.072 353.324C298.072 357.395 299.293 358.209 302.956 356.988C306.619 355.766 309.468 353.324 311.503 350.475C314.352 346.404 317.201 342.334 319.643 337.856C320.457 336.228 321.678 334.6 322.492 333.378C322.899 333.378 322.899 333.785 323.306 333.785C319.643 345.59 312.317 355.359 303.363 365.129C307.84 365.943 311.91 367.164 315.573 367.164C326.155 367.571 335.109 359.837 335.923 348.846C336.33 344.776 335.516 340.705 335.516 336.635C335.516 334.192 334.295 332.564 331.853 331.75C325.341 329.308 319.236 326.865 312.724 324.423C304.991 321.981 296.851 321.167 288.304 322.795C283.827 323.609 280.978 325.644 279.757 329.715C279.35 331.343 278.943 333.378 278.129 335.007C277.722 335.821 277.315 336.635 276.908 337.856C276.501 337.856 276.094 337.856 276.094 337.856C275.28 335.821 274.059 333.785 274.059 331.75C273.652 328.087 273.652 324.016 274.466 320.353C274.873 317.91 274.466 316.282 272.838 315.061C269.175 311.804 267.547 307.734 267.547 303.256C267.547 302.035 267.14 300.407 267.14 298.372C264.291 301.628 261.849 304.477 259.814 306.92C256.965 310.583 253.709 314.247 250.86 317.91C248.011 321.981 247.197 326.458 248.825 331.343C249.639 334.6 251.267 335.414 254.523 335.414C259.814 335.007 263.07 331.75 265.919 328.087C266.733 326.865 267.547 325.644 268.361 324.423C266.733 334.192 262.256 341.519 253.709 346.404C252.081 347.218 250.453 348.439 249.639 350.068C248.418 352.51 246.79 353.324 244.348 353.731C242.313 354.138 240.685 354.138 238.65 354.545C232.545 356.173 229.696 360.651 226.44 365.536C226.847 365.943 226.847 366.35 227.254 366.757C233.766 364.315 239.871 362.279 246.383 359.837C246.383 360.244 245.976 360.651 245.976 361.058C242.72 366.35 242.313 367.571 245.976 372.456C247.604 374.491 249.232 376.526 251.267 378.154C253.709 380.19 256.558 382.225 259 384.667C266.326 391.18 274.059 397.693 278.129 406.648C281.792 414.382 285.048 422.116 288.304 429.851C288.304 429.851 288.304 430.258 287.897 431.072C279.35 415.604 270.803 400.135 255.337 390.366C262.663 406.648 269.989 422.524 277.315 438.806C276.908 439.213 276.908 439.213 276.501 439.213C265.105 424.152 253.709 408.684 242.313 393.623C245.976 404.206 253.709 411.94 260.221 420.488L259.407 421.302C254.93 418.046 250.453 414.789 245.569 411.533C245.569 412.347 245.569 412.754 245.569 413.161C249.232 420.895 253.302 428.629 259.407 435.142C265.105 441.248 271.617 446.947 277.315 453.053C278.129 453.867 278.536 454.681 279.35 455.088L278.943 455.495C270.803 451.424 262.663 447.761 254.93 443.69C254.93 444.098 254.523 444.097 254.523 444.505C258.593 447.761 262.256 451.424 266.733 455.495C256.151 453.867 247.604 448.575 239.057 443.69C240.685 445.726 242.72 447.354 244.755 448.982C252.895 455.495 261.442 461.601 269.582 468.521C272.024 470.556 274.059 472.591 276.501 475.441C272.024 475.848 268.361 473.813 264.698 475.848C268.361 480.733 271.21 486.024 276.908 487.245C278.943 492.537 280.164 497.422 282.606 502.306C285.455 508.005 289.525 512.483 293.188 514.111C287.897 505.97 287.897 497.422 288.304 487.652C291.153 492.13 293.188 496.201 295.63 499.864C299.293 505.563 302.142 507.598 305.398 508.412C302.142 501.899 300.921 495.387 300.107 488.467C303.363 492.944 306.212 497.422 309.061 501.899C312.317 507.191 316.387 511.262 321.678 514.111C324.12 515.332 325.748 517.368 325.748 520.624C326.155 522.659 326.562 524.695 327.783 525.916C329.818 528.765 332.667 530.8 335.516 533.243C339.179 536.499 343.656 536.906 349.354 536.499C347.726 533.243 346.505 530.8 345.284 528.358C348.947 532.022 351.796 535.685 354.645 539.756C355.052 540.163 355.052 541.384 355.052 542.198C353.017 549.525 350.982 556.852 348.947 563.772C348.54 564.993 348.133 565.807 347.319 566.621L350.575 568.657C352.61 566.621 354.238 564.993 356.273 562.958C357.901 561.33 358.715 559.701 358.715 557.666C358.715 552.374 359.122 546.676 359.122 541.384C359.122 539.756 358.308 537.72 357.494 537.313C353.017 534.464 351.389 530.393 348.947 526.323C346.912 523.066 344.877 518.996 342.435 516.146C337.551 510.855 333.888 505.156 331.039 498.643C329.411 494.572 326.969 491.316 323.306 489.281C322.899 488.874 322.492 488.467 321.678 487.245C329.004 488.059 334.295 490.502 338.365 495.794C343.249 502.306 348.54 508.819 353.424 515.332C357.087 520.624 362.378 521.031 367.669 520.624C368.483 520.624 369.704 519.81 370.111 518.996C370.925 516.96 368.483 511.669 366.448 510.448ZM328.19 508.005C325.748 501.492 324.12 494.165 317.608 490.095C325.341 491.723 331.446 501.492 328.19 508.005ZM366.448 510.448C357.494 505.156 348.947 499.864 341.621 492.13C339.586 490.095 336.33 488.874 333.888 487.245C333.074 486.838 332.26 486.431 330.632 485.617C334.295 483.582 337.144 481.547 340.4 479.511C341.621 480.733 342.435 481.547 343.656 482.361C348.133 486.838 353.424 488.874 359.529 490.095C361.564 490.502 362.785 489.688 363.192 487.652C364.413 483.989 363.192 481.954 359.936 480.325C355.866 478.697 352.203 477.476 348.54 475.034C341.621 470.556 338.365 470.149 331.446 475.034C326.562 478.697 321.271 479.104 315.573 476.255C313.538 475.034 311.096 474.627 308.654 474.627C305.805 474.22 302.549 474.627 299.7 474.627C302.956 470.963 307.433 472.591 311.91 470.963C310.282 468.114 309.061 465.671 307.84 463.229C303.77 455.495 299.7 447.354 295.223 439.62C291.56 432.7 291.153 425.78 293.188 418.453C296.444 405.02 294.409 391.994 287.49 379.783C284.234 374.084 280.164 369.199 276.501 363.908C275.28 361.872 273.652 359.837 273.245 357.395C272.838 356.173 273.652 354.545 274.466 353.324C274.873 352.917 276.501 352.917 277.722 353.324C278.536 353.324 279.35 354.138 280.571 354.545C280.164 350.475 280.164 346.404 279.757 341.519C286.269 345.997 292.781 345.183 299.293 343.962C298.886 347.625 298.072 350.475 298.072 353.324C298.072 357.395 299.293 358.209 302.956 356.988C306.619 355.766 309.468 353.324 311.503 350.475C314.352 346.404 317.201 342.334 319.643 337.856C320.457 336.228 321.678 334.6 322.492 333.378C322.899 333.378 322.899 333.785 323.306 333.785C319.643 345.59 312.317 355.359 303.363 365.129C307.84 365.943 311.91 367.164 315.573 367.164C326.155 367.571 335.109 359.837 335.923 348.846C336.33 344.776 335.516 340.705 335.516 336.635C335.516 334.192 334.295 332.564 331.853 331.75C325.341 329.308 319.236 326.865 312.724 324.423C304.991 321.981 296.851 321.167 288.304 322.795C283.827 323.609 280.978 325.644 279.757 329.715C279.35 331.343 278.943 333.378 278.129 335.007C277.722 335.821 277.315 336.635 276.908 337.856C276.501 337.856 276.094 337.856 276.094 337.856C275.28 335.821 274.059 333.785 274.059 331.75C273.652 328.087 273.652 324.016 274.466 320.353C274.873 317.91 274.466 316.282 272.838 315.061C269.175 311.804 267.547 307.734 267.547 303.256C267.547 302.035 267.14 300.407 267.14 298.372C264.291 301.628 261.849 304.477 259.814 306.92C256.965 310.583 253.709 314.247 250.86 317.91C248.011 321.981 247.197 326.458 248.825 331.343C249.639 334.6 251.267 335.414 254.523 335.414C259.814 335.007 263.07 331.75 265.919 328.087C266.733 326.865 267.547 325.644 268.361 324.423C266.733 334.192 262.256 341.519 253.709 346.404C252.081 347.218 250.453 348.439 249.639 350.068C248.418 352.51 246.79 353.324 244.348 353.731C242.313 354.138 240.685 354.138 238.65 354.545C232.545 356.173 229.696 360.651 226.44 365.536C226.847 365.943 226.847 366.35 227.254 366.757C233.766 364.315 239.871 362.279 246.383 359.837C246.383 360.244 245.976 360.651 245.976 361.058C242.72 366.35 242.313 367.571 245.976 372.456C247.604 374.491 249.232 376.526 251.267 378.154C253.709 380.19 256.558 382.225 259 384.667C266.326 391.18 274.059 397.693 278.129 406.648C281.792 414.382 285.048 422.116 288.304 429.851C288.304 429.851 288.304 430.258 287.897 431.072C279.35 415.604 270.803 400.135 255.337 390.366C262.663 406.648 269.989 422.524 277.315 438.806C276.908 439.213 276.908 439.213 276.501 439.213C265.105 424.152 253.709 408.684 242.313 393.623C245.976 404.206 253.709 411.94 260.221 420.488L259.407 421.302C254.93 418.046 250.453 414.789 245.569 411.533C245.569 412.347 245.569 412.754 245.569 413.161C249.232 420.895 253.302 428.629 259.407 435.142C265.105 441.248 271.617 446.947 277.315 453.053C278.129 453.867 278.536 454.681 279.35 455.088L278.943 455.495C270.803 451.424 262.663 447.761 254.93 443.69C254.93 444.098 254.523 444.097 254.523 444.505C258.593 447.761 262.256 451.424 266.733 455.495C256.151 453.867 247.604 448.575 239.057 443.69C240.685 445.726 242.72 447.354 244.755 448.982C252.895 455.495 261.442 461.601 269.582 468.521C272.024 470.556 274.059 472.591 276.501 475.441C272.024 475.848 268.361 473.813 264.698 475.848C268.361 480.733 271.21 486.024 276.908 487.245C278.943 492.537 280.164 497.422 282.606 502.306C285.455 508.005 289.525 512.483 293.188 514.111C287.897 505.97 287.897 497.422 288.304 487.652C291.153 492.13 293.188 496.201 295.63 499.864C299.293 505.563 302.142 507.598 305.398 508.412C302.142 501.899 300.921 495.387 300.107 488.467C303.363 492.944 306.212 497.422 309.061 501.899C312.317 507.191 316.387 511.262 321.678 514.111C324.12 515.332 325.748 517.368 325.748 520.624C326.155 522.659 326.562 524.695 327.783 525.916C329.818 528.765 332.667 530.8 335.516 533.243C339.179 536.499 343.656 536.906 349.354 536.499C347.726 533.243 346.505 530.8 345.284 528.358C348.947 532.022 351.796 535.685 354.645 539.756C355.052 540.163 355.052 541.384 355.052 542.198C353.017 549.525 350.982 556.852 348.947 563.772C348.54 564.993 348.133 565.807 347.319 566.621L350.575 568.657C352.61 566.621 354.238 564.993 356.273 562.958C357.901 561.33 358.715 559.701 358.715 557.666C358.715 552.374 359.122 546.676 359.122 541.384C359.122 539.756 358.308 537.72 357.494 537.313C353.017 534.464 351.389 530.393 348.947 526.323C346.912 523.066 344.877 518.996 342.435 516.146C337.551 510.855 333.888 505.156 331.039 498.643C329.411 494.572 326.969 491.316 323.306 489.281C322.899 488.874 322.492 488.467 321.678 487.245C329.004 488.059 334.295 490.502 338.365 495.794C343.249 502.306 348.54 508.819 353.424 515.332C357.087 520.624 362.378 521.031 367.669 520.624C368.483 520.624 369.704 519.81 370.111 518.996C370.925 516.96 368.483 511.669 366.448 510.448ZM328.19 508.005C325.748 501.492 324.12 494.165 317.608 490.095C325.341 491.723 331.446 501.492 328.19 508.005Z" fill="white"/>
<path d="M698.153 378.562C696.932 388.738 702.223 396.065 707.107 404.206C709.549 401.764 708.735 398.914 708.328 395.251C710.363 397.693 711.584 399.321 713.212 400.95C713.212 400.95 713.619 400.95 713.619 400.543C713.212 398.914 712.805 397.693 711.991 396.065C709.549 391.18 707.514 386.296 705.072 381.411C703.444 378.155 703.037 377.747 698.153 378.562Z" fill="white"/>
<path d="M504.828 366.757C504.014 366.35 503.2 365.943 501.979 365.943C495.874 363.908 489.769 362.279 483.664 360.244C482.85 359.837 482.036 359.43 480.815 359.023C480.815 358.616 480.815 358.616 481.222 358.209C484.478 359.023 488.141 359.837 491.397 360.651C494.653 361.465 497.909 362.686 501.572 363.501C494.246 356.174 485.292 352.103 475.524 350.475C472.268 350.068 469.012 350.068 465.756 350.475C462.093 350.882 460.058 353.324 459.651 356.581C458.43 364.315 460.465 371.235 467.384 375.305C470.233 376.933 472.675 378.155 475.931 379.376C483.257 381.818 490.583 382.632 498.316 382.632C500.351 382.632 502.793 382.225 504.828 381.004C507.27 379.783 510.119 378.155 509.712 374.898C509.712 371.642 508.084 368.792 504.828 366.757ZM499.944 378.155C496.688 378.969 493.839 378.969 490.176 378.969C494.653 376.526 500.351 376.933 503.607 372.049C504.014 376.526 503.607 377.34 499.944 378.155Z" fill="white"/>
<path d="M105.968 128.222C105.968 132.293 104.747 135.549 101.898 138.399C99.0487 141.248 95.7926 142.469 91.7226 142.469C87.6526 142.469 84.3966 141.248 81.5476 138.399C78.6986 135.549 76.6636 131.479 75.8496 126.594L31.0796 136.771C31.8936 143.284 33.9286 149.796 37.1846 155.495C40.4406 161.194 44.5106 166.486 49.8016 170.963C54.6856 175.441 60.7906 179.104 67.7096 181.547C74.6286 183.989 81.9546 185.617 90.0946 185.617C99.8627 185.617 108.41 184.396 116.143 181.14C123.876 178.29 130.388 174.22 136.086 169.335C141.784 164.45 145.854 158.345 148.703 151.425C151.552 144.505 153.18 136.771 153.18 128.63V37.042H105.968V128.222Z" fill="white"/>
<path d="M260.221 122.116C260.221 128.222 258.186 133.107 254.523 136.77C250.86 140.434 245.976 142.469 240.278 142.469C234.173 142.469 229.289 140.434 225.626 136.77C221.963 133.107 219.928 128.222 219.928 122.116V36.6348H173.123V122.116C173.123 131.479 174.751 139.62 178.007 147.354C181.263 155.088 185.74 161.601 191.438 167.3C197.136 172.998 204.462 177.476 212.602 180.325C220.742 183.582 230.103 185.21 240.278 185.21C250.453 185.21 259.407 183.582 267.954 180.325C276.094 177.069 283.42 172.998 289.118 167.3C294.816 161.601 299.293 155.088 302.549 147.354C305.805 139.62 307.433 131.072 307.433 122.116V36.6348H260.221V122.116Z" fill="white"/>
<path d="M414.881 83.8533C416.916 80.1898 413.66 79.3757 418.544 76.5263L414.881 70.0134V83.8533Z" fill="white"/>
<path d="M414.881 61.0583L420.579 63.5006L432.789 68.7923L434.01 65.1288L443.371 67.5712L447.441 55.7666L453.953 45.9972L458.023 59.4301C459.244 59.8371 460.465 60.6512 461.686 61.4653V37.042H414.881V61.0583Z" fill="white"/>
<path d="M378.251 37.042H327.376V179.104H374.181V116.011H376.216L388.833 138.806C390.868 130.665 395.752 125.373 395.752 124.966C395.752 124.559 395.345 123.338 395.345 121.302L400.229 117.639L396.159 112.347L393.717 109.091C393.717 109.091 395.752 108.277 397.787 107.463C402.671 105.427 410.811 102.171 410.811 102.171L413.66 98.9144L409.59 93.6227L378.251 37.042Z" fill="white"/>
<path d="M552.854 134.328H575.239V136.364C573.611 137.585 571.576 138.399 569.541 139.62C567.506 140.434 565.471 141.248 563.029 141.655C560.587 142.062 558.145 142.469 554.889 142.469C550.819 142.469 546.749 141.655 543.086 139.62C539.016 137.585 535.76 135.142 532.504 131.886C529.248 128.629 526.806 124.966 525.178 120.895C523.55 116.825 522.329 112.347 522.329 107.87C522.329 103.392 523.143 98.9144 525.178 94.8438C527.213 90.7733 529.655 87.1098 532.504 83.8533C535.76 80.5969 539.016 78.1546 543.086 76.1193C547.156 74.084 550.819 73.2699 554.889 73.2699C558.552 73.2699 561.401 73.6769 564.25 74.4911C567.099 75.3052 569.134 76.1193 571.169 77.3405C573.204 78.5616 575.239 80.1898 576.867 81.8181C578.495 83.4463 580.123 85.4816 581.751 87.5168L628.556 81.411C626.521 74.8981 623.265 68.3852 619.195 62.2794C615.125 56.1736 610.241 50.8818 604.136 45.9972C598.031 41.1125 591.112 37.449 583.379 34.5996C575.646 31.7502 566.692 30.5291 557.331 30.5291C546.342 30.5291 535.76 32.5643 525.992 37.0419C516.224 41.5196 507.677 47.2183 500.351 54.1383C493.839 60.6512 486.513 71.2346 482.036 81.411C499.944 92.4015 509.305 111.533 510.119 113.161L523.143 123.745L520.701 127.408H523.957C523.957 127.408 523.143 135.142 520.294 138.399C520.294 138.806 520.294 138.806 520.701 139.213C535.76 148.168 533.725 165.264 532.097 171.37C538.609 175.848 545.935 181.14 550.819 184.396C553.261 184.803 555.703 184.803 558.145 184.803C568.32 184.803 578.088 182.768 587.042 178.29C595.996 174.22 604.136 168.521 611.055 161.601C617.974 154.681 623.265 146.947 627.335 138.399C631.405 129.851 633.44 120.488 633.44 111.533V99.3214H554.075V134.328H552.854Z" fill="white"/>
<path d="M690.827 37.042H644.022V179.104H760.017V136.364H690.827V37.042Z" fill="white"/>
<path d="M893.921 77.3405V37.042H772.227V179.104H893.921V138.399H819.032V126.187H877.64V89.5522H819.032V77.3405H893.921Z" fill="white"/>
</g>
</svg>
