<svg width="422" height="317" fill="none" xmlns="http://www.w3.org/2000/svg"><path d="M.092 121.64v152.938c0 23.116 94.323 41.864 210.608 41.864 116.285 0 210.608-18.748 210.608-41.864V121.64H.092z" fill="url(#paint0_linear_35_465)"/><path d="M210.7 161.531c116.316 0 210.608-18.302 210.608-40.878S327.016 79.776 210.7 79.776C94.385 79.776.092 98.077.092 120.653c0 22.576 94.293 40.878 210.608 40.878z" fill="#F6F7F7"/><path d="M418.352 119.385c0 20.156-92.916 36.366-207.511 36.366-114.596 0-207.651-16.21-207.651-36.366 0-20.157 92.915-42.005 207.51-42.005 114.596 0 207.652 21.989 207.652 42.005z" fill="#BD5143"/><path d="M209.996 154.906c97.655 0 176.821-16.408 176.821-36.649 0-20.24-79.166-36.649-176.821-36.649s-176.82 16.409-176.82 36.649c0 20.241 79.165 36.649 176.82 36.649z" fill="#BF6C66"/><path d="M33.176 28.468v87.957c0 15.364 79.118 27.768 176.82 27.768s176.821-12.404 176.821-27.768V28.468H33.176z" fill="url(#paint1_linear_35_465)"/><path d="M209.996 56.236c97.655 0 176.821-12.432 176.821-27.768S307.651.699 209.996.699 33.176 13.132 33.176 28.468c0 15.336 79.165 27.768 176.82 27.768z" fill="#F6F7F7"/><defs><linearGradient id="paint0_linear_35_465" x1=".06" y1="219.012" x2="421.382" y2="219.012" gradientUnits="userSpaceOnUse"><stop stop-color="#BFBEBF"/><stop offset=".129" stop-color="#D0D1D2"/><stop offset=".489" stop-color="#F3F3F3"/><stop offset=".86" stop-color="#E0E1E0"/><stop offset="1" stop-color="#CBCBCB"/></linearGradient><linearGradient id="paint1_linear_35_465" x1="33.187" y1="86.331" x2="386.876" y2="86.331" gradientUnits="userSpaceOnUse"><stop stop-color="#BFBEBF"/><stop offset=".129" stop-color="#D0D1D2"/><stop offset=".489" stop-color="#F3F3F3"/><stop offset=".899" stop-color="#E0E1E0"/><stop offset="1" stop-color="#CBCBCB"/></linearGradient></defs></svg>