<svg width="454" height="341" fill="none" xmlns="http://www.w3.org/2000/svg"><path d="M0 130.813V295.48c0 24.89 101.537 45.075 226.715 45.075 125.179 0 226.716-20.185 226.716-45.075V130.813H0z" fill="url(#paint0_linear_19_550)"/><path d="M226.715 173.763c125.212 0 226.716-19.705 226.716-44.012 0-24.308-101.504-44.013-226.716-44.013C101.504 85.738 0 105.443 0 129.751c0 24.307 101.504 44.012 226.715 44.012z" fill="#F6F7F7"/><path d="M450.248 128.385c0 21.702-100.021 39.156-223.381 39.156S3.334 150.087 3.334 128.385c0-21.703 100.022-45.227 223.381-45.227 123.36 0 223.533 23.676 223.533 45.227z" fill="#BD5143"/><path d="M225.958 166.63c105.124 0 190.344-17.667 190.344-39.46 0-21.792-85.22-39.459-190.344-39.459S35.614 105.378 35.614 127.17c0 21.793 85.22 39.46 190.344 39.46z" fill="#BF6C66"/><path d="M35.614 30.495v94.703c0 16.542 85.17 29.898 190.344 29.898 105.174 0 190.344-13.356 190.344-29.898V30.495H35.614z" fill="url(#paint1_linear_19_550)"/><path d="M225.958 60.393c105.124 0 190.344-13.386 190.344-29.898 0-16.513-85.22-29.898-190.344-29.898S35.614 13.983 35.614 30.495s85.22 29.898 190.344 29.898z" fill="#F6F7F7"/><defs><linearGradient id="paint0_linear_19_550" x1="-.035" y1="235.653" x2="453.511" y2="235.653" gradientUnits="userSpaceOnUse"><stop stop-color="#BFBEBF"/><stop offset=".129" stop-color="#D0D1D2"/><stop offset=".489" stop-color="#F3F3F3"/><stop offset=".86" stop-color="#E0E1E0"/><stop offset="1" stop-color="#CBCBCB"/></linearGradient><linearGradient id="paint1_linear_19_550" x1="35.626" y1="92.796" x2="416.366" y2="92.796" gradientUnits="userSpaceOnUse"><stop stop-color="#BFBEBF"/><stop offset=".129" stop-color="#D0D1D2"/><stop offset=".489" stop-color="#F3F3F3"/><stop offset=".899" stop-color="#E0E1E0"/><stop offset="1" stop-color="#CBCBCB"/></linearGradient></defs></svg>